<?xml version="1.0" standalone="no"?>
<!DOCTYPE svg PUBLIC "-//W3C//DTD SVG 1.1//EN" "http://www.w3.org/Graphics/SVG/1.1/DTD/svg11.dtd" >
<svg xmlns="http://www.w3.org/2000/svg" xmlns:xlink="http://www.w3.org/1999/xlink" version="1.1">
<metadata>
Created by FontForge 20170731 at Wed Mar 24 13:20:33 2021
 By Aleksey,,,
Core Sans D 35 Regular
</metadata>
<defs>
<font id="CoreSansD35Regular" horiz-adv-x="733" >
  <font-face 
    font-family="Core Sans D 35 Regular"
    font-weight="400"
    font-stretch="normal"
    units-per-em="2048"
    panose-1="2 11 5 3 3 3 2 2 2 4"
    ascent="1638"
    descent="-410"
    x-height="1024"
    cap-height="1434"
    bbox="-776 -475 2150 2038"
    underline-thickness="49"
    underline-position="-472"
    unicode-range="U+0008-FB04"
  />
<missing-glyph horiz-adv-x="1024" 
d="M881 0h-738v1536h738v-1536zM297 133h430v1270h-430v-1270z" />
    <glyph glyph-name="f_f" unicode="ff" horiz-adv-x="1280" 
d="M571 1458q82 0 140 -20l-21 -135q-44 16 -112 16q-112 0 -151.5 -49t-39.5 -183v-63h430v63q0 109 19 180t63.5 114t110 60t166.5 17h59v-137h-72q-115 0 -153.5 -48.5t-38.5 -180.5v-68h264v-137h-264v-887h-154v887h-430v-887h-154v887h-157v137h157v63
q0 200 79.5 285.5t258.5 85.5z" />
    <glyph glyph-name="f_i" unicode="fi" horiz-adv-x="1122" 
d="M817 1270v188h154v-188h-154zM387 1024h584v-1024h-154v887h-430v-887h-154v887h-157v137h157v63q0 109 19 180t63.5 114t110 60t166.5 17h59v-137h-71q-115 0 -154 -48.5t-39 -180.5v-68z" />
    <glyph glyph-name="f_l" unicode="fl" horiz-adv-x="1193" 
d="M1139 137v-137h-41q-291 0 -291 295v979q-98 45 -223 45q-116 0 -156.5 -46t-40.5 -173v-76h264v-137h-264v-887h-154v887h-157v137h157v63q0 205 78.5 288t259.5 83q136 0 236 -51v51h154v-1147q0 -83 36 -128.5t105 -45.5h37z" />
    <glyph glyph-name="f_f_i" unicode="ffi" horiz-adv-x="1705" 
d="M971 1024h583v-1024h-153v887h-430v-887h-154v887h-430v-887h-154v887h-157v137h157v63q0 200 79.5 285.5t258.5 85.5q82 0 140 -20l-21 -135q-44 16 -112 16q-112 0 -151.5 -49t-39.5 -183v-63h430v63q0 109 19 180t63.5 114t110 60t166.5 17h59v-137h-72
q-115 0 -153.5 -48.5t-38.5 -180.5v-68zM1401 1270v188h153v-188h-153z" />
    <glyph glyph-name="f_f_l" unicode="ffl" horiz-adv-x="1777" 
d="M1722 137v-137h-41q-290 0 -290 295v979q-98 45 -224 45q-116 0 -156 -46t-40 -173v-76h264v-137h-264v-887h-154v887h-430v-887h-154v887h-157v137h157v63q0 200 79.5 285.5t258.5 85.5q82 0 140 -20l-21 -135q-44 16 -112 16q-112 0 -151.5 -49t-39.5 -183v-63h430v63
q0 205 78.5 288t259.5 83q136 0 236 -51v51h153v-1147q0 -83 36 -128.5t106 -45.5h36z" />
    <glyph glyph-name=".notdef" horiz-adv-x="1024" 
d="M881 0h-738v1536h738v-1536zM297 133h430v1270h-430v-1270z" />
    <glyph glyph-name=".null" horiz-adv-x="0" 
 />
    <glyph glyph-name=".null" horiz-adv-x="0" 
 />
    <glyph glyph-name=".null" horiz-adv-x="0" 
 />
    <glyph glyph-name="nonmarkingreturn" horiz-adv-x="682" 
 />
    <glyph glyph-name="CR" unicode="&#x9;" horiz-adv-x="485" 
 />
    <glyph glyph-name="CR" unicode="&#xd;" horiz-adv-x="485" 
 />
    <glyph glyph-name="space" unicode=" " horiz-adv-x="532" 
 />
    <glyph glyph-name="exclam" unicode="!" horiz-adv-x="546" 
d="M350 1434v-211l-26 -820h-101l-26 820v211h153zM350 193v-193h-153v193h153z" />
    <glyph glyph-name="quotedbl" unicode="&#x22;" horiz-adv-x="792" 
d="M188 1051l-20 383h139l-20 -383h-99zM496 1051l-21 383h139l-20 -383h-98z" />
    <glyph glyph-name="numbersign" unicode="#" horiz-adv-x="1394" 
d="M1309 907h-238l-82 -381h250v-137h-281l-84 -389h-153l84 389h-359l-84 -389h-155l84 389h-205v137h236l81 381h-247v137h278l86 390h154l-84 -390h358l84 390h156l-86 -390h207v-137zM559 907l-82 -381h359l82 381h-359z" />
    <glyph glyph-name="dollar" unicode="$" horiz-adv-x="1173" 
d="M539 -178v160q-173 19 -290.5 123.5t-162.5 273.5l166 31q33 -117 106 -190t181 -93v539l-19 4q-203 38 -299 134.5t-96 264.5q0 72 26 138.5t75.5 121.5t130.5 90t182 39v154h129v-162q150 -26 250.5 -123t134.5 -246l-164 -30q-52 201 -221 247v-505
q210 -38 313.5 -140.5t103.5 -273.5q0 -167 -108 -278t-309 -124v-155h-129zM924 379q0 104 -62 167.5t-194 94.5v-518q120 13 188 82t68 174zM287 1069q0 -102 60.5 -165t191.5 -89v496q-119 -7 -185.5 -76.5t-66.5 -165.5z" />
    <glyph glyph-name="percent" unicode="%" horiz-adv-x="1626" 
d="M1032 1434h133l-571 -1434h-133zM123 991v176q0 124 72.5 207.5t199.5 83.5t200 -83.5t73 -207.5v-176q0 -124 -73 -207.5t-200 -83.5t-199.5 83.5t-72.5 207.5zM254 1149v-139q0 -94 37 -142.5t104 -48.5t104.5 48.5t37.5 142.5v139q0 94 -37.5 142t-104.5 48t-104 -48
t-37 -142zM1503 442v-176q0 -124 -72.5 -207.5t-199.5 -83.5t-200 83.5t-73 207.5v176q0 124 73 207.5t200 83.5t199.5 -83.5t72.5 -207.5zM1372 285v139q0 94 -37 142t-104 48t-104 -48t-37 -142v-139q0 -94 37 -142.5t104 -48.5t104 48.5t37 142.5z" />
    <glyph glyph-name="ampersand" unicode="&#x26;" horiz-adv-x="1337" 
d="M1325 0h-182l-133 156q-167 -181 -428 -181q-200 0 -320.5 108.5t-120.5 274.5q0 106 54 201t186 201l63 51q-103 121 -140.5 200t-37.5 160q0 120 85.5 202.5t221.5 82.5q134 0 217.5 -81.5t83.5 -203.5q0 -193 -227 -372l344 -406q76 161 76 357l145 -9
q0 -273 -118 -471zM584 115q198 0 327 155l-376 441l-25 -21q-127 -100 -173 -169.5t-46 -158.5q0 -113 79 -180t214 -67zM416 1163q0 -54 31.5 -112t109.5 -152q168 132 168 264q0 67 -43.5 110.5t-110.5 43.5q-70 0 -112.5 -42.5t-42.5 -111.5z" />
    <glyph glyph-name="quotesingle" unicode="'" horiz-adv-x="475" 
d="M188 1051l-20 383h139l-20 -383h-99z" />
    <glyph glyph-name="parenleft" unicode="(" horiz-adv-x="675" 
d="M356 1102v-789q0 -302 197 -393l-45 -141q-147 59 -225 187t-78 319v845q0 191 78 319t225 187l45 -141q-197 -91 -197 -393z" />
    <glyph glyph-name="parenright" unicode=")" horiz-adv-x="675" 
d="M319 313v789q0 302 -196 393l45 141q147 -59 225 -187t78 -319v-845q0 -191 -78 -319t-225 -187l-45 141q196 91 196 393z" />
    <glyph glyph-name="asterisk" unicode="*" horiz-adv-x="1046" 
d="M100 831l70 121l295 -184l-12 348h141l-12 -348l295 184l69 -121l-307 -163l307 -164l-69 -121l-295 182l12 -346h-141l12 346l-295 -182l-70 121l306 164z" />
    <glyph glyph-name="plus" unicode="+" horiz-adv-x="1064" 
d="M463 217v387h-359v125h359v387h139v-387h359v-125h-359v-387h-139z" />
    <glyph glyph-name="comma" unicode="," horiz-adv-x="536" 
d="M356 201v-195q0 -100 -41.5 -153t-134.5 -66v76q50 10 73 39.5t23 97.5h-96v201h176z" />
    <glyph glyph-name="hyphen" unicode="-" horiz-adv-x="817" 
d="M713 598h-609v137h609v-137z" />
    <glyph glyph-name="period" unicode="." horiz-adv-x="536" 
d="M356 201v-201h-176v201h176z" />
    <glyph glyph-name="slash" unicode="/" horiz-adv-x="800" 
d="M801 1604l-639 -1794h-162l639 1794h162z" />
    <glyph glyph-name="zero" unicode="0" horiz-adv-x="1073" 
d="M967 965v-496q0 -234 -117 -364t-313 -130t-313.5 130t-117.5 364v496q0 233 117.5 363t313.5 130t313 -129.5t117 -363.5zM811 489v455q0 196 -74 285.5t-200 89.5t-200.5 -89.5t-74.5 -285.5v-455q0 -196 74.5 -285t200.5 -89t200 89t74 285z" />
    <glyph glyph-name="one" unicode="1" horiz-adv-x="1073" 
d="M207 0v139h303v1131l-303 -135v149l317 150h142v-1295h299v-139h-758z" />
    <glyph glyph-name="two" unicode="2" horiz-adv-x="1073" 
d="M537 1319q-117 0 -192 -74t-75 -203v-34l-155 12v24q0 177 116 295.5t306 118.5q186 0 303.5 -119t117.5 -295q0 -100 -35.5 -179t-111.5 -165l-496 -561h643v-139h-845v125l589 668q56 63 78.5 120.5t22.5 128.5q0 129 -75 203t-191 74z" />
    <glyph glyph-name="three" unicode="3" horiz-adv-x="1073" 
d="M262 444v-12q0 -156 77.5 -236.5t197.5 -80.5t196 80t76 237q0 162 -71 233.5t-191 71.5q-58 0 -113 -20l-90 102l381 475h-575v140h761v-134l-354 -444q12 2 35 2q161 0 267 -111t106 -317q0 -208 -115.5 -331.5t-312.5 -123.5q-196 0 -313.5 126.5t-117.5 330.5z" />
    <glyph glyph-name="four" unicode="4" horiz-adv-x="1073" 
d="M993 461v-142h-162v-319h-155v319h-598v140l586 975h167v-973h162zM250 461h426v710z" />
    <glyph glyph-name="five" unicode="5" horiz-adv-x="1073" 
d="M113 432l155 12v-10q0 -152 75 -235.5t198 -83.5q126 0 200 86.5t74 251.5q0 170 -73.5 254t-194.5 84q-63 0 -119.5 -27.5t-91.5 -75.5h-156v746h717v-140h-561v-458q91 94 235 94q180 0 290 -123.5t110 -353.5q0 -228 -116.5 -353t-313.5 -125q-193 0 -310.5 121.5
t-117.5 335.5z" />
    <glyph glyph-name="six" unicode="6" horiz-adv-x="1073" 
d="M100 420q0 119 52 217l405 797h168l-307 -603q47 29 123 29q194 0 317 -127.5t123 -314.5t-123 -315t-317 -128q-130 0 -231.5 60t-155.5 161t-54 224zM256 418q0 -132 79.5 -217.5t205.5 -85.5q124 0 204 85.5t80 217.5q0 133 -79.5 218t-204.5 85q-126 0 -205.5 -84.5
t-79.5 -218.5z" />
    <glyph glyph-name="seven" unicode="7" horiz-adv-x="1073" 
d="M121 1292v142h833v-125l-485 -1309h-160l479 1292h-667z" />
    <glyph glyph-name="eight" unicode="8" horiz-adv-x="1073" 
d="M537 -25q-195 0 -318 129t-123 316q0 125 62.5 228.5t171.5 148.5q-82 39 -130 119.5t-48 173.5q0 155 108.5 261.5t276.5 106.5t276.5 -106.5t108.5 -261.5q0 -93 -48.5 -173.5t-130.5 -119.5q109 -45 171.5 -148.5t62.5 -228.5q0 -187 -122.5 -316t-317.5 -129z
M537 725q-125 0 -205 -88.5t-80 -218.5t79.5 -217.5t205.5 -87.5q125 0 204.5 87.5t79.5 217.5t-79.5 218.5t-204.5 88.5zM537 862q99 0 164 65t65 163q0 99 -65 164t-164 65t-164.5 -65.5t-65.5 -163.5t65 -163t165 -65z" />
    <glyph glyph-name="nine" unicode="9" horiz-adv-x="1073" 
d="M973 1014q0 -121 -51 -217l-406 -797h-168l307 602q-47 -29 -123 -29q-194 0 -317 128t-123 315t123 314.5t317 127.5q196 0 318.5 -128t122.5 -316zM817 1016q0 132 -79.5 217.5t-205.5 85.5q-124 0 -204 -85.5t-80 -217.5q0 -133 79.5 -218t204.5 -85q126 0 205.5 84.5
t79.5 218.5z" />
    <glyph glyph-name="colon" unicode=":" horiz-adv-x="536" 
d="M356 201v-201h-176v201h176zM356 1124v-200h-176v200h176z" />
    <glyph glyph-name="semicolon" unicode=";" horiz-adv-x="536" 
d="M356 1124v-200h-176v200h176zM356 201v-195q0 -100 -41.5 -153t-134.5 -66v76q50 10 73 39.5t23 97.5h-96v201h176z" />
    <glyph glyph-name="less" unicode="&#x3c;" horiz-adv-x="1064" 
d="M123 733l819 385v-139l-672 -311l672 -312v-139l-819 385v131z" />
    <glyph glyph-name="equal" unicode="=" horiz-adv-x="1064" 
d="M961 799h-857v125h857v-125zM961 410h-857v125h857v-125z" />
    <glyph glyph-name="greater" unicode="&#x3e;" horiz-adv-x="1064" 
d="M125 1118l819 -385v-131l-819 -385v139l672 312l-672 311v139z" />
    <glyph glyph-name="question" unicode="?" horiz-adv-x="1040" 
d="M580 193v-193h-154v193h154zM580 371h-154v63q0 102 40.5 177.5t145.5 168.5q80 71 112 133.5t32 143.5q0 125 -66.5 194.5t-177.5 69.5q-106 0 -173.5 -66.5t-82.5 -193.5l-154 14q19 172 128.5 277.5t283.5 105.5q177 0 286 -109.5t109 -287.5q0 -113 -44 -196
t-134 -165q-84 -78 -117.5 -136.5t-33.5 -143.5v-49z" />
    <glyph glyph-name="at" unicode="@" horiz-adv-x="1515" 
d="M989 154q110 0 174 87t64 248v177q-37 77 -101 119t-145 42q-128 0 -192 -82t-64 -227v-55q0 -146 64.5 -227.5t199.5 -81.5zM1362 899v-387q0 -240 -100.5 -368t-296.5 -128q-124 0 -215 56.5t-135 149.5t-44 210v117q0 181 97.5 298.5t273.5 117.5q95 0 170 -36
t115 -95v32q0 202 -136 331.5t-333 129.5t-333 -129.5t-136 -331.5v-663q0 -133 63.5 -238.5t170 -163t235.5 -57.5q115 0 196 47l66 -113q-113 -65 -262 -65q-121 0 -232.5 44t-193 118.5t-130 177.5t-48.5 217v729q0 114 48.5 218t130 178.5t193 118.5t232.5 44
q120 0 231.5 -44t193 -118.5t130.5 -178.5t49 -218z" />
    <glyph glyph-name="A" unicode="A" horiz-adv-x="1167" 
d="M504 1434h160l491 -1434h-174l-117 354h-563l-115 -354h-174zM584 1217l-236 -717h469z" />
    <glyph glyph-name="B" unicode="B" horiz-adv-x="1181" 
d="M653 0h-501v1434h454q87 0 164 -22t141.5 -66.5t102 -120.5t37.5 -176q0 -115 -52.5 -192t-146.5 -112q110 -35 176 -123.5t66 -218.5q0 -102 -35.5 -181t-97 -126.5t-139.5 -71.5t-169 -24zM932 406q0 126 -80.5 193t-220.5 67h-318v-521h314q148 0 226.5 66t78.5 195z
M313 811h281q139 0 217 59t78 179q0 239 -309 239h-267v-477z" />
    <glyph glyph-name="C" unicode="C" horiz-adv-x="1193" 
d="M608 1313q-155 0 -246.5 -118t-91.5 -327v-303q0 -209 91.5 -326.5t246.5 -117.5q133 0 220.5 83t115.5 240l160 -26q-29 -204 -162 -323.5t-334 -119.5q-227 0 -363 156.5t-136 409.5v352q0 253 136 409t363 156q201 0 334 -120t162 -324l-160 -27q-28 158 -115.5 242
t-220.5 84z" />
    <glyph glyph-name="D" unicode="D" horiz-adv-x="1210" 
d="M930 565v303q0 206 -95.5 313t-256.5 107h-265v-1143h265q161 0 256.5 107t95.5 313zM1092 893v-352q0 -251 -137 -396t-365 -145h-438v1434h438q228 0 365 -145t137 -396z" />
    <glyph glyph-name="E" unicode="E" horiz-adv-x="1103" 
d="M1004 0h-852v1434h852v-146h-691v-477h609v-145h-609v-521h691v-145z" />
    <glyph glyph-name="F" unicode="F" horiz-adv-x="1075" 
d="M313 0h-161v1434h852v-146h-691v-497h629v-146h-629v-645z" />
    <glyph glyph-name="G" unicode="G" horiz-adv-x="1214" 
d="M270 868v-303q0 -209 91.5 -326.5t250.5 -117.5q158 0 249 119t91 315v41h-336v145h498v-198q0 -253 -135 -410.5t-367 -157.5q-231 0 -367 156.5t-136 409.5v352q0 253 136 409t363 156q201 0 334 -120t162 -324l-160 -27q-28 158 -115.5 242t-220.5 84
q-155 0 -246.5 -118t-91.5 -327z" />
    <glyph glyph-name="H" unicode="H" horiz-adv-x="1259" 
d="M946 0v664h-633v-664h-161v1434h161v-625h633v625h162v-1434h-162z" />
    <glyph glyph-name="I" unicode="I" horiz-adv-x="464" 
d="M313 1434v-1434h-161v1434h161z" />
    <glyph glyph-name="J" unicode="J" horiz-adv-x="1032" 
d="M739 461v973h162v-998q0 -226 -117 -343.5t-313 -117.5q-159 0 -271.5 90t-154.5 259l162 26q24 -84 69 -137t92.5 -72.5t102.5 -19.5q57 0 103.5 17.5t84.5 56t59 106t21 160.5z" />
    <glyph glyph-name="K" unicode="K" horiz-adv-x="1179" 
d="M989 0l-428 700l-248 -159v-541h-161v1434h161v-709l234 149q106 68 174 131.5t103 131t47 131t12 151.5v15h159v-15q0 -106 -15.5 -188.5t-55 -161.5t-109 -149t-174.5 -138l483 -782h-182z" />
    <glyph glyph-name="L" unicode="L" horiz-adv-x="1036" 
d="M1004 145v-145h-852v1434h161v-1289h691z" />
    <glyph glyph-name="M" unicode="M" horiz-adv-x="1540" 
d="M838 393h-136l-389 707v-1100h-161v1434h143l475 -863l475 863h144v-1434h-162v1100z" />
    <glyph glyph-name="N" unicode="N" horiz-adv-x="1318" 
d="M152 1434h153l701 -1137v1137h161v-1434h-153l-701 1137v-1137h-161v1434z" />
    <glyph glyph-name="O" unicode="O" horiz-adv-x="1216" 
d="M1108 893v-352q0 -253 -136.5 -409.5t-363.5 -156.5t-363 156.5t-136 409.5v352q0 253 136 409t363 156t363.5 -156.5t136.5 -408.5zM946 565v303q0 209 -91.5 327t-246.5 118t-246.5 -118t-91.5 -327v-303q0 -209 91.5 -326.5t246.5 -117.5t246.5 117.5t91.5 326.5z" />
    <glyph glyph-name="P" unicode="P" horiz-adv-x="1183" 
d="M649 582h-336v-582h-161v1434h497q86 0 164.5 -26.5t142.5 -77.5t102 -134.5t38 -187.5q0 -105 -38 -188.5t-102 -134t-142.5 -77t-164.5 -26.5zM934 1008q0 136 -85.5 208t-223.5 72h-312v-561h312q138 0 223.5 72.5t85.5 208.5z" />
    <glyph glyph-name="Q" unicode="Q" horiz-adv-x="1216" 
d="M1014 190l162 -137l-89 -102l-161 137q-132 -113 -318 -113q-225 0 -362 157t-137 409v352q0 252 137 408.5t362 156.5t362.5 -156.5t137.5 -408.5v-352q0 -204 -94 -351zM946 565v303q0 209 -91 327t-247 118t-247 -118t-91 -327v-303q0 -209 90.5 -326.5t247.5 -117.5
q120 0 199 67l-160 136l88 102l156 -131q55 110 55 270z" />
    <glyph glyph-name="R" unicode="R" horiz-adv-x="1193" 
d="M627 602h-314v-602h-161v1434h497q86 0 164.5 -26t142.5 -76t102 -131t38 -183q0 -158 -85 -259.5t-220 -137.5l358 -621h-176zM313 748h312q138 0 223.5 70t85.5 200t-85.5 200t-223.5 70h-312v-540z" />
    <glyph glyph-name="S" unicode="S" horiz-adv-x="1173" 
d="M1085 379q0 -178 -122 -291t-347 -113q-202 0 -341 108t-189 296l166 31q39 -137 132.5 -213t231.5 -76q143 0 225.5 70.5t82.5 187.5q0 110 -69 175t-216 93l-119 23q-203 38 -299 134.5t-96 264.5q0 75 28 143.5t81 124t139.5 88.5t193.5 33q190 0 318.5 -101.5
t167.5 -275.5l-164 -30q-29 119 -110.5 190.5t-211.5 71.5q-132 0 -206 -70.5t-74 -173.5q0 -207 258 -254l123 -22q210 -38 313.5 -140.5t103.5 -273.5z" />
    <glyph glyph-name="T" unicode="T" horiz-adv-x="1046" 
d="M33 1434h981v-146h-410v-1288h-162v1288h-409v146z" />
    <glyph glyph-name="U" unicode="U" horiz-adv-x="1241" 
d="M621 -25q-228 0 -357 147t-129 400v912h162v-883q0 -212 83 -321t241 -109t240.5 108.5t82.5 321.5v883h162v-912q0 -253 -128.5 -400t-356.5 -147z" />
    <glyph glyph-name="V" unicode="V" horiz-adv-x="1167" 
d="M666 0h-164l-482 1434h175l389 -1178l389 1178h174z" />
    <glyph glyph-name="W" unicode="W" horiz-adv-x="1867" 
d="M854 1434h160l329 -1147l316 1147h176l-408 -1434h-163l-330 1155l-330 -1155h-164l-407 1434h176l315 -1147z" />
    <glyph glyph-name="X" unicode="X" horiz-adv-x="1210" 
d="M502 743l-426 691h182l346 -562l348 562h183l-426 -691l458 -743h-180l-383 614l-381 -614h-180z" />
    <glyph glyph-name="Y" unicode="Y" horiz-adv-x="1146" 
d="M653 0h-161v651l-459 783h178l362 -623l363 623h178l-461 -783v-651z" />
    <glyph glyph-name="Z" unicode="Z" horiz-adv-x="1048" 
d="M961 1434v-129l-687 -1160h689v-145h-877v129l686 1159h-663v146h852z" />
    <glyph glyph-name="bracketleft" unicode="[" horiz-adv-x="657" 
d="M174 -190v1794h395v-136h-243v-1523h243v-135h-395z" />
    <glyph glyph-name="backslash" unicode="\" horiz-adv-x="800" 
d="M639 -190l-639 1794h162l639 -1794h-162z" />
    <glyph glyph-name="bracketright" unicode="]" horiz-adv-x="657" 
d="M483 1604v-1794h-395v135h244v1523h-244v136h395z" />
    <glyph glyph-name="asciicircum" unicode="^" horiz-adv-x="925" 
d="M705 1014l-242 313l-242 -313h-155l317 420h160l317 -420h-155z" />
    <glyph glyph-name="underscore" unicode="_" horiz-adv-x="1024" 
d="M0 -336v111h1024v-111h-1024z" />
    <glyph glyph-name="grave" unicode="`" horiz-adv-x="761" 
d="M473 1165l-229 330h168l188 -330h-127z" />
    <glyph glyph-name="a" unicode="a" horiz-adv-x="1034" 
d="M455 113q207 0 301 166v184h-291q-106 0 -165.5 -50t-59.5 -128v-11q0 -72 56 -116.5t159 -44.5zM518 911q-163 0 -246 -153l-151 41q59 116 163 183t240 67q178 0 281.5 -108t103.5 -284v-657h-153v125q-49 -70 -132 -110t-192 -40q-157 0 -251.5 80.5t-94.5 204.5v27
q0 61 23 112.5t71 95t133 68.5t199 25h244v51q0 135 -62.5 203.5t-175.5 68.5z" />
    <glyph glyph-name="b" unicode="b" horiz-adv-x="1046" 
d="M948 618v-212q0 -192 -98 -311.5t-275 -119.5q-97 0 -172 37t-118 101v-113h-154v1458h154v-547q43 64 118 101t172 37q177 0 275 -119.5t98 -311.5zM795 434v156q0 321 -260 321q-83 0 -147.5 -44.5t-102.5 -121.5v-466q38 -77 102.5 -121.5t147.5 -44.5q260 0 260 321z
" />
    <glyph glyph-name="c" unicode="c" horiz-adv-x="1005" 
d="M98 406v212q0 181 118.5 306t305.5 125q157 0 264 -89.5t142 -232.5l-154 -27q-23 101 -89.5 156t-162.5 55q-119 0 -194.5 -86t-75.5 -235v-156q0 -149 75.5 -235t194.5 -86q96 0 162.5 55t89.5 156l154 -27q-35 -143 -142 -232.5t-264 -89.5q-187 0 -305.5 125
t-118.5 306z" />
    <glyph glyph-name="d" unicode="d" horiz-adv-x="1046" 
d="M762 0v113q-43 -63 -118.5 -100.5t-172.5 -37.5q-177 0 -275 119.5t-98 311.5v212q0 192 98 311.5t275 119.5q97 0 172.5 -37.5t118.5 -100.5v547h153v-1458h-153zM252 590v-156q0 -321 260 -321q83 0 147.5 44.5t102.5 121.5v466q-38 77 -102.5 121.5t-147.5 44.5
q-260 0 -260 -321z" />
    <glyph glyph-name="e" unicode="e" horiz-adv-x="1044" 
d="M522 -25q-187 0 -305.5 125t-118.5 306v212q0 181 118.5 306t305.5 125t305.5 -125t118.5 -306v-163h-694v-21q0 -149 75.5 -235t194.5 -86q91 0 155.5 45.5t90.5 128.5l158 -25q-42 -132 -147 -209.5t-257 -77.5zM252 590v-10h541v10q0 149 -76 235t-195 86t-194.5 -86
t-75.5 -235z" />
    <glyph glyph-name="f" unicode="f" horiz-adv-x="696" 
d="M651 1458v-137h-71q-115 0 -154 -48.5t-39 -180.5v-68h264v-137h-264v-887h-154v887h-157v137h157v63q0 109 19 180t63.5 114t110 60t166.5 17h59z" />
    <glyph glyph-name="g" unicode="g" horiz-adv-x="1046" 
d="M762 -14v127q-43 -63 -118.5 -100.5t-172.5 -37.5q-177 0 -275 119.5t-98 311.5v212q0 192 98 311.5t275 119.5q97 0 172.5 -37.5t118.5 -100.5v113h153v-1049q0 -206 -102 -328t-293 -122q-135 0 -235 69t-144 193l152 37q29 -78 87.5 -120t139.5 -42q116 0 179 82.5
t63 241.5zM252 590v-156q0 -321 260 -321q83 0 147.5 44.5t102.5 121.5v466q-38 77 -102.5 121.5t-147.5 44.5q-260 0 -260 -321z" />
    <glyph glyph-name="h" unicode="h" horiz-adv-x="1073" 
d="M948 0h-153v594q0 163 -55 240t-183 77q-85 0 -159 -49t-113 -135v-727h-154v1458h154v-565q51 73 131.5 114.5t183.5 41.5q167 0 257.5 -111.5t90.5 -310.5v-627z" />
    <glyph glyph-name="i" unicode="i" horiz-adv-x="456" 
d="M152 0v1024h153v-1024h-153zM152 1270v188h153v-188h-153z" />
    <glyph glyph-name="j" unicode="j" horiz-adv-x="477" 
d="M172 1270v188h154v-188h-154zM172 -117v1141h154v-1157q0 -156 -74 -228.5t-227 -72.5h-66v137h66q75 0 111 43.5t36 136.5z" />
    <glyph glyph-name="k" unicode="k" horiz-adv-x="966" 
d="M618 578l353 -578h-172l-301 498l-213 -138v-360h-154v1458h154v-926l229 150q106 69 152.5 145t46.5 183v14h153v-16q0 -150 -57 -246t-191 -184z" />
    <glyph glyph-name="l" unicode="l" horiz-adv-x="538" 
d="M483 137v-137h-41q-290 0 -290 295v1163h153v-1147q0 -174 141 -174h37z" />
    <glyph glyph-name="m" unicode="m" horiz-adv-x="1736" 
d="M948 0h-153v594q0 163 -55 240t-183 77q-85 0 -159 -49t-113 -135v-727h-154v1024h154v-131q51 73 131.5 114.5t183.5 41.5q108 0 185.5 -48.5t117.5 -138.5q141 187 363 187q167 0 257.5 -111.5t90.5 -310.5v-627h-154v592q0 164 -54.5 241.5t-182.5 77.5
q-179 0 -281 -196q6 -87 6 -88v-627z" />
    <glyph glyph-name="n" unicode="n" horiz-adv-x="1071" 
d="M948 0h-153v594q0 163 -55 240t-183 77q-85 0 -159 -49t-113 -135v-727h-154v1024h154v-131q51 73 131.5 114.5t183.5 41.5q167 0 257.5 -111.5t90.5 -310.5v-627z" />
    <glyph glyph-name="o" unicode="o" horiz-adv-x="1044" 
d="M98 406v212q0 181 118.5 306t305.5 125t305.5 -125t118.5 -306v-212q0 -181 -118.5 -306t-305.5 -125t-305.5 125t-118.5 306zM793 434v156q0 149 -76 235t-195 86t-194.5 -86t-75.5 -235v-156q0 -149 75.5 -235t194.5 -86t195 86t76 235z" />
    <glyph glyph-name="p" unicode="p" horiz-adv-x="1046" 
d="M285 113v-559h-154v1470h154v-113q43 64 118 101t172 37q177 0 275 -119.5t98 -311.5v-212q0 -192 -98 -311.5t-275 -119.5q-97 0 -172 37t-118 101zM795 434v156q0 321 -260 321q-83 0 -147.5 -44.5t-102.5 -121.5v-466q38 -77 102.5 -121.5t147.5 -44.5q260 0 260 321z
" />
    <glyph glyph-name="q" unicode="q" horiz-adv-x="1046" 
d="M762 -446v559q-43 -63 -118.5 -100.5t-172.5 -37.5q-177 0 -275 119.5t-98 311.5v212q0 192 98 311.5t275 119.5q97 0 172.5 -37.5t118.5 -100.5v113h153v-1470h-153zM252 590v-156q0 -321 260 -321q83 0 147.5 44.5t102.5 121.5v466q-38 77 -102.5 121.5t-147.5 44.5
q-260 0 -260 -321z" />
    <glyph glyph-name="r" unicode="r" horiz-adv-x="749" 
d="M715 1024v-137q-71 24 -146 24q-88 0 -162.5 -46.5t-121.5 -129.5v-735h-154v1024h154v-129q48 69 127 111.5t176 42.5q69 0 127 -25z" />
    <glyph glyph-name="s" unicode="s" horiz-adv-x="976" 
d="M117 762q0 129 96.5 208t253.5 79q151 0 255 -75t144 -210l-157 -27q-21 81 -83.5 127.5t-156.5 46.5t-146.5 -41t-52.5 -110q0 -133 203 -164l100 -16q168 -27 242 -101t74 -200q0 -135 -100 -219.5t-269 -84.5q-164 0 -275.5 80t-154.5 230l156 28q30 -98 103 -149
t171 -51q99 0 157 46.5t58 119.5t-50.5 112t-152.5 55l-100 17q-171 28 -243 102.5t-72 196.5z" />
    <glyph glyph-name="t" unicode="t" horiz-adv-x="696" 
d="M354 1024h258v-137h-258v-578q0 -172 140 -172h137v-137h-139q-291 0 -291 295v592h-158v137h158v291h153v-291z" />
    <glyph glyph-name="u" unicode="u" horiz-adv-x="1073" 
d="M123 1024h153v-594q0 -163 55 -240t183 -77q85 0 159 49t113 135v727h154v-1024h-154v131q-51 -73 -131.5 -114.5t-183.5 -41.5q-167 0 -257.5 111.5t-90.5 310.5v627z" />
    <glyph glyph-name="v" unicode="v" horiz-adv-x="970" 
d="M565 0h-159l-392 1024h160l311 -829l312 829h159z" />
    <glyph glyph-name="w" unicode="w" horiz-adv-x="1593" 
d="M717 1024h160l258 -815l276 815h162l-359 -1024h-161l-256 809l-256 -809h-162l-359 1024h162l277 -815z" />
    <glyph glyph-name="x" unicode="x" horiz-adv-x="940" 
d="M197 0h-177l353 530l-328 494h176l248 -379l250 379h176l-330 -494l355 -530h-177l-274 416z" />
    <glyph glyph-name="y" unicode="y" horiz-adv-x="983" 
d="M358 -178l74 205l-412 997h164l324 -801l291 801h164l-461 -1239q-48 -128 -116.5 -172.5t-186.5 -44.5h-66v137h60q61 0 101 26.5t64 90.5z" />
    <glyph glyph-name="z" unicode="z" horiz-adv-x="970" 
d="M870 1024v-123l-594 -764h617v-137h-815v123l594 764h-570v137h768z" />
    <glyph glyph-name="braceleft" unicode="{" horiz-adv-x="663" 
d="M403 479v-375q0 -157 138 -157h37v-137h-39q-145 0 -216 67.5t-71 220.5v334q0 102 -30.5 153.5t-106.5 51.5h-29v137h29q69 0 103 45t34 125v371q0 153 71 221t216 68h39v-138h-37q-138 0 -138 -157v-377q0 -176 -124 -225q63 -25 93.5 -85.5t30.5 -142.5z" />
    <glyph glyph-name="bar" unicode="|" horiz-adv-x="587" 
d="M217 -190v1794h154v-1794h-154z" />
    <glyph glyph-name="braceright" unicode="}" horiz-adv-x="663" 
d="M260 104v375q0 82 31 142.5t94 85.5q-125 50 -125 225v377q0 157 -137 157h-37v138h39q145 0 216 -68t71 -221v-371q0 -80 34 -125t103 -45h29v-137h-29q-76 0 -106.5 -51.5t-30.5 -153.5v-334q0 -153 -71 -220.5t-216 -67.5h-39v137h37q137 0 137 157z" />
    <glyph glyph-name="asciitilde" unicode="~" horiz-adv-x="1064" 
d="M731 510q-57 0 -106 20.5t-84 50t-66.5 58.5t-66 49.5t-70.5 20.5q-129 0 -150 -183l-139 11q10 146 87.5 221.5t197.5 75.5q57 0 106 -20.5t84 -50t66.5 -58.5t66 -49.5t70.5 -20.5q129 0 150 182l139 -10q-10 -146 -87.5 -221.5t-197.5 -75.5z" />
    <glyph glyph-name="uni00A0" unicode="&#xa0;" horiz-adv-x="532" 
 />
    <glyph glyph-name="exclamdown" unicode="&#xa1;" horiz-adv-x="546" 
d="M350 -199v-211h-153v211l26 820h101zM350 1024v-193h-153v193h153z" />
    <glyph glyph-name="cent" unicode="&#xa2;" horiz-adv-x="1005" 
d="M453 -182v164q-159 23 -257 142.5t-98 281.5v212q0 162 98 281.5t257 142.5v164h116v-159q138 -13 231.5 -101t127.5 -219l-154 -27q-20 87 -74 141t-131 66v-792q77 12 131 66.5t74 142.5l154 -27q-33 -132 -127 -219.5t-232 -100.5v-159h-116zM252 434
q0 -126 54.5 -207.5t146.5 -105.5v782q-91 -24 -146 -106t-55 -207v-156z" />
    <glyph glyph-name="sterling" unicode="&#xa3;" horiz-adv-x="1185" 
d="M1090 1061l-160 -27q-53 279 -279 279q-121 0 -188.5 -85t-67.5 -261v-230h422v-127h-422v-112q0 -234 -104 -353h807v-145h-994v131q129 129 129 342v137h-135v127h135v258q0 218 111 340.5t305 122.5q181 0 291.5 -101t149.5 -296z" />
    <glyph glyph-name="currency" unicode="&#xa4;" horiz-adv-x="1306" 
d="M1102 668q0 -151 -88 -269l176 -180l-98 -98l-181 182q-115 -78 -258 -78t-258 78l-180 -182l-98 98l176 180q-88 118 -88 269q0 150 88 268l-176 180l98 98l180 -182q115 78 258 78t258 -78l181 182l98 -98l-176 -180q88 -118 88 -268zM963 668q0 137 -89 227t-221 90
q-131 0 -220 -90t-89 -227t89 -227.5t220 -90.5t220.5 90.5t89.5 227.5z" />
    <glyph glyph-name="yen" unicode="&#xa5;" horiz-adv-x="1146" 
d="M958 657h-301l-4 -6v-131h305v-102h-305v-418h-161v418h-304v102h304v131l-5 6h-299v103h238l-393 674h178l362 -623l363 623h178l-397 -674h241v-103z" />
    <glyph glyph-name="brokenbar" unicode="&#xa6;" horiz-adv-x="589" 
d="M371 809h-154v795h154v-795zM217 604h154v-794h-154v794z" />
    <glyph glyph-name="section" unicode="&#xa7;" horiz-adv-x="966" 
d="M868 549q0 -205 -139 -305q119 -89 119 -236q0 -139 -96 -227t-248 -88q-145 0 -244 74.5t-139 209.5l155 27q22 -82 81.5 -127t146.5 -45q85 0 137.5 47t52.5 123q0 75 -49 121.5t-149 75.5l-105 30q-145 43 -219 132t-74 241q0 206 138 305q-117 85 -117 236
q0 139 96 227t248 88q145 0 244 -74.5t139 -209.5l-156 -27q-22 82 -81 127t-146 45q-85 0 -138 -47t-53 -123q0 -74 49.5 -121t149.5 -76l104 -30q145 -43 219 -132t74 -241zM438 362l107 -32q48 -15 67 -23q103 85 103 242q0 94 -44.5 152t-142.5 87l-106 33q-26 6 -68 23
q-102 -87 -102 -242q0 -95 44.5 -153t141.5 -87z" />
    <glyph glyph-name="dieresis" unicode="&#xa8;" horiz-adv-x="761" 
d="M279 1432v-207h-162v207h162zM645 1432v-207h-162v207h162z" />
    <glyph glyph-name="copyright" unicode="&#xa9;" horiz-adv-x="1536" 
d="M1438 762v-90q0 -321 -185 -509t-485 -188t-485 188t-185 509v90q0 321 185 508.5t485 187.5t485 -187.5t185 -508.5zM1348 688v57q0 294 -155.5 461.5t-424.5 167.5t-424.5 -167.5t-155.5 -461.5v-57q0 -294 155.5 -461.5t424.5 -167.5t424.5 167.5t155.5 461.5z
M459 815v-197q0 -161 84 -253.5t233 -92.5q129 0 210.5 74t100.5 199l-122 18q-15 -85 -63 -131.5t-124 -46.5q-90 0 -141 62t-51 188v164q0 126 51 188t141 62q76 0 124 -46.5t63 -132.5l122 19q-19 124 -100.5 198t-210.5 74q-149 0 -233 -92.5t-84 -253.5z" />
    <glyph glyph-name="ordfeminine" unicode="&#xaa;" horiz-adv-x="806" 
d="M362 774q62 0 115.5 29.5t85.5 75.5v133h-174q-174 0 -174 -121v-8q0 -47 39.5 -78t107.5 -31zM403 1337q-115 0 -167 -104l-125 31q40 86 114.5 136t182.5 50q135 0 210.5 -78t75.5 -194v-496h-131v76q-81 -94 -221 -94q-113 0 -184.5 60t-71.5 150v19q0 98 77 160.5
t224 62.5h176v41q0 85 -43 132.5t-117 47.5z" />
    <glyph glyph-name="guillemotleft" unicode="&#xab;" horiz-adv-x="1028" 
d="M86 596v86l434 285v-131l-309 -197l309 -197v-131zM508 596v86l434 285v-131l-309 -197l309 -197v-131z" />
    <glyph glyph-name="logicalnot" unicode="&#xac;" horiz-adv-x="1064" 
d="M94 604v125h856v-467h-139v342h-717z" />
    <glyph glyph-name="uni00AD" unicode="&#xad;" horiz-adv-x="817" 
d="M713 598h-609v137h609v-137z" />
    <glyph glyph-name="registered" unicode="&#xae;" horiz-adv-x="1536" 
d="M618 635v-346h-129v854h322q111 0 192.5 -66.5t81.5 -187.5q0 -94 -50.5 -155.5t-129.5 -84.5l209 -360h-137l-197 346h-162zM618 752h170q78 0 121 35t43 106q0 67 -44.5 102t-119.5 35h-170v-278zM1438 762v-90q0 -321 -185 -509t-485 -188t-485 188t-185 509v90
q0 321 185 508.5t485 187.5t485 -187.5t185 -508.5zM1348 688v57q0 294 -155.5 461.5t-424.5 167.5t-424.5 -167.5t-155.5 -461.5v-57q0 -294 155.5 -461.5t424.5 -167.5t424.5 167.5t155.5 461.5z" />
    <glyph glyph-name="macron" unicode="&#xaf;" horiz-adv-x="761" 
d="M96 1268v118h570v-118h-570z" />
    <glyph glyph-name="degree" unicode="&#xb0;" horiz-adv-x="708" 
d="M618 1182q0 -117 -73 -193t-191 -76t-191 76t-73 193t72.5 192.5t191.5 75.5t191.5 -75.5t72.5 -192.5zM492 1182q0 66 -39 107.5t-99 41.5t-98.5 -41.5t-38.5 -107.5t38.5 -108t98.5 -42t99 42t39 108z" />
    <glyph glyph-name="plusminus" unicode="&#xb1;" horiz-adv-x="1064" 
d="M463 262v377h-359v125h359v377h139v-377h359v-125h-359v-377h-139zM961 0h-857v125h857v-125z" />
    <glyph glyph-name="twosuperior" unicode="&#xb2;" 
d="M524 1167q0 77 -42.5 120.5t-108.5 43.5t-109 -44t-43 -120v-37l-141 11v28q0 120 80.5 200.5t212.5 80.5q127 0 209 -79t82 -202q0 -67 -24 -119.5t-79 -113.5l-293 -332h396v-119h-584v99l381 436q63 71 63 147z" />
    <glyph glyph-name="threesuperior" unicode="&#xb3;" 
d="M74 780l139 11q0 -98 42 -150.5t114 -52.5q67 0 111 44t44 132q0 190 -145 190q-39 0 -84 -20l-72 82l232 299h-357v119h531v-105l-217 -274h18q98 0 166 -75.5t68 -217.5q0 -133 -83.5 -213t-211.5 -80q-135 0 -215 87t-80 224z" />
    <glyph glyph-name="acute" unicode="&#xb4;" horiz-adv-x="761" 
d="M518 1495l-229 -330h-127l188 330h168z" />
    <glyph glyph-name="mu" unicode="&#xb5;" horiz-adv-x="1079" 
d="M285 1024v-592q0 -164 54.5 -241.5t182.5 -77.5q85 0 159 51t114 137v723h153v-1024h-153v143q-47 -77 -122 -122.5t-165 -45.5q-148 0 -223 107v-528h-154v1470h154z" />
    <glyph glyph-name="paragraph" unicode="&#xb6;" horiz-adv-x="1075" 
d="M586 553h-49q-206 0 -320.5 112t-114.5 324v10q0 213 108.5 324t313.5 111h373v-1702h-102v1587h-107v-1587h-102v821z" />
    <glyph glyph-name="periodcentered" unicode="&#xb7;" horiz-adv-x="536" 
d="M356 768v-201h-176v201h176z" />
    <glyph glyph-name="cedilla" unicode="&#xb8;" horiz-adv-x="761" 
d="M457 -274q0 43 -43 70.5t-127 31.5q-1 3 -4 8t-4 6l67 158h127l-45 -98q166 -44 166 -185q0 -87 -58 -139.5t-165 -52.5q-125 0 -205 80l72 92q58 -51 124 -51q46 0 70.5 22t24.5 58z" />
    <glyph glyph-name="onesuperior" unicode="&#xb9;" 
d="M135 485v119h195v684l-195 -86v127l219 105h115v-830h193v-119h-527z" />
    <glyph glyph-name="ordmasculine" unicode="&#xba;" horiz-adv-x="806" 
d="M719 1141v-168q0 -128 -88.5 -218.5t-227.5 -90.5t-227 90.5t-88 218.5v168q0 128 88 218.5t227 90.5t227.5 -90.5t88.5 -218.5zM590 995v123q0 102 -51 160.5t-136 58.5t-135.5 -58.5t-50.5 -160.5v-123q0 -102 50.5 -160.5t135.5 -58.5t136 58.5t51 160.5z" />
    <glyph glyph-name="guillemotright" unicode="&#xbb;" horiz-adv-x="1028" 
d="M942 682v-86l-434 -285v131l309 197l-309 197v131zM520 682v-86l-434 -285v131l309 197l-309 197v131z" />
    <glyph glyph-name="onequarter" unicode="&#xbc;" horiz-adv-x="1812" 
d="M1327 1434l-702 -1434h-140l703 1434h139zM1282 322h236v393zM1759 322v-119h-104v-203h-137v203h-388v106l383 639h142v-626h104zM135 485v119h195v684l-195 -86v127l219 105h115v-830h193v-119h-527z" />
    <glyph glyph-name="onehalf" unicode="&#xbd;" horiz-adv-x="1812" 
d="M1604 682q0 77 -43 120.5t-109 43.5t-109 -44t-43 -120v-37l-141 10v29q0 120 80.5 200.5t212.5 80.5q127 0 209 -79t82 -202q0 -67 -24 -119.5t-79 -113.5l-292 -332h395v-119h-584v98l381 437q64 73 64 147zM1327 1434l-702 -1434h-140l703 1434h139zM135 485v119h195
v684l-195 -86v127l219 105h115v-830h193v-119h-527z" />
    <glyph glyph-name="threequarters" unicode="&#xbe;" horiz-adv-x="1812" 
d="M1327 1434l-702 -1434h-140l703 1434h139zM1282 322h236v393zM1759 322v-119h-104v-203h-137v203h-388v106l383 639h142v-626h104zM74 780l139 11q0 -98 42 -150.5t114 -52.5q67 0 111 44t44 132q0 190 -145 190q-39 0 -84 -20l-72 82l232 299h-357v119h531v-105
l-217 -274h18q98 0 166 -75.5t68 -217.5q0 -133 -83.5 -213t-211.5 -80q-135 0 -215 87t-80 224z" />
    <glyph glyph-name="questiondown" unicode="&#xbf;" horiz-adv-x="1040" 
d="M461 831v193h153v-193h-153zM461 653h153v-63q0 -102 -40.5 -177.5t-145.5 -168.5q-80 -71 -111.5 -133.5t-31.5 -143.5q0 -125 66 -194.5t177 -69.5q106 0 173.5 66.5t82.5 193.5l154 -14q-19 -172 -128.5 -277.5t-283.5 -105.5q-177 0 -286 109.5t-109 287.5
q0 113 44 196t134 165q85 78 118.5 136.5t33.5 143.5v49z" />
    <glyph glyph-name="Agrave" unicode="&#xc0;" horiz-adv-x="1167" 
d="M504 1434h160l491 -1434h-174l-117 354h-563l-115 -354h-174zM584 1217l-236 -717h469zM559 1562l-229 330h168l188 -330h-127z" />
    <glyph glyph-name="Aacute" unicode="&#xc1;" horiz-adv-x="1167" 
d="M504 1434h160l491 -1434h-174l-117 354h-563l-115 -354h-174zM584 1217l-236 -717h469zM838 1892l-230 -329h-127l189 329h168z" />
    <glyph glyph-name="Acircumflex" unicode="&#xc2;" horiz-adv-x="1167" 
d="M504 1434h160l491 -1434h-174l-117 354h-563l-115 -354h-174zM584 1217l-236 -717h469zM772 1562l-188 203l-188 -203h-138l258 330h136l258 -330h-138z" />
    <glyph glyph-name="Atilde" unicode="&#xc3;" horiz-adv-x="1167" 
d="M664 1434h-160l-492 -1434h174l115 354h563l117 -354h174zM348 500l236 717l233 -717h-469zM717 1604q-46 0 -96 27.5t-92.5 55t-71.5 27.5q-31 0 -49 -22.5t-27 -71.5l-117 12q13 101 62.5 152t126.5 51q37 0 76.5 -17.5t67.5 -38t60 -38t56 -17.5q31 0 48.5 22.5
t26.5 72.5l117 -13q-13 -101 -62 -151.5t-126 -50.5z" />
    <glyph glyph-name="Adieresis" unicode="&#xc4;" horiz-adv-x="1167" 
d="M664 1434h-160l-492 -1434h174l115 354h563l117 -354h174zM348 500l236 717l233 -717h-469zM481 1829v-207h-162v207h162zM848 1829v-207h-162v207h162z" />
    <glyph glyph-name="Aring" unicode="&#xc5;" horiz-adv-x="1167" 
d="M504 1434h160l491 -1434h-174l-117 354h-563l-115 -354h-174zM584 1217l-236 -717h469zM795 1726q0 -94 -61 -150.5t-150 -56.5t-150 56.5t-61 150.5t61 150.5t150 56.5t150 -56.5t61 -150.5zM680 1726q0 48 -27 76.5t-69 28.5t-69 -28.5t-27 -76.5t27 -76t69 -28t69 28
t27 76z" />
    <glyph glyph-name="AE" unicode="&#xc6;" horiz-adv-x="1738" 
d="M1638 0h-852v354h-456l-172 -354h-178l710 1434h948v-146h-690v-477h608v-145h-608v-521h690v-145zM786 1288l-385 -788h385v788z" />
    <glyph glyph-name="Ccedilla" unicode="&#xc7;" horiz-adv-x="1193" 
d="M680 -274q0 43 -43 70.5t-127 31.5q-1 3 -4.5 8t-3.5 6l57 135q-206 17 -328 171t-122 393v352q0 253 136 409t363 156q201 0 334 -120t162 -324l-160 -27q-28 158 -115.5 242t-220.5 84q-155 0 -246.5 -118t-91.5 -327v-303q0 -209 91.5 -326.5t246.5 -117.5
q133 0 220.5 83t115.5 240l160 -26q-26 -183 -137 -298.5t-281 -137.5l-35 -80q166 -44 166 -185q0 -87 -58 -139.5t-165 -52.5q-125 0 -205 80l72 92q58 -51 125 -51q46 0 70 22t24 58z" />
    <glyph glyph-name="Egrave" unicode="&#xc8;" horiz-adv-x="1103" 
d="M1004 0h-852v1434h852v-146h-691v-477h609v-145h-609v-521h691v-145zM575 1562l-229 330h168l188 -330h-127z" />
    <glyph glyph-name="Eacute" unicode="&#xc9;" horiz-adv-x="1103" 
d="M1004 0h-852v1434h852v-146h-691v-477h609v-145h-609v-521h691v-145zM801 1892l-229 -330h-127l188 330h168z" />
    <glyph glyph-name="Ecircumflex" unicode="&#xca;" horiz-adv-x="1103" 
d="M1004 0h-852v1434h852v-146h-691v-477h609v-145h-609v-521h691v-145zM770 1563l-188 202l-189 -202h-137l258 329h135l258 -329h-137z" />
    <glyph glyph-name="Edieresis" unicode="&#xcb;" horiz-adv-x="1103" 
d="M1004 0h-852v1434h852v-146h-691v-477h609v-145h-609v-521h691v-145zM469 1829v-207h-162v207h162zM835 1829v-207h-162v207h162z" />
    <glyph glyph-name="Igrave" unicode="&#xcc;" horiz-adv-x="464" 
d="M313 1434v-1434h-161v1434h161zM203 1563l-230 329h168l189 -329h-127z" />
    <glyph glyph-name="Iacute" unicode="&#xcd;" horiz-adv-x="464" 
d="M313 1434v-1434h-161v1434h161zM491 1892l-229 -330h-127l188 330h168z" />
    <glyph glyph-name="Icircumflex" unicode="&#xce;" horiz-adv-x="464" 
d="M313 1434v-1434h-161v1434h161zM419 1562l-188 203l-188 -203h-138l258 330h136l258 -330h-138z" />
    <glyph glyph-name="Idieresis" unicode="&#xcf;" horiz-adv-x="464" 
d="M313 1434v-1434h-161v1434h161zM129 1829v-207h-162v207h162zM496 1829v-207h-162v207h162z" />
    <glyph glyph-name="Eth" unicode="&#xd0;" horiz-adv-x="1210" 
d="M152 653h-127v127h127v654h438q228 0 365 -145t137 -396v-352q0 -251 -137 -396t-365 -145h-438v653zM930 565v303q0 206 -95.5 313t-256.5 107h-265v-508h275v-127h-275v-508h265q161 0 256.5 107t95.5 313z" />
    <glyph glyph-name="Ntilde" unicode="&#xd1;" horiz-adv-x="1318" 
d="M152 1434h153l701 -1137v1137h161v-1434h-153l-701 1137v-1137h-161v1434zM793 1604q-46 0 -96 27.5t-93 55t-72 27.5q-31 0 -48.5 -22t-26.5 -72l-117 12q13 101 62 152t126 51q37 0 76.5 -17.5t67.5 -38t60 -38t56 -17.5q59 0 76 95l117 -13q-13 -101 -62 -151.5
t-126 -50.5z" />
    <glyph glyph-name="Ograve" unicode="&#xd2;" horiz-adv-x="1216" 
d="M1108 893v-352q0 -253 -136.5 -409.5t-363.5 -156.5t-363 156.5t-136 409.5v352q0 253 136 409t363 156t363.5 -156.5t136.5 -408.5zM946 565v303q0 209 -91.5 327t-246.5 118t-246.5 -118t-91.5 -327v-303q0 -209 91.5 -326.5t246.5 -117.5t246.5 117.5t91.5 326.5z
M608 1562l-229 330h168l188 -330h-127z" />
    <glyph glyph-name="Oacute" unicode="&#xd3;" horiz-adv-x="1216" 
d="M1108 893v-352q0 -253 -136.5 -409.5t-363.5 -156.5t-363 156.5t-136 409.5v352q0 253 136 409t363 156t363.5 -156.5t136.5 -408.5zM946 565v303q0 209 -91.5 327t-246.5 118t-246.5 -118t-91.5 -327v-303q0 -209 91.5 -326.5t246.5 -117.5t246.5 117.5t91.5 326.5z
M837 1892l-229 -330h-127l188 330h168z" />
    <glyph glyph-name="Ocircumflex" unicode="&#xd4;" horiz-adv-x="1216" 
d="M1108 893v-352q0 -253 -136.5 -409.5t-363.5 -156.5t-363 156.5t-136 409.5v352q0 253 136 409t363 156t363.5 -156.5t136.5 -408.5zM946 565v303q0 209 -91.5 327t-246.5 118t-246.5 -118t-91.5 -327v-303q0 -209 91.5 -326.5t246.5 -117.5t246.5 117.5t91.5 326.5z
M796 1562l-188 203l-188 -203h-138l258 330h136l258 -330h-138z" />
    <glyph glyph-name="Otilde" unicode="&#xd5;" horiz-adv-x="1216" 
d="M1108 893v-352q0 -253 -136.5 -409.5t-363.5 -156.5t-363 156.5t-136 409.5v352q0 253 136 409t363 156t363.5 -156.5t136.5 -408.5zM946 565v303q0 209 -91.5 327t-246.5 118t-246.5 -118t-91.5 -327v-303q0 -209 91.5 -326.5t246.5 -117.5t246.5 117.5t91.5 326.5z
M741 1603q-46 0 -96 28t-92.5 55.5t-71.5 27.5q-31 0 -49 -22.5t-27 -71.5l-117 12q13 101 62.5 152t126.5 51q46 0 96 -28t92.5 -55.5t71.5 -27.5q31 0 49 22.5t27 71.5l116 -12q-13 -101 -62 -152t-126 -51z" />
    <glyph glyph-name="Odieresis" unicode="&#xd6;" horiz-adv-x="1216" 
d="M1108 541v352q0 252 -136.5 408.5t-363.5 156.5t-363 -156t-136 -409v-352q0 -253 136 -409.5t363 -156.5t363.5 156.5t136.5 409.5zM946 868v-303q0 -209 -91.5 -326.5t-246.5 -117.5t-246.5 117.5t-91.5 326.5v303q0 209 91.5 327t246.5 118t246.5 -118t91.5 -327z
M506 1829v-207h-162v207h162zM872 1829v-207h-161v207h161z" />
    <glyph glyph-name="multiply" unicode="&#xd7;" horiz-adv-x="1064" 
d="M829 272l-297 297l-296 -297l-99 97l299 299l-299 299l99 96l296 -299l297 299l99 -96l-299 -299l299 -299z" />
    <glyph glyph-name="Oslash" unicode="&#xd8;" horiz-adv-x="1216" 
d="M893 1372l68 127h133l-113 -211q127 -156 127 -395v-352q0 -253 -136.5 -409.5t-363.5 -156.5q-162 0 -284 86l-68 -127h-133l113 209q-127 155 -127 398v352q0 253 136 409t363 156q163 0 285 -86zM608 1313q-155 0 -246.5 -118t-91.5 -327v-303q0 -150 52 -260l497 928
q-86 80 -211 80zM946 565v303q0 152 -51 260l-498 -929q84 -78 211 -78q155 0 246.5 117.5t91.5 326.5z" />
    <glyph glyph-name="Ugrave" unicode="&#xd9;" horiz-adv-x="1241" 
d="M621 -25q-228 0 -357 147t-129 400v912h162v-883q0 -212 83 -321t241 -109t240.5 108.5t82.5 321.5v883h162v-912q0 -253 -128.5 -400t-356.5 -147zM610 1562l-229 330h168l188 -330h-127z" />
    <glyph glyph-name="Uacute" unicode="&#xda;" horiz-adv-x="1241" 
d="M621 -25q-228 0 -357 147t-129 400v912h162v-883q0 -212 83 -321t241 -109t240.5 108.5t82.5 321.5v883h162v-912q0 -253 -128.5 -400t-356.5 -147zM860 1892l-229 -330h-127l188 330h168z" />
    <glyph glyph-name="Ucircumflex" unicode="&#xdb;" horiz-adv-x="1241" 
d="M621 -25q-228 0 -357 147t-129 400v912h162v-883q0 -212 83 -321t241 -109t240.5 108.5t82.5 321.5v883h162v-912q0 -253 -128.5 -400t-356.5 -147zM809 1562l-188 203l-188 -203h-138l258 330h136l258 -330h-138z" />
    <glyph glyph-name="Udieresis" unicode="&#xdc;" horiz-adv-x="1241" 
d="M621 -25q228 0 356.5 147t128.5 400v912h-162v-883q0 -213 -82.5 -321.5t-240.5 -108.5t-241 109t-83 321v883h-162v-912q0 -253 129 -400t357 -147zM518 1829v-207h-162v207h162zM885 1829v-207h-162v207h162z" />
    <glyph glyph-name="Yacute" unicode="&#xdd;" horiz-adv-x="1146" 
d="M653 0h-161v651l-459 783h178l362 -623l363 623h178l-461 -783v-651zM805 1892l-229 -330h-127l188 330h168z" />
    <glyph glyph-name="Thorn" unicode="&#xde;" horiz-adv-x="1183" 
d="M649 291h-336v-291h-161v1434h161v-291h336q86 0 164.5 -26.5t142.5 -77.5t102 -134.5t38 -187.5t-38 -187.5t-102 -134.5t-142.5 -77.5t-164.5 -26.5zM934 717q0 136 -85.5 208t-223.5 72h-312v-561h312q137 0 223 73t86 208z" />
    <glyph glyph-name="germandbls" unicode="&#xdf;" horiz-adv-x="1140" 
d="M543 659l-23 119q291 62 291 277v10q0 109 -68 178.5t-180 69.5q-121 0 -189.5 -83.5t-68.5 -258.5v-971h-162v999q0 222 115.5 340.5t308.5 118.5q181 0 293.5 -111t112.5 -274v-20q0 -103 -51 -181.5t-150 -117.5q311 -81 311 -383v-25q0 -173 -111 -272t-302 -99
q-155 0 -262 62l41 135q94 -51 215 -51t189.5 59t68.5 172v19q0 138 -101.5 213t-277.5 75z" />
    <glyph glyph-name="agrave" unicode="&#xe0;" horiz-adv-x="1034" 
d="M455 113q207 0 301 166v184h-291q-106 0 -165.5 -50t-59.5 -128v-11q0 -72 56 -116.5t159 -44.5zM518 911q-163 0 -246 -153l-151 41q59 116 163 183t240 67q178 0 281.5 -108t103.5 -284v-657h-153v125q-49 -70 -132 -110t-192 -40q-157 0 -251.5 80.5t-94.5 204.5v27
q0 61 23 112.5t71 95t133 68.5t199 25h244v51q0 135 -62.5 203.5t-175.5 68.5zM547 1155l-229 330h168l188 -330h-127z" />
    <glyph glyph-name="aacute" unicode="&#xe1;" horiz-adv-x="1034" 
d="M455 113q207 0 301 166v184h-291q-106 0 -165.5 -50t-59.5 -128v-11q0 -72 56 -116.5t159 -44.5zM518 911q-163 0 -246 -153l-151 41q59 116 163 183t240 67q178 0 281.5 -108t103.5 -284v-657h-153v125q-49 -70 -132 -110t-192 -40q-157 0 -251.5 80.5t-94.5 204.5v27
q0 61 23 112.5t71 95t133 68.5t199 25h244v51q0 135 -62.5 203.5t-175.5 68.5zM731 1485l-229 -330h-127l188 330h168z" />
    <glyph glyph-name="acircumflex" unicode="&#xe2;" horiz-adv-x="1034" 
d="M455 113q207 0 301 166v184h-291q-106 0 -165.5 -50t-59.5 -128v-11q0 -72 56 -116.5t159 -44.5zM518 911q-163 0 -246 -153l-151 41q59 116 163 183t240 67q178 0 281.5 -108t103.5 -284v-657h-153v125q-49 -70 -132 -110t-192 -40q-157 0 -251.5 80.5t-94.5 204.5v27
q0 61 23 112.5t71 95t133 68.5t199 25h244v51q0 135 -62.5 203.5t-175.5 68.5zM704 1155l-188 203l-188 -203h-138l258 330h136l258 -330h-138z" />
    <glyph glyph-name="atilde" unicode="&#xe3;" horiz-adv-x="1034" 
d="M455 113q207 0 301 166v184h-291q-106 0 -165.5 -50t-59.5 -128v-11q0 -72 56 -116.5t159 -44.5zM518 911q-163 0 -246 -153l-151 41q59 116 163 183t240 67q178 0 281.5 -108t103.5 -284v-657h-153v125q-49 -70 -132 -110t-192 -40q-157 0 -251.5 80.5t-94.5 204.5v27
q0 61 23 112.5t71 95t133 68.5t199 25h244v51q0 135 -62.5 203.5t-175.5 68.5zM647 1196q-46 0 -96 28t-92.5 55.5t-71.5 27.5q-59 0 -76 -95l-116 13q13 101 62 151.5t126 50.5q46 0 96 -27.5t92.5 -55t71.5 -27.5q31 0 49 22.5t27 71.5l117 -12q-13 -101 -62.5 -152
t-126.5 -51z" />
    <glyph glyph-name="adieresis" unicode="&#xe4;" horiz-adv-x="1034" 
d="M455 113q207 0 301 166v184h-291q-106 0 -165.5 -50t-59.5 -128v-11q0 -72 56 -116.5t159 -44.5zM518 911q-163 0 -246 -153l-151 41q59 116 163 183t240 67q178 0 281.5 -108t103.5 -284v-657h-153v125q-49 -70 -132 -110t-192 -40q-157 0 -251.5 80.5t-94.5 204.5v27
q0 61 23 112.5t71 95t133 68.5t199 25h244v51q0 135 -62.5 203.5t-175.5 68.5zM414 1421v-207h-162v207h162zM780 1421v-207h-162v207h162z" />
    <glyph glyph-name="aring" unicode="&#xe5;" horiz-adv-x="1034" 
d="M455 113q207 0 301 166v184h-291q-106 0 -165.5 -50t-59.5 -128v-11q0 -72 56 -116.5t159 -44.5zM518 911q-163 0 -246 -153l-151 41q59 116 163 183t240 67q178 0 281.5 -108t103.5 -284v-657h-153v125q-49 -70 -132 -110t-192 -40q-157 0 -251.5 80.5t-94.5 204.5v27
q0 61 23 112.5t71 95t133 68.5t199 25h244v51q0 135 -62.5 203.5t-175.5 68.5zM727 1319q0 -94 -61 -150.5t-150 -56.5t-150 56.5t-61 150.5t61 150.5t150 56.5t150 -56.5t61 -150.5zM612 1319q0 48 -27 76.5t-69 28.5t-69 -28.5t-27 -76.5t27 -76t69 -28t69 28t27 76z" />
    <glyph glyph-name="ae" unicode="&#xe6;" horiz-adv-x="1703" 
d="M1182 -25q-116 0 -208 50t-147 137q-144 -187 -395 -187q-157 0 -251.5 80.5t-94.5 204.5v27q0 61 23 112.5t71 95t133 68.5t199 25h244v51q0 135 -62.5 203.5t-175.5 68.5q-163 0 -246 -153l-151 41q59 116 163 183t240 67q110 0 193.5 -46.5t128.5 -134.5
q56 88 142 134.5t194 46.5q187 0 305.5 -125t118.5 -306v-163h-695v-21q0 -149 76 -235t195 -86q91 0 155 45.5t90 128.5l158 -25q-42 -133 -146.5 -210t-256.5 -77zM455 113q207 0 301 166v184h-291q-106 0 -165.5 -50t-59.5 -128v-11q0 -72 56 -116.5t159 -44.5zM911 590
v-10h541v10q0 149 -75.5 235t-194.5 86t-195 -86t-76 -235z" />
    <glyph glyph-name="ccedilla" unicode="&#xe7;" horiz-adv-x="1005" 
d="M592 -274q0 43 -43 70.5t-127 31.5q-1 3 -4.5 8t-3.5 6l57 135q-166 17 -269.5 139.5t-103.5 289.5v212q0 181 118.5 306t305.5 125q157 0 264 -89.5t142 -232.5l-154 -27q-23 101 -89.5 156t-162.5 55q-119 0 -194.5 -86t-75.5 -235v-156q0 -149 75.5 -235t194.5 -86
q96 0 162.5 55t89.5 156l154 -27q-32 -124 -117 -209t-211 -106l-37 -80q166 -44 166 -185q0 -87 -58 -139.5t-165 -52.5q-125 0 -205 80l72 92q58 -51 125 -51q46 0 70 22t24 58z" />
    <glyph glyph-name="egrave" unicode="&#xe8;" horiz-adv-x="1044" 
d="M522 -25q-187 0 -305.5 125t-118.5 306v212q0 181 118.5 306t305.5 125t305.5 -125t118.5 -306v-163h-694v-21q0 -149 75.5 -235t194.5 -86q91 0 155.5 45.5t90.5 128.5l158 -25q-42 -132 -147 -209.5t-257 -77.5zM252 590v-10h541v10q0 149 -76 235t-195 86t-194.5 -86
t-75.5 -235zM526 1155l-229 330h168l188 -330h-127z" />
    <glyph glyph-name="eacute" unicode="&#xe9;" horiz-adv-x="1044" 
d="M522 -25q-187 0 -305.5 125t-118.5 306v212q0 181 118.5 306t305.5 125t305.5 -125t118.5 -306v-163h-694v-21q0 -149 75.5 -235t194.5 -86q91 0 155.5 45.5t90.5 128.5l158 -25q-42 -132 -147 -209.5t-257 -77.5zM252 590v-10h541v10q0 149 -76 235t-195 86t-194.5 -86
t-75.5 -235zM749 1485l-229 -330h-127l188 330h168z" />
    <glyph glyph-name="ecircumflex" unicode="&#xea;" horiz-adv-x="1044" 
d="M522 -25q-187 0 -305.5 125t-118.5 306v212q0 181 118.5 306t305.5 125t305.5 -125t118.5 -306v-163h-694v-21q0 -149 75.5 -235t194.5 -86q91 0 155.5 45.5t90.5 128.5l158 -25q-42 -132 -147 -209.5t-257 -77.5zM252 590v-10h541v10q0 149 -76 235t-195 86t-194.5 -86
t-75.5 -235zM705 1155l-189 203l-188 -203h-138l259 330h135l258 -330h-137z" />
    <glyph glyph-name="edieresis" unicode="&#xeb;" horiz-adv-x="1044" 
d="M522 -25q-187 0 -305.5 125t-118.5 306v212q0 181 118.5 306t305.5 125t305.5 -125t118.5 -306v-163h-694v-21q0 -149 75.5 -235t194.5 -86q91 0 155.5 45.5t90.5 128.5l158 -25q-42 -132 -147 -209.5t-257 -77.5zM252 590v-10h541v10q0 149 -76 235t-195 86t-194.5 -86
t-75.5 -235zM414 1422v-207h-162v207h162zM780 1422v-207h-162v207h162z" />
    <glyph glyph-name="igrave" unicode="&#xec;" horiz-adv-x="456" 
d="M152 0v1024h153v-1024h-153zM197 1155l-229 330h168l188 -330h-127z" />
    <glyph glyph-name="iacute" unicode="&#xed;" horiz-adv-x="456" 
d="M152 0v1024h153v-1024h-153zM489 1485l-229 -330h-127l188 330h168z" />
    <glyph glyph-name="icircumflex" unicode="&#xee;" horiz-adv-x="456" 
d="M152 0v1024h153v-1024h-153zM415 1155l-188 203l-188 -203h-138l258 330h136l258 -330h-138z" />
    <glyph glyph-name="idieresis" unicode="&#xef;" horiz-adv-x="456" 
d="M152 0v1024h153v-1024h-153zM125 1421v-207h-162v207h162zM492 1421v-207h-162v207h162z" />
    <glyph glyph-name="eth" unicode="&#xf0;" horiz-adv-x="1044" 
d="M643 1018l-100 184l-258 -57l-25 98l232 51l-89 164h168l70 -131l217 49l25 -98l-191 -43q25 -47 67 -123t62.5 -115t49 -99.5t42 -102.5t23.5 -96t10 -107v-186q0 -181 -118.5 -306t-305.5 -125t-305.5 125t-118.5 306v212q0 185 117.5 308t298.5 123q75 0 129 -31z
M793 434v156q0 149 -76 235t-195 86t-194.5 -86t-75.5 -235v-156q0 -149 75.5 -235t194.5 -86t195 86t76 235z" />
    <glyph glyph-name="ntilde" unicode="&#xf1;" horiz-adv-x="1071" 
d="M948 0h-153v594q0 163 -55 240t-183 77q-85 0 -159 -49t-113 -135v-727h-154v1024h154v-131q51 73 131.5 114.5t183.5 41.5q167 0 257.5 -111.5t90.5 -310.5v-627zM668 1196q-46 0 -96 28t-92.5 55.5t-71.5 27.5q-59 0 -76 -95l-117 13q13 101 62 151.5t126 50.5
q46 0 96 -27.5t93 -55t72 -27.5q31 0 48.5 22t26.5 72l117 -12q-13 -101 -62 -152t-126 -51z" />
    <glyph glyph-name="ograve" unicode="&#xf2;" horiz-adv-x="1044" 
d="M98 406v212q0 181 118.5 306t305.5 125t305.5 -125t118.5 -306v-212q0 -181 -118.5 -306t-305.5 -125t-305.5 125t-118.5 306zM793 434v156q0 149 -76 235t-195 86t-194.5 -86t-75.5 -235v-156q0 -149 75.5 -235t194.5 -86t195 86t76 235zM524 1155l-229 330h168
l188 -330h-127z" />
    <glyph glyph-name="oacute" unicode="&#xf3;" horiz-adv-x="1044" 
d="M98 406v212q0 181 118.5 306t305.5 125t305.5 -125t118.5 -306v-212q0 -181 -118.5 -306t-305.5 -125t-305.5 125t-118.5 306zM793 434v156q0 149 -76 235t-195 86t-194.5 -86t-75.5 -235v-156q0 -149 75.5 -235t194.5 -86t195 86t76 235zM749 1485l-229 -330h-127
l188 330h168z" />
    <glyph glyph-name="ocircumflex" unicode="&#xf4;" horiz-adv-x="1044" 
d="M98 406v212q0 181 118.5 306t305.5 125t305.5 -125t118.5 -306v-212q0 -181 -118.5 -306t-305.5 -125t-305.5 125t-118.5 306zM793 434v156q0 149 -76 235t-195 86t-194.5 -86t-75.5 -235v-156q0 -149 75.5 -235t194.5 -86t195 86t76 235zM710 1155l-188 203l-188 -203
h-138l258 330h136l258 -330h-138z" />
    <glyph glyph-name="otilde" unicode="&#xf5;" horiz-adv-x="1044" 
d="M98 406v212q0 181 118.5 306t305.5 125t305.5 -125t118.5 -306v-212q0 -181 -118.5 -306t-305.5 -125t-305.5 125t-118.5 306zM793 434v156q0 149 -76 235t-195 86t-194.5 -86t-75.5 -235v-156q0 -149 75.5 -235t194.5 -86t195 86t76 235zM655 1196q-46 0 -96 28
t-92.5 55.5t-71.5 27.5q-31 0 -49 -22.5t-27 -71.5l-117 12q13 101 62.5 152t126.5 51q46 0 96 -28t92.5 -55.5t71.5 -27.5q31 0 49 22.5t27 71.5l116 -12q-13 -101 -62 -152t-126 -51z" />
    <glyph glyph-name="odieresis" unicode="&#xf6;" horiz-adv-x="1044" 
d="M98 618v-212q0 -181 118.5 -306t305.5 -125t305.5 125t118.5 306v212q0 181 -118.5 306t-305.5 125t-305.5 -125t-118.5 -306zM793 590v-156q0 -149 -76 -235t-195 -86t-194.5 86t-75.5 235v156q0 149 75.5 235t194.5 86t195 -86t76 -235zM420 1421v-207h-162v207h162z
M786 1421v-207h-161v207h161z" />
    <glyph glyph-name="divide" unicode="&#xf7;" horiz-adv-x="1064" 
d="M104 729h857v-125h-857v125zM621 1116v-201h-177v201h177zM621 418v-201h-177v201h177z" />
    <glyph glyph-name="oslash" unicode="&#xf8;" horiz-adv-x="1044" 
d="M723 1001l53 101h125l-88 -164q63 -60 98 -143.5t35 -176.5v-212q0 -181 -118.5 -306t-305.5 -125q-112 0 -200 45l-54 -98h-125l88 164q-63 59 -98 142t-35 178v212q0 181 118.5 306t305.5 125q110 0 201 -48zM522 911q-119 0 -194.5 -86t-75.5 -235v-156
q0 -124 55 -207l348 650q-58 34 -133 34zM793 434v156q0 122 -56 207l-348 -650q53 -34 133 -34q119 0 195 86t76 235z" />
    <glyph glyph-name="ugrave" unicode="&#xf9;" horiz-adv-x="1073" 
d="M123 1024h153v-594q0 -163 55 -240t183 -77q85 0 159 49t113 135v727h154v-1024h-154v131q-51 -73 -131.5 -114.5t-183.5 -41.5q-167 0 -257.5 111.5t-90.5 310.5v627zM532 1155l-229 330h168l188 -330h-127z" />
    <glyph glyph-name="uacute" unicode="&#xfa;" horiz-adv-x="1073" 
d="M123 1024h153v-594q0 -163 55 -240t183 -77q85 0 159 49t113 135v727h154v-1024h-154v131q-51 -73 -131.5 -114.5t-183.5 -41.5q-167 0 -257.5 111.5t-90.5 310.5v627zM768 1485l-229 -330h-127l188 330h168z" />
    <glyph glyph-name="ucircumflex" unicode="&#xfb;" horiz-adv-x="1073" 
d="M123 1024h153v-594q0 -163 55 -240t183 -77q85 0 159 49t113 135v727h154v-1024h-154v131q-51 -73 -131.5 -114.5t-183.5 -41.5q-167 0 -257.5 111.5t-90.5 310.5v627zM719 1155l-188 203l-188 -203h-138l258 330h136l258 -330h-138z" />
    <glyph glyph-name="udieresis" unicode="&#xfc;" horiz-adv-x="1073" 
d="M123 1024h153v-594q0 -163 55 -240t183 -77q85 0 159 49t113 135v727h154v-1024h-154v131q-51 -73 -131.5 -114.5t-183.5 -41.5q-167 0 -257.5 111.5t-90.5 310.5v627zM428 1421v-207h-162v207h162zM795 1421v-207h-162v207h162z" />
    <glyph glyph-name="yacute" unicode="&#xfd;" horiz-adv-x="983" 
d="M358 -178l74 205l-412 997h164l324 -801l291 801h164l-461 -1239q-48 -128 -116.5 -172.5t-186.5 -44.5h-66v137h60q61 0 101 26.5t64 90.5zM733 1485l-229 -330h-127l188 330h168z" />
    <glyph glyph-name="thorn" unicode="&#xfe;" horiz-adv-x="1046" 
d="M948 618v-212q0 -192 -98 -311.5t-275 -119.5q-97 0 -172 37t-118 101v-559h-154v1904h154v-547q43 64 118 101t172 37q177 0 275 -119.5t98 -311.5zM795 434v156q0 321 -260 321q-83 0 -147.5 -44.5t-102.5 -121.5v-466q38 -77 102.5 -121.5t147.5 -44.5q260 0 260 321z
" />
    <glyph glyph-name="ydieresis" unicode="&#xff;" horiz-adv-x="983" 
d="M358 -178l74 205l-412 997h164l324 -801l291 801h164l-461 -1239q-48 -128 -116.5 -172.5t-186.5 -44.5h-66v137h60q61 0 101 26.5t64 90.5zM396 1422v-207h-162v207h162zM762 1422v-207h-162v207h162z" />
    <glyph glyph-name="Amacron" unicode="&#x100;" horiz-adv-x="1167" 
d="M664 1434h-160l-492 -1434h174l115 354h563l117 -354h174zM348 500l236 717l233 -717h-469zM299 1667v119h569v-119h-569z" />
    <glyph glyph-name="amacron" unicode="&#x101;" horiz-adv-x="1034" 
d="M455 113q207 0 301 166v184h-291q-106 0 -165.5 -50t-59.5 -128v-11q0 -72 56 -116.5t159 -44.5zM518 911q-163 0 -246 -153l-151 41q59 116 163 183t240 67q178 0 281.5 -108t103.5 -284v-657h-153v125q-49 -70 -132 -110t-192 -40q-157 0 -251.5 80.5t-94.5 204.5v27
q0 61 23 112.5t71 95t133 68.5t199 25h244v51q0 135 -62.5 203.5t-175.5 68.5zM238 1260v118h569v-118h-569z" />
    <glyph glyph-name="Abreve" unicode="&#x102;" horiz-adv-x="1167" 
d="M504 1434h160l491 -1434h-174l-117 354h-563l-115 -354h-174zM584 1217l-236 -717h469zM584 1571q-121 0 -200 67.5t-108 200.5l127 25q43 -172 181 -172q137 0 180 172l127 -25q-29 -134 -107.5 -201t-199.5 -67z" />
    <glyph glyph-name="abreve" unicode="&#x103;" horiz-adv-x="1034" 
d="M455 113q207 0 301 166v184h-291q-106 0 -165.5 -50t-59.5 -128v-11q0 -72 56 -116.5t159 -44.5zM518 911q-163 0 -246 -153l-151 41q59 116 163 183t240 67q178 0 281.5 -108t103.5 -284v-657h-153v125q-49 -70 -132 -110t-192 -40q-157 0 -251.5 80.5t-94.5 204.5v27
q0 61 23 112.5t71 95t133 68.5t199 25h244v51q0 135 -62.5 203.5t-175.5 68.5zM522 1167q-121 0 -199.5 67.5t-107.5 201.5l127 24q43 -172 180 -172t180 172l127 -24q-29 -134 -107.5 -201.5t-199.5 -67.5z" />
    <glyph glyph-name="Aogonek" unicode="&#x104;" horiz-adv-x="1167" 
d="M504 1434h160l491 -1434h-45q-145 -99 -145 -207v-10q0 -46 28 -76.5t76 -30.5q68 0 115 50l78 -82q-82 -88 -211 -88q-99 0 -160.5 53.5t-61.5 140.5v14q0 65 41.5 130t110.5 106l-117 354h-563l-115 -354h-174zM584 1217l-236 -717h469z" />
    <glyph glyph-name="aogonek" unicode="&#x105;" horiz-adv-x="1034" 
d="M756 0v125q-49 -70 -132 -110t-192 -40q-157 0 -251.5 80.5t-94.5 204.5v27q0 61 23 112.5t71 95t133 68.5t199 25h244v51q0 135 -62.5 203.5t-175.5 68.5q-163 0 -246 -153l-151 41q59 116 163 183t240 67q178 0 281.5 -108t103.5 -284v-657h-24q-146 -100 -146 -207
v-10q0 -46 28.5 -76.5t76.5 -30.5q67 0 114 50l78 -82q-82 -88 -211 -88q-99 0 -160 53.5t-61 140.5v14q0 65 41.5 130t110.5 106zM455 113q207 0 301 166v184h-291q-106 0 -165.5 -50t-59.5 -128v-11q0 -72 56 -116.5t159 -44.5z" />
    <glyph glyph-name="Cacute" unicode="&#x106;" horiz-adv-x="1193" 
d="M608 1313q-155 0 -246.5 -118t-91.5 -327v-303q0 -209 91.5 -326.5t246.5 -117.5q133 0 220.5 83t115.5 240l160 -26q-29 -204 -162 -323.5t-334 -119.5q-227 0 -363 156.5t-136 409.5v352q0 253 136 409t363 156q201 0 334 -120t162 -324l-160 -27q-28 158 -115.5 242
t-220.5 84zM819 1892l-229 -330h-127l188 330h168z" />
    <glyph glyph-name="cacute" unicode="&#x107;" horiz-adv-x="1005" 
d="M98 406v212q0 181 118.5 306t305.5 125q157 0 264 -89.5t142 -232.5l-154 -27q-23 101 -89.5 156t-162.5 55q-119 0 -194.5 -86t-75.5 -235v-156q0 -149 75.5 -235t194.5 -86q96 0 162.5 55t89.5 156l154 -27q-35 -143 -142 -232.5t-264 -89.5q-187 0 -305.5 125
t-118.5 306zM723 1485l-229 -330h-127l188 330h168z" />
    <glyph glyph-name="Ccircumflex" unicode="&#x108;" horiz-adv-x="1193" 
d="M608 1313q-155 0 -246.5 -118t-91.5 -327v-303q0 -209 91.5 -326.5t246.5 -117.5q133 0 220.5 83t115.5 240l160 -26q-29 -204 -162 -323.5t-334 -119.5q-227 0 -363 156.5t-136 409.5v352q0 253 136 409t363 156q201 0 334 -120t162 -324l-160 -27q-28 158 -115.5 242
t-220.5 84zM780 1562l-188 203l-188 -203h-138l258 330h136l258 -330h-138z" />
    <glyph glyph-name="ccircumflex" unicode="&#x109;" horiz-adv-x="1005" 
d="M98 406v212q0 181 118.5 306t305.5 125q157 0 264 -89.5t142 -232.5l-154 -27q-23 101 -89.5 156t-162.5 55q-119 0 -194.5 -86t-75.5 -235v-156q0 -149 75.5 -235t194.5 -86q96 0 162.5 55t89.5 156l154 -27q-35 -143 -142 -232.5t-264 -89.5q-187 0 -305.5 125
t-118.5 306zM688 1155l-188 203l-188 -203h-138l258 330h136l258 -330h-138z" />
    <glyph glyph-name="Cdotaccent" unicode="&#x10a;" horiz-adv-x="1193" 
d="M608 1313q133 0 220.5 -84t115.5 -242l160 27q-29 204 -162 324t-334 120q-227 0 -363 -156t-136 -409v-352q0 -253 136 -409.5t363 -156.5q201 0 334 119.5t162 323.5l-160 26q-28 -157 -115.5 -240t-220.5 -83q-155 0 -246.5 117.5t-91.5 326.5v303q0 209 91.5 327
t246.5 118zM680 1837v-221h-176v221h176z" />
    <glyph glyph-name="cdotaccent" unicode="&#x10b;" horiz-adv-x="1005" 
d="M98 406v212q0 181 118.5 306t305.5 125q157 0 264 -89.5t142 -232.5l-154 -27q-23 101 -89.5 156t-162.5 55q-119 0 -194.5 -86t-75.5 -235v-156q0 -149 75.5 -235t194.5 -86q96 0 162.5 55t89.5 156l154 -27q-35 -143 -142 -232.5t-264 -89.5q-187 0 -305.5 125
t-118.5 306zM590 1430v-222h-176v222h176z" />
    <glyph glyph-name="Ccaron" unicode="&#x10c;" horiz-adv-x="1193" 
d="M608 1313q133 0 220.5 -84t115.5 -242l160 27q-29 204 -162 324t-334 120q-227 0 -363 -156t-136 -409v-352q0 -253 136 -409.5t363 -156.5q201 0 334 119.5t162 323.5l-160 26q-28 -157 -115.5 -240t-220.5 -83q-155 0 -246.5 117.5t-91.5 326.5v303q0 209 91.5 327
t246.5 118zM592 1690l188 202h138l-259 -329h-135l-258 329h137z" />
    <glyph glyph-name="ccaron" unicode="&#x10d;" horiz-adv-x="1005" 
d="M98 406v212q0 181 118.5 306t305.5 125q157 0 264 -89.5t142 -232.5l-154 -27q-23 101 -89.5 156t-162.5 55q-119 0 -194.5 -86t-75.5 -235v-156q0 -149 75.5 -235t194.5 -86q96 0 162.5 55t89.5 156l154 -27q-35 -143 -142 -232.5t-264 -89.5q-187 0 -305.5 125
t-118.5 306zM502 1282l188 203h137l-258 -330h-135l-258 330h137z" />
    <glyph glyph-name="Dcaron" unicode="&#x10e;" horiz-adv-x="1210" 
d="M930 565v303q0 206 -95.5 313t-256.5 107h-265v-1143h265q161 0 256.5 107t95.5 313zM1092 893v-352q0 -251 -137 -396t-365 -145h-438v1434h438q228 0 365 -145t137 -396zM541 1689l188 203h138l-258 -330h-136l-258 330h138z" />
    <glyph glyph-name="dcaron" unicode="&#x10f;" horiz-adv-x="1222" 
d="M762 0v113q-43 -63 -118.5 -100.5t-172.5 -37.5q-177 0 -275 119.5t-98 311.5v212q0 192 98 311.5t275 119.5q97 0 172.5 -37.5t118.5 -100.5v547h153v-1458h-153zM252 590v-156q0 -321 260 -321q83 0 147.5 44.5t102.5 121.5v466q-38 77 -102.5 121.5t-147.5 44.5
q-260 0 -260 -321zM1202 1458v-194q0 -100 -41.5 -153.5t-134.5 -66.5v76q50 10 73 39.5t23 97.5h-96v201h176z" />
    <glyph glyph-name="Dcroat" unicode="&#x110;" horiz-adv-x="1210" 
d="M152 653h-127v127h127v654h438q228 0 365 -145t137 -396v-352q0 -251 -137 -396t-365 -145h-438v653zM930 565v303q0 206 -95.5 313t-256.5 107h-265v-508h275v-127h-275v-508h265q161 0 256.5 107t95.5 313z" />
    <glyph glyph-name="dcroat" unicode="&#x111;" horiz-adv-x="1046" 
d="M461 1323h301v135h153v-135h127v-119h-127v-1204h-153v113q-43 -63 -118.5 -100.5t-172.5 -37.5q-177 0 -275 119.5t-98 311.5v212q0 192 98 311.5t275 119.5q97 0 172.5 -37.5t118.5 -100.5v293h-301v119zM252 590v-156q0 -321 260 -321q83 0 147.5 44.5t102.5 121.5
v466q-38 77 -102.5 121.5t-147.5 44.5q-260 0 -260 -321z" />
    <glyph glyph-name="Emacron" unicode="&#x112;" horiz-adv-x="1103" 
d="M1004 0h-852v1434h852v-146h-691v-477h609v-145h-609v-521h691v-145zM283 1667v119h569v-119h-569z" />
    <glyph glyph-name="emacron" unicode="&#x113;" horiz-adv-x="1044" 
d="M522 -25q-187 0 -305.5 125t-118.5 306v212q0 181 118.5 306t305.5 125t305.5 -125t118.5 -306v-163h-694v-21q0 -149 75.5 -235t194.5 -86q91 0 155.5 45.5t90.5 128.5l158 -25q-42 -132 -147 -209.5t-257 -77.5zM252 590v-10h541v10q0 149 -76 235t-195 86t-194.5 -86
t-75.5 -235zM231 1260v118h570v-118h-570z" />
    <glyph glyph-name="Ebreve" unicode="&#x114;" horiz-adv-x="1103" 
d="M1004 0h-852v1434h852v-146h-691v-477h609v-145h-609v-521h691v-145zM571 1571q-121 0 -199.5 67t-107.5 201l127 25q43 -172 180 -172q138 0 181 172l127 -25q-29 -133 -108 -200.5t-200 -67.5z" />
    <glyph glyph-name="ebreve" unicode="&#x115;" horiz-adv-x="1044" 
d="M522 -25q-187 0 -305.5 125t-118.5 306v212q0 181 118.5 306t305.5 125t305.5 -125t118.5 -306v-163h-694v-21q0 -149 75.5 -235t194.5 -86q91 0 155.5 45.5t90.5 128.5l158 -25q-42 -132 -147 -209.5t-257 -77.5zM252 590v-10h541v10q0 149 -76 235t-195 86t-194.5 -86
t-75.5 -235zM514 1167q-121 0 -199.5 67.5t-107.5 201.5l127 24q43 -172 180 -172t180 172l127 -24q-29 -134 -107.5 -201.5t-199.5 -67.5z" />
    <glyph glyph-name="Edotaccent" unicode="&#x116;" horiz-adv-x="1103" 
d="M1004 0h-852v1434h852v-146h-691v-477h609v-145h-609v-521h691v-145zM649 1837v-221h-176v221h176z" />
    <glyph glyph-name="edotaccent" unicode="&#x117;" horiz-adv-x="1044" 
d="M522 -25q-187 0 -305.5 125t-118.5 306v212q0 181 118.5 306t305.5 125t305.5 -125t118.5 -306v-163h-694v-21q0 -149 75.5 -235t194.5 -86q91 0 155.5 45.5t90.5 128.5l158 -25q-42 -132 -147 -209.5t-257 -77.5zM252 590v-10h541v10q0 149 -76 235t-195 86t-194.5 -86
t-75.5 -235zM602 1430v-222h-176v222h176z" />
    <glyph glyph-name="Eogonek" unicode="&#x118;" horiz-adv-x="1103" 
d="M754 0h-602v1434h852v-146h-691v-477h609v-145h-609v-521h691v-145h-121q-146 -100 -146 -207v-10q0 -46 28.5 -76.5t76.5 -30.5q67 0 114 50l78 -82q-82 -88 -211 -88q-99 0 -160 53.5t-61 140.5v14q0 65 41.5 130t110.5 106z" />
    <glyph glyph-name="eogonek" unicode="&#x119;" horiz-adv-x="1044" 
d="M926 262q-36 -110 -115 -182.5t-193 -93.5q-59 -44 -90.5 -94.5t-31.5 -98.5v-10q0 -46 28 -76.5t76 -30.5q68 0 115 50l78 -82q-82 -88 -211 -88q-99 0 -160.5 53.5t-61.5 140.5v14q0 57 32 114.5t87 98.5q-170 15 -275.5 137t-105.5 292v212q0 181 118.5 306t305.5 125
t305.5 -125t118.5 -306v-163h-694v-21q0 -149 75.5 -235t194.5 -86q91 0 155.5 45.5t90.5 128.5zM252 590v-10h541v10q0 149 -76 235t-195 86t-194.5 -86t-75.5 -235z" />
    <glyph glyph-name="Ecaron" unicode="&#x11a;" horiz-adv-x="1103" 
d="M1004 0h-852v1434h852v-146h-691v-477h609v-145h-609v-521h691v-145zM571 1689l188 203h138l-258 -330h-136l-258 330h138z" />
    <glyph glyph-name="ecaron" unicode="&#x11b;" horiz-adv-x="1044" 
d="M522 -25q-187 0 -305.5 125t-118.5 306v212q0 181 118.5 306t305.5 125t305.5 -125t118.5 -306v-163h-694v-21q0 -149 75.5 -235t194.5 -86q91 0 155.5 45.5t90.5 128.5l158 -25q-42 -132 -147 -209.5t-257 -77.5zM252 590v-10h541v10q0 149 -76 235t-195 86t-194.5 -86
t-75.5 -235zM514 1282l188 203h138l-258 -330h-136l-258 330h138z" />
    <glyph glyph-name="Gcircumflex" unicode="&#x11c;" horiz-adv-x="1214" 
d="M270 868v-303q0 -209 91.5 -326.5t250.5 -117.5q158 0 249 119t91 315v41h-336v145h498v-198q0 -253 -135 -410.5t-367 -157.5q-231 0 -367 156.5t-136 409.5v352q0 253 136 409t363 156q201 0 334 -120t162 -324l-160 -27q-28 158 -115.5 242t-220.5 84
q-155 0 -246.5 -118t-91.5 -327zM786 1563l-188 202l-188 -202h-138l258 329h136l258 -329h-138z" />
    <glyph glyph-name="gcircumflex" unicode="&#x11d;" horiz-adv-x="1046" 
d="M762 -14v127q-43 -63 -118.5 -100.5t-172.5 -37.5q-177 0 -275 119.5t-98 311.5v212q0 192 98 311.5t275 119.5q97 0 172.5 -37.5t118.5 -100.5v113h153v-1049q0 -206 -102 -328t-293 -122q-135 0 -235 69t-144 193l152 37q29 -78 87.5 -120t139.5 -42q116 0 179 82.5
t63 241.5zM252 590v-156q0 -321 260 -321q83 0 147.5 44.5t102.5 121.5v466q-38 77 -102.5 121.5t-147.5 44.5q-260 0 -260 -321zM711 1155l-189 203l-188 -203h-137l258 330h135l258 -330h-137z" />
    <glyph glyph-name="Gbreve" unicode="&#x11e;" horiz-adv-x="1214" 
d="M270 868v-303q0 -209 91.5 -326.5t250.5 -117.5q158 0 249 119t91 315v41h-336v145h498v-198q0 -253 -135 -410.5t-367 -157.5q-231 0 -367 156.5t-136 409.5v352q0 253 136 409t363 156q201 0 334 -120t162 -324l-160 -27q-28 158 -115.5 242t-220.5 84
q-155 0 -246.5 -118t-91.5 -327zM598 1571q-121 0 -199.5 67t-107.5 201l127 24q43 -172 180 -172t180 172l127 -24q-29 -134 -107.5 -201t-199.5 -67z" />
    <glyph glyph-name="gbreve" unicode="&#x11f;" horiz-adv-x="1046" 
d="M762 -14v127q-43 -63 -118.5 -100.5t-172.5 -37.5q-177 0 -275 119.5t-98 311.5v212q0 192 98 311.5t275 119.5q97 0 172.5 -37.5t118.5 -100.5v113h153v-1049q0 -206 -102 -328t-293 -122q-135 0 -235 69t-144 193l152 37q29 -78 87.5 -120t139.5 -42q116 0 179 82.5
t63 241.5zM252 590v-156q0 -321 260 -321q83 0 147.5 44.5t102.5 121.5v466q-38 77 -102.5 121.5t-147.5 44.5q-260 0 -260 -321zM524 1168q-121 0 -199.5 67t-107.5 201l127 24q43 -172 180 -172t180 172l127 -24q-29 -134 -107.5 -201t-199.5 -67z" />
    <glyph glyph-name="Gdotaccent" unicode="&#x120;" horiz-adv-x="1214" 
d="M270 868v-303q0 -209 91.5 -326.5t250.5 -117.5q158 0 249 119t91 315v41h-336v145h498v-198q0 -253 -135 -410.5t-367 -157.5q-231 0 -367 156.5t-136 409.5v352q0 253 136 409t363 156q201 0 334 -120t162 -324l-160 -27q-28 158 -115.5 242t-220.5 84
q-155 0 -246.5 -118t-91.5 -327zM686 1837v-221h-176v221h176z" />
    <glyph glyph-name="gdotaccent" unicode="&#x121;" horiz-adv-x="1046" 
d="M762 -14v127q-43 -63 -118.5 -100.5t-172.5 -37.5q-177 0 -275 119.5t-98 311.5v212q0 192 98 311.5t275 119.5q97 0 172.5 -37.5t118.5 -100.5v113h153v-1049q0 -206 -102 -328t-293 -122q-135 0 -235 69t-144 193l152 37q29 -78 87.5 -120t139.5 -42q116 0 179 82.5
t63 241.5zM252 590v-156q0 -321 260 -321q83 0 147.5 44.5t102.5 121.5v466q-38 77 -102.5 121.5t-147.5 44.5q-260 0 -260 -321zM614 1430v-221h-176v221h176z" />
    <glyph glyph-name="Gcommaaccent" unicode="&#x122;" horiz-adv-x="1214" 
d="M270 868v-303q0 -209 91.5 -326.5t250.5 -117.5q158 0 249 119t91 315v41h-336v145h498v-198q0 -253 -135 -410.5t-367 -157.5q-231 0 -367 156.5t-136 409.5v352q0 253 136 409t363 156q201 0 334 -120t162 -324l-160 -27q-28 158 -115.5 242t-220.5 84
q-155 0 -246.5 -118t-91.5 -327zM608 -430h-125l82 319h162z" />
    <glyph glyph-name="gcommaaccent" unicode="&#x123;" horiz-adv-x="1046" 
d="M762 -14v127q-43 -63 -118.5 -100.5t-172.5 -37.5q-177 0 -275 119.5t-98 311.5v212q0 192 98 311.5t275 119.5q97 0 172.5 -37.5t118.5 -100.5v113h153v-1049q0 -206 -102 -328t-293 -122q-135 0 -235 69t-144 193l152 37q29 -78 87.5 -120t139.5 -42q116 0 179 82.5
t63 241.5zM252 590v-156q0 -321 260 -321q83 0 147.5 44.5t102.5 121.5v466q-38 77 -102.5 121.5t-147.5 44.5q-260 0 -260 -321zM553 1458h125l-82 -319h-162z" />
    <glyph glyph-name="Hcircumflex" unicode="&#x124;" horiz-adv-x="1259" 
d="M946 0v664h-633v-664h-161v1434h161v-625h633v625h162v-1434h-162zM817 1562l-188 203l-188 -203h-138l258 330h136l258 -330h-138z" />
    <glyph glyph-name="hcircumflex" unicode="&#x125;" horiz-adv-x="1073" 
d="M948 0h-153v594q0 163 -55 240t-183 77q-85 0 -159 -49t-113 -135v-727h-154v1458h154v-565q51 73 131.5 114.5t183.5 41.5q167 0 257.5 -111.5t90.5 -310.5v-627zM397 1562l-188 203l-188 -203h-138l258 330h136l258 -330h-138z" />
    <glyph glyph-name="Hbar" unicode="&#x126;" horiz-adv-x="1259" 
d="M1235 1081h-127v-1081h-162v664h-633v-664h-161v1081h-127v127h127v226h161v-226h633v226h162v-226h127v-127zM313 809h633v272h-633v-272z" />
    <glyph glyph-name="hbar" unicode="&#x127;" horiz-adv-x="1073" 
d="M586 1204h-301v-311q51 73 131.5 114.5t183.5 41.5q167 0 257.5 -111.5t90.5 -310.5v-627h-153v594q0 163 -55 240t-183 77q-85 0 -159 -49t-113 -135v-727h-154v1204h-127v119h127v135h154v-135h301v-119z" />
    <glyph glyph-name="Itilde" unicode="&#x128;" horiz-adv-x="464" 
d="M313 1434v-1434h-161v1434h161zM365 1604q-46 0 -96 27.5t-93 55t-72 27.5q-31 0 -48.5 -22t-26.5 -72l-117 12q13 101 62 152t126 51q37 0 76.5 -17.5t67.5 -38t60 -38t56 -17.5q59 0 76 95l117 -13q-13 -101 -62 -151.5t-126 -50.5z" />
    <glyph glyph-name="itilde" unicode="&#x129;" horiz-adv-x="456" 
d="M152 0v1024h153v-1024h-153zM360 1196q-46 0 -96 28t-92.5 55.5t-71.5 27.5q-31 0 -49 -22.5t-27 -71.5l-117 12q13 101 62.5 152t126.5 51q46 0 96 -28t92.5 -55.5t71.5 -27.5q31 0 49 22.5t27 71.5l116 -12q-13 -101 -62 -152t-126 -51z" />
    <glyph glyph-name="Imacron" unicode="&#x12a;" horiz-adv-x="464" 
d="M313 1434v-1434h-161v1434h161zM-54 1667v118h570v-118h-570z" />
    <glyph glyph-name="imacron" unicode="&#x12b;" horiz-adv-x="456" 
d="M152 0v1024h153v-1024h-153zM-57 1260v118h569v-118h-569z" />
    <glyph glyph-name="Ibreve" unicode="&#x12c;" horiz-adv-x="464" 
d="M313 1434v-1434h-161v1434h161zM231 1571q-121 0 -199.5 67t-107.5 201l127 25q43 -172 180 -172q138 0 181 172l127 -25q-29 -133 -108 -200.5t-200 -67.5z" />
    <glyph glyph-name="ibreve" unicode="&#x12d;" horiz-adv-x="456" 
d="M152 0v1024h153v-1024h-153zM227 1167q-121 0 -199.5 67.5t-107.5 201.5l127 24q43 -172 180 -172q138 0 181 172l127 -24q-29 -134 -108 -201.5t-200 -67.5z" />
    <glyph glyph-name="Iogonek" unicode="&#x12e;" horiz-adv-x="464" 
d="M184 0h-32v1434h161v-1434q-145 -99 -145 -207v-10q0 -46 28 -76.5t76 -30.5q68 0 115 50l78 -82q-82 -88 -211 -88q-99 0 -160 53.5t-61 140.5v14q0 65 41.5 130t109.5 106z" />
    <glyph glyph-name="iogonek" unicode="&#x12f;" horiz-adv-x="456" 
d="M152 0v1024h153v-1024q-145 -99 -145 -207v-10q0 -46 28 -76.5t76 -30.5q68 0 115 50l78 -82q-82 -88 -211 -88q-99 0 -160 53.5t-61 140.5v14q0 65 41.5 130t109.5 106h-24zM152 1270v188h153v-188h-153z" />
    <glyph glyph-name="Idotaccent" unicode="&#x130;" horiz-adv-x="464" 
d="M313 1434v-1434h-161v1434h161zM319 1837v-221h-176v221h176z" />
    <glyph glyph-name="dotlessi" unicode="&#x131;" horiz-adv-x="456" 
d="M152 0v1024h153v-1024h-153z" />
    <glyph glyph-name="IJ" unicode="&#x132;" horiz-adv-x="1497" 
d="M313 1434v-1434h-161v1434h161zM1204 461v973h162v-998q0 -226 -117 -343.5t-313 -117.5q-159 0 -271.5 90t-154.5 259l162 26q24 -84 69 -137t92.5 -72.5t102.5 -19.5q57 0 103.5 17.5t84.5 56t59 106t21 160.5z" />
    <glyph glyph-name="ij" unicode="&#x133;" horiz-adv-x="933" 
d="M152 0v1024h153v-1024h-153zM152 1270v188h153v-188h-153zM629 1270v188h153v-188h-153zM629 -117v1141h153v-1157q0 -156 -74 -228.5t-227 -72.5h-65v137h65q76 0 112 43.5t36 136.5z" />
    <glyph glyph-name="Jcircumflex" unicode="&#x134;" horiz-adv-x="1032" 
d="M739 461v973h162v-998q0 -226 -117 -343.5t-313 -117.5q-159 0 -271.5 90t-154.5 259l162 26q24 -84 69 -137t92.5 -72.5t102.5 -19.5q57 0 103.5 17.5t84.5 56t59 106t21 160.5zM1009 1562l-188 203l-188 -203h-138l258 330h136l258 -330h-138z" />
    <glyph glyph-name="jcircumflex" unicode="&#x135;" horiz-adv-x="477" 
d="M172 -117v1141h154v-1157q0 -156 -74 -228.5t-227 -72.5h-66v137h66q75 0 111 43.5t36 136.5zM436 1155l-188 203l-189 -203h-137l258 330h135l258 -330h-137z" />
    <glyph glyph-name="Kcommaaccent" unicode="&#x136;" horiz-adv-x="1179" 
d="M989 0l-428 700l-248 -159v-541h-161v1434h161v-709l234 149q106 68 174 131.5t103 131t47 131t12 151.5v15h159v-15q0 -106 -15.5 -188.5t-55 -161.5t-109 -149t-174.5 -138l483 -782h-182zM604 -430h-125l82 319h162z" />
    <glyph glyph-name="kcommaaccent" unicode="&#x137;" horiz-adv-x="966" 
d="M618 578l353 -578h-172l-301 498l-213 -138v-360h-154v1458h154v-926l229 150q106 69 152.5 145t46.5 183v14h153v-16q0 -150 -57 -246t-191 -184zM508 -430h-125l82 319h162z" />
    <glyph glyph-name="kgreenlandic" unicode="&#x138;" horiz-adv-x="966" 
d="M618 578l353 -578h-172l-301 498l-213 -138v-360h-154v1024h154v-492l229 150q106 69 152.5 145t46.5 183v14h153v-16q0 -150 -57 -246t-191 -184z" />
    <glyph glyph-name="Lacute" unicode="&#x139;" horiz-adv-x="1036" 
d="M1004 145v-145h-852v1434h161v-1289h691zM495 1892l-229 -330h-127l188 330h168z" />
    <glyph glyph-name="lacute" unicode="&#x13a;" horiz-adv-x="538" 
d="M483 137v-137h-41q-290 0 -290 295v1163h153v-1147q0 -174 141 -174h37zM489 1892l-229 -330h-127l188 330h168z" />
    <glyph glyph-name="Lcommaaccent" unicode="&#x13b;" horiz-adv-x="1036" 
d="M1004 145v-145h-852v1434h161v-1289h691zM580 -430h-125l82 319h161z" />
    <glyph glyph-name="lcommaaccent" unicode="&#x13c;" horiz-adv-x="538" 
d="M483 137v-137h-41q-290 0 -290 295v1163h153v-1147q0 -174 141 -174h37zM313 -430h-125l82 319h162z" />
    <glyph glyph-name="Lcaron" unicode="&#x13d;" horiz-adv-x="1036" 
d="M1004 145v-145h-852v1434h161v-1289h691zM850 1458v-194q0 -100 -41.5 -153.5t-134.5 -66.5v76q50 10 73 39.5t23 97.5h-96v201h176z" />
    <glyph glyph-name="lcaron" unicode="&#x13e;" horiz-adv-x="612" 
d="M483 137v-137h-41q-290 0 -290 295v1163h153v-1147q0 -174 141 -174h37zM592 1458v-194q0 -100 -41.5 -153.5t-134.5 -66.5v76q50 10 73 39.5t23 97.5h-96v201h176z" />
    <glyph glyph-name="Ldot" unicode="&#x13f;" horiz-adv-x="1036" 
d="M1004 145v-145h-852v1434h161v-1289h691zM840 887v-221h-176v221h176z" />
    <glyph glyph-name="ldot" unicode="&#x140;" horiz-adv-x="729" 
d="M483 137v-137h-41q-290 0 -290 295v1163h153v-1147q0 -174 141 -174h37zM664 887v-221h-177v221h177z" />
    <glyph glyph-name="Lslash" unicode="&#x141;" horiz-adv-x="1036" 
d="M20 578l132 69v787h161v-701l377 199v-129l-377 -199v-459h691v-145h-852v518l-132 -69v129z" />
    <glyph glyph-name="lslash" unicode="&#x142;" horiz-adv-x="538" 
d="M483 754l-178 -97v-346q0 -174 141 -174h37v-137h-41q-290 0 -290 295v278l-132 -69v129l132 69v756h153v-672l178 97v-129z" />
    <glyph glyph-name="Nacute" unicode="&#x143;" horiz-adv-x="1318" 
d="M152 1434h153l701 -1137v1137h161v-1434h-153l-701 1137v-1137h-161v1434zM889 1892l-229 -330h-127l188 330h168z" />
    <glyph glyph-name="nacute" unicode="&#x144;" horiz-adv-x="1071" 
d="M948 0h-153v594q0 163 -55 240t-183 77q-85 0 -159 -49t-113 -135v-727h-154v1024h154v-131q51 73 131.5 114.5t183.5 41.5q167 0 257.5 -111.5t90.5 -310.5v-627zM766 1485l-229 -330h-127l188 330h168z" />
    <glyph glyph-name="Ncommaaccent" unicode="&#x145;" horiz-adv-x="1318" 
d="M152 1434h153l701 -1137v1137h161v-1434h-153l-701 1137v-1137h-161v1434zM664 -430h-125l82 319h161z" />
    <glyph glyph-name="ncommaaccent" unicode="&#x146;" horiz-adv-x="1071" 
d="M948 0h-153v594q0 163 -55 240t-183 77q-85 0 -159 -49t-113 -135v-727h-154v1024h154v-131q51 73 131.5 114.5t183.5 41.5q167 0 257.5 -111.5t90.5 -310.5v-627zM518 -430h-125l82 319h162z" />
    <glyph glyph-name="Ncaron" unicode="&#x147;" horiz-adv-x="1318" 
d="M152 1434h153l701 -1137v1137h161v-1434h-153l-701 1137v-1137h-161v1434zM659 1690l189 202h137l-258 -329h-135l-258 329h137z" />
    <glyph glyph-name="ncaron" unicode="&#x148;" horiz-adv-x="1071" 
d="M948 0h-153v594q0 163 -55 240t-183 77q-85 0 -159 -49t-113 -135v-727h-154v1024h154v-131q51 73 131.5 114.5t183.5 41.5q167 0 257.5 -111.5t90.5 -310.5v-627zM537 1282l188 203h137l-258 -330h-135l-258 330h137z" />
    <glyph glyph-name="napostrophe" unicode="&#x149;" horiz-adv-x="1116" 
d="M991 0h-153v594q0 163 -55 240t-183 77q-85 0 -159 -49t-113 -135v-727h-154v1024h154v-131q51 73 131.5 114.5t183.5 41.5q167 0 257.5 -111.5t90.5 -310.5v-627zM205 1458v-194q0 -100 -41.5 -153.5t-134.5 -66.5v76q50 10 73 39.5t23 97.5h-96v201h176z" />
    <glyph glyph-name="Eng" unicode="&#x14a;" horiz-adv-x="1318" 
d="M1006 -117v131l-693 1123v-1137h-161v1434h153l701 -1137v1137h161v-1567q0 -156 -74 -228.5t-227 -72.5h-65v145h65q140 0 140 172z" />
    <glyph glyph-name="eng" unicode="&#x14b;" horiz-adv-x="1071" 
d="M795 -117v711q0 163 -55 240t-183 77q-85 0 -159 -49t-113 -135v-727h-154v1024h154v-131q51 73 131.5 114.5t183.5 41.5q167 0 257.5 -111.5t90.5 -310.5v-760q0 -156 -74 -228.5t-227 -72.5h-65v137h65q76 0 112 43.5t36 136.5z" />
    <glyph glyph-name="Omacron" unicode="&#x14c;" horiz-adv-x="1216" 
d="M1108 893v-352q0 -253 -136.5 -409.5t-363.5 -156.5t-363 156.5t-136 409.5v352q0 253 136 409t363 156t363.5 -156.5t136.5 -408.5zM946 565v303q0 209 -91.5 327t-246.5 118t-246.5 -118t-91.5 -327v-303q0 -209 91.5 -326.5t246.5 -117.5t246.5 117.5t91.5 326.5z
M323 1667v118h570v-118h-570z" />
    <glyph glyph-name="omacron" unicode="&#x14d;" horiz-adv-x="1044" 
d="M98 406v212q0 181 118.5 306t305.5 125t305.5 -125t118.5 -306v-212q0 -181 -118.5 -306t-305.5 -125t-305.5 125t-118.5 306zM793 434v156q0 149 -76 235t-195 86t-194.5 -86t-75.5 -235v-156q0 -149 75.5 -235t194.5 -86t195 86t76 235zM237 1260v118h570v-118h-570z
" />
    <glyph glyph-name="Obreve" unicode="&#x14e;" horiz-adv-x="1216" 
d="M1108 893v-352q0 -253 -136.5 -409.5t-363.5 -156.5t-363 156.5t-136 409.5v352q0 253 136 409t363 156t363.5 -156.5t136.5 -408.5zM946 565v303q0 209 -91.5 327t-246.5 118t-246.5 -118t-91.5 -327v-303q0 -209 91.5 -326.5t246.5 -117.5t246.5 117.5t91.5 326.5z
M608 1571q-121 0 -199.5 67t-107.5 201l127 25q43 -172 180 -172t180 172l127 -25q-29 -134 -107.5 -201t-199.5 -67z" />
    <glyph glyph-name="obreve" unicode="&#x14f;" horiz-adv-x="1044" 
d="M98 406v212q0 181 118.5 306t305.5 125t305.5 -125t118.5 -306v-212q0 -181 -118.5 -306t-305.5 -125t-305.5 125t-118.5 306zM793 434v156q0 149 -76 235t-195 86t-194.5 -86t-75.5 -235v-156q0 -149 75.5 -235t194.5 -86t195 86t76 235zM522 1167q-121 0 -199.5 67.5
t-107.5 201.5l127 24q43 -172 180 -172t180 172l127 -24q-29 -134 -107.5 -201.5t-199.5 -67.5z" />
    <glyph glyph-name="Ohungarumlaut" unicode="&#x150;" horiz-adv-x="1216" 
d="M1108 541v352q0 252 -136.5 408.5t-363.5 156.5t-363 -156t-136 -409v-352q0 -253 136 -409.5t363 -156.5t363.5 156.5t136.5 409.5zM946 868v-303q0 -209 -91.5 -326.5t-246.5 -117.5t-246.5 117.5t-91.5 326.5v303q0 209 91.5 327t246.5 118t246.5 -118t91.5 -327z
M690 1892l-196 -329h-127l157 329h166zM983 1892l-219 -329h-125l178 329h166z" />
    <glyph glyph-name="ohungarumlaut" unicode="&#x151;" horiz-adv-x="1044" 
d="M98 618v-212q0 -181 118.5 -306t305.5 -125t305.5 125t118.5 306v212q0 181 -118.5 306t-305.5 125t-305.5 -125t-118.5 -306zM793 590v-156q0 -149 -76 -235t-195 -86t-194.5 86t-75.5 235v156q0 149 75.5 235t194.5 86t195 -86t76 -235zM596 1485l-197 -330h-127
l158 330h166zM889 1485l-219 -330h-125l178 330h166z" />
    <glyph glyph-name="OE" unicode="&#x152;" horiz-adv-x="1839" 
d="M109 541v352q0 251 136.5 396t364.5 145h1129v-146h-690v-477h608v-145h-608v-521h690v-145h-1129q-228 0 -364.5 145t-136.5 396zM270 868v-303q0 -206 96 -313t257 -107h264v1143h-264q-161 0 -257 -107t-96 -313z" />
    <glyph glyph-name="oe" unicode="&#x153;" horiz-adv-x="1738" 
d="M1217 -25q-115 0 -206.5 51t-142.5 146q-51 -95 -141 -146t-205 -51q-187 0 -305.5 125t-118.5 306v212q0 181 118.5 306t305.5 125q115 0 205 -51t141 -146q51 95 142.5 146t206.5 51q124 0 221.5 -58.5t149.5 -156.5t52 -216v-163h-694v-21q0 -149 76 -235t195 -86
q91 0 155 45.5t90 128.5l158 -25q-42 -133 -146.5 -210t-256.5 -77zM793 434v156q0 149 -76 235t-195 86t-194.5 -86t-75.5 -235v-156q0 -149 75.5 -235t194.5 -86t195 86t76 235zM946 590v-10h541v10q0 149 -75.5 235t-194.5 86t-195 -86t-76 -235z" />
    <glyph glyph-name="Racute" unicode="&#x154;" horiz-adv-x="1193" 
d="M627 602h-314v-602h-161v1434h497q86 0 164.5 -26t142.5 -76t102 -131t38 -183q0 -158 -85 -259.5t-220 -137.5l358 -621h-176zM313 748h312q138 0 223.5 70t85.5 200t-85.5 200t-223.5 70h-312v-540zM772 1892l-229 -330h-127l188 330h168z" />
    <glyph glyph-name="racute" unicode="&#x155;" horiz-adv-x="749" 
d="M715 1024v-137q-71 24 -146 24q-88 0 -162.5 -46.5t-121.5 -129.5v-735h-154v1024h154v-129q48 69 127 111.5t176 42.5q69 0 127 -25zM631 1485l-229 -330h-127l188 330h168z" />
    <glyph glyph-name="Rcommaaccent" unicode="&#x156;" horiz-adv-x="1193" 
d="M627 602h-314v-602h-161v1434h497q86 0 164.5 -26t142.5 -76t102 -131t38 -183q0 -158 -85 -259.5t-220 -137.5l358 -621h-176zM313 748h312q138 0 223.5 70t85.5 200t-85.5 200t-223.5 70h-312v-540zM602 -430h-125l82 319h162z" />
    <glyph glyph-name="rcommaaccent" unicode="&#x157;" horiz-adv-x="749" 
d="M715 1024v-137q-71 24 -146 24q-88 0 -162.5 -46.5t-121.5 -129.5v-735h-154v1024h154v-129q48 69 127 111.5t176 42.5q69 0 127 -25zM201 -430h-125l82 319h161z" />
    <glyph glyph-name="Rcaron" unicode="&#x158;" horiz-adv-x="1193" 
d="M313 602h314l346 -602h176l-358 621q135 36 220 137.5t85 259.5q0 102 -38 183t-102 131t-142.5 76t-164.5 26h-497v-1434h161v602zM625 748h-312v540h312q138 0 223.5 -70t85.5 -200t-85.5 -200t-223.5 -70zM547 1690l188 202h137l-258 -329h-135l-258 329h137z" />
    <glyph glyph-name="rcaron" unicode="&#x159;" horiz-adv-x="749" 
d="M715 1024v-137q-71 24 -146 24q-88 0 -162.5 -46.5t-121.5 -129.5v-735h-154v1024h154v-129q48 69 127 111.5t176 42.5q69 0 127 -25zM412 1282l188 203h137l-258 -330h-135l-258 330h137z" />
    <glyph glyph-name="Sacute" unicode="&#x15a;" horiz-adv-x="1173" 
d="M1085 379q0 -178 -122 -291t-347 -113q-202 0 -341 108t-189 296l166 31q39 -137 132.5 -213t231.5 -76q143 0 225.5 70.5t82.5 187.5q0 110 -69 175t-216 93l-119 23q-203 38 -299 134.5t-96 264.5q0 75 28 143.5t81 124t139.5 88.5t193.5 33q190 0 318.5 -101.5
t167.5 -275.5l-164 -30q-29 119 -110.5 190.5t-211.5 71.5q-132 0 -206 -70.5t-74 -173.5q0 -207 258 -254l123 -22q210 -38 313.5 -140.5t103.5 -273.5zM772 1892l-229 -330h-127l188 330h168z" />
    <glyph glyph-name="sacute" unicode="&#x15b;" horiz-adv-x="976" 
d="M117 762q0 129 96.5 208t253.5 79q151 0 255 -75t144 -210l-157 -27q-21 81 -83.5 127.5t-156.5 46.5t-146.5 -41t-52.5 -110q0 -133 203 -164l100 -16q168 -27 242 -101t74 -200q0 -135 -100 -219.5t-269 -84.5q-164 0 -275.5 80t-154.5 230l156 28q30 -98 103 -149
t171 -51q99 0 157 46.5t58 119.5t-50.5 112t-152.5 55l-100 17q-171 28 -243 102.5t-72 196.5zM686 1485l-229 -330h-127l188 330h168z" />
    <glyph glyph-name="Scircumflex" unicode="&#x15c;" horiz-adv-x="1173" 
d="M1085 379q0 -178 -122 -291t-347 -113q-202 0 -341 108t-189 296l166 31q39 -137 132.5 -213t231.5 -76q143 0 225.5 70.5t82.5 187.5q0 110 -69 175t-216 93l-119 23q-203 38 -299 134.5t-96 264.5q0 75 28 143.5t81 124t139.5 88.5t193.5 33q190 0 318.5 -101.5
t167.5 -275.5l-164 -30q-29 119 -110.5 190.5t-211.5 71.5q-132 0 -206 -70.5t-74 -173.5q0 -207 258 -254l123 -22q210 -38 313.5 -140.5t103.5 -273.5zM764 1562l-188 203l-188 -203h-138l258 330h136l258 -330h-138z" />
    <glyph glyph-name="scircumflex" unicode="&#x15d;" horiz-adv-x="976" 
d="M117 762q0 129 96.5 208t253.5 79q151 0 255 -75t144 -210l-157 -27q-21 81 -83.5 127.5t-156.5 46.5t-146.5 -41t-52.5 -110q0 -133 203 -164l100 -16q168 -27 242 -101t74 -200q0 -135 -100 -219.5t-269 -84.5q-164 0 -275.5 80t-154.5 230l156 28q30 -98 103 -149
t171 -51q99 0 157 46.5t58 119.5t-50.5 112t-152.5 55l-100 17q-171 28 -243 102.5t-72 196.5zM661 1155l-188 203l-188 -203h-138l258 330h136l258 -330h-138z" />
    <glyph glyph-name="Scedilla" unicode="&#x15e;" horiz-adv-x="1173" 
d="M676 -274q0 43 -43 70.5t-127 31.5q-1 3 -4.5 8t-3.5 6l57 138q-179 15 -301.5 121t-167.5 278l166 31q39 -137 132.5 -213t231.5 -76q143 0 225.5 70.5t82.5 187.5q0 110 -69 175t-216 93l-119 23q-203 38 -299 134.5t-96 264.5q0 75 28 143.5t81 124t139.5 88.5
t193.5 33q190 0 318.5 -101.5t167.5 -275.5l-164 -30q-29 119 -110.5 190.5t-211.5 71.5q-132 0 -206 -70.5t-74 -173.5q0 -207 258 -254l123 -22q210 -38 313.5 -140.5t103.5 -273.5q0 -164 -104 -273t-299 -126l-35 -78q166 -44 166 -185q0 -87 -58 -139.5t-165 -52.5
q-125 0 -205 80l72 92q58 -51 125 -51q46 0 70 22t24 58z" />
    <glyph glyph-name="scedilla" unicode="&#x15f;" horiz-adv-x="976" 
d="M117 762q0 129 96.5 208t253.5 79q151 0 255 -75t144 -210l-157 -27q-21 81 -83.5 127.5t-156.5 46.5t-146.5 -41t-52.5 -110q0 -133 203 -164l100 -16q168 -27 242 -101t74 -200q0 -123 -81 -203.5t-222 -95.5l-35 -78q166 -44 166 -185q0 -87 -58 -139.5t-165 -52.5
q-125 0 -205 80l71 92q58 -51 125 -51q46 0 70.5 22t24.5 58q0 43 -43 70.5t-127 31.5q-1 3 -4.5 8t-4.5 6l58 138q-139 14 -235 92t-134 213l156 28q30 -98 103 -149t171 -51q99 0 157 46.5t58 119.5t-50.5 112t-152.5 55l-100 17q-171 28 -243 102.5t-72 196.5z" />
    <glyph glyph-name="Scaron" unicode="&#x160;" horiz-adv-x="1173" 
d="M1085 379q0 -178 -122 -291t-347 -113q-202 0 -341 108t-189 296l166 31q39 -137 132.5 -213t231.5 -76q143 0 225.5 70.5t82.5 187.5q0 110 -69 175t-216 93l-119 23q-203 38 -299 134.5t-96 264.5q0 75 28 143.5t81 124t139.5 88.5t193.5 33q190 0 318.5 -101.5
t167.5 -275.5l-164 -30q-29 119 -110.5 190.5t-211.5 71.5q-132 0 -206 -70.5t-74 -173.5q0 -207 258 -254l123 -22q210 -38 313.5 -140.5t103.5 -273.5zM575 1690l189 202h137l-258 -329h-135l-258 329h137z" />
    <glyph glyph-name="scaron" unicode="&#x161;" horiz-adv-x="976" 
d="M117 762q0 129 96.5 208t253.5 79q151 0 255 -75t144 -210l-157 -27q-21 81 -83.5 127.5t-156.5 46.5t-146.5 -41t-52.5 -110q0 -133 203 -164l100 -16q168 -27 242 -101t74 -200q0 -135 -100 -219.5t-269 -84.5q-164 0 -275.5 80t-154.5 230l156 28q30 -98 103 -149
t171 -51q99 0 157 46.5t58 119.5t-50.5 112t-152.5 55l-100 17q-171 28 -243 102.5t-72 196.5zM473 1282l189 203h137l-258 -330h-135l-259 330h138z" />
    <glyph glyph-name="Tcommaaccent" unicode="&#x162;" horiz-adv-x="1046" 
d="M573 -274q0 43 -43 70.5t-127 31.5q-1 3 -4 8t-4 6l68 158h-21v1288h-409v146h981v-146h-410v-1288h-14l-45 -98q166 -44 166 -185q0 -87 -58 -139.5t-166 -52.5q-124 0 -204 80l71 92q58 -51 125 -51q46 0 70 22t24 58z" />
    <glyph glyph-name="tcommaaccent" unicode="&#x163;" horiz-adv-x="696" 
d="M471 -274q0 43 -43 70.5t-127 31.5q-1 3 -4 8t-4 6l76 174q-168 53 -168 279v592h-158v137h158v291h153v-291h258v-137h-258v-578q0 -172 140 -172h137v-137h-144l-45 -98q166 -44 166 -185q0 -87 -58 -139.5t-165 -52.5q-125 0 -205 80l72 92q58 -51 125 -51q46 0 70 22
t24 58z" />
    <glyph glyph-name="Tcaron" unicode="&#x164;" horiz-adv-x="1046" 
d="M33 1434h981v-146h-410v-1288h-162v1288h-409v146zM522 1689l188 203h138l-258 -330h-136l-258 330h138z" />
    <glyph glyph-name="tcaron" unicode="&#x165;" horiz-adv-x="860" 
d="M354 1024h258v-137h-258v-578q0 -172 140 -172h137v-137h-139q-291 0 -291 295v592h-158v137h158v291h153v-291zM840 1458v-194q0 -100 -41.5 -153.5t-134.5 -66.5v76q50 10 73 39.5t23 97.5h-96v201h176z" />
    <glyph glyph-name="Tbar" unicode="&#x166;" horiz-adv-x="1046" 
d="M186 795h256v493h-409v146h981v-146h-410v-493h256v-127h-256v-668h-162v668h-256v127z" />
    <glyph glyph-name="tbar" unicode="&#x167;" horiz-adv-x="696" 
d="M68 612h133v275h-158v137h158v291h153v-291h258v-137h-258v-275h213v-118h-213v-185q0 -172 140 -172h137v-137h-139q-291 0 -291 295v199h-133v118z" />
    <glyph glyph-name="Utilde" unicode="&#x168;" horiz-adv-x="1241" 
d="M621 -25q-228 0 -357 147t-129 400v912h162v-883q0 -212 83 -321t241 -109t240.5 108.5t82.5 321.5v883h162v-912q0 -253 -128.5 -400t-356.5 -147zM754 1603q-46 0 -96 28t-92.5 55.5t-71.5 27.5q-31 0 -49 -22.5t-27 -71.5l-117 12q13 101 62.5 152t126.5 51
q46 0 96 -28t92.5 -55.5t71.5 -27.5q31 0 49 22.5t27 71.5l116 -12q-13 -101 -62 -152t-126 -51z" />
    <glyph glyph-name="utilde" unicode="&#x169;" horiz-adv-x="1073" 
d="M123 1024h153v-594q0 -163 55 -240t183 -77q85 0 159 49t113 135v727h154v-1024h-154v131q-51 -73 -131.5 -114.5t-183.5 -41.5q-167 0 -257.5 111.5t-90.5 310.5v627zM664 1196q-37 0 -76.5 17.5t-68 38t-60.5 38t-56 17.5q-31 0 -48.5 -22.5t-26.5 -72.5l-117 13
q13 101 62 151.5t126 50.5q46 0 96 -27.5t92.5 -55t71.5 -27.5q31 0 49 22.5t27 71.5l117 -12q-13 -101 -62 -152t-126 -51z" />
    <glyph glyph-name="Umacron" unicode="&#x16a;" horiz-adv-x="1241" 
d="M621 -25q-228 0 -357 147t-129 400v912h162v-883q0 -212 83 -321t241 -109t240.5 108.5t82.5 321.5v883h162v-912q0 -253 -128.5 -400t-356.5 -147zM336 1667v118h570v-118h-570z" />
    <glyph glyph-name="umacron" unicode="&#x16b;" horiz-adv-x="1073" 
d="M123 1024h153v-594q0 -163 55 -240t183 -77q85 0 159 49t113 135v727h154v-1024h-154v131q-51 -73 -131.5 -114.5t-183.5 -41.5q-167 0 -257.5 111.5t-90.5 310.5v627zM246 1260v118h570v-118h-570z" />
    <glyph glyph-name="Ubreve" unicode="&#x16c;" horiz-adv-x="1241" 
d="M621 -25q-228 0 -357 147t-129 400v912h162v-883q0 -212 83 -321t241 -109t240.5 108.5t82.5 321.5v883h162v-912q0 -253 -128.5 -400t-356.5 -147zM621 1571q-121 0 -200 67.5t-108 200.5l127 25q43 -172 181 -172q137 0 180 172l127 -25q-29 -134 -107.5 -201
t-199.5 -67z" />
    <glyph glyph-name="ubreve" unicode="&#x16d;" horiz-adv-x="1073" 
d="M123 1024h153v-594q0 -163 55 -240t183 -77q85 0 159 49t113 135v727h154v-1024h-154v131q-51 -73 -131.5 -114.5t-183.5 -41.5q-167 0 -257.5 111.5t-90.5 310.5v627zM530 1167q-121 0 -199.5 67.5t-107.5 201.5l127 24q43 -172 180 -172q138 0 181 172l127 -24
q-29 -134 -108 -201.5t-200 -67.5z" />
    <glyph glyph-name="Uring" unicode="&#x16e;" horiz-adv-x="1241" 
d="M621 -25q228 0 356.5 147t128.5 400v912h-162v-883q0 -213 -82.5 -321.5t-240.5 -108.5t-241 109t-83 321v883h-162v-912q0 -253 129 -400t357 -147zM831 1726q0 -94 -60.5 -150t-149.5 -56t-150 56t-61 150t61 150.5t150 56.5t149.5 -56.5t60.5 -150.5zM717 1726
q0 48 -27 76.5t-69 28.5t-69.5 -28.5t-27.5 -76.5t27.5 -76t69.5 -28t69 28t27 76z" />
    <glyph glyph-name="uring" unicode="&#x16f;" horiz-adv-x="1073" 
d="M123 1024h153v-594q0 -163 55 -240t183 -77q85 0 159 49t113 135v727h154v-1024h-154v131q-51 -73 -131.5 -114.5t-183.5 -41.5q-167 0 -257.5 111.5t-90.5 310.5v627zM742 1319q0 -94 -61 -150.5t-150 -56.5t-150 56.5t-61 150.5t61 150.5t150 56.5t150 -56.5t61 -150.5
zM627 1319q0 48 -27 76.5t-69 28.5t-69 -28.5t-27 -76.5t27 -76t69 -28t69 28t27 76z" />
    <glyph glyph-name="Uhungarumlaut" unicode="&#x170;" horiz-adv-x="1241" 
d="M621 -25q228 0 356.5 147t128.5 400v912h-162v-883q0 -213 -82.5 -321.5t-240.5 -108.5t-241 109t-83 321v883h-162v-912q0 -253 129 -400t357 -147zM715 1892l-197 -329h-127l158 329h166zM1008 1892l-220 -329h-124l178 329h166z" />
    <glyph glyph-name="uhungarumlaut" unicode="&#x171;" horiz-adv-x="1073" 
d="M123 1024h153v-594q0 -163 55 -240t183 -77q85 0 159 49t113 135v727h154v-1024h-154v131q-51 -73 -131.5 -114.5t-183.5 -41.5q-167 0 -257.5 111.5t-90.5 310.5v627zM610 1485l-196 -330h-127l157 330h166zM903 1485l-219 -330h-125l178 330h166z" />
    <glyph glyph-name="Uogonek" unicode="&#x172;" horiz-adv-x="1241" 
d="M610 -207v-10q0 -46 28.5 -76.5t76.5 -30.5q67 0 114 50l78 -82q-82 -88 -211 -88q-99 0 -160 53.5t-61 140.5v14q0 57 31.5 113.5t85.5 97.5q-217 10 -337 156t-120 391v912h162v-883q0 -212 83 -321t241 -109t240.5 108.5t82.5 321.5v883h162v-912q0 -218 -96.5 -358.5
t-272.5 -175.5q-127 -94 -127 -195z" />
    <glyph glyph-name="uogonek" unicode="&#x173;" horiz-adv-x="1073" 
d="M786 0v131q-51 -73 -131.5 -114.5t-183.5 -41.5q-167 0 -257.5 111.5t-90.5 310.5v627h153v-594q0 -163 55 -240t183 -77q85 0 159 49t113 135v727h154v-1024h-25q-145 -99 -145 -207v-10q0 -46 28 -76.5t76 -30.5q68 0 115 50l78 -82q-82 -88 -211 -88q-99 0 -160 53.5
t-61 140.5v14q0 65 41.5 130t109.5 106z" />
    <glyph glyph-name="Wcircumflex" unicode="&#x174;" horiz-adv-x="1867" 
d="M854 1434h160l329 -1147l316 1147h176l-408 -1434h-163l-330 1155l-330 -1155h-164l-407 1434h176l315 -1147zM1122 1566l-188 203l-188 -203h-138l258 330h136l258 -330h-138z" />
    <glyph glyph-name="wcircumflex" unicode="&#x175;" horiz-adv-x="1593" 
d="M717 1024h160l258 -815l276 815h162l-359 -1024h-161l-256 809l-256 -809h-162l-359 1024h162l277 -815zM985 1155l-188 203l-188 -203h-138l258 330h136l258 -330h-138z" />
    <glyph glyph-name="Ycircumflex" unicode="&#x176;" horiz-adv-x="1146" 
d="M653 0h-161v651l-459 783h178l362 -623l363 623h178l-461 -783v-651zM762 1563l-189 202l-188 -202h-137l258 329h135l258 -329h-137z" />
    <glyph glyph-name="ycircumflex" unicode="&#x177;" horiz-adv-x="983" 
d="M358 -178l74 205l-412 997h164l324 -801l291 801h164l-461 -1239q-48 -128 -116.5 -172.5t-186.5 -44.5h-66v137h60q61 0 101 26.5t64 90.5zM686 1155l-188 203l-189 -203h-137l258 330h135l258 -330h-137z" />
    <glyph glyph-name="Ydieresis" unicode="&#x178;" horiz-adv-x="1146" 
d="M653 0h-161v651l-459 783h178l362 -623l363 623h178l-461 -783v-651zM472 1829v-207h-162v207h162zM838 1829v-207h-162v207h162z" />
    <glyph glyph-name="Zacute" unicode="&#x179;" horiz-adv-x="1048" 
d="M961 1434v-129l-687 -1160h689v-145h-877v129l686 1159h-663v146h852zM758 1892l-229 -330h-127l188 330h168z" />
    <glyph glyph-name="zacute" unicode="&#x17a;" horiz-adv-x="970" 
d="M870 1024v-123l-594 -764h617v-137h-815v123l594 764h-570v137h768zM721 1485l-229 -330h-127l188 330h168z" />
    <glyph glyph-name="Zdotaccent" unicode="&#x17b;" horiz-adv-x="1048" 
d="M961 1434v-129l-687 -1160h689v-145h-877v129l686 1159h-663v146h852zM621 1837v-221h-176v221h176z" />
    <glyph glyph-name="zdotaccent" unicode="&#x17c;" horiz-adv-x="970" 
d="M870 1024v-123l-594 -764h617v-137h-815v123l594 764h-570v137h768zM571 1430v-221h-176v221h176z" />
    <glyph glyph-name="Zcaron" unicode="&#x17d;" horiz-adv-x="1048" 
d="M961 1434v-129l-687 -1160h689v-145h-877v129l686 1159h-663v146h852zM532 1690l189 202h137l-258 -329h-135l-258 329h137z" />
    <glyph glyph-name="zcaron" unicode="&#x17e;" horiz-adv-x="970" 
d="M870 1024v-123l-594 -764h617v-137h-815v123l594 764h-570v137h768zM489 1282l189 203h137l-258 -330h-135l-258 330h137z" />
    <glyph glyph-name="longs" unicode="&#x17f;" horiz-adv-x="696" 
d="M651 1458v-137h-71q-115 0 -154 -48.5t-39 -180.5v-1092h-154v887h-157v137h157v63q0 109 19 180t63.5 114t110 60t166.5 17h59z" />
    <glyph glyph-name="uni0191" unicode="&#x191;" horiz-adv-x="1075" 
d="M152 1434h852v-146h-691v-497h629v-146h-629v-778q0 -156 -74 -228.5t-227 -72.5h-65v145h65q140 0 140 172v1551z" />
    <glyph glyph-name="florin" unicode="&#x192;" horiz-adv-x="696" 
d="M-31 -432v137h72q115 0 153.5 48.5t38.5 180.5v953h-157v137h157v63q0 109 19 180t63.5 114t110 60t166.5 17h59v-137h-71q-115 0 -154 -48.5t-39 -180.5v-68h264v-137h-264v-948q0 -109 -19 -180t-63 -114t-109.5 -60t-166.5 -17h-60z" />
    <glyph glyph-name="Aringacute" unicode="&#x1fa;" horiz-adv-x="1167" 
d="M795 1559q0 94 -61 150t-150 56t-150 -56t-61 -150q0 -65 29.5 -113t80.5 -72l-471 -1374h174l115 354h563l117 -354h174l-471 1374q51 24 81 72.5t30 112.5zM348 500l236 717l233 -717h-469zM680 1559q0 -48 -27 -76.5t-69 -28.5t-69.5 28.5t-27.5 76.5t27.5 76t69.5 28
t69 -28t27 -76zM610 2038h162l-149 -221h-121z" />
    <glyph glyph-name="aringacute" unicode="&#x1fb;" horiz-adv-x="1034" 
d="M543 1798h162l-150 -221h-121zM455 113q207 0 301 166v184h-291q-106 0 -165.5 -50t-59.5 -128v-11q0 -72 56 -116.5t159 -44.5zM518 911q-163 0 -246 -153l-151 41q59 116 163 183t240 67q178 0 281.5 -108t103.5 -284v-657h-153v125q-49 -70 -132 -110t-192 -40
q-157 0 -251.5 80.5t-94.5 204.5v27q0 61 23 112.5t71 95t133 68.5t199 25h244v51q0 135 -62.5 203.5t-175.5 68.5zM727 1319q0 -94 -61 -150.5t-150 -56.5t-150 56.5t-61 150.5t61 150.5t150 56.5t150 -56.5t61 -150.5zM612 1319q0 48 -27 76t-69 28t-69 -28t-27 -76
t27 -76.5t69 -28.5t69 28.5t27 76.5z" />
    <glyph glyph-name="AEacute" unicode="&#x1fc;" horiz-adv-x="1738" 
d="M1638 0h-852v354h-456l-172 -354h-178l710 1434h948v-146h-690v-477h608v-145h-608v-521h690v-145zM786 1288l-385 -788h385v788zM1306 1892l-229 -330h-127l188 330h168z" />
    <glyph glyph-name="aeacute" unicode="&#x1fd;" horiz-adv-x="1703" 
d="M1182 -25q-116 0 -208 50t-147 137q-144 -187 -395 -187q-157 0 -251.5 80.5t-94.5 204.5v27q0 61 23 112.5t71 95t133 68.5t199 25h244v51q0 135 -62.5 203.5t-175.5 68.5q-163 0 -246 -153l-151 41q59 116 163 183t240 67q110 0 193.5 -46.5t128.5 -134.5
q56 88 142 134.5t194 46.5q187 0 305.5 -125t118.5 -306v-163h-695v-21q0 -149 76 -235t195 -86q91 0 155 45.5t90 128.5l158 -25q-42 -133 -146.5 -210t-256.5 -77zM455 113q207 0 301 166v184h-291q-106 0 -165.5 -50t-59.5 -128v-11q0 -72 56 -116.5t159 -44.5zM911 590
v-10h541v10q0 149 -75.5 235t-194.5 86t-195 -86t-76 -235zM1077 1485l-229 -330h-127l188 330h168z" />
    <glyph glyph-name="Oslashacute" unicode="&#x1fe;" horiz-adv-x="1216" 
d="M893 1372l68 127h133l-113 -211q127 -156 127 -395v-352q0 -253 -136.5 -409.5t-363.5 -156.5q-162 0 -284 86l-68 -127h-133l113 209q-127 155 -127 398v352q0 253 136 409t363 156q163 0 285 -86zM608 1313q-155 0 -246.5 -118t-91.5 -327v-303q0 -150 52 -260l497 928
q-86 80 -211 80zM946 565v303q0 152 -51 260l-498 -929q84 -78 211 -78q155 0 246.5 117.5t91.5 326.5zM837 1892l-229 -330h-127l188 330h168z" />
    <glyph glyph-name="oslashacute" unicode="&#x1ff;" horiz-adv-x="1044" 
d="M723 1001l53 101h125l-88 -164q63 -60 98 -143.5t35 -176.5v-212q0 -181 -118.5 -306t-305.5 -125q-112 0 -200 45l-54 -98h-125l88 164q-63 59 -98 142t-35 178v212q0 181 118.5 306t305.5 125q110 0 201 -48zM522 911q-119 0 -194.5 -86t-75.5 -235v-156
q0 -124 55 -207l348 650q-58 34 -133 34zM793 434v156q0 122 -56 207l-348 -650q53 -34 133 -34q119 0 195 86t76 235zM749 1485l-229 -330h-127l188 330h168z" />
    <glyph glyph-name="Scommaaccent" unicode="&#x218;" horiz-adv-x="1173" 
d="M1085 379q0 -178 -122 -291t-347 -113q-202 0 -341 108t-189 296l166 31q39 -137 132.5 -213t231.5 -76q143 0 225.5 70.5t82.5 187.5q0 110 -69 175t-216 93l-119 23q-203 38 -299 134.5t-96 264.5q0 75 28 143.5t81 124t139.5 88.5t193.5 33q190 0 318.5 -101.5
t167.5 -275.5l-164 -30q-29 119 -110.5 190.5t-211.5 71.5q-132 0 -206 -70.5t-74 -173.5q0 -207 258 -254l123 -22q210 -38 313.5 -140.5t103.5 -273.5zM610 -430h-125l82 319h162z" />
    <glyph glyph-name="scommaaccent" unicode="&#x219;" horiz-adv-x="976" 
d="M117 762q0 129 96.5 208t253.5 79q151 0 255 -75t144 -210l-157 -27q-21 81 -83.5 127.5t-156.5 46.5t-146.5 -41t-52.5 -110q0 -133 203 -164l100 -16q168 -27 242 -101t74 -200q0 -135 -100 -219.5t-269 -84.5q-164 0 -275.5 80t-154.5 230l156 28q30 -98 103 -149
t171 -51q99 0 157 46.5t58 119.5t-50.5 112t-152.5 55l-100 17q-171 28 -243 102.5t-72 196.5zM508 -430h-125l82 319h162z" />
    <glyph glyph-name="uni021A" unicode="&#x21a;" horiz-adv-x="1046" 
d="M33 1434h981v-146h-410v-1288h-162v1288h-409v146zM504 -430h-125l82 319h162z" />
    <glyph glyph-name="uni021B" unicode="&#x21b;" horiz-adv-x="696" 
d="M354 1024h258v-137h-258v-578q0 -172 140 -172h137v-137h-139q-291 0 -291 295v592h-158v137h158v291h153v-291zM426 -430h-125l82 319h162z" />
    <glyph glyph-name="dotlessj" unicode="&#x237;" horiz-adv-x="477" 
d="M172 -117v1141h154v-1157q0 -156 -74 -228.5t-227 -72.5h-66v137h66q75 0 111 43.5t36 136.5z" />
    <glyph glyph-name="apostrophe" unicode="&#x2bc;" horiz-adv-x="761" 
d="M469 1495v-195q0 -100 -41.5 -153t-134.5 -66v76q50 10 73 39.5t23 97.5h-96v201h176z" />
    <glyph glyph-name="circumflex" unicode="&#x2c6;" horiz-adv-x="761" 
d="M569 1165l-188 203l-188 -203h-138l258 330h136l258 -330h-138z" />
    <glyph glyph-name="caron" unicode="&#x2c7;" horiz-adv-x="761" 
d="M381 1292l188 203h138l-258 -330h-136l-258 330h138z" />
    <glyph glyph-name="uni02C9" unicode="&#x2c9;" horiz-adv-x="761" 
d="M96 1268v118h570v-118h-570z" />
    <glyph glyph-name="breve" unicode="&#x2d8;" horiz-adv-x="761" 
d="M381 1178q-121 0 -199.5 67t-107.5 201l127 24q43 -172 180 -172t180 172l127 -24q-29 -134 -107.5 -201t-199.5 -67z" />
    <glyph glyph-name="dotaccent" unicode="&#x2d9;" horiz-adv-x="761" 
d="M469 1440v-221h-176v221h176z" />
    <glyph glyph-name="ring" unicode="&#x2da;" horiz-adv-x="761" 
d="M592 1329q0 -94 -61 -150.5t-150 -56.5t-150 56.5t-61 150.5t61 150.5t150 56.5t150 -56.5t61 -150.5zM477 1329q0 48 -27 76.5t-69 28.5t-69 -28.5t-27 -76.5t27 -76t69 -28t69 28t27 76z" />
    <glyph glyph-name="ogonek" unicode="&#x2db;" horiz-adv-x="761" 
d="M315 0h129q-145 -99 -145 -207v-10q0 -46 28 -76.5t76 -30.5q68 0 115 50l78 -82q-82 -88 -211 -88q-99 0 -160 53.5t-61 140.5v14q0 65 41.5 130t109.5 106z" />
    <glyph glyph-name="tilde" unicode="&#x2dc;" horiz-adv-x="761" 
d="M512 1208q-46 0 -96 28t-92.5 55.5t-71.5 27.5q-31 0 -49 -22.5t-27 -71.5l-117 12q13 101 62.5 152t126.5 51q46 0 96 -28t92.5 -55.5t71.5 -27.5q31 0 49 22.5t27 71.5l116 -12q-13 -101 -62 -152t-126 -51z" />
    <glyph glyph-name="hungarumlaut" unicode="&#x2dd;" horiz-adv-x="761" 
d="M395 1495l-196 -330h-127l157 330h166zM688 1495l-219 -330h-125l178 330h166z" />
    <glyph glyph-name="gravecomb" unicode="&#x300;" horiz-adv-x="0" 
d="M-399 1165l-230 330h168l189 -330h-127z" />
    <glyph glyph-name="acutecomb" unicode="&#x301;" horiz-adv-x="0" 
d="M-272 1495l-230 -330h-127l189 330h168z" />
    <glyph glyph-name="uni0302" unicode="&#x302;" horiz-adv-x="0" 
d="M-262 1165l-189 203l-188 -203h-137l258 330h135l258 -330h-137z" />
    <glyph glyph-name="tildecomb" unicode="&#x303;" horiz-adv-x="0" 
d="M-319 1208q-37 0 -76.5 17.5t-68 38t-60.5 38t-56 17.5q-31 0 -48.5 -22t-26.5 -72l-117 12q13 101 62 152t126 51q46 0 96 -28t92.5 -55.5t71.5 -27.5q31 0 49 22.5t27 71.5l117 -12q-13 -101 -62 -152t-126 -51z" />
    <glyph glyph-name="uni0304" unicode="&#x304;" horiz-adv-x="0" 
d="M-735 1270v119h569v-119h-569z" />
    <glyph glyph-name="uni0306" unicode="&#x306;" horiz-adv-x="0" 
d="M-451 1178q-121 0 -199.5 67t-107.5 201l127 24q43 -172 180 -172q138 0 181 172l127 -24q-29 -133 -108 -200.5t-200 -67.5z" />
    <glyph glyph-name="uni0307" unicode="&#x307;" horiz-adv-x="0" 
d="M-362 1440v-221h-177v221h177z" />
    <glyph glyph-name="uni0308" unicode="&#x308;" horiz-adv-x="0" 
d="M-553 1432v-207h-162v207h162zM-186 1432v-207h-162v207h162z" />
    <glyph glyph-name="uni030A" unicode="&#x30a;" horiz-adv-x="0" 
d="M-240 1329q0 -94 -61 -150.5t-150 -56.5t-150 56.5t-61 150.5t61 150.5t150 56.5t150 -56.5t61 -150.5zM-354 1329q0 48 -27.5 76.5t-69.5 28.5t-69 -28.5t-27 -76.5t27 -76t69 -28t69.5 28t27.5 76z" />
    <glyph glyph-name="uni030C" unicode="&#x30c;" horiz-adv-x="0" 
d="M-451 1292l189 203h137l-258 -330h-135l-258 330h137z" />
    <glyph glyph-name="uni0327" unicode="&#x327;" horiz-adv-x="0" 
d="M-375 -274q0 43 -43 70.5t-127 31.5q-1 4 -4 8.5t-4 5.5l68 158h127l-45 -98q165 -44 165 -185q0 -87 -58 -139.5t-165 -52.5q-125 0 -205 80l72 92q58 -51 125 -51q46 0 70 22t24 58z" />
    <glyph glyph-name="uni03A9" unicode="&#x3a9;" horiz-adv-x="1232" 
d="M616 1458q225 0 363.5 -157t138.5 -408v-346q0 -283 -178 -402h166v-145h-404v129q123 43 188.5 154.5t65.5 279.5v305q0 209 -91.5 327t-248.5 118t-248.5 -118t-91.5 -327v-305q0 -168 65.5 -279.5t188.5 -154.5v-129h-403v145h166q-178 119 -178 402v346
q0 251 138 408t363 157z" />
    <glyph glyph-name="uni0400" unicode="&#x400;" horiz-adv-x="1103" 
d="M1004 0h-852v1434h852v-146h-691v-477h609v-145h-609v-521h691v-145zM575 1562l-229 330h168l188 -330h-127z" />
    <glyph glyph-name="afii10023" unicode="&#x401;" horiz-adv-x="1103" 
d="M1004 0h-852v1434h852v-146h-691v-477h609v-145h-609v-521h691v-145zM469 1829v-207h-162v207h162zM835 1829v-207h-162v207h162z" />
    <glyph glyph-name="afii10051" unicode="&#x402;" horiz-adv-x="1425" 
d="M33 1434h981v-146h-410v-463q72 55 165 88t181 33q179 0 273 -109.5t94 -308.5v-532q0 -155 -77.5 -229t-235.5 -74h-54v145h58q76 0 111.5 42.5t35.5 135.5v471q0 161 -55.5 237.5t-190.5 76.5q-78 0 -159 -31.5t-146 -85.5v-684h-162v1288h-409v146z" />
    <glyph glyph-name="afii10052" unicode="&#x403;" horiz-adv-x="1075" 
d="M1053 1434v-146h-740v-1288h-161v1434h901zM825 1892l-229 -329h-127l188 329h168z" />
    <glyph glyph-name="afii10053" unicode="&#x404;" horiz-adv-x="1193" 
d="M270 791h451v-146h-451v-80q0 -209 91.5 -326.5t246.5 -117.5q133 0 220.5 83t115.5 240l160 -26q-29 -204 -162 -323.5t-334 -119.5q-227 0 -363 156.5t-136 409.5v352q0 253 136 409t363 156q201 0 334 -120t162 -324l-160 -27q-28 158 -115.5 242t-220.5 84
q-155 0 -246.5 -118t-91.5 -327v-77z" />
    <glyph glyph-name="afii10054" unicode="&#x405;" horiz-adv-x="1173" 
d="M1085 379q0 -178 -122 -291t-347 -113q-202 0 -341 108t-189 296l166 31q39 -137 132.5 -213t231.5 -76q143 0 225.5 70.5t82.5 187.5q0 110 -69 175t-216 93l-119 23q-203 38 -299 134.5t-96 264.5q0 75 28 143.5t81 124t139.5 88.5t193.5 33q190 0 318.5 -101.5
t167.5 -275.5l-164 -30q-29 119 -110.5 190.5t-211.5 71.5q-132 0 -206 -70.5t-74 -173.5q0 -207 258 -254l123 -22q210 -38 313.5 -140.5t103.5 -273.5z" />
    <glyph glyph-name="afii10055" unicode="&#x406;" horiz-adv-x="464" 
d="M313 1434v-1434h-161v1434h161z" />
    <glyph glyph-name="afii10056" unicode="&#x407;" horiz-adv-x="464" 
d="M313 1434v-1434h-161v1434h161zM129 1829v-207h-162v207h162zM495 1829v-207h-162v207h162z" />
    <glyph glyph-name="afii10057" unicode="&#x408;" horiz-adv-x="1032" 
d="M739 461v973h162v-998q0 -226 -117 -343.5t-313 -117.5q-159 0 -271.5 90t-154.5 259l162 26q24 -84 69 -137t92.5 -72.5t102.5 -19.5q57 0 103.5 17.5t84.5 56t59 106t21 160.5z" />
    <glyph glyph-name="afii10058" unicode="&#x409;" horiz-adv-x="2017" 
d="M1944 403q0 -192 -125 -297.5t-340 -105.5h-463v1286h-592v-1010q0 -156 -74 -228.5t-227 -72.5h-82v146h82q139 0 139 172v1141h916v-627h301q215 0 340 -106t125 -298zM1782 403q0 128 -82 193.5t-238 65.5h-284v-517h284q156 0 238 65t82 193z" />
    <glyph glyph-name="afii10059" unicode="&#x40a;" horiz-adv-x="1947" 
d="M1874 403q0 -192 -125 -297.5t-340 -105.5h-463v664h-633v-664h-161v1434h161v-625h633v625h162v-627h301q215 0 340 -106t125 -298zM1712 403q0 128 -81.5 193.5t-237.5 65.5h-285v-517h285q156 0 237.5 65t81.5 193z" />
    <glyph glyph-name="afii10060" unicode="&#x40b;" horiz-adv-x="1425" 
d="M33 1434h981v-146h-410v-463q72 55 165 88t181 33q179 0 273 -109.5t94 -308.5v-528h-162v487q0 161 -55.5 237.5t-190.5 76.5q-78 0 -159 -31.5t-146 -85.5v-684h-162v1288h-409v146z" />
    <glyph glyph-name="afii10061" unicode="&#x40c;" horiz-adv-x="1179" 
d="M989 0l-428 700l-248 -159v-541h-161v1434h161v-709l234 149q106 68 174 131.5t103 131t47 131t12 151.5v15h159v-15q0 -106 -15.5 -188.5t-55 -161.5t-109 -149t-174.5 -138l483 -782h-182zM813 1892l-229 -330h-127l188 330h168z" />
    <glyph glyph-name="uni040D" unicode="&#x40d;" horiz-adv-x="1318" 
d="M152 0h153l701 1137v-1137h161v1434h-153l-701 -1137v1137h-161v-1434zM670 1563l-230 329h168l189 -329h-127z" />
    <glyph glyph-name="afii10062" unicode="&#x40e;" horiz-adv-x="1095" 
d="M193 0v145h71q53 0 86 23.5t58 87.5l81 197l-442 981h170l348 -787l320 787h170l-473 -1162q-66 -159 -129.5 -215.5t-176.5 -56.5h-83zM551 1571q-121 0 -199.5 67t-107.5 201l127 25q43 -172 180 -172t180 172l127 -25q-29 -134 -107.5 -201t-199.5 -67z" />
    <glyph glyph-name="afii10145" unicode="&#x40f;" horiz-adv-x="1259" 
d="M946 145v1289h162v-1434h-397v-246h-162v246h-397v1434h161v-1289h633z" />
    <glyph glyph-name="afii10017" unicode="&#x410;" horiz-adv-x="1167" 
d="M504 1434h160l491 -1434h-174l-117 354h-563l-115 -354h-174zM584 1217l-236 -717h469z" />
    <glyph glyph-name="afii10018" unicode="&#x411;" horiz-adv-x="1159" 
d="M313 1288v-481h301q215 0 340 -106t125 -298t-125 -297.5t-340 -105.5h-462v1434h788v-146h-627zM918 403q0 128 -82 193.5t-238 65.5h-285v-517h285q156 0 238 65t82 193z" />
    <glyph glyph-name="afii10019" unicode="&#x412;" horiz-adv-x="1181" 
d="M653 0h-501v1434h454q87 0 164 -22t141.5 -66.5t102 -120.5t37.5 -176q0 -115 -52.5 -192t-146.5 -112q110 -35 176 -123.5t66 -218.5q0 -102 -35.5 -181t-97 -126.5t-139.5 -71.5t-169 -24zM932 406q0 126 -80.5 193t-220.5 67h-318v-521h314q148 0 226.5 66t78.5 195z
M313 811h281q139 0 217 59t78 179q0 239 -309 239h-267v-477z" />
    <glyph glyph-name="afii10020" unicode="&#x413;" horiz-adv-x="1075" 
d="M1053 1434v-146h-740v-1288h-161v1434h901z" />
    <glyph glyph-name="afii10021" unicode="&#x414;" horiz-adv-x="1226" 
d="M1006 0h-811v-246h-162v391h119q106 340 106 732v557h774v-1289h135v-391h-161v246zM324 145h546v1143h-450v-424q0 -381 -96 -719z" />
    <glyph glyph-name="afii10022" unicode="&#x415;" horiz-adv-x="1103" 
d="M1004 0h-852v1434h852v-146h-691v-477h609v-145h-609v-521h691v-145z" />
    <glyph glyph-name="afii10024" unicode="&#x416;" horiz-adv-x="1673" 
d="M756 0v553l-224 154l-339 -707h-175l388 795q-162 119 -219.5 250t-57.5 374v15h162v-15q0 -119 9.5 -190t41.5 -137t86 -117t150 -117l178 -123v699h162v-699l178 123q96 66 150 117t85.5 117t41 137t9.5 190v15h162v-15q0 -243 -57 -374t-219 -250l387 -795h-174
l-340 707l-223 -154v-553h-162z" />
    <glyph glyph-name="afii10025" unicode="&#x417;" horiz-adv-x="1114" 
d="M580 121q138 0 216 73t78 193q0 145 -93 218t-253 73h-116v145h116q145 0 222 63.5t77 186.5q0 106 -67.5 173t-184.5 67t-193.5 -65t-109.5 -183l-157 29q46 175 164 269.5t296 94.5q186 0 300 -108t114 -275q0 -238 -213 -323q120 -40 190 -133.5t70 -231.5
q0 -87 -29 -161t-85 -130.5t-143.5 -88.5t-198.5 -32q-194 0 -326.5 104.5t-177.5 299.5l160 29q35 -133 123.5 -210t220.5 -77z" />
    <glyph glyph-name="afii10026" unicode="&#x418;" horiz-adv-x="1318" 
d="M305 0h-153v1434h161v-1137l701 1137h153v-1434h-161v1137z" />
    <glyph glyph-name="afii10027" unicode="&#x419;" horiz-adv-x="1318" 
d="M305 0h-153v1434h161v-1137l701 1137h153v-1434h-161v1137zM659 1571q-121 0 -199.5 67t-107.5 201l127 25q43 -172 180 -172q138 0 181 172l127 -25q-29 -133 -108 -200.5t-200 -67.5z" />
    <glyph glyph-name="afii10028" unicode="&#x41a;" horiz-adv-x="1179" 
d="M989 0l-428 700l-248 -159v-541h-161v1434h161v-709l234 149q106 68 174 131.5t103 131t47 131t12 151.5v15h159v-15q0 -106 -15.5 -188.5t-55 -161.5t-109 -149t-174.5 -138l483 -782h-182z" />
    <glyph glyph-name="afii10029" unicode="&#x41b;" horiz-adv-x="1329" 
d="M424 1286v-1010q0 -156 -74 -228.5t-227 -72.5h-82v146h82q139 0 139 172v1141h916v-1434h-162v1286h-592z" />
    <glyph glyph-name="afii10030" unicode="&#x41c;" horiz-adv-x="1540" 
d="M838 393h-136l-389 707v-1100h-161v1434h143l475 -863l475 863h144v-1434h-162v1100z" />
    <glyph glyph-name="afii10031" unicode="&#x41d;" horiz-adv-x="1259" 
d="M946 0v664h-633v-664h-161v1434h161v-625h633v625h162v-1434h-162z" />
    <glyph glyph-name="afii10032" unicode="&#x41e;" horiz-adv-x="1216" 
d="M1108 893v-352q0 -253 -136.5 -409.5t-363.5 -156.5t-363 156.5t-136 409.5v352q0 253 136 409t363 156t363.5 -156.5t136.5 -408.5zM946 565v303q0 209 -91.5 327t-246.5 118t-246.5 -118t-91.5 -327v-303q0 -209 91.5 -326.5t246.5 -117.5t246.5 117.5t91.5 326.5z" />
    <glyph glyph-name="afii10033" unicode="&#x41f;" horiz-adv-x="1259" 
d="M946 0v1288h-633v-1288h-161v1434h956v-1434h-162z" />
    <glyph glyph-name="afii10034" unicode="&#x420;" horiz-adv-x="1183" 
d="M649 582h-336v-582h-161v1434h497q86 0 164.5 -26.5t142.5 -77.5t102 -134.5t38 -187.5q0 -105 -38 -188.5t-102 -134t-142.5 -77t-164.5 -26.5zM934 1008q0 136 -85.5 208t-223.5 72h-312v-561h312q138 0 223.5 72.5t85.5 208.5z" />
    <glyph glyph-name="afii10035" unicode="&#x421;" horiz-adv-x="1193" 
d="M608 1313q-155 0 -246.5 -118t-91.5 -327v-303q0 -209 91.5 -326.5t246.5 -117.5q133 0 220.5 83t115.5 240l160 -26q-29 -204 -162 -323.5t-334 -119.5q-227 0 -363 156.5t-136 409.5v352q0 253 136 409t363 156q201 0 334 -120t162 -324l-160 -27q-28 158 -115.5 242
t-220.5 84z" />
    <glyph glyph-name="afii10036" unicode="&#x422;" horiz-adv-x="1046" 
d="M33 1434h981v-146h-410v-1288h-162v1288h-409v146z" />
    <glyph glyph-name="afii10037" unicode="&#x423;" horiz-adv-x="1095" 
d="M193 0v145h71q53 0 86 23.5t58 87.5l81 197l-442 981h170l348 -787l320 787h170l-473 -1162q-66 -159 -129.5 -215.5t-176.5 -56.5h-83z" />
    <glyph glyph-name="afii10038" unicode="&#x424;" horiz-adv-x="1529" 
d="M629 338h55v758h-55q-168 0 -268.5 -95t-100.5 -264v-41q0 -169 100 -263.5t269 -94.5zM846 338h55q169 0 269 94.5t100 263.5v41q0 169 -100.5 264t-268.5 95h-55v-758zM846 0h-162v193h-55q-235 0 -383 132.5t-148 344.5v94q0 212 148 344.5t383 132.5h55v193h162v-193
h55q235 0 383 -132.5t148 -344.5v-94q0 -212 -148 -344.5t-383 -132.5h-55v-193z" />
    <glyph glyph-name="afii10039" unicode="&#x425;" horiz-adv-x="1210" 
d="M502 743l-426 691h182l346 -562l348 562h183l-426 -691l458 -743h-180l-383 614l-381 -614h-180z" />
    <glyph glyph-name="afii10040" unicode="&#x426;" horiz-adv-x="1302" 
d="M313 1434v-1289h633v1289h162v-1289h135v-391h-162v246h-929v1434h161z" />
    <glyph glyph-name="afii10041" unicode="&#x427;" horiz-adv-x="1193" 
d="M1042 0h-161v602q-69 -52 -169.5 -83.5t-203.5 -31.5q-186 0 -286.5 105t-100.5 311v531h162v-490q0 -166 61.5 -238.5t200.5 -72.5q96 0 184 30.5t152 86.5v684h161v-1434z" />
    <glyph glyph-name="afii10042" unicode="&#x428;" horiz-adv-x="1951" 
d="M1638 145v1289h162v-1434h-1648v1434h161v-1289h582v1289h162v-1289h581z" />
    <glyph glyph-name="afii10043" unicode="&#x429;" horiz-adv-x="1994" 
d="M1638 145v1289h162v-1289h135v-391h-161v246h-1622v1434h161v-1289h582v1289h162v-1289h581z" />
    <glyph glyph-name="afii10044" unicode="&#x42a;" horiz-adv-x="1394" 
d="M1321 403q0 -192 -125 -297.5t-340 -105.5h-463v1288h-360v146h522v-627h301q215 0 340 -106t125 -298zM1159 403q0 128 -81.5 193.5t-237.5 65.5h-285v-517h285q156 0 237.5 65t81.5 193z" />
    <glyph glyph-name="afii10045" unicode="&#x42b;" horiz-adv-x="1568" 
d="M1417 1434v-1434h-162v1434h162zM918 403q0 128 -82 193.5t-238 65.5h-285v-517h285q156 0 238 65t82 193zM1079 403q0 -192 -125 -297.5t-340 -105.5h-462v1434h161v-627h301q215 0 340 -106t125 -298z" />
    <glyph glyph-name="afii10046" unicode="&#x42c;" horiz-adv-x="1153" 
d="M918 403q0 128 -82 193.5t-238 65.5h-285v-517h285q156 0 238 65t82 193zM1079 403q0 -192 -125 -297.5t-340 -105.5h-462v1434h161v-627h301q215 0 340 -106t125 -298z" />
    <glyph glyph-name="afii10047" unicode="&#x42d;" horiz-adv-x="1193" 
d="M473 791h451v77q0 209 -91.5 327t-246.5 118q-133 0 -220.5 -84t-115.5 -242l-160 27q29 204 162 324t334 120q227 0 363 -156t136 -409v-352q0 -253 -136 -409.5t-363 -156.5q-201 0 -334 119.5t-162 323.5l160 26q28 -157 115.5 -240t220.5 -83q155 0 246.5 117.5
t91.5 326.5v80h-451v146z" />
    <glyph glyph-name="afii10048" unicode="&#x42e;" horiz-adv-x="1583" 
d="M1475 893v-352q0 -253 -136.5 -409.5t-363.5 -156.5t-363.5 156.5t-136.5 409.5v102h-162v-643h-161v1434h161v-646h162v105q0 252 136.5 408.5t363.5 156.5t363.5 -156.5t136.5 -408.5zM1313 565v303q0 209 -91.5 327t-246.5 118t-246.5 -118t-91.5 -327v-303
q0 -209 91.5 -326.5t246.5 -117.5t246.5 117.5t91.5 326.5z" />
    <glyph glyph-name="afii10049" unicode="&#x42f;" horiz-adv-x="1187" 
d="M874 602h-313l-346 -602h-176l358 621q-135 36 -220 137.5t-85 259.5q0 102 38 183t102 131t142.5 76t164.5 26h497v-1434h-162v602zM563 748h311v540h-311q-138 0 -223.5 -70t-85.5 -200t85.5 -200t223.5 -70z" />
    <glyph glyph-name="afii10065" unicode="&#x430;" horiz-adv-x="1034" 
d="M455 113q207 0 301 166v184h-291q-106 0 -165.5 -50t-59.5 -128v-11q0 -72 56 -116.5t159 -44.5zM518 911q-163 0 -246 -153l-151 41q59 116 163 183t240 67q178 0 281.5 -108t103.5 -284v-657h-153v125q-49 -70 -132 -110t-192 -40q-157 0 -251.5 80.5t-94.5 204.5v27
q0 61 23 112.5t71 95t133 68.5t199 25h244v51q0 135 -62.5 203.5t-175.5 68.5z" />
    <glyph glyph-name="afii10066" unicode="&#x431;" horiz-adv-x="1030" 
d="M268 745v-315q0 -156 66.5 -236.5t189.5 -80.5q122 0 188 80.5t66 236.5v160q0 321 -256 321q-85 0 -150.5 -45t-103.5 -121zM268 965v-54q43 63 118.5 100.5t172.5 37.5q177 0 275 -119.5t98 -311.5v-219q0 -190 -105 -307t-303 -117q-134 0 -227.5 56t-137.5 150
t-44 218v541q0 153 37 244.5t111.5 138.5t207.5 72l328 63l32 -131l-350 -63q-123 -23 -168 -86.5t-45 -212.5z" />
    <glyph glyph-name="afii10067" unicode="&#x432;" horiz-adv-x="956" 
d="M541 0h-410v1024h397q158 0 242 -75t84 -195q0 -157 -135 -219q79 -28 121.5 -91t42.5 -153q0 -135 -87.5 -213t-254.5 -78zM285 598h227q94 0 141 37.5t47 105.5q0 69 -46.5 107.5t-141.5 38.5h-227v-289zM729 299q0 83 -51.5 122.5t-157.5 39.5h-235v-324h229
q215 0 215 162z" />
    <glyph glyph-name="afii10068" unicode="&#x433;" horiz-adv-x="856" 
d="M811 1024v-137h-526v-887h-154v1024h680z" />
    <glyph glyph-name="afii10069" unicode="&#x434;" horiz-adv-x="997" 
d="M958 137v-362h-153v225h-631v-225h-154v362h115q70 235 70 535v352h631v-887h122zM293 137h389v750h-324v-232q0 -285 -65 -518z" />
    <glyph glyph-name="afii10070" unicode="&#x435;" horiz-adv-x="1044" 
d="M522 -25q-187 0 -305.5 125t-118.5 306v212q0 181 118.5 306t305.5 125t305.5 -125t118.5 -306v-163h-694v-21q0 -149 75.5 -235t194.5 -86q91 0 155.5 45.5t90.5 128.5l158 -25q-42 -132 -147 -209.5t-257 -77.5zM252 590v-10h541v10q0 149 -76 235t-195 86t-194.5 -86
t-75.5 -235z" />
    <glyph glyph-name="afii10072" unicode="&#x436;" horiz-adv-x="1353" 
d="M600 1024h154v-508l149 98q115 75 152 155.5t37 240.5v14h153v-16q0 -179 -39 -278.5t-151 -184.5l288 -545h-165l-244 465l-180 -119v-346h-154v346l-180 119l-244 -465h-166l289 545q-112 85 -151 184.5t-39 278.5v16h153v-14q0 -160 37 -240.5t152 -155.5l149 -98v508
z" />
    <glyph glyph-name="afii10073" unicode="&#x437;" horiz-adv-x="911" 
d="M477 113q95 0 152 46.5t57 121.5q0 84 -62 133t-182 49h-106v137h106q101 0 154 41.5t53 114.5q0 71 -49.5 113t-136.5 42q-78 0 -130.5 -41t-74.5 -116l-154 26q36 128 131.5 198.5t227.5 70.5q157 0 248.5 -81.5t91.5 -211.5q0 -83 -41 -141.5t-115 -84.5
q193 -65 193 -251q0 -130 -98 -217t-263 -87q-142 0 -252.5 75t-154.5 218l153 29q30 -89 96.5 -136.5t155.5 -47.5z" />
    <glyph glyph-name="afii10074" unicode="&#x438;" horiz-adv-x="1048" 
d="M764 758l-492 -758h-141v1024h154v-758l491 758h142v-1024h-154v758z" />
    <glyph glyph-name="afii10075" unicode="&#x439;" horiz-adv-x="1048" 
d="M764 758l-492 -758h-141v1024h154v-758l491 758h142v-1024h-154v758zM524 1167q-121 0 -199.5 67.5t-107.5 201.5l127 24q43 -172 180 -172q138 0 181 172l126 -24q-29 -134 -107.5 -201.5t-199.5 -67.5z" />
    <glyph glyph-name="afii10076" unicode="&#x43a;" horiz-adv-x="966" 
d="M618 578l353 -578h-172l-301 498l-213 -138v-360h-154v1024h154v-492l229 150q106 69 152.5 145t46.5 183v14h153v-16q0 -150 -57 -246t-191 -184z" />
    <glyph glyph-name="afii10077" unicode="&#x43b;" horiz-adv-x="1116" 
d="M379 887v-611q0 -156 -72.5 -228.5t-222.5 -72.5h-51v138h51q72 0 106.5 43.5t34.5 136.5v731h760v-1024h-154v887h-452z" />
    <glyph glyph-name="afii10078" unicode="&#x43c;" horiz-adv-x="1253" 
d="M131 1024h145l351 -573l350 573h145v-1024h-155v756l-299 -488h-82l-299 488v-756h-156v1024z" />
    <glyph glyph-name="afii10079" unicode="&#x43d;" horiz-adv-x="1030" 
d="M899 1024v-1024h-154v457h-460v-457h-154v1024h154v-430h460v430h154z" />
    <glyph glyph-name="afii10080" unicode="&#x43e;" horiz-adv-x="1044" 
d="M98 406v212q0 181 118.5 306t305.5 125t305.5 -125t118.5 -306v-212q0 -181 -118.5 -306t-305.5 -125t-305.5 125t-118.5 306zM793 434v156q0 149 -76 235t-195 86t-194.5 -86t-75.5 -235v-156q0 -149 75.5 -235t194.5 -86t195 86t76 235z" />
    <glyph glyph-name="afii10081" unicode="&#x43f;" horiz-adv-x="1038" 
d="M907 1024v-1024h-153v887h-469v-887h-154v1024h776z" />
    <glyph glyph-name="afii10082" unicode="&#x440;" horiz-adv-x="1046" 
d="M285 113v-559h-154v1470h154v-113q43 64 118 101t172 37q177 0 275 -119.5t98 -311.5v-212q0 -192 -98 -311.5t-275 -119.5q-97 0 -172 37t-118 101zM795 434v156q0 321 -260 321q-83 0 -147.5 -44.5t-102.5 -121.5v-466q38 -77 102.5 -121.5t147.5 -44.5q260 0 260 321z
" />
    <glyph glyph-name="afii10083" unicode="&#x441;" horiz-adv-x="1005" 
d="M98 406v212q0 181 118.5 306t305.5 125q157 0 264 -89.5t142 -232.5l-154 -27q-23 101 -89.5 156t-162.5 55q-119 0 -194.5 -86t-75.5 -235v-156q0 -149 75.5 -235t194.5 -86q96 0 162.5 55t89.5 156l154 -27q-35 -143 -142 -232.5t-264 -89.5q-187 0 -305.5 125
t-118.5 306z" />
    <glyph glyph-name="afii10084" unicode="&#x442;" horiz-adv-x="878" 
d="M33 1024h813v-137h-330v-887h-154v887h-329v137z" />
    <glyph glyph-name="afii10085" unicode="&#x443;" horiz-adv-x="983" 
d="M358 -178l74 205l-412 997h164l324 -801l291 801h164l-461 -1239q-48 -128 -116.5 -172.5t-186.5 -44.5h-66v137h60q61 0 101 26.5t64 90.5z" />
    <glyph glyph-name="afii10086" unicode="&#x444;" horiz-adv-x="1677" 
d="M98 406v212q0 192 98 311.5t275 119.5q97 0 172.5 -37.5t118.5 -100.5v547h153v-547q43 63 118.5 100.5t172.5 37.5q177 0 275 -119.5t98 -311.5v-212q0 -192 -98 -311.5t-275 -119.5q-97 0 -172.5 37.5t-118.5 100.5v-559h-153v559q-43 -63 -118.5 -100.5t-172.5 -37.5
q-177 0 -275 119.5t-98 311.5zM252 590v-156q0 -321 260 -321q83 0 147.5 44.5t102.5 121.5v466q-38 77 -102.5 121.5t-147.5 44.5q-260 0 -260 -321zM1425 434v156q0 321 -260 321q-83 0 -147.5 -44.5t-102.5 -121.5v-466q38 -77 102.5 -121.5t147.5 -44.5q260 0 260 321z
" />
    <glyph glyph-name="afii10087" unicode="&#x445;" horiz-adv-x="940" 
d="M197 0h-177l353 530l-328 494h176l248 -379l250 379h176l-330 -494l355 -530h-177l-274 416z" />
    <glyph glyph-name="afii10088" unicode="&#x446;" horiz-adv-x="1071" 
d="M907 1024v-887h123v-362h-153v225h-746v1024h154v-887h469v887h153z" />
    <glyph glyph-name="afii10089" unicode="&#x447;" horiz-adv-x="1003" 
d="M109 1024h153v-272q0 -157 48 -226t169 -69q148 0 240 86v481h153v-1024h-153v403q-46 -40 -118 -62t-152 -22q-340 0 -340 398v307z" />
    <glyph glyph-name="afii10090" unicode="&#x448;" horiz-adv-x="1566" 
d="M1436 1024v-1024h-1305v1024h154v-887h422v887h153v-887h422v887h154z" />
    <glyph glyph-name="afii10091" unicode="&#x449;" horiz-adv-x="1599" 
d="M1436 1024v-887h123v-362h-154v225h-1274v1024h154v-887h422v887h153v-887h422v887h154z" />
    <glyph glyph-name="afii10092" unicode="&#x44a;" horiz-adv-x="1134" 
d="M1079 322q0 -151 -97 -236.5t-261 -85.5h-391v885h-297v139h450v-381h238q164 0 261 -85t97 -236zM926 322q0 184 -221 184h-222v-369h222q221 0 221 185z" />
    <glyph glyph-name="afii10093" unicode="&#x44b;" horiz-adv-x="1325" 
d="M1040 0v1024h154v-1024h-154zM727 322q0 184 -221 184h-221v-369h221q221 0 221 185zM881 322q0 -151 -97.5 -236.5t-261.5 -85.5h-391v1024h154v-381h237q165 0 262 -85t97 -236z" />
    <glyph glyph-name="afii10094" unicode="&#x44c;" horiz-adv-x="935" 
d="M727 322q0 184 -221 184h-221v-369h221q221 0 221 185zM881 322q0 -151 -97.5 -236.5t-261.5 -85.5h-391v1024h154v-381h237q165 0 262 -85t97 -236z" />
    <glyph glyph-name="afii10095" unicode="&#x44d;" horiz-adv-x="1005" 
d="M907 618v-212q0 -181 -118.5 -306t-305.5 -125q-157 0 -263.5 89.5t-141.5 232.5l153 27q23 -101 89.5 -156t162.5 -55q119 0 195 86t76 235v10h-340v138h340v8q0 149 -76 235t-195 86q-96 0 -162.5 -55t-89.5 -156l-153 27q35 143 141.5 232.5t263.5 89.5
q187 0 305.5 -125t118.5 -306z" />
    <glyph glyph-name="afii10096" unicode="&#x44e;" horiz-adv-x="1351" 
d="M406 406v38h-121v-444h-154v1024h154v-442h121v36q0 118 52 216t149.5 156.5t221.5 58.5q187 0 305.5 -125t118.5 -306v-212q0 -181 -118.5 -306t-305.5 -125q-124 0 -221.5 58.5t-149.5 156.5t-52 216zM1100 434v156q0 149 -76 235t-195 86t-194.5 -86t-75.5 -235v-156
q0 -149 75.5 -235t194.5 -86t195 86t76 235z" />
    <glyph glyph-name="afii10097" unicode="&#x44f;" horiz-adv-x="1001" 
d="M717 408h-262l-236 -408h-166l250 432q-94 30 -148.5 103t-54.5 182q0 146 99.5 226.5t249.5 80.5h421v-1024h-153v408zM254 717q0 -84 55.5 -128t145.5 -44h262v342h-262q-91 0 -146 -43t-55 -127z" />
    <glyph glyph-name="uni0450" unicode="&#x450;" horiz-adv-x="1044" 
d="M522 -25q-187 0 -305.5 125t-118.5 306v212q0 181 118.5 306t305.5 125t305.5 -125t118.5 -306v-163h-694v-21q0 -149 75.5 -235t194.5 -86q91 0 155.5 45.5t90.5 128.5l158 -25q-42 -132 -147 -209.5t-257 -77.5zM252 590v-10h541v10q0 149 -76 235t-195 86t-194.5 -86
t-75.5 -235zM526 1155l-229 330h168l188 -330h-127z" />
    <glyph glyph-name="afii10071" unicode="&#x451;" horiz-adv-x="1044" 
d="M522 -25q-187 0 -305.5 125t-118.5 306v212q0 181 118.5 306t305.5 125t305.5 -125t118.5 -306v-163h-694v-21q0 -149 75.5 -235t194.5 -86q91 0 155.5 45.5t90.5 128.5l158 -25q-42 -132 -147 -209.5t-257 -77.5zM252 590v-10h541v10q0 149 -76 235t-195 86t-194.5 -86
t-75.5 -235zM414 1421v-207h-162v207h162zM780 1421v-207h-162v207h162z" />
    <glyph glyph-name="afii10099" unicode="&#x452;" horiz-adv-x="1073" 
d="M948 627v-760q0 -156 -74 -228.5t-227 -72.5h-65v137h65q76 0 112 43.5t36 136.5v711q0 163 -55 240t-183 77q-85 0 -159 -49t-113 -135v-727h-154v1204h-127v119h127v135h154v-135h301v-119h-301v-311q51 73 131.5 114.5t183.5 41.5q167 0 257.5 -111.5t90.5 -310.5z
" />
    <glyph glyph-name="afii10100" unicode="&#x453;" horiz-adv-x="856" 
d="M811 1024v-137h-526v-887h-154v1024h680zM684 1485l-229 -330h-127l188 330h168z" />
    <glyph glyph-name="afii10101" unicode="&#x454;" horiz-adv-x="1005" 
d="M98 406v212q0 181 118.5 306t305.5 125q157 0 264 -89.5t142 -232.5l-154 -27q-23 101 -89.5 156t-162.5 55q-119 0 -194.5 -86t-75.5 -235v-8h340v-138h-340v-10q0 -149 75.5 -235t194.5 -86q96 0 162.5 55t89.5 156l154 -27q-35 -143 -142 -232.5t-264 -89.5
q-187 0 -305.5 125t-118.5 306z" />
    <glyph glyph-name="afii10102" unicode="&#x455;" horiz-adv-x="976" 
d="M117 762q0 129 96.5 208t253.5 79q151 0 255 -75t144 -210l-157 -27q-21 81 -83.5 127.5t-156.5 46.5t-146.5 -41t-52.5 -110q0 -133 203 -164l100 -16q168 -27 242 -101t74 -200q0 -135 -100 -219.5t-269 -84.5q-164 0 -275.5 80t-154.5 230l156 28q30 -98 103 -149
t171 -51q99 0 157 46.5t58 119.5t-50.5 112t-152.5 55l-100 17q-171 28 -243 102.5t-72 196.5z" />
    <glyph glyph-name="afii10103" unicode="&#x456;" horiz-adv-x="456" 
d="M152 0v1024h153v-1024h-153zM152 1270v188h153v-188h-153z" />
    <glyph glyph-name="afii10104" unicode="&#x457;" horiz-adv-x="456" 
d="M152 0v1024h153v-1024h-153zM125 1422v-207h-162v207h162zM491 1422v-207h-162v207h162z" />
    <glyph glyph-name="afii10105" unicode="&#x458;" horiz-adv-x="477" 
d="M172 1270v188h154v-188h-154zM172 -117v1141h154v-1157q0 -156 -74 -228.5t-227 -72.5h-66v137h66q75 0 111 43.5t36 136.5z" />
    <glyph glyph-name="afii10106" unicode="&#x459;" horiz-adv-x="1636" 
d="M1581 322q0 -151 -97 -236.5t-261 -85.5h-392v887h-452v-611q0 -156 -72.5 -228.5t-222.5 -72.5h-51v138h51q72 0 106.5 43.5t34.5 136.5v731h760v-381h238q164 0 261 -85t97 -236zM1427 322q0 184 -221 184h-221v-369h221q221 0 221 185z" />
    <glyph glyph-name="afii10107" unicode="&#x45a;" horiz-adv-x="1550" 
d="M1495 322q0 -151 -97 -236.5t-261 -85.5h-392v457h-460v-457h-154v1024h154v-430h460v430h154v-381h238q164 0 261 -85t97 -236zM1341 322q0 184 -221 184h-221v-369h221q221 0 221 185z" />
    <glyph glyph-name="afii10108" unicode="&#x45b;" horiz-adv-x="1073" 
d="M586 1204h-301v-311q51 73 131.5 114.5t183.5 41.5q167 0 257.5 -111.5t90.5 -310.5v-627h-153v594q0 163 -55 240t-183 77q-85 0 -159 -49t-113 -135v-727h-154v1204h-127v119h127v135h154v-135h301v-119z" />
    <glyph glyph-name="afii10109" unicode="&#x45c;" horiz-adv-x="966" 
d="M618 578l353 -578h-172l-301 498l-213 -138v-360h-154v1024h154v-492l229 150q106 69 152.5 145t46.5 183v14h153v-16q0 -150 -57 -246t-191 -184zM731 1485l-229 -330h-127l188 330h168z" />
    <glyph glyph-name="uni045D" unicode="&#x45d;" horiz-adv-x="1048" 
d="M272 0l492 758v-758h154v1024h-142l-491 -758v758h-154v-1024h141zM535 1155l-230 330h168l189 -330h-127z" />
    <glyph glyph-name="afii10110" unicode="&#x45e;" horiz-adv-x="983" 
d="M358 -178l74 205l-412 997h164l324 -801l291 801h164l-461 -1239q-48 -128 -116.5 -172.5t-186.5 -44.5h-66v137h60q61 0 101 26.5t64 90.5zM487 1168q-121 0 -199.5 67t-107.5 201l127 24q43 -172 180 -172t180 172l127 -24q-29 -134 -107.5 -201t-199.5 -67z" />
    <glyph glyph-name="afii10193" unicode="&#x45f;" horiz-adv-x="1038" 
d="M907 1024v-1024h-311v-225h-154v225h-311v1024h154v-887h469v887h153z" />
    <glyph glyph-name="afii10050" unicode="&#x490;" horiz-adv-x="1075" 
d="M313 1288v-1288h-161v1434h739v286h162v-432h-740z" />
    <glyph glyph-name="afii10098" unicode="&#x491;" horiz-adv-x="856" 
d="M657 1024v215h154v-352h-526v-887h-154v1024h526z" />
    <glyph glyph-name="Wgrave" unicode="&#x1e80;" horiz-adv-x="1867" 
d="M854 1434h160l329 -1147l316 1147h176l-408 -1434h-163l-330 1155l-330 -1155h-164l-407 1434h176l315 -1147zM926 1562l-229 330h168l188 -330h-127z" />
    <glyph glyph-name="wgrave" unicode="&#x1e81;" horiz-adv-x="1593" 
d="M877 1024h-160l-258 -815l-277 815h-162l359 -1024h162l256 809l256 -809h161l359 1024h-162l-276 -815zM788 1155l-229 330h168l188 -330h-127z" />
    <glyph glyph-name="Wacute" unicode="&#x1e82;" horiz-adv-x="1867" 
d="M854 1434h160l329 -1147l316 1147h176l-408 -1434h-163l-330 1155l-330 -1155h-164l-407 1434h176l315 -1147zM1171 1892l-229 -329h-127l189 329h167z" />
    <glyph glyph-name="wacute" unicode="&#x1e83;" horiz-adv-x="1593" 
d="M717 1024h160l258 -815l276 815h162l-359 -1024h-161l-256 809l-256 -809h-162l-359 1024h162l277 -815zM1034 1485l-229 -330h-127l188 330h168z" />
    <glyph glyph-name="Wdieresis" unicode="&#x1e84;" horiz-adv-x="1867" 
d="M854 1434h160l329 -1147l316 1147h176l-408 -1434h-163l-330 1155l-330 -1155h-164l-407 1434h176l315 -1147zM832 1833v-207h-162v207h162zM1198 1833v-207h-162v207h162z" />
    <glyph glyph-name="wdieresis" unicode="&#x1e85;" horiz-adv-x="1593" 
d="M717 1024h160l258 -815l276 815h162l-359 -1024h-161l-256 809l-256 -809h-162l-359 1024h162l277 -815zM695 1422v-207h-162v207h162zM1061 1422v-207h-162v207h162z" />
    <glyph glyph-name="Ygrave" unicode="&#x1ef2;" horiz-adv-x="1146" 
d="M653 0h-161v651l-459 783h178l362 -623l363 623h178l-461 -783v-651zM571 1562l-229 330h168l188 -330h-127z" />
    <glyph glyph-name="ygrave" unicode="&#x1ef3;" horiz-adv-x="983" 
d="M358 -178l74 205l-412 997h164l324 -801l291 801h164l-461 -1239q-48 -128 -116.5 -172.5t-186.5 -44.5h-66v137h60q61 0 101 26.5t64 90.5zM485 1155l-229 330h168l188 -330h-127z" />
    <glyph glyph-name="thinspace" unicode="&#x2009;" horiz-adv-x="409" 
 />
    <glyph glyph-name="uni2010" unicode="&#x2010;" horiz-adv-x="817" 
d="M713 598h-609v137h609v-137z" />
    <glyph glyph-name="figuredash" unicode="&#x2012;" horiz-adv-x="1220" 
d="M1116 598h-1012v137h1012v-137z" />
    <glyph glyph-name="endash" unicode="&#x2013;" horiz-adv-x="1024" 
d="M1024 598h-1024v137h1024v-137z" />
    <glyph glyph-name="emdash" unicode="&#x2014;" horiz-adv-x="2048" 
d="M2048 598h-2048v137h2048v-137z" />
    <glyph glyph-name="afii00208" unicode="&#x2015;" horiz-adv-x="2048" 
d="M1843 598h-1638v137h1638v-137z" />
    <glyph glyph-name="uni2016" unicode="&#x2016;" horiz-adv-x="843" 
d="M211 -266v1800h125v-1800h-125zM508 -266v1800h125v-1800h-125z" />
    <glyph glyph-name="underscoredbl" unicode="&#x2017;" horiz-adv-x="1228" 
d="M102 -78h1024v-102h-1024v102zM102 -289h1024v-102h-1024v102z" />
    <glyph glyph-name="quoteleft" unicode="&#x2018;" horiz-adv-x="536" 
d="M180 1153v195q0 100 41.5 153t134.5 66v-76q-50 -10 -73 -39.5t-23 -97.5h96v-201h-176z" />
    <glyph glyph-name="quoteright" unicode="&#x2019;" horiz-adv-x="536" 
d="M356 1567v-195q0 -100 -41.5 -153t-134.5 -66v76q50 10 73 39.5t23 97.5h-96v201h176z" />
    <glyph glyph-name="quotesinglbase" unicode="&#x201a;" horiz-adv-x="536" 
d="M356 201v-195q0 -100 -41.5 -153t-134.5 -66v76q50 10 73 39.5t23 97.5h-96v201h176z" />
    <glyph glyph-name="quotereversed" unicode="&#x201b;" horiz-adv-x="536" 
d="M180 1372v195h176v-201h-96q0 -68 23 -97.5t73 -39.5v-76q-93 13 -134.5 66t-41.5 153z" />
    <glyph glyph-name="quotedblleft" unicode="&#x201c;" horiz-adv-x="808" 
d="M453 1153v195q0 100 41.5 153t134.5 66v-76q-50 -10 -73.5 -40t-23.5 -97h97v-201h-176zM180 1153v195q0 100 41.5 153t134.5 66v-76q-50 -10 -73 -39.5t-23 -97.5h96v-201h-176z" />
    <glyph glyph-name="quotedblright" unicode="&#x201d;" horiz-adv-x="808" 
d="M629 1567v-195q0 -100 -41.5 -153t-134.5 -66v76q50 10 73 39.5t23 97.5h-96v201h176zM356 1567v-195q0 -100 -41.5 -153t-134.5 -66v76q50 10 73 39.5t23 97.5h-96v201h176z" />
    <glyph glyph-name="quotedblbase" unicode="&#x201e;" horiz-adv-x="808" 
d="M356 201v-195q0 -100 -41.5 -153t-134.5 -66v76q50 10 73 39.5t23 97.5h-96v201h176zM629 201v-195q0 -100 -41.5 -153t-134.5 -66v76q50 10 73 39.5t23 97.5h-96v201h176z" />
    <glyph glyph-name="uni201F" unicode="&#x201f;" horiz-adv-x="808" 
d="M180 1372v195h176v-201h-96q0 -68 23 -97.5t73 -39.5v-76q-93 13 -134.5 66t-41.5 153zM453 1372v195h176v-201h-97q0 -67 23.5 -97t73.5 -40v-76q-93 13 -134.5 66t-41.5 153z" />
    <glyph glyph-name="dagger" unicode="&#x2020;" horiz-adv-x="1173" 
d="M657 1044v-1312h-141v1312h-348v123h348v365h141v-365h349v-123h-349z" />
    <glyph glyph-name="daggerdbl" unicode="&#x2021;" horiz-adv-x="1173" 
d="M516 217v827h-348v123h348v365h141v-365h349v-123h-349v-827h349v-123h-349v-362h-141v362h-348v123h348z" />
    <glyph glyph-name="bullet" unicode="&#x2022;" horiz-adv-x="739" 
d="M109 668q0 107 76.5 183.5t185.5 76.5q107 0 183.5 -76.5t76.5 -183.5t-76.5 -183.5t-183.5 -76.5q-109 0 -185.5 76.5t-76.5 183.5z" />
    <glyph glyph-name="onedotenleader" unicode="&#x2024;" horiz-adv-x="536" 
d="M356 201v-201h-176v201h176z" />
    <glyph glyph-name="twodotenleader" unicode="&#x2025;" horiz-adv-x="1073" 
d="M356 201v-201h-176v201h176zM893 201v-201h-176v201h176z" />
    <glyph glyph-name="ellipsis" unicode="&#x2026;" horiz-adv-x="1609" 
d="M356 201v-201h-176v201h176zM893 201v-201h-176v201h176zM1430 201v-201h-177v201h177z" />
    <glyph glyph-name="perthousand" unicode="&#x2030;" horiz-adv-x="2273" 
d="M1032 1434h133l-571 -1434h-133zM123 991v176q0 124 72.5 207.5t199.5 83.5t200 -83.5t73 -207.5v-176q0 -124 -73 -207.5t-200 -83.5t-199.5 83.5t-72.5 207.5zM254 1149v-139q0 -94 37 -142.5t104 -48.5t104.5 48.5t37.5 142.5v139q0 94 -37.5 142t-104.5 48t-104 -48
t-37 -142zM1503 442v-176q0 -124 -72.5 -207.5t-199.5 -83.5t-200 83.5t-73 207.5v176q0 124 73 207.5t200 83.5t199.5 -83.5t72.5 -207.5zM1372 285v139q0 94 -37 142t-104 48t-104 -48t-37 -142v-139q0 -94 37 -142.5t104 -48.5t104 48.5t37 142.5zM2150 442v-176
q0 -124 -72.5 -207.5t-199.5 -83.5t-199.5 83.5t-72.5 207.5v176q0 124 72.5 207.5t199.5 83.5t199.5 -83.5t72.5 -207.5zM2019 285v139q0 94 -37 142t-104 48t-104 -48t-37 -142v-139q0 -94 37 -142.5t104 -48.5t104 48.5t37 142.5z" />
    <glyph glyph-name="minute" unicode="&#x2032;" horiz-adv-x="438" 
d="M211 979h-121l103 455h155z" />
    <glyph glyph-name="second" unicode="&#x2033;" horiz-adv-x="731" 
d="M211 979h-121l103 455h155zM504 979h-121l102 455h156z" />
    <glyph glyph-name="guilsinglleft" unicode="&#x2039;" horiz-adv-x="606" 
d="M86 596v86l434 285v-131l-309 -197l309 -197v-131z" />
    <glyph glyph-name="guilsinglright" unicode="&#x203a;" horiz-adv-x="606" 
d="M520 682v-86l-434 -285v131l309 197l-309 197v131z" />
    <glyph glyph-name="exclamdbl" unicode="&#x203c;" horiz-adv-x="950" 
d="M350 1434v-211l-26 -820h-101l-26 820v211h153zM350 193v-193h-153v193h153zM754 1434v-211l-27 -820h-100l-27 820v211h154zM754 193v-193h-154v193h154z" />
    <glyph glyph-name="uni203E" unicode="&#x203e;" horiz-adv-x="761" 
d="M96 1268v118h570v-118h-570z" />
    <glyph glyph-name="fraction" unicode="&#x2044;" horiz-adv-x="346" 
d="M594 1434l-703 -1434h-139l703 1434h139z" />
    <glyph glyph-name="zerosuperior" unicode="&#x2070;" 
d="M70 793v333q0 153 80.5 238.5t216.5 85.5t216.5 -85.5t80.5 -238.5v-333q0 -153 -80.5 -238.5t-216.5 -85.5t-216.5 85.5t-80.5 238.5zM209 1110v-301q0 -115 43.5 -168t114.5 -53t114 53t43 168v301q0 115 -43 168t-114 53t-114.5 -53t-43.5 -168z" />
    <glyph glyph-name="uni2071" unicode="&#x2071;" 
d="M297 485v666h139v-666h-139zM297 1284v150h139v-150h-139z" />
    <glyph glyph-name="foursuperior" unicode="&#x2074;" 
d="M203 807h235v393zM680 807v-119h-105v-203h-137v203h-387v107l383 639h141v-627h105z" />
    <glyph glyph-name="fivesuperior" unicode="&#x2075;" 
d="M121 928v506h502v-119h-363v-248q51 45 129 45q125 0 203 -81.5t78 -237.5q0 -152 -80 -236t-213 -84q-135 0 -215 82t-80 227l139 11v-11q0 -93 43.5 -141.5t112.5 -48.5q67 0 110 49.5t43 153.5q0 101 -44 151.5t-109 50.5q-38 0 -73.5 -19t-59.5 -50h-123z" />
    <glyph glyph-name="sixsuperior" unicode="&#x2076;" 
d="M369 469q-134 0 -218.5 86t-84.5 213q0 83 38 154l258 512h152l-199 -387q27 12 66 12q125 0 206 -84.5t81 -206.5q0 -127 -83 -213t-216 -86zM528 766q0 79 -44 128.5t-117 49.5t-117.5 -49.5t-44.5 -128.5t44.5 -128.5t117.5 -49.5t117 49.5t44 128.5z" />
    <glyph glyph-name="sevensuperior" unicode="&#x2077;" 
d="M78 1315v119h579v-95l-317 -854h-147l315 830h-430z" />
    <glyph glyph-name="eightsuperior" unicode="&#x2078;" 
d="M367 1450q120 0 194 -70.5t74 -177.5q0 -60 -27.5 -108.5t-72.5 -79.5q65 -35 100 -99t35 -147q0 -130 -83.5 -214.5t-219.5 -84.5t-220 85t-84 214q0 83 35.5 147t100.5 99q-101 69 -101 188q0 107 74.5 177.5t194.5 70.5zM367 1063q56 0 92.5 37.5t36.5 97.5
t-36.5 97.5t-92.5 37.5t-92.5 -37.5t-36.5 -97.5t36.5 -97.5t92.5 -37.5zM367 586q72 0 117.5 51t45.5 131t-45.5 131t-117.5 51t-118 -51t-46 -131t46 -131t118 -51z" />
    <glyph glyph-name="ninesuperior" unicode="&#x2079;" 
d="M365 1450q134 0 218.5 -86t84.5 -213q0 -81 -39 -154l-258 -512h-152l199 387q-27 -12 -66 -12q-125 0 -205.5 84.5t-80.5 206.5q0 127 83 213t216 86zM205 1153q0 -79 44.5 -128.5t117.5 -49.5t117 49.5t44 128.5t-44 128.5t-117 49.5t-117.5 -49.5t-44.5 -128.5z" />
    <glyph glyph-name="uni207A" unicode="&#x207a;" 
d="M301 649v252h-248v117h248v252h129v-252h248v-117h-248v-252h-129z" />
    <glyph glyph-name="uni207B" unicode="&#x207b;" 
d="M678 901h-625v117h625v-117z" />
    <glyph glyph-name="uni207C" unicode="&#x207c;" 
d="M678 752h-625v116h625v-116zM678 1051h-625v116h625v-116z" />
    <glyph glyph-name="uni207D" unicode="&#x207d;" 
d="M395 1090v-261q0 -263 174 -350l-39 -127q-272 116 -272 457v301q0 341 272 457l39 -127q-174 -87 -174 -350z" />
    <glyph glyph-name="uni207E" unicode="&#x207e;" 
d="M338 829v261q0 263 -174 350l39 127q272 -116 272 -457v-301q0 -341 -272 -457l-39 127q174 87 174 350z" />
    <glyph glyph-name="uni207F" unicode="&#x207f;" 
d="M651 485h-137v441q0 168 -125 168q-112 0 -170 -101v-508h-137v719h137v-80q33 45 86.5 72t116.5 27q109 0 169 -74t60 -203v-461z" />
    <glyph glyph-name="zeroinferior" unicode="&#x2080;" 
d="M70 49v334q0 153 80.5 238.5t216.5 85.5t216.5 -85.5t80.5 -238.5v-334q0 -153 -80.5 -238t-216.5 -85t-216.5 85t-80.5 238zM209 367v-301q0 -115 43.5 -168.5t114.5 -53.5t114 53.5t43 168.5v301q0 115 -43 168t-114 53t-114.5 -53t-43.5 -168z" />
    <glyph glyph-name="oneinferior" unicode="&#x2081;" 
d="M135 -258v119h195v684l-195 -86v127l219 104h115v-829h193v-119h-527z" />
    <glyph glyph-name="twoinferior" unicode="&#x2082;" 
d="M524 424q0 77 -42.5 120.5t-108.5 43.5t-109 -44t-43 -120v-37l-141 10v29q0 120 80.5 200.5t212.5 80.5q127 0 209 -79t82 -202q0 -67 -24 -119.5t-79 -113.5l-293 -332h396v-119h-584v98l381 436q63 71 63 148z" />
    <glyph glyph-name="threeinferior" unicode="&#x2083;" 
d="M74 37l139 10q0 -98 42 -150.5t114 -52.5q67 0 111 44t44 132q0 96 -38 143.5t-107 47.5q-37 0 -84 -21l-72 82l232 299h-357v119h531v-104l-217 -275h18q98 0 166 -75.5t68 -217.5q0 -133 -83 -212.5t-212 -79.5q-135 0 -215 87t-80 224z" />
    <glyph glyph-name="fourinferior" unicode="&#x2084;" 
d="M203 63h235v394zM680 63v-118h-105v-203h-137v203h-387v106l383 639h141v-627h105z" />
    <glyph glyph-name="fiveinferior" unicode="&#x2085;" 
d="M121 184v506h502v-119h-363v-247q51 45 129 45q125 0 203 -82t78 -238q0 -152 -80 -235.5t-213 -83.5q-135 0 -215 82t-80 227l139 10v-10q0 -93 43.5 -142t112.5 -49q67 0 110 49.5t43 153.5q0 101 -44 152t-109 51q-38 0 -73.5 -19.5t-59.5 -50.5h-123z" />
    <glyph glyph-name="sixinferior" unicode="&#x2086;" 
d="M369 -274q-134 0 -218.5 86t-84.5 213q0 82 38 153l258 512h152l-199 -387q27 12 66 12q125 0 206 -84t81 -206q0 -127 -83 -213t-216 -86zM528 23q0 79 -44 128.5t-117 49.5t-117.5 -49.5t-44.5 -128.5t44.5 -129t117.5 -50t117 50t44 129z" />
    <glyph glyph-name="seveninferior" unicode="&#x2087;" 
d="M78 571v119h579v-94l-317 -854h-147l315 829h-430z" />
    <glyph glyph-name="eightinferior" unicode="&#x2088;" 
d="M367 707q120 0 194 -70.5t74 -177.5q0 -60 -27.5 -109t-72.5 -80q65 -35 100 -98.5t35 -146.5q0 -130 -83.5 -214.5t-219.5 -84.5t-220 85t-84 214q0 83 35.5 146.5t100.5 98.5q-45 31 -73 80t-28 109q0 107 74.5 177.5t194.5 70.5zM367 319q56 0 92.5 38t36.5 98
t-36.5 97.5t-92.5 37.5t-92.5 -37.5t-36.5 -97.5t36.5 -98t92.5 -38zM367 -158q72 0 117.5 51.5t45.5 131.5t-45.5 131t-117.5 51t-118 -51t-46 -131t46 -131.5t118 -51.5z" />
    <glyph glyph-name="nineinferior" unicode="&#x2089;" 
d="M365 707q134 0 218.5 -86t84.5 -213q0 -81 -39 -154l-258 -512h-152l199 387q-27 -12 -66 -12q-125 0 -205.5 84.5t-80.5 206.5q0 127 83 213t216 86zM205 410q0 -79 44.5 -129t117.5 -50t117 50t44 129t-44 128.5t-117 49.5t-117.5 -49.5t-44.5 -128.5z" />
    <glyph glyph-name="uni208A" unicode="&#x208a;" 
d="M301 -94v252h-248v116h248v252h129v-252h248v-116h-248v-252h-129z" />
    <glyph glyph-name="uni208B" unicode="&#x208b;" 
d="M678 158h-625v116h625v-116z" />
    <glyph glyph-name="uni208C" unicode="&#x208c;" 
d="M678 8h-625v117h625v-117zM678 307h-625v117h625v-117z" />
    <glyph glyph-name="uni208D" unicode="&#x208d;" 
d="M395 346v-260q0 -263 174 -350l-39 -127q-272 116 -272 457v301q0 171 66.5 284t205.5 172l39 -127q-174 -87 -174 -350z" />
    <glyph glyph-name="uni208E" unicode="&#x208e;" 
d="M338 86v260q0 263 -174 350l39 127q139 -59 205.5 -172t66.5 -284v-301q0 -341 -272 -457l-39 127q174 87 174 350z" />
    <glyph glyph-name="uni2090" unicode="&#x2090;" 
d="M338 -158q56 0 104.5 24t73.5 62v129h-166q-72 0 -110.5 -30.5t-38.5 -77.5v-8q0 -47 36.5 -73t100.5 -26zM362 365q-102 0 -159 -103l-119 43q44 84 120 130t169 46q124 0 201 -72t77 -194v-471h-135v74q-34 -42 -90 -67t-121 -25q-101 0 -170 57t-69 151v11
q0 100 77 158.5t219 58.5h154v45q0 73 -43 115.5t-111 42.5z" />
    <glyph glyph-name="uni2091" unicode="&#x2091;" 
d="M367 -274q-131 0 -215 89t-84 228v121q0 139 84 228t215 89t215 -89t84 -228v-117h-463v-4q1 -98 46.5 -149.5t117.5 -51.5q59 0 99.5 32t55.5 87l133 -18q-26 -99 -103.5 -158t-184.5 -59zM203 150h327v4q0 102 -44.5 156.5t-118.5 54.5t-119 -54.5t-45 -156.5v-4z" />
    <glyph glyph-name="uni2092" unicode="&#x2092;" 
d="M666 164v-121q0 -139 -84 -228t-215 -89t-215 89t-84 228v121q0 139 84 228t215 89t215 -89t84 -228zM203 154v-101q0 -102 45 -156.5t119 -54.5t118.5 54.5t44.5 156.5v101q0 102 -44.5 156.5t-118.5 54.5t-119 -54.5t-45 -156.5z" />
    <glyph glyph-name="uni2093" unicode="&#x2093;" 
d="M199 -256h-148l236 365l-215 335h143l152 -237l153 237h144l-215 -338l235 -362h-147l-170 266z" />
    <glyph glyph-name="uni2094" unicode="&#x2094;" 
d="M367 481q131 0 215 -89t84 -228v-121q0 -139 -84 -228t-215 -89t-215 89t-84 228v117h462v4q-1 98 -46 149.5t-117 51.5q-59 0 -100 -32t-56 -87l-133 18q26 99 104 158t185 59zM203 57v-4q0 -102 45 -156.5t119 -54.5t118.5 54.5t44.5 156.5v4h-327z" />
    <glyph glyph-name="uni20A0" unicode="&#x20a0;" horiz-adv-x="1439" 
d="M487 418q-170 0 -285.5 123t-115.5 299v194q0 179 116.5 301.5t295.5 122.5q144 0 244.5 -74.5t144.5 -203.5l-148 -29q-27 86 -90.5 129t-150.5 43q-113 0 -187.5 -81.5t-74.5 -227.5v-152q0 -146 74.5 -228.5t187.5 -82.5q76 0 140 31.5t99 89.5v332h637v-140h-481
v-282h407v-140h-407v-305h481v-137h-637v502q-87 -84 -250 -84z" />
    <glyph glyph-name="colonmonetary" unicode="&#x20a1;" horiz-adv-x="1193" 
d="M752 -193h-97v170q-16 -2 -47 -2t-61 5v-173h-96v193q-160 50 -251 193.5t-91 347.5v352q0 203 91 347.5t251 193.5v182h96v-162q24 4 61 4q33 0 47 -2v160h97v-176q143 -38 235 -150t117 -276l-160 -27q-41 225 -192 295v-1132q151 73 192 294l160 -26
q-25 -164 -117.5 -275.5t-234.5 -148.5v-187zM270 868v-303q0 -148 47.5 -251.5t133.5 -153.5v1112q-86 -48 -133.5 -152.5t-47.5 -251.5zM608 1313q-34 0 -61 -6v-1182q36 -4 61 -4q31 0 47 2v1186q-32 4 -47 4z" />
    <glyph glyph-name="uni20A2" unicode="&#x20a2;" horiz-adv-x="1193" 
d="M608 1313q-155 0 -246.5 -118t-91.5 -327v-303q0 -176 66.5 -289.5t183.5 -144.5v672h148v-84q32 47 83.5 75.5t114.5 28.5q54 0 86 -14v-131q-41 14 -94 14q-62 0 -111.5 -32t-78.5 -85v-450q108 17 179.5 99t96.5 220l160 -26q-29 -204 -162 -323.5t-334 -119.5
q-227 0 -363 156.5t-136 409.5v352q0 253 136 409t363 156q201 0 334 -120t162 -324l-160 -27q-28 158 -115.5 242t-220.5 84z" />
    <glyph glyph-name="franc" unicode="&#x20a3;" horiz-adv-x="1075" 
d="M27 635h125v139h-125v105h125v555h852v-146h-691v-409h451v-105h-451v-139h451v-105h-451v-530h-161v530h-125v105z" />
    <glyph glyph-name="lira" unicode="&#x20a4;" horiz-adv-x="1185" 
d="M1090 1061l-160 -27q-53 279 -279 279q-121 0 -188.5 -85t-67.5 -261v-144h422v-102h-422v-141h422v-103h-422q-6 -219 -104 -332h807v-145h-994v131q129 129 129 342v4h-135v103h135v141h-135v102h135v172q0 218 111 340.5t305 122.5q181 0 291.5 -101t149.5 -296z" />
    <glyph glyph-name="uni20A6" unicode="&#x20a6;" horiz-adv-x="1318" 
d="M1292 549h-125v-549h-153l-338 549h-363v-549h-161v549h-125v102h125v131h-125v103h125v549h153l338 -549h363v549h161v-549h125v-103h-125v-131h125v-102zM313 782v-131h299l-80 131h-219zM707 782l79 -131h220v131h-299zM313 1137v-252h156zM850 549l156 -252v252h-156
z" />
    <glyph glyph-name="peseta" unicode="&#x20a7;" horiz-adv-x="2174" 
d="M1735 0h-359q-151 0 -226 75.5t-75 219.5v590h-129q-25 -100 -90.5 -170t-149.5 -101.5t-180 -31.5h-213v-582h-161v1434h374q82 0 157.5 -26t137 -75t99.5 -129t41 -180h114v291h154v-291h252v-51q86 76 225 76q280 0 358 -285q-80 -16 -155 -27q-21 82 -72 127t-131 45
q-74 0 -114 -37t-40 -98q0 -64 36.5 -100.5t131.5 -65.5l129 -39q118 -35 178 -102t60 -178q0 -136 -91 -212.5t-261 -76.5zM801 1008q0 136 -83 208t-216 72h-189v-561h189q133 0 216 72.5t83 208.5zM1395 766q0 63 26 119h-192v-576q0 -82 39.5 -127t109.5 -45h353
q198 0 198 144q0 63 -36.5 99.5t-131.5 65.5l-129 39q-122 36 -179.5 105t-57.5 176z" />
    <glyph glyph-name="uni20A8" unicode="&#x20a8;" horiz-adv-x="1961" 
d="M586 602h-273v-602h-161v1434h456q86 0 164.5 -26t142.5 -76t102 -131t38 -183q0 -157 -84.5 -258t-218.5 -139l356 -621h-178zM313 748h271q138 0 223.5 70t85.5 200t-85.5 200t-223.5 70h-271v-540zM1149 766q0 121 91.5 202t236.5 81q140 0 237.5 -75.5t136.5 -209.5
q-80 -16 -155 -27q-20 80 -78.5 126t-140.5 46q-81 0 -126.5 -38.5t-45.5 -102.5q0 -62 43 -104t137 -66l96 -25q154 -39 223.5 -110.5t69.5 -204.5q0 -123 -93 -203t-251 -80t-263.5 79.5t-148.5 230.5q48 9 156 26q30 -99 96 -148.5t156 -49.5t141 41.5t51 111.5
q0 73 -39 110.5t-141 63.5l-96 25q-146 37 -219.5 108.5t-73.5 192.5z" />
    <glyph glyph-name="uni20A9" unicode="&#x20a9;" horiz-adv-x="1867" 
d="M1839 889v-103h-188l-37 -131h225v-102h-254l-158 -553h-163l-158 553h-344l-158 -553h-164l-157 553h-254v102h223l-37 131h-186v103h157l-153 545h176l149 -545h340l156 545h160l155 -545h340l150 545h176l-156 -545h160zM827 786l-36 -131h284l-37 131h-211zM387 786
l35 -131h209l37 131h-281zM1200 786l37 -131h207l37 131h-281zM934 1155l-76 -266h152zM451 553l73 -266l76 266h-149zM1268 553l75 -266l72 266h-147z" />
    <glyph glyph-name="afii57636" unicode="&#x20aa;" horiz-adv-x="1687" 
d="M152 0v1434h540q213 0 324.5 -120.5t111.5 -344.5v-432h-161v399q0 181 -67.5 266.5t-225.5 85.5h-361v-1288h-161zM1536 1434v-1434h-541q-213 0 -324.5 119.5t-111.5 343.5v434h162v-399q0 -182 67.5 -267.5t225.5 -85.5h360v1289h162z" />
    <glyph glyph-name="dong" unicode="&#x20ab;" horiz-adv-x="1099" 
d="M469 1300h301v134h162v-134h127v-122h-127v-1178h-162v113q-43 -63 -118.5 -100.5t-172.5 -37.5q-178 0 -279.5 120t-101.5 311v188q0 191 101.5 310.5t279.5 119.5q97 0 173 -37t118 -100v291h-301v122zM260 557v-115q0 -321 260 -321q83 0 147.5 44.5t102.5 121.5v426
q-38 77 -102.5 121.5t-147.5 44.5q-260 0 -260 -322zM274 -184h633v-113h-633v113z" />
    <glyph glyph-name="Euro" unicode="&#x20ac;" horiz-adv-x="1232" 
d="M309 641h342l-14 -102h-328q6 -197 97 -307.5t241 -110.5q133 0 220.5 83t115.5 240l160 -26q-29 -204 -162 -323.5t-334 -119.5q-227 0 -363.5 156t-136.5 408h-104v102h104v141h-104v103h104v8q0 252 136.5 408.5t363.5 156.5q201 0 334 -120t162 -324l-160 -27
q-28 158 -115.5 242t-220.5 84q-152 0 -243.5 -113.5t-94.5 -314.5h379l-14 -103h-365v-141z" />
    <glyph glyph-name="afii61248" unicode="&#x2105;" horiz-adv-x="1976" 
d="M98 889v194q0 151 103.5 259t263.5 108q134 0 224.5 -78t121.5 -201l-139 -22q-22 87 -75 132.5t-132 45.5q-103 0 -165 -72.5t-62 -201.5v-133q0 -129 62 -202t165 -73q79 0 132 45.5t75 132.5l139 -22q-31 -123 -121.5 -201t-224.5 -78q-160 0 -263.5 108t-103.5 259z
M1405 1434l-703 -1434h-139l703 1434h139zM1511 -16q-160 0 -263 107.5t-103 258.5v195q0 151 103 258.5t263 107.5t263.5 -108t103.5 -258v-195q0 -150 -103.5 -258t-263.5 -108zM1511 106q103 0 165.5 73t62.5 202v133q0 128 -62.5 201t-165.5 73t-165 -72.5t-62 -201.5
v-133q0 -129 62 -202t165 -73z" />
    <glyph glyph-name="uni2109" unicode="&#x2109;" horiz-adv-x="1660" 
d="M618 1182q0 -117 -73 -193t-191 -76t-191 76t-73 193t72.5 192.5t191.5 75.5t191.5 -75.5t72.5 -192.5zM492 1182q0 66 -39 107.5t-99 41.5t-98.5 -41.5t-38.5 -107.5t38.5 -108t98.5 -42t99 42t39 108zM897 0h-162v1434h852v-146h-690v-497h629v-146h-629v-645z" />
    <glyph glyph-name="afii61289" unicode="&#x2113;" horiz-adv-x="970" 
d="M537 -25q-144 0 -228 85t-98 241q-69 -25 -137 -39l-31 133q72 17 166 54v634q0 174 82 274.5t235 100.5q143 0 229.5 -95t86.5 -265v-33q0 -219 -127.5 -404.5t-352.5 -298.5q3 -251 179 -251q67 0 117 41t73 120l152 -26q-52 -137 -136 -204t-210 -67zM362 1083v-557
q158 97 242 241t84 298v31q0 227 -166 227q-79 0 -119.5 -62.5t-40.5 -177.5z" />
    <glyph glyph-name="afii61352" unicode="&#x2116;" horiz-adv-x="1802" 
d="M152 1434h147l475 -1069v1069h158v-1434h-148l-475 1069v-1069h-157v1434zM1065 0v135h635v-135h-635zM1382 260q141 0 232.5 91t91.5 227v182q0 136 -91.5 226.5t-232.5 90.5t-232 -90.5t-91 -226.5v-182q0 -136 91 -227t232 -91zM1382 403q-81 0 -123 55t-42 146v129
q0 91 42 146t123 55q82 0 124 -55.5t42 -145.5v-129q0 -90 -42 -145.5t-124 -55.5z" />
    <glyph glyph-name="uni2117" unicode="&#x2117;" horiz-adv-x="1536" 
d="M1438 762v-90q0 -321 -185 -509t-485 -188t-485 188t-185 509v90q0 321 185 508.5t485 187.5t485 -187.5t185 -508.5zM1348 688v57q0 294 -155.5 461.5t-424.5 167.5t-424.5 -167.5t-155.5 -461.5v-57q0 -294 155.5 -461.5t424.5 -167.5t424.5 167.5t155.5 461.5z
M827 623h-192v-334h-129v854h321q111 0 193 -68t82 -192t-82 -192t-193 -68zM635 739h170q78 0 123 36.5t45 109.5t-45 109t-123 36h-170v-291z" />
    <glyph glyph-name="uni2120" unicode="&#x2120;" horiz-adv-x="1296" 
d="M414 938q0 39 -29 63.5t-90 38.5l-68 17q-95 24 -136.5 71.5t-41.5 122.5q0 81 61.5 138t165.5 57q99 0 163.5 -52.5t88.5 -142.5l-127 -24q-29 110 -125 110q-46 0 -74 -22.5t-28 -57.5q0 -41 25.5 -63.5t85.5 -36.5l67 -16q93 -23 140 -71t47 -130q0 -88 -67 -144.5
t-175 -56.5q-101 0 -172 53.5t-100 151.5l129 23q35 -121 143 -121q56 0 86.5 24t30.5 68zM918 1061l-201 373h-111v-684h127v440l144 -270h81l144 270v-440h127v684h-111z" />
    <glyph glyph-name="uni2121" unicode="&#x2121;" horiz-adv-x="1955" 
d="M33 1434h796v-146h-317v-1288h-162v1288h-317v146zM1073 113q152 0 195 174l153 -25q-33 -134 -122.5 -210.5t-225.5 -76.5q-168 0 -268 111.5t-100 284.5v280q0 173 99.5 285.5t266.5 112.5t267 -112.5t100 -285.5v-196h-580v-64q0 -125 55.5 -201.5t159.5 -76.5z
M1284 580v51q0 126 -54.5 202t-158.5 76t-158.5 -76t-54.5 -202v-51h426zM1901 137v-137h-41q-149 0 -215 68t-66 217v1173h154v-1157q0 -89 29 -126.5t102 -37.5h37z" />
    <glyph glyph-name="trademark" unicode="&#x2122;" horiz-adv-x="1253" 
d="M520 1434v-109h-180v-575h-127v575h-180v109h487zM874 1061l-200 373h-111v-684h127v440l144 -270h81l144 270v-440h127v684h-111z" />
    <glyph glyph-name="Omega" unicode="&#x2126;" horiz-adv-x="1232" 
d="M616 1458q225 0 363.5 -157t138.5 -408v-346q0 -283 -178 -402h166v-145h-404v129q123 43 188.5 154.5t65.5 279.5v305q0 209 -91.5 327t-248.5 118t-248.5 -118t-91.5 -327v-305q0 -168 65.5 -279.5t188.5 -154.5v-129h-403v145h166q-178 119 -178 402v346
q0 251 138 408t363 157z" />
    <glyph glyph-name="estimated" unicode="&#x212e;" horiz-adv-x="1511" 
d="M788 53q144 0 262 59t187 160l92 -16q-85 -132 -227 -206.5t-311 -74.5q-165 0 -298.5 56.5t-220.5 156.5t-133.5 235t-46.5 294q0 121 28 231t84 203t135 161.5t187.5 107t235.5 38.5q124 0 230.5 -38.5t184 -107t133 -162t82.5 -205t27 -234.5v-39h-1022v-479
q143 -140 391 -140zM756 1378q-220 0 -359 -127v-499h717v499q-139 127 -358 127z" />
    <glyph glyph-name="onethird" unicode="&#x2153;" horiz-adv-x="1812" 
d="M1327 1434l-702 -1434h-140l703 1434h139zM1153 295l139 10q0 -98 42 -150.5t114 -52.5q67 0 111.5 44.5t44.5 132.5q0 96 -38 143t-108 47q-39 0 -84 -20l-71 81l231 299h-356v119h530v-104l-217 -275h18q98 0 166 -75.5t68 -217.5q0 -133 -83 -212.5t-212 -79.5
q-135 0 -215 87t-80 224zM135 485v119h195v684l-195 -86v127l219 105h115v-830h193v-119h-527z" />
    <glyph glyph-name="twothirds" unicode="&#x2154;" horiz-adv-x="1812" 
d="M1153 295l139 10q0 -98 42 -150.5t114 -52.5q67 0 111.5 44.5t44.5 132.5q0 96 -38 143t-108 47q-39 0 -84 -20l-71 81l231 299h-356v119h530v-104l-217 -275h18q98 0 166 -75.5t68 -217.5q0 -133 -83 -212.5t-212 -79.5q-135 0 -215 87t-80 224zM1327 1434l-702 -1434
h-140l703 1434h139zM524 1167q0 77 -42.5 120.5t-108.5 43.5t-109 -44t-43 -120v-37l-141 11v28q0 120 80.5 200.5t212.5 80.5q127 0 209 -79t82 -202q0 -67 -24 -119.5t-79 -113.5l-293 -332h396v-119h-584v99l381 436q63 71 63 147z" />
    <glyph glyph-name="onefifth" unicode="&#x2155;" horiz-adv-x="1812" 
d="M1327 1434l-702 -1434h-140l703 1434h139zM1200 442v506h502v-119h-363v-247q51 45 129 45q125 0 203 -82t78 -238q0 -152 -80 -235.5t-213 -83.5q-135 0 -215 82t-80 227l139 10v-10q0 -93 43.5 -142t112.5 -49q67 0 110.5 49.5t43.5 153.5q0 101 -44.5 152t-109.5 51
q-38 0 -73.5 -19.5t-59.5 -50.5h-123zM135 485v119h195v684l-195 -86v127l219 105h115v-830h193v-119h-527z" />
    <glyph glyph-name="twofifths" unicode="&#x2156;" horiz-adv-x="1812" 
d="M1327 1434l-702 -1434h-140l703 1434h139zM1200 442v506h502v-119h-363v-247q51 45 129 45q125 0 203 -82t78 -238q0 -152 -80 -235.5t-213 -83.5q-135 0 -215 82t-80 227l139 10v-10q0 -93 43.5 -142t112.5 -49q67 0 110.5 49.5t43.5 153.5q0 101 -44.5 152t-109.5 51
q-38 0 -73.5 -19.5t-59.5 -50.5h-123zM524 1167q0 77 -42.5 120.5t-108.5 43.5t-109 -44t-43 -120v-37l-141 11v28q0 120 80.5 200.5t212.5 80.5q127 0 209 -79t82 -202q0 -67 -24 -119.5t-79 -113.5l-293 -332h396v-119h-584v99l381 436q63 71 63 147z" />
    <glyph glyph-name="threefifths" unicode="&#x2157;" horiz-adv-x="1812" 
d="M1327 1434l-702 -1434h-140l703 1434h139zM1200 442v506h502v-119h-363v-247q51 45 129 45q125 0 203 -82t78 -238q0 -152 -80 -235.5t-213 -83.5q-135 0 -215 82t-80 227l139 10v-10q0 -93 43.5 -142t112.5 -49q67 0 110.5 49.5t43.5 153.5q0 101 -44.5 152t-109.5 51
q-38 0 -73.5 -19.5t-59.5 -50.5h-123zM74 780l139 11q0 -98 42 -150.5t114 -52.5q67 0 111 44t44 132q0 190 -145 190q-39 0 -84 -20l-72 82l232 299h-357v119h531v-105l-217 -274h18q98 0 166 -75.5t68 -217.5q0 -133 -83.5 -213t-211.5 -80q-135 0 -215 87t-80 224z" />
    <glyph glyph-name="fourfifths" unicode="&#x2158;" horiz-adv-x="1812" 
d="M1200 442v506h502v-119h-363v-247q51 45 129 45q125 0 203 -82t78 -238q0 -152 -80 -235.5t-213 -83.5q-135 0 -215 82t-80 227l139 10v-10q0 -93 43.5 -142t112.5 -49q67 0 110.5 49.5t43.5 153.5q0 101 -44.5 152t-109.5 51q-38 0 -73.5 -19.5t-59.5 -50.5h-123z
M1327 1434l-702 -1434h-140l703 1434h139zM203 807h235v393zM680 807v-119h-105v-203h-137v203h-387v107l383 639h141v-627h105z" />
    <glyph glyph-name="onesixth" unicode="&#x2159;" horiz-adv-x="1812" 
d="M1327 1434l-702 -1434h-140l703 1434h139zM1448 -16q-134 0 -218.5 86t-84.5 213q0 80 39 153l258 512h151l-198 -387q27 12 65 12q125 0 206 -84t81 -206q0 -127 -83 -213t-216 -86zM1608 281q0 79 -44.5 128.5t-117.5 49.5t-117.5 -49.5t-44.5 -128.5t44.5 -129
t117.5 -50t117.5 50t44.5 129zM135 485v119h195v684l-195 -86v127l219 105h115v-830h193v-119h-527z" />
    <glyph glyph-name="fivesixths" unicode="&#x215a;" horiz-adv-x="1812" 
d="M1448 -16q-134 0 -218.5 86t-84.5 213q0 80 39 153l258 512h151l-198 -387q27 12 65 12q125 0 206 -84t81 -206q0 -127 -83 -213t-216 -86zM1608 281q0 79 -44.5 128.5t-117.5 49.5t-117.5 -49.5t-44.5 -128.5t44.5 -129t117.5 -50t117.5 50t44.5 129zM1327 1434
l-702 -1434h-140l703 1434h139zM121 928v506h502v-119h-363v-248q51 45 129 45q125 0 203 -81.5t78 -237.5q0 -152 -80 -236t-213 -84q-135 0 -215 82t-80 227l139 11v-11q0 -93 43.5 -141.5t112.5 -48.5q67 0 110 49.5t43 153.5q0 101 -44 151.5t-109 50.5q-38 0 -73.5 -19
t-59.5 -50h-123z" />
    <glyph glyph-name="oneeighths" unicode="&#x215b;" horiz-adv-x="1812" 
d="M1327 1434l-702 -1434h-140l703 1434h139zM1446 965q120 0 194 -70.5t74 -177.5q0 -60 -27.5 -109t-72.5 -80q65 -35 100 -98.5t35 -146.5q0 -130 -83.5 -214.5t-219.5 -84.5t-219.5 84.5t-83.5 214.5q0 83 35 146.5t100 98.5q-45 31 -72.5 80t-27.5 109q0 107 74 177.5
t194 70.5zM1446 578q56 0 92.5 37.5t36.5 97.5t-36.5 97.5t-92.5 37.5t-92.5 -37.5t-36.5 -97.5t36.5 -97.5t92.5 -37.5zM1446 100q72 0 118 51.5t46 131.5t-46 131t-118 51t-118 -51t-46 -131t46 -131.5t118 -51.5zM135 485v119h195v684l-195 -86v127l219 105h115v-830h193
v-119h-527z" />
    <glyph glyph-name="threeeighths" unicode="&#x215c;" horiz-adv-x="1812" 
d="M1327 1434l-702 -1434h-140l703 1434h139zM1446 965q120 0 194 -70.5t74 -177.5q0 -60 -27.5 -109t-72.5 -80q65 -35 100 -98.5t35 -146.5q0 -130 -83.5 -214.5t-219.5 -84.5t-219.5 84.5t-83.5 214.5q0 83 35 146.5t100 98.5q-45 31 -72.5 80t-27.5 109q0 107 74 177.5
t194 70.5zM1446 578q56 0 92.5 37.5t36.5 97.5t-36.5 97.5t-92.5 37.5t-92.5 -37.5t-36.5 -97.5t36.5 -97.5t92.5 -37.5zM1446 100q72 0 118 51.5t46 131.5t-46 131t-118 51t-118 -51t-46 -131t46 -131.5t118 -51.5zM74 780l139 11q0 -98 42 -150.5t114 -52.5q67 0 111 44
t44 132q0 190 -145 190q-39 0 -84 -20l-72 82l232 299h-357v119h531v-105l-217 -274h18q98 0 166 -75.5t68 -217.5q0 -133 -83.5 -213t-211.5 -80q-135 0 -215 87t-80 224z" />
    <glyph glyph-name="fiveeighths" unicode="&#x215d;" horiz-adv-x="1812" 
d="M1327 1434l-702 -1434h-140l703 1434h139zM1446 965q120 0 194 -70.5t74 -177.5q0 -60 -27.5 -109t-72.5 -80q65 -35 100 -98.5t35 -146.5q0 -130 -83.5 -214.5t-219.5 -84.5t-219.5 84.5t-83.5 214.5q0 83 35 146.5t100 98.5q-45 31 -72.5 80t-27.5 109q0 107 74 177.5
t194 70.5zM1446 578q56 0 92.5 37.5t36.5 97.5t-36.5 97.5t-92.5 37.5t-92.5 -37.5t-36.5 -97.5t36.5 -97.5t92.5 -37.5zM1446 100q72 0 118 51.5t46 131.5t-46 131t-118 51t-118 -51t-46 -131t46 -131.5t118 -51.5zM121 928v506h502v-119h-363v-248q51 45 129 45
q125 0 203 -81.5t78 -237.5q0 -152 -80 -236t-213 -84q-135 0 -215 82t-80 227l139 11v-11q0 -93 43.5 -141.5t112.5 -48.5q67 0 110 49.5t43 153.5q0 101 -44 151.5t-109 50.5q-38 0 -73.5 -19t-59.5 -50h-123z" />
    <glyph glyph-name="seveneighths" unicode="&#x215e;" horiz-adv-x="1812" 
d="M1327 1434l-702 -1434h-140l703 1434h139zM1446 965q120 0 194 -70.5t74 -177.5q0 -60 -27.5 -109t-72.5 -80q65 -35 100 -98.5t35 -146.5q0 -130 -83.5 -214.5t-219.5 -84.5t-219.5 84.5t-83.5 214.5q0 83 35 146.5t100 98.5q-45 31 -72.5 80t-27.5 109q0 107 74 177.5
t194 70.5zM1446 578q56 0 92.5 37.5t36.5 97.5t-36.5 97.5t-92.5 37.5t-92.5 -37.5t-36.5 -97.5t36.5 -97.5t92.5 -37.5zM1446 100q72 0 118 51.5t46 131.5t-46 131t-118 51t-118 -51t-46 -131t46 -131.5t118 -51.5zM78 1315v119h579v-95l-317 -854h-147l315 830h-430z" />
    <glyph glyph-name="uni215F" unicode="&#x215f;" horiz-adv-x="1812" 
d="M1327 1434l-702 -1434h-140l703 1434h139zM135 485v119h195v684l-195 -86v127l219 105h115v-830h193v-119h-527z" />
    <glyph glyph-name="arrowleft" unicode="&#x2190;" horiz-adv-x="1708" 
d="M467 745h1171v-131h-1171v-229l-397 295l397 295v-230z" />
    <glyph glyph-name="arrowup" unicode="&#x2191;" horiz-adv-x="1708" 
d="M920 1139v-1217h-132v1217h-229l295 397l295 -397h-229z" />
    <glyph glyph-name="arrowright" unicode="&#x2192;" horiz-adv-x="1708" 
d="M70 745h1171v230l397 -295l-397 -295v229h-1171v131z" />
    <glyph glyph-name="arrowdown" unicode="&#x2193;" horiz-adv-x="1708" 
d="M920 1536v-1217h229l-295 -397l-295 397h229v1217h132z" />
    <glyph glyph-name="arrowboth" unicode="&#x2194;" horiz-adv-x="1708" 
d="M467 745h774v230l397 -295l-397 -295v229h-774v-229l-397 295l397 295v-230z" />
    <glyph glyph-name="arrowupdn" unicode="&#x2195;" horiz-adv-x="1708" 
d="M788 319v820h-229l295 397l295 -397h-229v-820h229l-295 -397l-295 397h229z" />
    <glyph glyph-name="arrowupdnbse" unicode="&#x21a8;" horiz-adv-x="1708" 
d="M518 -180v110h330l-289 389h229v820h-229l295 397l295 -397h-229v-820h229l-289 -389h330v-110h-672z" />
    <glyph glyph-name="partialdiff" unicode="&#x2202;" horiz-adv-x="1187" 
d="M1061 965v-543q0 -202 -131.5 -324.5t-345.5 -122.5q-216 0 -348 122.5t-132 324.5v49q0 202 132 324.5t348 122.5q96 0 179 -26.5t136 -70.5v113q0 191 -82.5 285t-220.5 94q-103 0 -183 -62t-114 -182l-160 29q45 168 169.5 264t291.5 96q203 0 332 -132t129 -361z
M584 121q138 0 226.5 82.5t88.5 220.5v238q-49 50 -136.5 80t-178.5 30q-140 0 -229 -81.5t-89 -219.5v-49q0 -138 89 -219.5t229 -81.5z" />
    <glyph glyph-name="Delta" unicode="&#x2206;" horiz-adv-x="1171" 
d="M238 143h696l-348 973zM539 1434h94l528 -1434h-1151z" />
    <glyph glyph-name="product" unicode="&#x220f;" horiz-adv-x="1261" 
d="M152 -227v1743h958v-1743h-164v1597h-633v-1597h-161z" />
    <glyph glyph-name="summation" unicode="&#x2211;" horiz-adv-x="1138" 
d="M94 -92l398 747l-398 719v142h971v-146h-791l381 -688v-59l-381 -705h791v-145h-971v135z" />
    <glyph glyph-name="minus" unicode="&#x2212;" horiz-adv-x="1064" 
d="M961 604h-857v125h857v-125z" />
    <glyph glyph-name="uni2215" unicode="&#x2215;" horiz-adv-x="346" 
d="M594 1434l-703 -1434h-139l703 1434h139z" />
    <glyph glyph-name="uni2219" unicode="&#x2219;" horiz-adv-x="536" 
d="M356 768v-201h-176v201h176z" />
    <glyph glyph-name="radical" unicode="&#x221a;" horiz-adv-x="1005" 
d="M586 0h-129l-326 629h-121v139h217l271 -535l344 1344h153z" />
    <glyph glyph-name="infinity" unicode="&#x221e;" horiz-adv-x="1552" 
d="M698 678q-83 103 -142.5 140.5t-127.5 37.5q-75 0 -122.5 -48t-47.5 -130t47.5 -130t122.5 -48q68 0 127.5 37.5t142.5 140.5zM854 678q83 -103 142.5 -140.5t127.5 -37.5q75 0 122.5 48t47.5 130t-47.5 130t-122.5 48q-68 0 -127.5 -37.5t-142.5 -140.5zM776 584
q-93 -112 -176.5 -157.5t-177.5 -45.5q-136 0 -219.5 80.5t-83.5 216.5t83.5 216.5t219.5 80.5q94 0 177.5 -45.5t176.5 -157.5q93 112 176.5 157.5t177.5 45.5q136 0 220 -81t84 -216t-84 -216t-220 -81q-94 0 -177.5 45.5t-176.5 157.5z" />
    <glyph glyph-name="orthogonal" unicode="&#x221f;" horiz-adv-x="1204" 
d="M1153 143v-143h-967v1178h160v-1035h807z" />
    <glyph glyph-name="intersection" unicode="&#x2229;" horiz-adv-x="1310" 
d="M655 1264q104 0 195.5 -37.5t160 -105.5t108.5 -171t40 -227v-723h-160v680q0 216 -92.5 327t-251.5 111t-251.5 -111t-92.5 -327v-680h-159v723q0 124 40 227t108 171t159.5 105.5t195.5 37.5z" />
    <glyph glyph-name="integral" unicode="&#x222b;" horiz-adv-x="768" 
d="M43 -451v138h72q115 0 153.5 48.5t38.5 180.5v1249q0 109 19 180t63.5 114t110 60t166.5 17h59v-137h-72q-115 0 -153.5 -49t-38.5 -181v-1249q0 -109 -19 -180t-63.5 -114t-110 -60t-166.5 -17h-59z" />
    <glyph glyph-name="approxequal" unicode="&#x2248;" horiz-adv-x="1064" 
d="M731 707q-57 0 -106 20.5t-84 49.5t-66.5 58t-66 49.5t-70.5 20.5q-129 0 -150 -182l-139 10q10 146 87.5 221.5t197.5 75.5q57 0 106 -20.5t84 -50t66.5 -58.5t66 -49.5t70.5 -20.5q129 0 150 183l139 -10q-10 -146 -87.5 -221.5t-197.5 -75.5zM731 303q-57 0 -106 20.5
t-84 49.5t-66.5 58.5t-66 50t-70.5 20.5q-129 0 -150 -183l-139 11q10 146 87.5 221.5t197.5 75.5q57 0 106 -20.5t84 -49.5t66.5 -58.5t66 -50t70.5 -20.5q129 0 150 182l139 -10q-10 -146 -87.5 -221.5t-197.5 -75.5z" />
    <glyph glyph-name="notequal" unicode="&#x2260;" horiz-adv-x="1064" 
d="M190 158l140 252h-226v125h295l146 264h-441v125h510l140 252h120l-139 -252h226v-125h-295l-146 -264h441v-125h-510l-140 -252h-121z" />
    <glyph glyph-name="equivalence" unicode="&#x2261;" horiz-adv-x="1064" 
d="M961 930h-857v125h857v-125zM961 279h-857v124h857v-124zM961 604h-857v125h857v-125z" />
    <glyph glyph-name="lessequal" unicode="&#x2264;" horiz-adv-x="1064" 
d="M961 0h-857v125h857v-125zM123 768l819 385v-139l-672 -312l672 -311v-139l-819 385v131z" />
    <glyph glyph-name="greaterequal" unicode="&#x2265;" horiz-adv-x="1064" 
d="M961 0h-857v125h857v-125zM123 1153l819 -385v-131l-819 -385v139l672 311l-672 312v139z" />
    <glyph glyph-name="house" unicode="&#x2302;" horiz-adv-x="1241" 
d="M1098 672v-672h-955v672l478 590zM299 137h643v490l-321 403l-322 -403v-490z" />
    <glyph glyph-name="revlogicalnot" unicode="&#x2310;" horiz-adv-x="1064" 
d="M971 729v-125h-717v-342h-139v467h856z" />
    <glyph glyph-name="uni2318" unicode="&#x2318;" horiz-adv-x="1656" 
d="M1110 1044v-120h109q85 0 137.5 40t52.5 107t-39 107.5t-104 40.5q-76 0 -116 -45.5t-40 -129.5zM1110 408v-121q0 -84 40 -129t116 -45q66 0 104.5 40.5t38.5 106.5q0 67 -52.5 107.5t-137.5 40.5h-109zM547 924v120q0 84 -40 129.5t-116 45.5q-65 0 -104 -40.5
t-39 -107.5t52.5 -107t137.5 -40h109zM971 408h-285v-123q0 -135 -76.5 -216t-214.5 -81q-130 0 -208 76.5t-78 195.5q0 128 89 199t232 71h117v271h-117q-143 0 -232 71t-89 199q0 119 78 195.5t208 76.5q138 0 214.5 -80.5t76.5 -215.5v-123h285v123q0 135 76.5 215.5
t214.5 80.5q130 0 208 -76.5t78 -195.5q0 -128 -89 -199t-232 -71h-117v-271h117q143 0 232 -71t89 -199q0 -119 -78 -195.5t-208 -76.5q-138 0 -214.5 81t-76.5 216v123zM686 530h285v271h-285v-271zM547 287v121h-109q-85 0 -137.5 -40.5t-52.5 -107.5q0 -66 38.5 -106.5
t104.5 -40.5q76 0 116 45t40 129z" />
    <glyph glyph-name="lozenge" unicode="&#x25ca;" horiz-adv-x="1163" 
d="M1081 618l-499 -940l-500 940l500 941zM913 618l-331 623l-332 -623l332 -622z" />
    <glyph glyph-name="H18533" unicode="&#x25cf;" horiz-adv-x="2048" 
d="M332 668q0 187 93 346.5t252.5 252.5t346.5 93t346.5 -93t252.5 -252.5t93 -346.5t-93 -347t-252.5 -253t-346.5 -93t-346.5 93t-252.5 253t-93 347z" />
    <glyph glyph-name="fi" horiz-adv-x="1122" 
d="M817 1270v188h154v-188h-154zM387 1024h584v-1024h-154v887h-430v-887h-154v887h-157v137h157v63q0 109 19 180t63.5 114t110 60t166.5 17h59v-137h-71q-115 0 -154 -48.5t-39 -180.5v-68z" />
    <glyph glyph-name="fl" horiz-adv-x="1193" 
d="M1139 137v-137h-41q-291 0 -291 295v979q-98 45 -223 45q-116 0 -156.5 -46t-40.5 -173v-76h264v-137h-264v-887h-154v887h-157v137h157v63q0 205 78.5 288t259.5 83q136 0 236 -51v51h154v-1147q0 -83 36 -128.5t105 -45.5h37z" />
    <glyph glyph-name="commaaccent" horiz-adv-x="761" 
d="M385 -430h-125l82 319h162z" />
    <glyph glyph-name="zero.tnum" horiz-adv-x="1073" 
d="M967 965v-496q0 -234 -117 -364t-313 -130t-313.5 130t-117.5 364v496q0 233 117.5 363t313.5 130t313 -129.5t117 -363.5zM811 489v455q0 196 -74 285.5t-200 89.5t-200.5 -89.5t-74.5 -285.5v-455q0 -196 74.5 -285t200.5 -89t200 89t74 285z" />
    <glyph glyph-name="one.tnum" horiz-adv-x="903" 
d="M137 0v139h303v1131l-303 -135v149l318 150h141v-1295h299v-139h-758z" />
    <glyph glyph-name="two.tnum" horiz-adv-x="1058" 
d="M530 1319q-117 0 -191.5 -74t-74.5 -203v-34l-155 12v24q0 177 116 295.5t305 118.5q186 0 304 -119t118 -295q0 -100 -35.5 -179t-111.5 -165l-496 -561h643v-139h-846v125l590 668q56 63 78.5 120.5t22.5 128.5q0 128 -75.5 202.5t-191.5 74.5z" />
    <glyph glyph-name="three.tnum" horiz-adv-x="1032" 
d="M242 444v-12q0 -156 77 -236.5t197 -80.5t196 80t76 237q0 162 -71 233.5t-191 71.5q-57 0 -112 -20l-90 102l381 475h-576v140h762v-134l-354 -444q12 2 34 2q161 0 267 -111t106 -317q0 -208 -115.5 -331.5t-312.5 -123.5q-196 0 -313 126.5t-117 330.5z" />
    <glyph glyph-name="four.tnum" horiz-adv-x="1030" 
d="M975 461v-142h-162v-319h-156v319h-598v140l586 975h168v-973h162zM231 461h426v710z" />
    <glyph glyph-name="five.tnum" horiz-adv-x="1054" 
d="M102 432l156 12v-10q0 -152 74.5 -235.5t197.5 -83.5q126 0 200.5 86.5t74.5 251.5q0 170 -73.5 254t-194.5 84q-63 0 -119.5 -27.5t-91.5 -75.5h-156v746h717v-140h-561v-458q91 94 235 94q180 0 290 -123.5t110 -353.5q0 -228 -117 -353t-314 -125q-193 0 -310.5 121.5
t-117.5 335.5z" />
    <glyph glyph-name="six.tnum" horiz-adv-x="1017" 
d="M76 420q0 121 51 217l405 797h168l-307 -603q47 29 123 29q194 0 317 -127.5t123 -314.5t-123 -315t-317 -128q-130 0 -231 60t-155 161t-54 224zM231 418q0 -132 79.5 -217.5t205.5 -85.5q124 0 204.5 85.5t80.5 217.5q0 133 -80 218t-205 85q-126 0 -205.5 -84.5
t-79.5 -218.5z" />
    <glyph glyph-name="seven.tnum" horiz-adv-x="997" 
d="M82 1292v142h833v-125l-485 -1309h-160l480 1292h-668z" />
    <glyph glyph-name="eight.tnum" horiz-adv-x="1048" 
d="M524 -25q-195 0 -317.5 129t-122.5 316q0 125 62.5 228.5t170.5 148.5q-82 39 -130 119.5t-48 173.5q0 155 108.5 261.5t276.5 106.5t276.5 -106.5t108.5 -261.5q0 -93 -48 -173.5t-130 -119.5q109 -45 171.5 -148.5t62.5 -228.5q0 -187 -123 -316t-318 -129zM524 725
q-125 0 -204.5 -88.5t-79.5 -218.5t79.5 -217.5t204.5 -87.5q126 0 205.5 87.5t79.5 217.5t-80 218.5t-205 88.5zM524 862q100 0 165 65t65 163t-65 163.5t-165 65.5q-99 0 -164 -65t-65 -164q0 -98 64.5 -163t164.5 -65z" />
    <glyph glyph-name="nine.tnum" horiz-adv-x="1017" 
d="M944 1014q0 -121 -51 -217l-406 -797h-168l308 602q-47 -29 -123 -29q-194 0 -317.5 128t-123.5 315t123.5 314.5t317.5 127.5q130 0 231 -59.5t155 -160.5t54 -224zM788 1016q0 133 -79.5 218t-204.5 85q-124 0 -204.5 -85.5t-80.5 -217.5q0 -133 80 -218t205 -85
q126 0 205 84.5t79 218.5z" />
    <glyph glyph-name="parenleft.case" horiz-adv-x="675" 
d="M356 1112v-788q0 -303 197 -394l-45 -141q-147 59 -225 187t-78 319v846q0 191 78 319t225 187l45 -142q-197 -91 -197 -393z" />
    <glyph glyph-name="parenright.case" horiz-adv-x="675" 
d="M319 324v788q0 302 -196 393l45 142q147 -59 225 -187t78 -319v-846q0 -191 -78 -319t-225 -187l-45 141q196 91 196 394z" />
    <glyph glyph-name="hyphen.case" horiz-adv-x="817" 
d="M713 647h-609v137h609v-137z" />
    <glyph glyph-name="at.case" horiz-adv-x="1515" 
d="M989 334q109 0 173.5 87.5t64.5 248.5v176q-37 77 -101 119.5t-145 42.5q-128 0 -192 -82.5t-64 -227.5v-55q0 -146 64.5 -227.5t199.5 -81.5zM1362 1079v-387q0 -240 -100.5 -367.5t-296.5 -127.5q-186 0 -290 117.5t-104 297.5v117q0 181 97.5 298.5t273.5 117.5
q95 0 170 -36t115 -95v33q0 202 -136 331t-333 129t-333 -129t-136 -331v-664q0 -133 63.5 -238.5t170 -163t235.5 -57.5q115 0 196 47l66 -112q-114 -66 -262 -66q-121 0 -232.5 44t-193 118.5t-130 177.5t-48.5 217v729q0 114 48.5 218t130 178.5t193 118.5t232.5 44
q120 0 231.5 -44t193 -118.5t130.5 -178.5t49 -218z" />
    <glyph glyph-name="bracketleft.case" horiz-adv-x="657" 
d="M174 -180v1794h395v-135h-243v-1524h243v-135h-395z" />
    <glyph glyph-name="bracketright.case" horiz-adv-x="657" 
d="M483 1614v-1794h-395v135h244v1524h-244v135h395z" />
    <glyph glyph-name="braceleft.case" horiz-adv-x="663" 
d="M403 489v-374q0 -158 138 -158h37v-137h-39q-145 0 -216 68t-71 221v333q0 102 -30.5 153.5t-106.5 51.5h-29v137h29q69 0 103 45t34 125v371q0 153 71 221t216 68h39v-137h-37q-138 0 -138 -158v-377q0 -176 -124 -225q63 -25 93.5 -85.5t30.5 -142.5z" />
    <glyph glyph-name="braceright.case" horiz-adv-x="663" 
d="M260 115v374q0 82 31 142.5t94 85.5q-125 50 -125 225v377q0 158 -137 158h-37v137h39q145 0 216 -68t71 -221v-371q0 -80 34 -125t103 -45h29v-137h-29q-76 0 -106.5 -51.5t-30.5 -153.5v-333q0 -153 -71 -221t-216 -68h-39v137h37q137 0 137 158z" />
    <glyph glyph-name="exclamdown.case" horiz-adv-x="546" 
d="M350 211v-211h-153v211l26 819h101zM350 1434v-193h-153v193h153z" />
    <glyph glyph-name="guillemotleft.case" horiz-adv-x="1028" 
d="M86 674v86l434 284v-131l-309 -196l309 -197v-131zM508 674v86l434 284v-131l-309 -196l309 -197v-131z" />
    <glyph glyph-name="periodcentered.case" horiz-adv-x="536" 
d="M356 817v-201h-176v201h176z" />
    <glyph glyph-name="guillemotright.case" horiz-adv-x="1028" 
d="M942 760v-86l-434 -285v131l309 197l-309 196v131zM520 760v-86l-434 -285v131l309 197l-309 196v131z" />
    <glyph glyph-name="questiondown.case" horiz-adv-x="1040" 
d="M461 1241v193h153v-193h-153zM461 1063h153v-64q0 -102 -40.5 -177.5t-145.5 -168.5q-80 -71 -111.5 -133t-31.5 -143q0 -125 66 -194.5t177 -69.5q106 0 173.5 66.5t82.5 193.5l154 -15q-19 -172 -128.5 -277.5t-283.5 -105.5q-177 0 -286 110t-109 288
q0 113 43.5 195.5t134.5 164.5q84 78 118 137t34 144v49z" />
    <glyph glyph-name="endash.case" horiz-adv-x="1024" 
d="M1024 649h-1024v137h1024v-137z" />
    <glyph glyph-name="emdash.case" horiz-adv-x="2048" 
d="M2048 649h-2048v137h2048v-137z" />
    <glyph glyph-name="bullet.case" horiz-adv-x="739" 
d="M109 717q0 107 76.5 183.5t185.5 76.5q107 0 183.5 -76.5t76.5 -183.5t-76.5 -183.5t-183.5 -76.5q-109 0 -185.5 76.5t-76.5 183.5z" />
    <glyph glyph-name="guilsinglleft.case" horiz-adv-x="606" 
d="M86 674v86l434 284v-131l-309 -196l309 -197v-131z" />
    <glyph glyph-name="guilsinglright.case" horiz-adv-x="606" 
d="M520 760v-86l-434 -285v131l309 197l-309 196v131z" />
    <glyph glyph-name="zero.numerator" 
d="M70 793v333q0 153 80.5 238.5t216.5 85.5t216.5 -85.5t80.5 -238.5v-333q0 -153 -80.5 -238.5t-216.5 -85.5t-216.5 85.5t-80.5 238.5zM209 1110v-301q0 -115 43.5 -168t114.5 -53t114 53t43 168v301q0 115 -43 168t-114 53t-114.5 -53t-43.5 -168z" />
    <glyph glyph-name="one.numerator" 
d="M135 485v119h195v684l-195 -86v127l219 105h115v-830h193v-119h-527z" />
    <glyph glyph-name="two.numerator" 
d="M524 1167q0 77 -42.5 120.5t-108.5 43.5t-109 -44t-43 -120v-37l-141 11v28q0 120 80.5 200.5t212.5 80.5q127 0 209 -79t82 -202q0 -67 -24 -119.5t-79 -113.5l-293 -332h396v-119h-584v99l381 436q63 71 63 147z" />
    <glyph glyph-name="three.numerator" 
d="M74 780l139 11q0 -98 42 -150.5t114 -52.5q67 0 111 44t44 132q0 190 -145 190q-39 0 -84 -20l-72 82l232 299h-357v119h531v-105l-217 -274h18q98 0 166 -75.5t68 -217.5q0 -133 -83.5 -213t-211.5 -80q-135 0 -215 87t-80 224z" />
    <glyph glyph-name="four.numerator" 
d="M203 807h235v393zM680 807v-119h-105v-203h-137v203h-387v107l383 639h141v-627h105z" />
    <glyph glyph-name="five.numerator" 
d="M121 928v506h502v-119h-363v-248q51 45 129 45q125 0 203 -81.5t78 -237.5q0 -152 -80 -236t-213 -84q-135 0 -215 82t-80 227l139 11v-11q0 -93 43.5 -141.5t112.5 -48.5q67 0 110 49.5t43 153.5q0 101 -44 151.5t-109 50.5q-38 0 -73.5 -19t-59.5 -50h-123z" />
    <glyph glyph-name="six.numerator" 
d="M369 469q-134 0 -218.5 86t-84.5 213q0 83 38 154l258 512h152l-199 -387q27 12 66 12q125 0 206 -84.5t81 -206.5q0 -127 -83 -213t-216 -86zM528 766q0 79 -44 128.5t-117 49.5t-117.5 -49.5t-44.5 -128.5t44.5 -128.5t117.5 -49.5t117 49.5t44 128.5z" />
    <glyph glyph-name="seven.numerator" 
d="M78 1315v119h579v-95l-317 -854h-147l315 830h-430z" />
    <glyph glyph-name="eight.numerator" 
d="M367 1450q120 0 194 -70.5t74 -177.5q0 -60 -27.5 -108.5t-72.5 -79.5q65 -35 100 -99t35 -147q0 -130 -83.5 -214.5t-219.5 -84.5t-220 85t-84 214q0 83 35.5 147t100.5 99q-101 69 -101 188q0 107 74.5 177.5t194.5 70.5zM367 1063q56 0 92.5 37.5t36.5 97.5
t-36.5 97.5t-92.5 37.5t-92.5 -37.5t-36.5 -97.5t36.5 -97.5t92.5 -37.5zM367 586q72 0 117.5 51t45.5 131t-45.5 131t-117.5 51t-118 -51t-46 -131t46 -131t118 -51z" />
    <glyph glyph-name="nine.numerator" 
d="M365 1450q134 0 218.5 -86t84.5 -213q0 -81 -39 -154l-258 -512h-152l199 387q-27 -12 -66 -12q-125 0 -205.5 84.5t-80.5 206.5q0 127 83 213t216 86zM205 1153q0 -79 44.5 -128.5t117.5 -49.5t117 49.5t44 128.5t-44 128.5t-117 49.5t-117.5 -49.5t-44.5 -128.5z" />
    <glyph glyph-name="zero.denominator" 
d="M70 307v334q0 153 80.5 238.5t216.5 85.5t216.5 -85.5t80.5 -238.5v-334q0 -153 -80.5 -238t-216.5 -85t-216.5 85t-80.5 238zM209 625v-301q0 -115 43.5 -168.5t114.5 -53.5t114 53.5t43 168.5v301q0 115 -43 168t-114 53t-114.5 -53t-43.5 -168z" />
    <glyph glyph-name="one.denominator" 
d="M135 0v119h195v684l-195 -86v127l219 104h115v-829h193v-119h-527z" />
    <glyph glyph-name="two.denominator" 
d="M524 682q0 77 -42.5 120.5t-108.5 43.5t-109 -44t-43 -120v-37l-141 10v29q0 120 80.5 200.5t212.5 80.5q127 0 209 -79t82 -202q0 -67 -24 -119.5t-79 -113.5l-293 -332h396v-119h-584v98l381 437q63 71 63 147z" />
    <glyph glyph-name="three.denominator" 
d="M74 295l139 10q0 -98 42 -150.5t114 -52.5q67 0 111 44.5t44 132.5q0 190 -145 190q-39 0 -84 -20l-72 81l232 299h-357v119h531v-104l-217 -275h18q98 0 166 -75.5t68 -217.5q0 -133 -83 -212.5t-212 -79.5q-135 0 -215 87t-80 224z" />
    <glyph glyph-name="four.denominator" 
d="M203 322h235v393zM680 322v-119h-105v-203h-137v203h-387v106l383 639h141v-626h105z" />
    <glyph glyph-name="five.denominator" 
d="M121 442v506h502v-119h-363v-247q51 45 129 45q125 0 203 -82t78 -238q0 -152 -80 -235.5t-213 -83.5q-135 0 -215 82t-80 227l139 10v-10q0 -93 43.5 -142t112.5 -49q67 0 110 49.5t43 153.5q0 101 -44 152t-109 51q-38 0 -73.5 -19.5t-59.5 -50.5h-123z" />
    <glyph glyph-name="six.denominator" 
d="M369 -16q-134 0 -218.5 86t-84.5 213q0 82 38 153l258 512h152l-199 -387q27 12 66 12q125 0 206 -84t81 -206q0 -127 -83 -213t-216 -86zM528 281q0 79 -44 128.5t-117 49.5t-117.5 -49.5t-44.5 -128.5t44.5 -129t117.5 -50t117 50t44 129z" />
    <glyph glyph-name="seven.denominator" horiz-adv-x="696" 
d="M78 829v119h579v-94l-317 -854h-147l315 829h-430z" />
    <glyph glyph-name="eight.denominator" 
d="M367 965q120 0 194 -70.5t74 -177.5q0 -60 -27.5 -109t-72.5 -80q65 -35 100 -98.5t35 -146.5q0 -130 -83.5 -214.5t-219.5 -84.5t-220 85t-84 214q0 83 35.5 146.5t100.5 98.5q-45 31 -73 80t-28 109q0 107 74.5 177.5t194.5 70.5zM367 578q56 0 92.5 37.5t36.5 97.5
t-36.5 97.5t-92.5 37.5t-92.5 -37.5t-36.5 -97.5t36.5 -97.5t92.5 -37.5zM367 100q72 0 117.5 51.5t45.5 131.5t-45.5 131t-117.5 51t-118 -51t-46 -131t46 -131.5t118 -51.5z" />
    <glyph glyph-name="nine.denominator" 
d="M365 965q134 0 218.5 -86t84.5 -213q0 -81 -39 -154l-258 -512h-152l199 387q-27 -12 -66 -12q-125 0 -205.5 84.5t-80.5 206.5q0 127 83 213t216 86zM205 668q0 -79 44.5 -129t117.5 -50t117 50t44 129t-44 128.5t-117 49.5t-117.5 -49.5t-44.5 -128.5z" />
    </font>
</defs>
</svg>
