<?xml version="1.0" standalone="no"?>
<!DOCTYPE svg PUBLIC "-//W3C//DTD SVG 1.1//EN" "http://www.w3.org/Graphics/SVG/1.1/DTD/svg11.dtd" >
<svg xmlns="http://www.w3.org/2000/svg" xmlns:xlink="http://www.w3.org/1999/xlink" version="1.1">
<metadata>
Created by FontForge 20170731 at Wed Mar 24 12:46:10 2021
 By Aleksey,,,
Core Sans D 77 Cn Black
</metadata>
<defs>
<font id="CoreSansD77CnBlack" horiz-adv-x="589" >
  <font-face 
    font-family="Core Sans D 77 Cn Black"
    font-weight="400"
    font-stretch="normal"
    units-per-em="2048"
    panose-1="2 11 10 6 3 3 2 2 2 4"
    ascent="1638"
    descent="-410"
    x-height="1024"
    cap-height="1434"
    bbox="-883 -539 1909 1962"
    underline-thickness="49"
    underline-position="-472"
    unicode-range="U+0008-FB04"
  />
<missing-glyph horiz-adv-x="1024" 
d="M881 0h-738v1536h738v-1536zM297 133h430v1270h-430v-1270z" />
    <glyph glyph-name="f_f" unicode="ff" horiz-adv-x="1101" 
d="M1100 1208h-90q-48 0 -66 -21.5t-18 -84.5v-78h174v-250h-174v-774h-287v774h-225v-774h-287v774h-102v250h102v96q0 176 69.5 257t217.5 81q102 0 204 -26l-26 -236q-58 12 -94 12q-45 0 -64.5 -22t-19.5 -84v-78h225v96q0 178 68 258t223 80h170v-250z" />
    <glyph glyph-name="f_i" unicode="fi" horiz-adv-x="1007" 
d="M639 0v774h-225v-774h-287v774h-102v250h102v96q0 178 68 258t223 80h170v-250h-90q-48 0 -66 -21.5t-18 -84.5v-78h512v-1024h-287zM639 1163v295h287v-295h-287z" />
    <glyph glyph-name="f_l" unicode="fl" horiz-adv-x="1079" 
d="M1010 250h63v-250h-143q-155 0 -223 80t-68 258v842q-65 28 -121 28q-57 0 -80.5 -27.5t-23.5 -93.5v-63h174v-250h-174v-774h-287v774h-102v250h100v66q0 189 77.5 278.5t241.5 89.5q94 0 195 -43v43h287v-1102q0 -63 18 -84.5t66 -21.5z" />
    <glyph glyph-name="f_f_i" unicode="ffi" horiz-adv-x="1519" 
d="M127 1024v96q0 176 69.5 257t217.5 81q102 0 204 -26l-26 -236q-58 12 -94 12q-45 0 -64.5 -22t-19.5 -84v-78h225v96q0 178 68 258t223 80h170v-250h-90q-48 0 -66 -21.5t-18 -84.5v-78h512v-1024h-287v774h-225v-774h-287v774h-225v-774h-287v774h-102v250h102z
M1151 1163v295h287v-295h-287z" />
    <glyph glyph-name="f_f_l" unicode="ffl" horiz-adv-x="1591" 
d="M127 1024v96q0 176 69.5 257t217.5 81q102 0 204 -26l-26 -236q-58 12 -94 12q-45 0 -64.5 -22t-19.5 -84v-78h225v66q0 189 76.5 278.5t240.5 89.5q94 0 195 -43v43h287v-1102q0 -63 18 -84.5t66 -21.5h63v-250h-143q-155 0 -223 80t-68 258v842q-65 28 -121 28
q-57 0 -80.5 -27.5t-23.5 -93.5v-63h174v-250h-174v-774h-287v774h-225v-774h-287v774h-102v250h102z" />
    <glyph glyph-name=".notdef" horiz-adv-x="1024" 
d="M881 0h-738v1536h738v-1536zM297 133h430v1270h-430v-1270z" />
    <glyph glyph-name=".null" horiz-adv-x="0" 
 />
    <glyph glyph-name=".null" horiz-adv-x="0" 
 />
    <glyph glyph-name=".null" horiz-adv-x="0" 
 />
    <glyph glyph-name="nonmarkingreturn" horiz-adv-x="682" 
 />
    <glyph glyph-name="CR" unicode="&#x9;" horiz-adv-x="237" 
 />
    <glyph glyph-name="CR" unicode="&#xd;" horiz-adv-x="237" 
 />
    <glyph glyph-name="space" unicode=" " horiz-adv-x="372" 
 />
    <glyph glyph-name="exclam" unicode="!" horiz-adv-x="557" 
d="M162 475l-39 733v226h311v-226l-39 -733h-233zM135 0v295h287v-295h-287z" />
    <glyph glyph-name="quotedbl" unicode="&#x22;" horiz-adv-x="768" 
d="M102 950l-26 484h278l-26 -484h-226zM666 950l26 484h-278l26 -484h226z" />
    <glyph glyph-name="numbersign" unicode="#" horiz-adv-x="1116" 
d="M96 0l49 315h-120v263h163l45 278h-155v262h196l52 316h276l-51 -316h141l51 316h277l-51 -316h123v-262h-164l-45 -278h155v-263h-198l-49 -315h-277l49 315h-141l-49 -315h-277zM510 856l-45 -278h141l45 278h-141z" />
    <glyph glyph-name="dollar" unicode="$" horiz-adv-x="948" 
d="M582 389v33q0 55 -26.5 88.5t-90.5 56.5l-86 31q-170 60 -244 153t-74 250v46q0 323 252 391v174h279v-168q276 -60 276 -397v-39l-315 -11v50q0 76 -21.5 106.5t-66.5 30.5t-66.5 -30.5t-21.5 -106.5v-25q0 -55 26.5 -88.5t90.5 -56.5l86 -31q170 -60 243.5 -153.5
t73.5 -250.5v-41q0 -170 -73.5 -274t-211.5 -137v-168h-278v172q-133 34 -203 137t-70 270v25l316 10v-47q0 -139 102 -139q103 0 103 139z" />
    <glyph glyph-name="percent" unicode="%" horiz-adv-x="1394" 
d="M1024 1434l-453 -1434h-200l452 1434h201zM279 1176v-207q0 -82 45 -82t45 82v207q0 81 -45 81t-45 -81zM582 1159v-174q0 -143 -64 -221t-194 -78t-194 78t-64 221v174q0 143 64 221t194 78t194 -78t64 -221zM1116 258v207q0 82 -45 82t-45 -82v-207q0 -82 45 -82t45 82
zM813 274v175q0 143 64 221t194 78t194 -78t64 -221v-175q0 -143 -64 -221t-194 -78t-194 78t-64 221z" />
    <glyph glyph-name="ampersand" unicode="&#x26;" horiz-adv-x="1089" 
d="M895 260l168 -260h-275l-47 74q-41 -47 -113 -73t-155 -26q-178 0 -285.5 110t-107.5 286v28q0 121 35.5 200t115.5 159l35 35l-18 28q-54 84 -77.5 148.5t-23.5 136.5v39q0 139 83.5 226t224.5 87q140 0 223.5 -87t83.5 -226v-21q0 -112 -27 -186.5t-90 -140.5l-61 -64
l131 -194q14 74 14 186l242 -25q-6 -265 -76 -440zM352 389v-16q0 -67 39 -105.5t98 -38.5q78 0 117 54l-194 286l-15 -16q-45 -53 -45 -164zM451 938l14 16q55 63 55 154v25q0 94 -65 94q-66 0 -66 -94v-43q0 -56 43 -123z" />
    <glyph glyph-name="quotesingle" unicode="'" horiz-adv-x="430" 
d="M102 950l-26 484h278l-26 -484h-226z" />
    <glyph glyph-name="parenleft" unicode="(" horiz-adv-x="555" 
d="M348 1014v-613q0 -249 166 -329l-92 -293q-369 148 -369 581v695q0 433 369 581l92 -293q-166 -80 -166 -329z" />
    <glyph glyph-name="parenright" unicode=")" horiz-adv-x="555" 
d="M207 401v613q0 249 -166 329l92 293q369 -148 369 -581v-695q0 -433 -369 -581l-92 293q166 80 166 329z" />
    <glyph glyph-name="asterisk" unicode="*" horiz-adv-x="839" 
d="M297 1053h246l-29 -230l182 140l123 -211l-213 -90l213 -91l-123 -211l-182 138l29 -228h-246l29 228l-183 -138l-123 211l213 91l-213 90l123 211l183 -140z" />
    <glyph glyph-name="plus" unicode="+" horiz-adv-x="888" 
d="M57 543v237h248v273h279v-273h247v-237h-247v-273h-279v273h-248z" />
    <glyph glyph-name="comma" unicode="," horiz-adv-x="430" 
d="M61 0v317h308v-335q0 -268 -308 -279v145q142 13 142 127v25h-142z" />
    <glyph glyph-name="hyphen" unicode="-" horiz-adv-x="671" 
d="M57 543v237h557v-237h-557z" />
    <glyph glyph-name="period" unicode="." horiz-adv-x="430" 
d="M61 0v317h308v-317h-308z" />
    <glyph glyph-name="slash" unicode="/" horiz-adv-x="743" 
d="M762 1604l-490 -1794h-290l489 1794h291z" />
    <glyph glyph-name="zero" unicode="0" horiz-adv-x="860" 
d="M811 1038v-643q0 -201 -99 -310.5t-282 -109.5t-282 110.5t-99 315.5v631q0 205 99 315.5t282 110.5t282 -109.5t99 -310.5zM508 422v590q0 113 -17 151.5t-61 38.5t-61 -38.5t-17 -151.5v-590q0 -113 17 -152t61 -39t61 39t17 152z" />
    <glyph glyph-name="one" unicode="1" horiz-adv-x="860" 
d="M797 0h-688v256h194v825l-194 -96v291l262 158h233v-1178h193v-256z" />
    <glyph glyph-name="two" unicode="2" horiz-adv-x="860" 
d="M430 1202q-37 0 -52.5 -33t-15.5 -114v-105l-303 11v81q0 208 94 312t277 104t277 -104t94 -312v-41q0 -89 -24.5 -164.5t-74.5 -158.5l-258 -422h357v-256h-744v188l387 635q54 84 54 181v51q0 81 -15.5 114t-52.5 33z" />
    <glyph glyph-name="three" unicode="3" horiz-adv-x="860" 
d="M350 479v-57q0 -113 17 -152t61 -39t61 39t17 152v94q0 95 -21 132.5t-63 37.5q-48 0 -88 -35l-152 140l252 387h-348v256h686v-224l-209 -307q118 -9 182 -109.5t64 -252.5v-146q0 -201 -99 -310.5t-282 -109.5t-282 110.5t-99 315.5v68z" />
    <glyph glyph-name="four" unicode="4" horiz-adv-x="860" 
d="M270 518h164v404zM842 518v-256h-115v-262h-293v262h-409v221l403 951h299v-916h115z" />
    <glyph glyph-name="five" unicode="5" horiz-adv-x="860" 
d="M514 422v123q0 85 -6.5 126.5t-20.5 56.5t-43 15q-24 0 -38 -20t-17 -53h-291v764h666v-256h-363v-232q53 53 134 53q66 0 115.5 -22t88 -73.5t58.5 -144t20 -224.5v-140q0 -201 -99 -310.5t-282 -109.5t-282 110.5t-99 315.5v80l303 11v-70q0 -113 17 -152t61 -39t61 39
t17 152z" />
    <glyph glyph-name="six" unicode="6" horiz-adv-x="860" 
d="M109 819l206 615h316l-185 -521q20 5 39 5q143 0 234.5 -108.5t91.5 -309.5v-107q0 -109 -28.5 -191t-81 -130.5t-120 -72.5t-151.5 -24t-151.5 24t-120 73.5t-81 132.5t-28.5 194v95q0 154 60 325zM352 494v-95q0 -96 16.5 -132t61.5 -36t61.5 36t16.5 132v95
q0 96 -16.5 132t-61.5 36t-61.5 -36t-16.5 -132z" />
    <glyph glyph-name="seven" unicode="7" horiz-adv-x="860" 
d="M59 1178v256h740v-217l-330 -1217h-305l317 1178h-422z" />
    <glyph glyph-name="eight" unicode="8" horiz-adv-x="860" 
d="M430 1458q163 0 258.5 -91.5t95.5 -268.5v-66q0 -83 -33 -152t-83 -94q69 -32 110 -115t41 -192v-69q0 -435 -389 -435t-389 435v69q0 108 41.5 191.5t110.5 115.5q-50 25 -83.5 94.5t-33.5 151.5v66q0 177 95.5 268.5t258.5 91.5zM430 895q42 0 61 29.5t19 95.5v67
q0 66 -19 95.5t-61 29.5t-61 -29.5t-19 -95.5v-67q0 -66 19 -95.5t61 -29.5zM430 231q52 0 77 41.5t25 145.5v51q0 104 -25 145t-77 41t-77 -41t-25 -145v-51q0 -104 25 -145.5t77 -41.5z" />
    <glyph glyph-name="nine" unicode="9" horiz-adv-x="860" 
d="M752 614l-207 -614h-316l185 520q-16 -4 -39 -4q-143 0 -234.5 108.5t-91.5 309.5v106q0 109 28.5 191t81 130.5t120 72.5t151.5 24t151.5 -24t120 -73.5t81 -132.5t28.5 -194v-94q0 -157 -59 -326zM508 940v94q0 96 -16.5 132t-61.5 36t-61.5 -36t-16.5 -132v-94
q0 -96 16.5 -132t61.5 -36t61.5 36t16.5 132z" />
    <glyph glyph-name="colon" unicode=":" horiz-adv-x="430" 
d="M61 0v317h308v-317h-308zM61 807v317h308v-317h-308z" />
    <glyph glyph-name="semicolon" unicode=";" horiz-adv-x="430" 
d="M61 807v317h308v-317h-308zM61 0v317h308v-335q0 -268 -308 -279v145q142 13 142 127v25h-142z" />
    <glyph glyph-name="less" unicode="&#x3c;" horiz-adv-x="888" 
d="M78 770l733 324v-256l-453 -185l453 -184v-256l-733 324v233z" />
    <glyph glyph-name="equal" unicode="=" horiz-adv-x="888" 
d="M57 741v238h774v-238h-774zM57 356v238h774v-238h-774z" />
    <glyph glyph-name="greater" unicode="&#x3e;" horiz-adv-x="888" 
d="M78 1094l733 -324v-233l-733 -324v256l452 184l-452 185v256z" />
    <glyph glyph-name="question" unicode="?" horiz-adv-x="835" 
d="M279 0v295h286v-295h-286zM49 1012v51q0 183 94.5 289t270.5 106q175 0 269.5 -106t94.5 -289v-51q0 -208 -145 -353q-41 -41 -54.5 -78.5t-13.5 -101.5v-65h-286v86q0 127 27.5 197.5t115.5 156.5q70 67 70 154v45q0 108 -78 108t-78 -108v-52z" />
    <glyph glyph-name="at" unicode="@" horiz-adv-x="1175" 
d="M866 418v254q-31 63 -100 63q-54 0 -82.5 -39t-28.5 -131v-147q0 -170 107 -170q104 0 104 170zM309 895v-719q0 -332 279 -332q98 0 198 54l86 -193q-128 -92 -284 -92q-234 0 -371 139t-137 402v764q0 263 137 401.5t371 138.5t371 -138.5t137 -401.5v-502
q0 -191 -86 -295.5t-260 -104.5q-160 0 -251 104t-91 308v137q0 402 299 402q94 0 159 -78q0 338 -278 338q-279 0 -279 -332z" />
    <glyph glyph-name="A" unicode="A" horiz-adv-x="1015" 
d="M328 0h-324l340 1434h328l340 -1434h-324l-43 219h-274zM590 494l-82 424l-84 -424h166z" />
    <glyph glyph-name="B" unicode="B" horiz-adv-x="960" 
d="M500 0h-414v1434h416q184 0 284.5 -100t100.5 -300q0 -108 -38 -181t-101 -105q167 -82 167 -320q0 -209 -105 -318.5t-310 -109.5zM401 1167v-303h56q59 0 86.5 37.5t27.5 114.5t-27.5 114t-86.5 37h-56zM600 436q0 85 -30.5 126.5t-94.5 41.5h-74v-338h74q65 0 95 41
t30 129z" />
    <glyph glyph-name="C" unicode="C" horiz-adv-x="987" 
d="M504 250q62 0 92.5 50t30.5 165v51l315 -10v-57q0 -229 -118 -351.5t-320 -122.5t-320 122.5t-118 351.5v536q0 229 118 351t320 122t320 -122t118 -351v-57l-315 -10v51q0 115 -30.5 165t-92.5 50t-92.5 -50t-30.5 -165v-504q0 -115 30.5 -165t92.5 -50z" />
    <glyph glyph-name="D" unicode="D" horiz-adv-x="991" 
d="M610 485v463q0 125 -30 168t-97 43h-82v-885h82q67 0 97 43t30 168zM926 981v-528q0 -222 -112 -337.5t-339 -115.5h-389v1434h389q227 0 339 -115.5t112 -337.5z" />
    <glyph glyph-name="E" unicode="E" horiz-adv-x="882" 
d="M86 0v1434h748v-275h-433v-287h371v-274h-371v-324h433v-274h-748z" />
    <glyph glyph-name="F" unicode="F" horiz-adv-x="856" 
d="M86 0v1434h748v-275h-433v-305h385v-274h-385v-580h-315z" />
    <glyph glyph-name="G" unicode="G" horiz-adv-x="995" 
d="M500 518v254h442v-323q0 -229 -118 -351.5t-320 -122.5t-320 122.5t-118 351.5v536q0 229 118 351t320 122t320 -122t118 -351v-57l-315 -10v51q0 115 -30.5 165t-92.5 50t-92.5 -50t-30.5 -165v-504q0 -115 30.5 -165t92.5 -50t92.5 50t30.5 165v53h-127z" />
    <glyph glyph-name="H" unicode="H" horiz-adv-x="1011" 
d="M610 0v598h-209v-598h-315v1434h315v-562h209v562h316v-1434h-316z" />
    <glyph glyph-name="I" unicode="I" horiz-adv-x="503" 
d="M410 1434v-1434h-316v1434h316z" />
    <glyph glyph-name="J" unicode="J" horiz-adv-x="921" 
d="M332 467v-55q0 -162 98 -162t98 162v1022h316v-1031q0 -199 -109 -313.5t-305 -114.5t-305 114.5t-109 313.5v54z" />
    <glyph glyph-name="K" unicode="K" horiz-adv-x="1005" 
d="M911 1262q0 -147 -41 -266.5t-139 -223.5l275 -772h-330l-184 555l-91 -82v-473h-315v1434h315v-578l70 68q71 69 98 143t27 197v170h315v-172z" />
    <glyph glyph-name="L" unicode="L" horiz-adv-x="856" 
d="M86 0v1434h315v-1160h447v-274h-762z" />
    <glyph glyph-name="M" unicode="M" horiz-adv-x="1228" 
d="M711 340h-193l-125 354v-694h-307v1434h260l268 -740l269 740h260v-1434h-307v694z" />
    <glyph glyph-name="N" unicode="N" horiz-adv-x="1034" 
d="M680 0l-287 760v-760h-307v1434h268l287 -760v760h307v-1434h-268z" />
    <glyph glyph-name="O" unicode="O" horiz-adv-x="1007" 
d="M627 465v504q0 115 -30.5 165t-92.5 50t-92.5 -50t-30.5 -165v-504q0 -115 30.5 -165t92.5 -50t92.5 50t30.5 165zM942 985v-536q0 -229 -118 -351.5t-320 -122.5t-320 122.5t-118 351.5v536q0 229 118 351t320 122t320 -122t118 -351z" />
    <glyph glyph-name="P" unicode="P" horiz-adv-x="966" 
d="M502 463h-101v-463h-315v1434h416q81 0 152 -27t131 -82t95 -152t35 -225q0 -103 -23.5 -186.5t-62.5 -138.5t-93 -91.5t-112 -52.5t-122 -16zM401 737h52q147 0 147 211t-147 211h-52v-422z" />
    <glyph glyph-name="Q" unicode="Q" horiz-adv-x="1007" 
d="M942 985v-536q0 -143 -49 -250l119 -131l-217 -205l-129 137q-88 -25 -162 -25q-202 0 -320 122.5t-118 351.5v536q0 229 118 351t320 122t320 -122t118 -351zM627 465v504q0 115 -30.5 165t-92.5 50t-92.5 -50t-30.5 -165v-504q0 -115 30.5 -165t92.5 -50t92.5 50
t30.5 165z" />
    <glyph glyph-name="R" unicode="R" horiz-adv-x="974" 
d="M631 0l-154 504h-76v-504h-315v1434h416q81 0 151.5 -24.5t131 -76.5t95.5 -145.5t35 -218.5q0 -272 -163 -391l209 -578h-330zM401 778h52q77 0 112 47.5t35 143.5t-35 143t-112 47h-52v-381z" />
    <glyph glyph-name="S" unicode="S" horiz-adv-x="948" 
d="M582 389v33q0 55 -26.5 88.5t-90.5 56.5l-86 31q-170 60 -244 153t-74 250v46q0 199 99 305t305 106q403 0 403 -411v-39l-315 -11v50q0 76 -21.5 106.5t-66.5 30.5t-66.5 -30.5t-21.5 -106.5v-25q0 -55 26.5 -88.5t90.5 -56.5l86 -31q170 -60 243.5 -153.5t73.5 -250.5
v-41q0 -209 -108.5 -317.5t-309.5 -108.5t-309.5 108.5t-108.5 317.5v25l316 10v-47q0 -139 102 -139q103 0 103 139z" />
    <glyph glyph-name="T" unicode="T" horiz-adv-x="864" 
d="M8 1159v275h848v-275h-266v-1159h-316v1159h-266z" />
    <glyph glyph-name="U" unicode="U" horiz-adv-x="1040" 
d="M653 1434h316v-975q0 -233 -120 -358.5t-329 -125.5t-328.5 125.5t-119.5 358.5v975h315v-959q0 -117 32.5 -171t100.5 -54t100.5 54t32.5 171v959z" />
    <glyph glyph-name="V" unicode="V" horiz-adv-x="991" 
d="M664 0h-336l-328 1434h322l174 -906l174 906h321z" />
    <glyph glyph-name="W" unicode="W" horiz-adv-x="1490" 
d="M594 1434h303l139 -813l127 813h320l-289 -1434h-301l-148 870l-147 -870h-301l-289 1434h320l127 -813z" />
    <glyph glyph-name="X" unicode="X" horiz-adv-x="993" 
d="M354 1434l142 -453l143 453h326l-236 -695l256 -739h-326l-163 498l-162 -498h-326l256 739l-235 695h325z" />
    <glyph glyph-name="Y" unicode="Y" horiz-adv-x="970" 
d="M485 973l152 461h326l-320 -781v-653h-315v653l-320 781h326z" />
    <glyph glyph-name="Z" unicode="Z" horiz-adv-x="860" 
d="M43 199l385 960h-371v275h760v-199l-385 -961h385v-274h-774v199z" />
    <glyph glyph-name="bracketleft" unicode="[" horiz-adv-x="559" 
d="M88 -190v1794h447v-271h-152v-1253h152v-270h-447z" />
    <glyph glyph-name="backslash" unicode="\" horiz-adv-x="743" 
d="M471 -190l-489 1794h290l490 -1794h-291z" />
    <glyph glyph-name="bracketright" unicode="]" horiz-adv-x="559" 
d="M471 1604v-1794h-446v270h151v1253h-151v271h446z" />
    <glyph glyph-name="asciicircum" unicode="^" horiz-adv-x="794" 
d="M524 1434l267 -473h-289l-105 200l-104 -200h-289l266 473h254z" />
    <glyph glyph-name="underscore" unicode="_" horiz-adv-x="716" 
d="M0 -352v147h717v-147h-717z" />
    <glyph glyph-name="grave" unicode="`" horiz-adv-x="614" 
d="M285 1165l-148 330h246l94 -330h-192z" />
    <glyph glyph-name="a" unicode="a" horiz-adv-x="849" 
d="M406 205q30 0 52.5 25t30.5 63v110h-79q-82 0 -82 -94v-24q0 -80 78 -80zM92 709v16q0 149 89 236.5t253 87.5q165 0 253.5 -87t88.5 -237v-725h-287v74q-54 -99 -184 -99q-111 0 -182.5 79.5t-71.5 219.5v33q0 150 90.5 232t251.5 82h96v88q0 47 -12.5 68.5t-42.5 21.5
t-42.5 -20.5t-12.5 -69.5v-11z" />
    <glyph glyph-name="b" unicode="b" horiz-adv-x="880" 
d="M365 729v-434q21 -70 86 -70q44 0 65 33t21 109v290q0 76 -21 109t-65 33q-65 0 -86 -70zM365 76v-76h-287v1458h287v-510q21 49 69 75t109 26q127 0 203.5 -89t76.5 -286v-324q0 -197 -76.5 -286t-203.5 -89q-61 0 -109 26t-69 75z" />
    <glyph glyph-name="c" unicode="c" horiz-adv-x="845" 
d="M430 225q41 0 63.5 32t22.5 95v51l287 -10v-16q0 -191 -102.5 -296.5t-270.5 -105.5t-270.5 105.5t-102.5 296.5v270q0 191 102.5 296.5t270.5 105.5t270.5 -105.5t102.5 -296.5v-16l-287 -10v51q0 63 -22.5 95t-63.5 32t-63.5 -32t-22.5 -95v-320q0 -63 22.5 -95
t63.5 -32z" />
    <glyph glyph-name="d" unicode="d" horiz-adv-x="880" 
d="M516 295v434q-21 70 -86 70q-44 0 -65 -33t-21 -109v-290q0 -76 21 -109t65 -33q65 0 86 70zM516 0v76q-21 -49 -69 -75t-109 -26q-128 0 -204.5 89t-76.5 286v324q0 197 76.5 286t204.5 89q61 0 109 -26t69 -75v510h287v-1458h-287z" />
    <glyph glyph-name="e" unicode="e" horiz-adv-x="860" 
d="M512 319l285 -10q-13 -156 -111.5 -245t-255.5 -89q-168 0 -270.5 105.5t-102.5 296.5v270q0 191 102.5 296.5t270.5 105.5t270.5 -105.5t102.5 -296.5v-229h-459v-66q0 -63 22.5 -95t63.5 -32q34 0 57.5 24.5t24.5 69.5zM516 635v37q0 63 -22.5 95t-63.5 32t-63.5 -32
t-22.5 -95v-37h172z" />
    <glyph glyph-name="f" unicode="f" 
d="M588 1208h-90q-48 0 -66 -21.5t-18 -84.5v-78h174v-250h-174v-774h-287v774h-102v250h102v96q0 178 68 258t223 80h170v-250z" />
    <glyph glyph-name="g" unicode="g" horiz-adv-x="880" 
d="M516 -94v170q-21 -49 -69 -75t-109 -26q-128 0 -204.5 89t-76.5 286v324q0 197 76.5 286t204.5 89q61 0 109 -26t69 -75v76h287v-1139q0 -175 -102 -267.5t-271 -92.5q-166 0 -265 88t-108 254l287 12q8 -104 86 -104q86 0 86 131zM516 295v434q-21 70 -86 70
q-44 0 -65 -33t-21 -109v-290q0 -76 21 -109t65 -33q65 0 86 70z" />
    <glyph glyph-name="h" unicode="h" horiz-adv-x="894" 
d="M823 0h-286v686q0 113 -82 113q-34 0 -58.5 -24.5t-31.5 -67.5v-707h-287v1458h287v-526q25 55 75.5 86t118.5 31q130 0 197 -91t67 -256v-702z" />
    <glyph glyph-name="i" unicode="i" horiz-adv-x="450" 
d="M82 0v1024h287v-1024h-287zM82 1163v295h287v-295h-287z" />
    <glyph glyph-name="j" unicode="j" horiz-adv-x="450" 
d="M82 1163v295h287v-295h-287zM82 -59v1083h287v-1087q0 -199 -84.5 -285t-259.5 -86h-107v250h70q56 0 75 27.5t19 97.5z" />
    <glyph glyph-name="k" unicode="k" horiz-adv-x="839" 
d="M772 971q0 -144 -28 -231.5t-115 -170.5l211 -569h-293l-127 377l-55 -49v-328h-287v1458h287v-784l41 41q46 46 62.5 93.5t16.5 135.5v80h287v-53z" />
    <glyph glyph-name="l" unicode="l" horiz-adv-x="520" 
d="M451 250h63v-250h-143q-155 0 -223 80t-68 258v1120h287v-1102q0 -63 18 -84.5t66 -21.5z" />
    <glyph glyph-name="m" unicode="m" horiz-adv-x="1353" 
d="M995 0v686q0 113 -82 113q-34 0 -58.5 -24.5t-31.5 -67.5v-707h-286v686q0 113 -82 113q-34 0 -58.5 -24.5t-31.5 -67.5v-707h-287v1024h287v-92q25 55 75.5 86t118.5 31q150 0 217 -125q74 125 223 125q146 0 214.5 -86.5t68.5 -260.5v-702h-287z" />
    <glyph glyph-name="n" unicode="n" horiz-adv-x="894" 
d="M823 0h-286v686q0 113 -82 113q-34 0 -58.5 -24.5t-31.5 -67.5v-707h-287v1024h287v-92q25 55 75.5 86t118.5 31q130 0 197 -91t67 -256v-702z" />
    <glyph glyph-name="o" unicode="o" horiz-adv-x="860" 
d="M803 647v-270q0 -191 -102.5 -296.5t-270.5 -105.5t-270.5 105.5t-102.5 296.5v270q0 191 102.5 296.5t270.5 105.5t270.5 -105.5t102.5 -296.5zM516 352v320q0 63 -22.5 95t-63.5 32t-63.5 -32t-22.5 -95v-320q0 -63 22.5 -95t63.5 -32t63.5 32t22.5 95z" />
    <glyph glyph-name="p" unicode="p" horiz-adv-x="880" 
d="M365 729v-434q21 -70 86 -70q44 0 65 33t21 109v290q0 76 -21 109t-65 33q-65 0 -86 -70zM365 1024v-76q21 49 69 75t109 26q127 0 203.5 -89t76.5 -286v-324q0 -197 -76.5 -286t-203.5 -89q-61 0 -109 26t-69 75v-522h-287v1470h287z" />
    <glyph glyph-name="q" unicode="q" horiz-adv-x="880" 
d="M516 295v434q-21 70 -86 70q-44 0 -65 -33t-21 -109v-290q0 -76 21 -109t65 -33q65 0 86 70zM516 948v76h287v-1470h-287v522q-21 -49 -69 -75t-109 -26q-128 0 -204.5 89t-76.5 286v324q0 197 76.5 286t204.5 89q61 0 109 -26t69 -75z" />
    <glyph glyph-name="r" unicode="r" horiz-adv-x="647" 
d="M78 0v1024h287v-129q26 72 79 110.5t125 38.5q45 0 72 -12v-272q-35 14 -86 14q-69 0 -118 -34t-72 -97v-643h-287z" />
    <glyph glyph-name="s" unicode="s" horiz-adv-x="798" 
d="M403 225q28 0 43 18t15 50q0 36 -20 57t-76 39l-70 23q-128 41 -183 115t-55 204v31q0 126 86 206.5t246 80.5t246 -80.5t86 -206.5v-39l-287 -8v33q0 51 -45 51t-45 -51q0 -43 19 -62.5t77 -38.5l70 -22q127 -41 182.5 -113t55.5 -188v-43q0 -139 -94.5 -222.5
t-245.5 -83.5q-161 0 -255 78.5t-94 218.5v47l287 9v-35q0 -68 57 -68z" />
    <glyph glyph-name="t" unicode="t" horiz-adv-x="610" 
d="M399 774v-418q0 -63 18 -84.5t66 -21.5h99v-250h-179q-154 0 -222 80t-68 258v436h-99v250h99v291h286v-291h176v-250h-176z" />
    <glyph glyph-name="u" unicode="u" horiz-adv-x="894" 
d="M72 1024h286v-686q0 -113 82 -113q34 0 58.5 24.5t31.5 67.5v707h287v-1024h-287v92q-25 -55 -75.5 -86t-118.5 -31q-130 0 -197 91t-67 256v702z" />
    <glyph glyph-name="v" unicode="v" horiz-adv-x="827" 
d="M827 1024l-266 -1024h-295l-266 1024h293l121 -588l121 588h292z" />
    <glyph glyph-name="w" unicode="w" horiz-adv-x="1273" 
d="M514 1024h246l108 -551l103 551h299l-246 -1024h-266l-121 592l-121 -592h-266l-246 1024h299l103 -551z" />
    <glyph glyph-name="x" unicode="x" horiz-adv-x="790" 
d="M479 0l-84 313l-84 -313h-307l193 522l-181 502h301l78 -297l78 297h301l-180 -502l192 -522h-307z" />
    <glyph glyph-name="y" unicode="y" horiz-adv-x="829" 
d="M297 1024l125 -532l110 532h293l-280 -1137q-44 -180 -122 -249.5t-230 -69.5h-121v250h100q37 0 60 25.5t36 80.5l25 99l-289 1001h293z" />
    <glyph glyph-name="z" unicode="z" horiz-adv-x="755" 
d="M707 1024v-188l-308 -586h322v-250h-686v188l307 586h-291v250h656z" />
    <glyph glyph-name="braceleft" unicode="{" horiz-adv-x="555" 
d="M33 578v258h14q100 0 100 86v372q0 163 66.5 236.5t218.5 73.5h123v-261h-45q-37 0 -52.5 -19.5t-15.5 -66.5v-354q0 -161 -163 -196q163 -35 163 -197v-354q0 -47 15.5 -66.5t52.5 -19.5h45v-260h-123q-152 0 -218.5 73t-66.5 236v373q0 86 -100 86h-14z" />
    <glyph glyph-name="bar" unicode="|" horiz-adv-x="534" 
d="M113 -190v1794h309v-1794h-309z" />
    <glyph glyph-name="braceright" unicode="}" horiz-adv-x="555" 
d="M522 836v-258h-14q-100 0 -100 -86v-373q0 -163 -66.5 -236t-218.5 -73h-123v260h45q37 0 52.5 19.5t15.5 66.5v354q0 162 163 197q-163 35 -163 196v354q0 47 -15.5 66.5t-52.5 19.5h-45v261h123q152 0 218.5 -73.5t66.5 -236.5v-372q0 -86 100 -86h14z" />
    <glyph glyph-name="asciitilde" unicode="~" horiz-adv-x="888" 
d="M596 485q-42 0 -83 15.5t-67.5 34t-57.5 34t-56 15.5q-27 0 -40 -20.5t-13 -69.5l-230 8q0 148 61 227.5t183 79.5q42 0 83 -15.5t67.5 -33.5t57.5 -33.5t56 -15.5q27 0 40 20.5t13 69.5l230 -8q0 -148 -61 -228t-183 -80z" />
    <glyph glyph-name="uni00A0" unicode="&#xa0;" horiz-adv-x="372" 
 />
    <glyph glyph-name="exclamdown" unicode="&#xa1;" horiz-adv-x="557" 
d="M123 -184l39 733h233l39 -733v-226h-311v226zM135 729v295h287v-295h-287z" />
    <glyph glyph-name="cent" unicode="&#xa2;" horiz-adv-x="845" 
d="M293 1026v180h278v-182q109 -38 170.5 -134.5t61.5 -242.5v-16l-287 -10v51q0 63 -22.5 95t-63.5 32t-63.5 -32t-22.5 -95v-320q0 -63 22.5 -95t63.5 -32t63.5 32t22.5 95v51l287 -10v-16q0 -147 -62.5 -244t-171.5 -135v-176h-278v176q-110 38 -172 135t-62 244v270
q0 147 63 245t173 134z" />
    <glyph glyph-name="sterling" unicode="&#xa3;" horiz-adv-x="948" 
d="M899 1028v-39l-315 -10v61q0 111 -62 111q-61 0 -61 -109v-268h215v-192h-215v-121q0 -123 -53 -187h491v-274h-840v211q86 111 86 242v129h-104v192h104v254q0 207 94.5 318.5t282.5 111.5t282.5 -111.5t94.5 -318.5z" />
    <glyph glyph-name="currency" unicode="&#xa4;" horiz-adv-x="1040" 
d="M668 662q0 69 -41 114t-107 45q-65 0 -106 -44.5t-41 -114.5t41 -115t106 -45t106.5 45t41.5 115zM154 662q0 107 51 184l-144 147l142 142l149 -150q80 39 168 39t168 -39l150 150l141 -142l-143 -147q51 -77 51 -184q0 -108 -51 -185l143 -147l-141 -142l-150 150
q-80 -39 -168 -39t-168 39l-149 -150l-142 142l144 147q-51 77 -51 185z" />
    <glyph glyph-name="yen" unicode="&#xa5;" horiz-adv-x="970" 
d="M100 397v148h228v108h-228v148h166l-258 633h326l151 -461l152 461h326l-261 -633h168v-148h-227v-108h227v-148h-227v-397h-315v397h-228z" />
    <glyph glyph-name="brokenbar" unicode="&#xa6;" horiz-adv-x="540" 
d="M428 809h-315v795h315v-795zM113 604h315v-794h-315v794z" />
    <glyph glyph-name="section" unicode="&#xa7;" horiz-adv-x="815" 
d="M55 506v145q0 126 92 197q-77 80 -77 221v102q0 126 86 206.5t245 80.5q160 0 246 -80.5t86 -206.5v-59l-287 -8v53q0 51 -45 51t-45 -51v-70q0 -46 22.5 -67t90.5 -45l70 -25q112 -39 166.5 -111.5t54.5 -193.5v-145q0 -67 -22 -114t-72 -83q79 -79 79 -221v-102
q0 -126 -86 -206.5t-245 -80.5q-160 0 -246 80.5t-86 206.5v59l287 8v-53q0 -51 45 -51t45 51v69q0 46 -22.5 67.5t-90.5 45.5l-70 25q-112 39 -166.5 111.5t-54.5 193.5zM473 627q0 42 -18.5 62.5t-71.5 41.5q-41 -33 -41 -88v-119q0 -42 18.5 -62.5t71.5 -41.5
q41 33 41 88v119z" />
    <glyph glyph-name="dieresis" unicode="&#xa8;" horiz-adv-x="614" 
d="M252 1442v-232h-217v232h217zM580 1442v-232h-218v232h218z" />
    <glyph glyph-name="copyright" unicode="&#xa9;" horiz-adv-x="1159" 
d="M524 872v-311q0 -69 11.5 -100t46.5 -31t46 31.5t11 105.5l186 -6v-24q0 -129 -66.5 -197t-176.5 -68t-177 69t-67 198v358q0 129 67 196.5t177 67.5t176.5 -67.5t66.5 -196.5v-25h-186q0 69 -11.5 100.5t-45.5 31.5q-35 0 -46.5 -31.5t-11.5 -100.5zM580 -25
q-243 0 -387 157.5t-144 461.5v246q0 304 144 461t387 157t386.5 -157t143.5 -461v-246q0 -304 -143.5 -461.5t-386.5 -157.5zM580 1321q-383 0 -383 -498v-213q0 -497 383 -497t383 497v213q0 498 -383 498z" />
    <glyph glyph-name="ordfeminine" unicode="&#xaa;" horiz-adv-x="647" 
d="M291 1192l-213 6v23q0 106 67.5 167.5t182.5 61.5q120 0 189 -61.5t69 -167.5v-539h-221v51q-50 -69 -140 -69q-80 0 -131 58t-51 161v32q0 108 69.5 171t196.5 63h56v68q0 51 -37 51t-37 -51v-25zM319 848q26 0 46 14v127h-31q-32 0 -51 -18t-19 -49v-19q0 -25 14.5 -40
t40.5 -15z" />
    <glyph glyph-name="guillemotleft" unicode="&#xab;" horiz-adv-x="794" 
d="M43 711l342 280v-239l-143 -113l143 -113v-239l-342 280v144zM410 711l342 280v-239l-146 -113l146 -113v-239l-342 280v144z" />
    <glyph glyph-name="logicalnot" unicode="&#xac;" horiz-adv-x="888" 
d="M68 543v237h733v-510h-279v273h-454z" />
    <glyph glyph-name="uni00AD" unicode="&#xad;" horiz-adv-x="671" 
d="M57 543v237h557v-237h-557z" />
    <glyph glyph-name="registered" unicode="&#xae;" horiz-adv-x="1159" 
d="M580 -25q-243 0 -387 157.5t-144 461.5v246q0 304 144 461t387 157t386.5 -157t143.5 -461v-246q0 -304 -143.5 -461.5t-386.5 -157.5zM580 1321q-383 0 -383 -498v-213q0 -497 383 -497t383 497v213q0 498 -383 498zM682 283l-104 307h-48v-307h-186v860h252
q118 0 185 -69.5t67 -207.5q0 -169 -100 -237l120 -346h-186zM530 983v-233h54q75 0 75 116q0 117 -75 117h-54z" />
    <glyph glyph-name="macron" unicode="&#xaf;" horiz-adv-x="614" 
d="M45 1235v180h524v-180h-524z" />
    <glyph glyph-name="degree" unicode="&#xb0;" horiz-adv-x="573" 
d="M219 1231q0 -34 19.5 -54t48.5 -20t48 20t19 54t-19 54t-48 20t-48.5 -20t-19.5 -54zM43 1231q0 104 70 170.5t174 66.5t173.5 -66.5t69.5 -170.5q0 -105 -69.5 -171.5t-173.5 -66.5t-174 67t-70 171z" />
    <glyph glyph-name="plusminus" unicode="&#xb1;" horiz-adv-x="888" 
d="M57 584v237h248v252h279v-252h247v-237h-247v-252h-279v252h-248zM57 0v238h774v-238h-774z" />
    <glyph glyph-name="twosuperior" unicode="&#xb2;" 
d="M547 1171v-26q0 -125 -60 -217l-157 -248h221v-195h-508v144l248 405q33 51 33 111v35q0 32 -6.5 43.5t-24.5 11.5t-24.5 -11.5t-6.5 -43.5v-70l-223 4v57q0 136 64 207.5t192 71.5q252 0 252 -279z" />
    <glyph glyph-name="threesuperior" unicode="&#xb3;" 
d="M551 846v-92q0 -136 -68.5 -210.5t-193.5 -74.5t-193.5 74.5t-68.5 210.5v59h223v-80q0 -38 9 -53.5t30 -15.5t30 15.5t9 53.5v133q0 64 -49 64q-27 0 -56 -29l-108 105l157 231h-217v197h471v-168l-127 -179q72 -13 112 -79.5t40 -161.5z" />
    <glyph glyph-name="acute" unicode="&#xb4;" horiz-adv-x="614" 
d="M477 1495l-147 -330h-193l94 330h246z" />
    <glyph glyph-name="mu" unicode="&#xb5;" horiz-adv-x="901" 
d="M78 1024h287v-668q0 -131 81 -131q34 0 59.5 25.5t31.5 66.5v707h286v-1024h-286v76q-29 -101 -107 -101q-38 0 -65 23v-444h-287v1470z" />
    <glyph glyph-name="paragraph" unicode="&#xb6;" horiz-adv-x="864" 
d="M367 1434h411v-1702h-174v1548h-51v-1548h-174v815q-152 2 -240 118t-88 320v14q0 208 80.5 321.5t235.5 113.5z" />
    <glyph glyph-name="periodcentered" unicode="&#xb7;" horiz-adv-x="430" 
d="M61 506v317h308v-317h-308z" />
    <glyph glyph-name="cedilla" unicode="&#xb8;" horiz-adv-x="614" 
d="M100 -416l90 140q30 -27 66 -27q39 0 39 37q0 27 -19.5 44t-62.5 29l-12 21l51 172h180l-33 -106q113 -67 113 -179v-12q0 -89 -58 -139.5t-153 -50.5q-127 0 -201 71z" />
    <glyph glyph-name="onesuperior" unicode="&#xb9;" 
d="M543 485h-475v195h127v532l-127 -53v189l180 86h170v-754h125v-195z" />
    <glyph glyph-name="ordmasculine" unicode="&#xba;" horiz-adv-x="647" 
d="M373 911v291q0 66 -49 66q-24 0 -37 -18t-13 -48v-291q0 -30 13 -47.5t37 -17.5q49 0 49 65zM53 913v287q0 111 74.5 180.5t196.5 69.5t196 -69.5t74 -180.5v-287q0 -111 -74 -180t-196 -69t-196.5 69t-74.5 180z" />
    <glyph glyph-name="guillemotright" unicode="&#xbb;" horiz-adv-x="794" 
d="M410 991l342 -280v-144l-342 -280v239l143 113l-143 113v239zM43 991l342 -280v-144l-342 -280v239l145 113l-145 113v239z" />
    <glyph glyph-name="onequarter" unicode="&#xbc;" horiz-adv-x="1495" 
d="M1171 360h-96l96 218v-218zM1456 166v194h-74v588h-211l-270 -618v-164h270v-166h211v166h74zM1065 1434l-434 -1434h-201l434 1434h201zM543 485h-475v195h127v532l-127 -53v189l180 86h170v-754h125v-195z" />
    <glyph glyph-name="onehalf" unicode="&#xbd;" horiz-adv-x="1495" 
d="M1450 686v-27q0 -126 -59 -217l-158 -247h221v-195h-508v143l248 406q33 51 33 110v35q0 32 -7 44t-24 12t-24 -12t-7 -44v-69l-223 4v57q0 136 64 207.5t192 71.5q252 0 252 -279zM543 485h-475v195h127v532l-127 -53v189l180 86h170v-754h125v-195zM1065 1434
l-434 -1434h-201l434 1434h201z" />
    <glyph glyph-name="threequarters" unicode="&#xbe;" horiz-adv-x="1495" 
d="M551 846v-92q0 -136 -68.5 -210.5t-193.5 -74.5t-193.5 74.5t-68.5 210.5v59h223v-80q0 -38 9 -53.5t30 -15.5t30 15.5t9 53.5v133q0 64 -49 64q-27 0 -56 -29l-108 105l157 231h-217v197h471v-168l-127 -179q72 -13 112 -79.5t40 -161.5zM1171 360h-96l96 218v-218z
M1456 166v194h-74v588h-211l-270 -618v-164h270v-166h211v166h74zM1065 1434l-434 -1434h-201l434 1434h201z" />
    <glyph glyph-name="questiondown" unicode="&#xbf;" horiz-adv-x="835" 
d="M557 1026v-295h-287v295h287zM786 14v-51q0 -183 -94.5 -289t-269.5 -106q-176 0 -270.5 106t-94.5 289v51q0 207 146 353q41 41 54 78t13 102v65h287v-86q0 -127 -27.5 -197.5t-115.5 -156.5q-70 -67 -70 -154v-45q0 -108 78 -108t78 108v52z" />
    <glyph glyph-name="Agrave" unicode="&#xc0;" horiz-adv-x="1015" 
d="M328 0h-324l340 1434h328l340 -1434h-324l-43 219h-274zM590 494l-82 424l-84 -424h166zM420 1562l-148 330h246l94 -330h-192z" />
    <glyph glyph-name="Aacute" unicode="&#xc1;" horiz-adv-x="1015" 
d="M328 0h-324l340 1434h328l340 -1434h-324l-43 219h-274zM590 494l-82 424l-84 -424h166zM743 1892l-147 -329h-193l95 329h245z" />
    <glyph glyph-name="Acircumflex" unicode="&#xc2;" horiz-adv-x="1015" 
d="M328 0h-324l340 1434h328l340 -1434h-324l-43 219h-274zM590 494l-82 424l-84 -424h166zM604 1892l185 -330h-172l-109 154l-108 -154h-172l184 330h192z" />
    <glyph glyph-name="Atilde" unicode="&#xc3;" horiz-adv-x="1015" 
d="M4 0h324l43 219h274l43 -219h324l-340 1434h-328zM508 918l82 -424h-166zM489 1628q-41 43 -71 43q-38 0 -41 -90l-158 16q6 133 56 200t122 67q75 0 129 -54q41 -43 72 -43q38 0 41 91l158 -17q-6 -133 -56.5 -199.5t-122.5 -66.5q-76 0 -129 53z" />
    <glyph glyph-name="Adieresis" unicode="&#xc4;" horiz-adv-x="1015" 
d="M4 0h324l43 219h274l43 -219h324l-340 1434h-328zM508 918l82 -424h-166zM453 1839v-231h-217v231h217zM780 1839v-231h-217v231h217z" />
    <glyph glyph-name="Aring" unicode="&#xc5;" horiz-adv-x="1015" 
d="M328 0h-324l340 1434h328l340 -1434h-324l-43 219h-274zM590 494l-82 424l-84 -424h166zM455 1716q0 -28 14 -46t39 -18t39 18t14 46q0 27 -14 45t-39 18t-39 -18t-14 -45zM314 1716q0 89 57 137.5t137 48.5t137.5 -49t57.5 -137t-57.5 -137t-137.5 -49t-137 48.5
t-57 137.5z" />
    <glyph glyph-name="AE" unicode="&#xc6;" horiz-adv-x="1417" 
d="M621 0v219h-236l-57 -219h-348l432 1434h956v-275h-432v-287h371v-274h-371v-324h432v-274h-747zM459 494h162v598z" />
    <glyph glyph-name="Ccedilla" unicode="&#xc7;" horiz-adv-x="987" 
d="M285 -416l90 140q30 -27 65 -27q39 0 39 37q0 27 -19.5 44t-62.5 29l-12 21l45 154q-171 21 -267.5 140t-96.5 327v536q0 229 118 351t320 122t320 -122t118 -351v-57l-315 -10v51q0 115 -30.5 165t-92.5 50t-92.5 -50t-30.5 -165v-504q0 -115 30.5 -165t92.5 -50
t92.5 50t30.5 165v51l315 -10v-57q0 -195 -88 -314t-242 -149l-28 -92q112 -66 112 -179v-12q0 -89 -58 -139.5t-153 -50.5q-126 0 -200 71z" />
    <glyph glyph-name="Egrave" unicode="&#xc8;" horiz-adv-x="882" 
d="M86 0v1434h748v-275h-433v-287h371v-274h-371v-324h433v-274h-748zM416 1562l-148 330h246l94 -330h-192z" />
    <glyph glyph-name="Eacute" unicode="&#xc9;" horiz-adv-x="882" 
d="M86 0v1434h748v-275h-433v-287h371v-274h-371v-324h433v-274h-748zM653 1892l-147 -330h-193l94 330h246z" />
    <glyph glyph-name="Ecircumflex" unicode="&#xca;" horiz-adv-x="882" 
d="M86 0v1434h748v-275h-433v-287h371v-274h-371v-324h433v-274h-748zM563 1892l185 -329h-173l-108 153l-109 -153h-172l185 329h192z" />
    <glyph glyph-name="Edieresis" unicode="&#xcb;" horiz-adv-x="882" 
d="M86 0v1434h748v-275h-433v-287h371v-274h-371v-324h433v-274h-748zM420 1839v-232h-217v232h217zM748 1839v-232h-218v232h218z" />
    <glyph glyph-name="Igrave" unicode="&#xcc;" horiz-adv-x="503" 
d="M410 1434v-1434h-316v1434h316zM199 1563l-148 329h246l94 -329h-192z" />
    <glyph glyph-name="Iacute" unicode="&#xcd;" horiz-adv-x="503" 
d="M410 1434v-1434h-316v1434h316zM452 1892l-147 -330h-193l94 330h246z" />
    <glyph glyph-name="Icircumflex" unicode="&#xce;" horiz-adv-x="503" 
d="M410 1434v-1434h-316v1434h316zM348 1892l185 -330h-172l-109 154l-108 -154h-172l184 330h192z" />
    <glyph glyph-name="Idieresis" unicode="&#xcf;" horiz-adv-x="503" 
d="M410 1434v-1434h-316v1434h316zM197 1839v-231h-217v231h217zM524 1839v-231h-217v231h217z" />
    <glyph glyph-name="Eth" unicode="&#xd0;" horiz-adv-x="1017" 
d="M0 623v192h113v619h389q227 0 338.5 -115.5t111.5 -337.5v-528q0 -222 -111.5 -337.5t-338.5 -115.5h-389v623h-113zM637 485v463q0 125 -30 168t-97 43h-82v-344h117v-192h-117v-349h82q67 0 97 43t30 168z" />
    <glyph glyph-name="Ntilde" unicode="&#xd1;" horiz-adv-x="1034" 
d="M680 0l-287 760v-760h-307v1434h268l287 -760v760h307v-1434h-268zM498 1628q-41 43 -72 43q-38 0 -41 -90l-158 16q6 133 56.5 200t122.5 67q75 0 129 -54q41 -43 71 -43q38 0 41 91l158 -17q-6 -133 -56 -199.5t-122 -66.5q-76 0 -129 53z" />
    <glyph glyph-name="Ograve" unicode="&#xd2;" horiz-adv-x="1007" 
d="M627 465v504q0 115 -30.5 165t-92.5 50t-92.5 -50t-30.5 -165v-504q0 -115 30.5 -165t92.5 -50t92.5 50t30.5 165zM942 985v-536q0 -229 -118 -351.5t-320 -122.5t-320 122.5t-118 351.5v536q0 229 118 351t320 122t320 -122t118 -351zM447 1562l-148 330h246l94 -330
h-192z" />
    <glyph glyph-name="Oacute" unicode="&#xd3;" horiz-adv-x="1007" 
d="M627 465v504q0 115 -30.5 165t-92.5 50t-92.5 -50t-30.5 -165v-504q0 -115 30.5 -165t92.5 -50t92.5 50t30.5 165zM942 985v-536q0 -229 -118 -351.5t-320 -122.5t-320 122.5t-118 351.5v536q0 229 118 351t320 122t320 -122t118 -351zM708 1892l-147 -330h-193l94 330
h246z" />
    <glyph glyph-name="Ocircumflex" unicode="&#xd4;" horiz-adv-x="1007" 
d="M627 465v504q0 115 -30.5 165t-92.5 50t-92.5 -50t-30.5 -165v-504q0 -115 30.5 -165t92.5 -50t92.5 50t30.5 165zM942 985v-536q0 -229 -118 -351.5t-320 -122.5t-320 122.5t-118 351.5v536q0 229 118 351t320 122t320 -122t118 -351zM600 1892l185 -330h-172l-109 154
l-108 -154h-172l184 330h192z" />
    <glyph glyph-name="Otilde" unicode="&#xd5;" horiz-adv-x="1007" 
d="M627 465v504q0 115 -30.5 165t-92.5 50t-92.5 -50t-30.5 -165v-504q0 -115 30.5 -165t92.5 -50t92.5 50t30.5 165zM942 985v-536q0 -229 -118 -351.5t-320 -122.5t-320 122.5t-118 351.5v536q0 229 118 351t320 122t320 -122t118 -351zM486 1628q-41 43 -72 43
q-38 0 -41 -90l-158 16q6 133 56.5 199.5t122.5 66.5q76 0 129 -53q41 -43 71 -43q38 0 41 90l158 -16q-6 -133 -56 -199.5t-122 -66.5q-76 0 -129 53z" />
    <glyph glyph-name="Odieresis" unicode="&#xd6;" horiz-adv-x="1007" 
d="M627 969v-504q0 -115 -30.5 -165t-92.5 -50t-92.5 50t-30.5 165v504q0 115 30.5 165t92.5 50t92.5 -50t30.5 -165zM942 449v536q0 229 -118 351t-320 122t-320 -122t-118 -351v-536q0 -229 118 -351.5t320 -122.5t320 122.5t118 351.5zM449 1839v-231h-218v231h218z
M776 1839v-231h-217v231h217z" />
    <glyph glyph-name="multiply" unicode="&#xd7;" horiz-adv-x="888" 
d="M51 879l176 176l217 -217l218 217l176 -176l-217 -217l217 -218l-176 -176l-218 217l-217 -217l-176 176l217 218z" />
    <glyph glyph-name="Oslash" unicode="&#xd8;" horiz-adv-x="1007" 
d="M705 1419l30 80h113l-51 -139q145 -123 145 -375v-536q0 -229 -118 -351.5t-320 -122.5q-111 0 -203 39l-29 -80h-112l49 138q-143 127 -143 377v536q0 229 118 351t320 122q112 0 201 -39zM504 250q62 0 92.5 50t30.5 165v432l-219 -592q28 -55 96 -55zM504 1184
q-62 0 -92.5 -50t-30.5 -165v-432l217 591q-29 56 -94 56z" />
    <glyph glyph-name="Ugrave" unicode="&#xd9;" horiz-adv-x="1040" 
d="M653 1434h316v-975q0 -233 -120 -358.5t-329 -125.5t-328.5 125.5t-119.5 358.5v975h315v-959q0 -117 32.5 -171t100.5 -54t100.5 54t32.5 171v959zM447 1562l-148 330h246l94 -330h-192z" />
    <glyph glyph-name="Uacute" unicode="&#xda;" horiz-adv-x="1040" 
d="M653 1434h316v-975q0 -233 -120 -358.5t-329 -125.5t-328.5 125.5t-119.5 358.5v975h315v-959q0 -117 32.5 -171t100.5 -54t100.5 54t32.5 171v959zM741 1892l-147 -330h-193l94 330h246z" />
    <glyph glyph-name="Ucircumflex" unicode="&#xdb;" horiz-adv-x="1040" 
d="M653 1434h316v-975q0 -233 -120 -358.5t-329 -125.5t-328.5 125.5t-119.5 358.5v975h315v-959q0 -117 32.5 -171t100.5 -54t100.5 54t32.5 171v959zM616 1892l185 -330h-172l-109 154l-108 -154h-172l184 330h192z" />
    <glyph glyph-name="Udieresis" unicode="&#xdc;" horiz-adv-x="1040" 
d="M969 1434h-316v-959q0 -117 -32.5 -171t-100.5 -54t-100.5 54t-32.5 171v959h-315v-975q0 -233 119.5 -358.5t328.5 -125.5t329 125.5t120 358.5v975zM465 1839v-231h-217v231h217zM793 1839v-231h-218v231h218z" />
    <glyph glyph-name="Yacute" unicode="&#xdd;" horiz-adv-x="970" 
d="M485 973l152 461h326l-320 -781v-653h-315v653l-320 781h326zM715 1892l-147 -330h-193l94 330h246z" />
    <glyph glyph-name="Thorn" unicode="&#xde;" horiz-adv-x="966" 
d="M502 227h-101v-227h-315v1434h315v-236h101q64 0 122 -16t112 -52.5t93 -91.5t62.5 -138.5t23.5 -186.5q0 -128 -35 -225t-95 -152t-131 -82t-152 -27zM401 502h52q147 0 147 211t-147 211h-52v-422z" />
    <glyph glyph-name="germandbls" unicode="&#xdf;" horiz-adv-x="970" 
d="M82 0v1085q0 173 102.5 273t288.5 100t288.5 -100t102.5 -273v-55q0 -188 -145 -264q112 -32 170.5 -116.5t58.5 -215.5v-100q0 -173 -89.5 -266t-260.5 -93q-97 0 -172 35l55 232q34 -17 76 -17q76 0 76 119v66q0 81 -36 126t-120 58l-37 219q52 14 80.5 70.5
t28.5 122.5v61q0 125 -76 125t-76 -125v-1067h-315z" />
    <glyph glyph-name="agrave" unicode="&#xe0;" horiz-adv-x="849" 
d="M406 205q30 0 52.5 25t30.5 63v110h-79q-82 0 -82 -94v-24q0 -80 78 -80zM92 709v16q0 149 89 236.5t253 87.5q165 0 253.5 -87t88.5 -237v-725h-287v74q-54 -99 -184 -99q-111 0 -182.5 79.5t-71.5 219.5v33q0 150 90.5 232t251.5 82h96v88q0 47 -12.5 68.5t-42.5 21.5
t-42.5 -20.5t-12.5 -69.5v-11zM389 1155l-148 330h246l94 -330h-192z" />
    <glyph glyph-name="aacute" unicode="&#xe1;" horiz-adv-x="849" 
d="M406 205q30 0 52.5 25t30.5 63v110h-79q-82 0 -82 -94v-24q0 -80 78 -80zM92 709v16q0 149 89 236.5t253 87.5q165 0 253.5 -87t88.5 -237v-725h-287v74q-54 -99 -184 -99q-111 0 -182.5 79.5t-71.5 219.5v33q0 150 90.5 232t251.5 82h96v88q0 47 -12.5 68.5t-42.5 21.5
t-42.5 -20.5t-12.5 -69.5v-11zM641 1485l-147 -330h-193l94 330h246z" />
    <glyph glyph-name="acircumflex" unicode="&#xe2;" horiz-adv-x="849" 
d="M406 205q30 0 52.5 25t30.5 63v110h-79q-82 0 -82 -94v-24q0 -80 78 -80zM92 709v16q0 149 89 236.5t253 87.5q165 0 253.5 -87t88.5 -237v-725h-287v74q-54 -99 -184 -99q-111 0 -182.5 79.5t-71.5 219.5v33q0 150 90.5 232t251.5 82h96v88q0 47 -12.5 68.5t-42.5 21.5
t-42.5 -20.5t-12.5 -69.5v-11zM540 1485l185 -330h-172l-109 154l-108 -154h-172l184 330h192z" />
    <glyph glyph-name="atilde" unicode="&#xe3;" horiz-adv-x="849" 
d="M406 205q30 0 52.5 25t30.5 63v110h-79q-82 0 -82 -94v-24q0 -80 78 -80zM92 709v16q0 149 89 236.5t253 87.5q165 0 253.5 -87t88.5 -237v-725h-287v74q-54 -99 -184 -99q-111 0 -182.5 79.5t-71.5 219.5v33q0 150 90.5 232t251.5 82h96v88q0 47 -12.5 68.5t-42.5 21.5
t-42.5 -20.5t-12.5 -69.5v-11zM414 1221q-41 43 -72 43q-38 0 -41 -90l-158 16q6 133 56.5 199.5t122.5 66.5q76 0 129 -53q41 -43 71 -43q38 0 41 90l158 -16q-6 -133 -56 -200t-122 -67q-75 0 -129 54z" />
    <glyph glyph-name="adieresis" unicode="&#xe4;" horiz-adv-x="849" 
d="M406 205q30 0 52.5 25t30.5 63v110h-79q-82 0 -82 -94v-24q0 -80 78 -80zM92 709v16q0 149 89 236.5t253 87.5q165 0 253.5 -87t88.5 -237v-725h-287v74q-54 -99 -184 -99q-111 0 -182.5 79.5t-71.5 219.5v33q0 150 90.5 232t251.5 82h96v88q0 47 -12.5 68.5t-42.5 21.5
t-42.5 -20.5t-12.5 -69.5v-11zM383 1432v-232h-217v232h217zM711 1432v-232h-217v232h217z" />
    <glyph glyph-name="aring" unicode="&#xe5;" horiz-adv-x="849" 
d="M406 205q30 0 52.5 25t30.5 63v110h-79q-82 0 -82 -94v-24q0 -80 78 -80zM92 709v16q0 149 89 236.5t253 87.5q165 0 253.5 -87t88.5 -237v-725h-287v74q-54 -99 -184 -99q-111 0 -182.5 79.5t-71.5 219.5v33q0 150 90.5 232t251.5 82h96v88q0 47 -12.5 68.5t-42.5 21.5
t-42.5 -20.5t-12.5 -69.5v-11zM377 1319q0 -28 14 -46t39 -18t39 18t14 46q0 27 -14 45t-39 18t-39 -18t-14 -45zM236 1319q0 89 57 137.5t137 48.5t137.5 -49t57.5 -137t-57.5 -137t-137.5 -49t-137 48.5t-57 137.5z" />
    <glyph glyph-name="ae" unicode="&#xe6;" horiz-adv-x="1292" 
d="M346 -25q-140 0 -217.5 77.5t-77.5 221.5v33q0 150 90.5 232t251.5 82h96v88q0 47 -12.5 68.5t-42.5 21.5t-42.5 -20.5t-12.5 -69.5v-11l-287 11v16q0 148 88 236t240 88q69 0 129 -22t94 -62q84 84 229 84q162 0 262.5 -106t100.5 -296v-229h-459v-66q0 -63 22.5 -95
t63.5 -32q34 0 57.5 24.5t24.5 69.5l285 -10q-13 -156 -111.5 -245t-255.5 -89q-182 0 -266 115q-35 -54 -101.5 -84.5t-148.5 -30.5zM406 205q30 0 52.5 25t30.5 63v110h-79q-82 0 -82 -94v-24q0 -80 78 -80zM948 635v37q0 63 -22.5 95t-63.5 32q-83 0 -86 -115v-49h172z
" />
    <glyph glyph-name="ccedilla" unicode="&#xe7;" horiz-adv-x="845" 
d="M209 -416l90 140q30 -27 66 -27q38 0 38 37q0 27 -19 44t-62 29l-13 21l45 154q-137 22 -217 124.5t-80 270.5v270q0 191 102.5 296.5t270.5 105.5t270.5 -105.5t102.5 -296.5v-16l-287 -10v51q0 63 -22.5 95t-63.5 32t-63.5 -32t-22.5 -95v-320q0 -63 22.5 -95t63.5 -32
t63.5 32t22.5 95v51l287 -10v-16q0 -158 -71.5 -258.5t-194.5 -130.5l-29 -94q113 -67 113 -179v-12q0 -89 -58 -139.5t-153 -50.5q-127 0 -201 71z" />
    <glyph glyph-name="egrave" unicode="&#xe8;" horiz-adv-x="860" 
d="M512 319l285 -10q-13 -156 -111.5 -245t-255.5 -89q-168 0 -270.5 105.5t-102.5 296.5v270q0 191 102.5 296.5t270.5 105.5t270.5 -105.5t102.5 -296.5v-229h-459v-66q0 -63 22.5 -95t63.5 -32q34 0 57.5 24.5t24.5 69.5zM516 635v37q0 63 -22.5 95t-63.5 32t-63.5 -32
t-22.5 -95v-37h172zM353 1155l-148 330h246l94 -330h-192z" />
    <glyph glyph-name="eacute" unicode="&#xe9;" horiz-adv-x="860" 
d="M512 319l285 -10q-13 -156 -111.5 -245t-255.5 -89q-168 0 -270.5 105.5t-102.5 296.5v270q0 191 102.5 296.5t270.5 105.5t270.5 -105.5t102.5 -296.5v-229h-459v-66q0 -63 22.5 -95t63.5 -32q34 0 57.5 24.5t24.5 69.5zM516 635v37q0 63 -22.5 95t-63.5 32t-63.5 -32
t-22.5 -95v-37h172zM655 1485l-147 -330h-193l94 330h246z" />
    <glyph glyph-name="ecircumflex" unicode="&#xea;" horiz-adv-x="860" 
d="M797 309l-285 10q-1 -45 -24.5 -69.5t-57.5 -24.5q-41 0 -63.5 32t-22.5 95v66h459v229q0 191 -102.5 296.5t-270.5 105.5t-270.5 -105.5t-102.5 -296.5v-270q0 -191 102.5 -296.5t270.5 -105.5q157 0 255.5 89t111.5 245zM516 672v-37h-172v37q0 63 22.5 95t63.5 32
t63.5 -32t22.5 -95zM526 1485l185 -330h-172l-109 154l-108 -154h-172l184 330h192z" />
    <glyph glyph-name="edieresis" unicode="&#xeb;" horiz-adv-x="860" 
d="M512 319l285 -10q-13 -156 -111.5 -245t-255.5 -89q-168 0 -270.5 105.5t-102.5 296.5v270q0 191 102.5 296.5t270.5 105.5t270.5 -105.5t102.5 -296.5v-229h-459v-66q0 -63 22.5 -95t63.5 -32q34 0 57.5 24.5t24.5 69.5zM516 635v37q0 63 -22.5 95t-63.5 32t-63.5 -32
t-22.5 -95v-37h172zM375 1432v-232h-217v232h217zM703 1432v-232h-218v232h218z" />
    <glyph glyph-name="igrave" unicode="&#xec;" horiz-adv-x="450" 
d="M82 0v1024h287v-1024h-287zM135 1155l-148 330h246l94 -330h-192z" />
    <glyph glyph-name="iacute" unicode="&#xed;" horiz-adv-x="450" 
d="M82 0v1024h287v-1024h-287zM463 1485l-147 -330h-193l94 330h246z" />
    <glyph glyph-name="icircumflex" unicode="&#xee;" horiz-adv-x="450" 
d="M82 0v1024h287v-1024h-287zM321 1485l185 -330h-172l-109 154l-108 -154h-172l184 330h192z" />
    <glyph glyph-name="idieresis" unicode="&#xef;" horiz-adv-x="450" 
d="M82 0v1024h287v-1024h-287zM170 1432v-232h-217v232h217zM498 1432v-232h-217v232h217z" />
    <glyph glyph-name="eth" unicode="&#xf0;" horiz-adv-x="860" 
d="M803 664v-287q0 -191 -102.5 -296.5t-270.5 -105.5t-270.5 105.5t-102.5 296.5v270q0 182 93.5 286.5t250.5 113.5l-34 106l-170 -45l-27 135l154 41l-58 174h297l35 -102l156 43l26 -135l-139 -37l125 -361q37 -109 37 -202zM516 352v320q0 63 -22.5 95t-63.5 32
t-63.5 -32t-22.5 -95v-320q0 -63 22.5 -95t63.5 -32t63.5 32t22.5 95z" />
    <glyph glyph-name="ntilde" unicode="&#xf1;" horiz-adv-x="894" 
d="M537 0h286v702q0 165 -67 256t-197 91q-68 0 -118.5 -31t-75.5 -86v92h-287v-1024h287v707q7 43 31.5 67.5t58.5 24.5q82 0 82 -113v-686zM424 1221q-41 43 -72 43q-38 0 -41 -90l-157 16q6 133 56 199.5t122 66.5q76 0 129 -53q41 -43 71 -43q38 0 41 90l158 -16
q-6 -133 -56 -200t-122 -67q-75 0 -129 54z" />
    <glyph glyph-name="ograve" unicode="&#xf2;" horiz-adv-x="860" 
d="M803 647v-270q0 -191 -102.5 -296.5t-270.5 -105.5t-270.5 105.5t-102.5 296.5v270q0 191 102.5 296.5t270.5 105.5t270.5 -105.5t102.5 -296.5zM516 352v320q0 63 -22.5 95t-63.5 32t-63.5 -32t-22.5 -95v-320q0 -63 22.5 -95t63.5 -32t63.5 32t22.5 95zM353 1155
l-148 330h246l94 -330h-192z" />
    <glyph glyph-name="oacute" unicode="&#xf3;" horiz-adv-x="860" 
d="M803 647v-270q0 -191 -102.5 -296.5t-270.5 -105.5t-270.5 105.5t-102.5 296.5v270q0 191 102.5 296.5t270.5 105.5t270.5 -105.5t102.5 -296.5zM516 352v320q0 63 -22.5 95t-63.5 32t-63.5 -32t-22.5 -95v-320q0 -63 22.5 -95t63.5 -32t63.5 32t22.5 95zM655 1485
l-147 -330h-193l94 330h246z" />
    <glyph glyph-name="ocircumflex" unicode="&#xf4;" horiz-adv-x="860" 
d="M803 647v-270q0 -191 -102.5 -296.5t-270.5 -105.5t-270.5 105.5t-102.5 296.5v270q0 191 102.5 296.5t270.5 105.5t270.5 -105.5t102.5 -296.5zM516 352v320q0 63 -22.5 95t-63.5 32t-63.5 -32t-22.5 -95v-320q0 -63 22.5 -95t63.5 -32t63.5 32t22.5 95zM526 1485
l185 -330h-172l-109 154l-108 -154h-172l184 330h192z" />
    <glyph glyph-name="otilde" unicode="&#xf5;" horiz-adv-x="860" 
d="M803 647v-270q0 -191 -102.5 -296.5t-270.5 -105.5t-270.5 105.5t-102.5 296.5v270q0 191 102.5 296.5t270.5 105.5t270.5 -105.5t102.5 -296.5zM516 352v320q0 63 -22.5 95t-63.5 32t-63.5 -32t-22.5 -95v-320q0 -63 22.5 -95t63.5 -32t63.5 32t22.5 95zM412 1221
q-41 43 -72 43q-38 0 -41 -90l-158 16q6 133 56.5 199.5t122.5 66.5q76 0 129 -53q41 -43 71 -43q38 0 41 90l158 -16q-6 -133 -56 -199.5t-122 -66.5q-76 0 -129 53z" />
    <glyph glyph-name="odieresis" unicode="&#xf6;" horiz-adv-x="860" 
d="M803 647v-270q0 -191 -102.5 -296.5t-270.5 -105.5t-270.5 105.5t-102.5 296.5v270q0 191 102.5 296.5t270.5 105.5t270.5 -105.5t102.5 -296.5zM516 352v320q0 63 -22.5 95t-63.5 32t-63.5 -32t-22.5 -95v-320q0 -63 22.5 -95t63.5 -32t63.5 32t22.5 95zM375 1432v-232
h-217v232h217zM702 1432v-232h-217v232h217z" />
    <glyph glyph-name="divide" unicode="&#xf7;" horiz-adv-x="888" 
d="M57 543v237h774v-237h-774zM567 1110v-246h-245v246h245zM567 459v-246h-245v246h245z" />
    <glyph glyph-name="oslash" unicode="&#xf8;" horiz-adv-x="860" 
d="M160 -66l41 109q-144 106 -144 334v270q0 191 102.5 296.5t270.5 105.5q72 0 133 -21l27 74h112l-45 -121q146 -107 146 -334v-270q0 -191 -102.5 -296.5t-270.5 -105.5q-63 0 -135 21l-23 -62h-112zM516 352v244l-133 -358q19 -13 47 -13q41 0 63.5 32t22.5 95zM344 672
v-238l129 352q-20 13 -43 13q-41 0 -63.5 -32t-22.5 -95z" />
    <glyph glyph-name="ugrave" unicode="&#xf9;" horiz-adv-x="894" 
d="M72 1024h286v-686q0 -113 82 -113q34 0 58.5 24.5t31.5 67.5v707h287v-1024h-287v92q-25 -55 -75.5 -86t-118.5 -31q-130 0 -197 91t-67 256v702zM369 1155l-148 330h246l94 -330h-192z" />
    <glyph glyph-name="uacute" unicode="&#xfa;" horiz-adv-x="894" 
d="M72 1024h286v-686q0 -113 82 -113q34 0 58.5 24.5t31.5 67.5v707h287v-1024h-287v92q-25 -55 -75.5 -86t-118.5 -31q-130 0 -197 91t-67 256v702zM647 1485l-147 -330h-193l94 330h246z" />
    <glyph glyph-name="ucircumflex" unicode="&#xfb;" horiz-adv-x="894" 
d="M72 1024h286v-686q0 -113 82 -113q34 0 58.5 24.5t31.5 67.5v707h287v-1024h-287v92q-25 -55 -75.5 -86t-118.5 -31q-130 0 -197 91t-67 256v702zM540 1485l185 -330h-172l-109 154l-108 -154h-172l184 330h192z" />
    <glyph glyph-name="udieresis" unicode="&#xfc;" horiz-adv-x="905" 
d="M358 1024h-286v-702q0 -165 67 -256t197 -91q68 0 118.5 31t75.5 86v-92h287v1024h-287v-707q-7 -43 -31.5 -67.5t-58.5 -24.5q-82 0 -82 113v686zM389 1432v-232h-217v232h217zM717 1432v-232h-217v232h217z" />
    <glyph glyph-name="yacute" unicode="&#xfd;" horiz-adv-x="829" 
d="M297 1024l125 -532l110 532h293l-280 -1137q-44 -180 -122 -249.5t-230 -69.5h-121v250h100q37 0 60 25.5t36 80.5l25 99l-289 1001h293zM643 1485l-147 -330h-193l94 330h246z" />
    <glyph glyph-name="thorn" unicode="&#xfe;" horiz-adv-x="880" 
d="M365 729v-434q21 -70 86 -70q44 0 65 33t21 109v290q0 76 -21 109t-65 33q-65 0 -86 -70zM365 1458v-510q21 49 69 75t109 26q127 0 203.5 -89t76.5 -286v-324q0 -197 -76.5 -286t-203.5 -89q-61 0 -109 26t-69 75v-522h-287v1904h287z" />
    <glyph glyph-name="ydieresis" unicode="&#xff;" horiz-adv-x="829" 
d="M297 1024l125 -532l110 532h293l-280 -1137q-44 -180 -122 -249.5t-230 -69.5h-121v250h100q37 0 60 25.5t36 80.5l25 99l-289 1001h293zM363 1432v-232h-217v232h217zM691 1432v-232h-218v232h218z" />
    <glyph glyph-name="Amacron" unicode="&#x100;" horiz-adv-x="1015" 
d="M4 0h324l43 219h274l43 -219h324l-340 1434h-328zM508 918l82 -424h-166zM246 1634v181h524v-181h-524z" />
    <glyph glyph-name="amacron" unicode="&#x101;" horiz-adv-x="849" 
d="M406 205q30 0 52.5 25t30.5 63v110h-79q-82 0 -82 -94v-24q0 -80 78 -80zM92 709v16q0 149 89 236.5t253 87.5q165 0 253.5 -87t88.5 -237v-725h-287v74q-54 -99 -184 -99q-111 0 -182.5 79.5t-71.5 219.5v33q0 150 90.5 232t251.5 82h96v88q0 47 -12.5 68.5t-42.5 21.5
t-42.5 -20.5t-12.5 -69.5v-11zM188 1227v180h525v-180h-525z" />
    <glyph glyph-name="Abreve" unicode="&#x102;" horiz-adv-x="1015" 
d="M328 0h-324l340 1434h328l340 -1434h-324l-43 219h-274zM590 494l-82 424l-84 -424h166zM508 1729q45 0 64 33t24 106l184 -21q-24 -288 -272 -288t-272 288l184 21q5 -73 24 -106t64 -33z" />
    <glyph glyph-name="abreve" unicode="&#x103;" horiz-adv-x="849" 
d="M406 205q30 0 52.5 25t30.5 63v110h-79q-82 0 -82 -94v-24q0 -80 78 -80zM92 709v16q0 149 89 236.5t253 87.5q165 0 253.5 -87t88.5 -237v-725h-287v74q-54 -99 -184 -99q-111 0 -182.5 79.5t-71.5 219.5v33q0 150 90.5 232t251.5 82h96v88q0 47 -12.5 68.5t-42.5 21.5
t-42.5 -20.5t-12.5 -69.5v-11zM451 1325q45 0 64 33t24 106l184 -20q-13 -152 -85.5 -220.5t-186.5 -68.5q-115 0 -187.5 68.5t-85.5 220.5l184 20q5 -73 24.5 -106t64.5 -33z" />
    <glyph glyph-name="Aogonek" unicode="&#x104;" horiz-adv-x="1015" 
d="M1012 0h-131q-49 -41 -74 -86t-25 -84v-10q0 -25 11.5 -41.5t33.5 -16.5q31 0 56 25l121 -143q-39 -44 -97 -68.5t-119 -24.5q-101 0 -162 56.5t-61 148.5v17q0 62 32.5 123.5t90.5 103.5l-43 219h-274l-43 -219h-324l340 1434h328zM590 494l-82 424l-84 -424h166z" />
    <glyph glyph-name="aogonek" unicode="&#x105;" horiz-adv-x="849" 
d="M489 0v74q-54 -99 -184 -99q-111 0 -182.5 79.5t-71.5 219.5v33q0 150 90.5 232t251.5 82h96v88q0 47 -12.5 68.5t-42.5 21.5t-42.5 -20.5t-12.5 -69.5v-11l-287 11v16q0 149 89 236.5t253 87.5q165 0 253.5 -87t88.5 -237v-725h-94q-49 -41 -73.5 -86t-24.5 -84v-10
q0 -25 11.5 -41.5t33.5 -16.5q30 0 55 25l121 -143q-39 -44 -96.5 -68.5t-118.5 -24.5q-101 0 -162 56.5t-61 148.5v17q0 62 32 124t90 103zM406 205q30 0 52.5 25t30.5 63v110h-79q-82 0 -82 -94v-24q0 -80 78 -80z" />
    <glyph glyph-name="Cacute" unicode="&#x106;" horiz-adv-x="987" 
d="M504 250q62 0 92.5 50t30.5 165v51l315 -10v-57q0 -229 -118 -351.5t-320 -122.5t-320 122.5t-118 351.5v536q0 229 118 351t320 122t320 -122t118 -351v-57l-315 -10v51q0 115 -30.5 165t-92.5 50t-92.5 -50t-30.5 -165v-504q0 -115 30.5 -165t92.5 -50zM708 1892
l-147 -330h-193l94 330h246z" />
    <glyph glyph-name="cacute" unicode="&#x107;" horiz-adv-x="845" 
d="M430 225q41 0 63.5 32t22.5 95v51l287 -10v-16q0 -191 -102.5 -296.5t-270.5 -105.5t-270.5 105.5t-102.5 296.5v270q0 191 102.5 296.5t270.5 105.5t270.5 -105.5t102.5 -296.5v-16l-287 -10v51q0 63 -22.5 95t-63.5 32t-63.5 -32t-22.5 -95v-320q0 -63 22.5 -95
t63.5 -32zM645 1485l-147 -330h-193l94 330h246z" />
    <glyph glyph-name="Ccircumflex" unicode="&#x108;" horiz-adv-x="987" 
d="M504 250q62 0 92.5 50t30.5 165v51l315 -10v-57q0 -229 -118 -351.5t-320 -122.5t-320 122.5t-118 351.5v536q0 229 118 351t320 122t320 -122t118 -351v-57l-315 -10v51q0 115 -30.5 165t-92.5 50t-92.5 -50t-30.5 -165v-504q0 -115 30.5 -165t92.5 -50zM604 1892
l185 -330h-172l-109 154l-108 -154h-172l184 330h192z" />
    <glyph glyph-name="ccircumflex" unicode="&#x109;" horiz-adv-x="845" 
d="M430 225q41 0 63.5 32t22.5 95v51l287 -10v-16q0 -191 -102.5 -296.5t-270.5 -105.5t-270.5 105.5t-102.5 296.5v270q0 191 102.5 296.5t270.5 105.5t270.5 -105.5t102.5 -296.5v-16l-287 -10v51q0 63 -22.5 95t-63.5 32t-63.5 -32t-22.5 -95v-320q0 -63 22.5 -95
t63.5 -32zM522 1485l185 -330h-172l-109 154l-108 -154h-172l184 330h192z" />
    <glyph glyph-name="Cdotaccent" unicode="&#x10a;" horiz-adv-x="987" 
d="M504 250q-62 0 -92.5 50t-30.5 165v504q0 115 30.5 165t92.5 50t92.5 -50t30.5 -165v-51l315 10v57q0 229 -118 351t-320 122t-320 -122t-118 -351v-536q0 -229 118 -351.5t320 -122.5t320 122.5t118 351.5v57l-315 10v-51q0 -115 -30.5 -165t-92.5 -50zM614 1839v-231
h-217v231h217z" />
    <glyph glyph-name="cdotaccent" unicode="&#x10b;" horiz-adv-x="845" 
d="M430 225q-41 0 -63.5 32t-22.5 95v320q0 63 22.5 95t63.5 32t63.5 -32t22.5 -95v-51l287 10v16q0 191 -102.5 296.5t-270.5 105.5t-270.5 -105.5t-102.5 -296.5v-270q0 -191 102.5 -296.5t270.5 -105.5t270.5 105.5t102.5 296.5v16l-287 10v-51q0 -63 -22.5 -95
t-63.5 -32zM530 1432v-232h-217v232h217z" />
    <glyph glyph-name="Ccaron" unicode="&#x10c;" horiz-adv-x="987" 
d="M504 250q62 0 92.5 50t30.5 165v51l315 -10v-57q0 -229 -118 -351.5t-320 -122.5t-320 122.5t-118 351.5v536q0 229 118 351t320 122t320 -122t118 -351v-57l-315 -10v51q0 115 -30.5 165t-92.5 50t-92.5 -50t-30.5 -165v-504q0 -115 30.5 -165t92.5 -50zM776 1892
l-184 -329h-193l-184 329h172l109 -153l108 153h172z" />
    <glyph glyph-name="ccaron" unicode="&#x10d;" horiz-adv-x="845" 
d="M430 225q41 0 63.5 32t22.5 95v51l287 -10v-16q0 -191 -102.5 -296.5t-270.5 -105.5t-270.5 105.5t-102.5 296.5v270q0 191 102.5 296.5t270.5 105.5t270.5 -105.5t102.5 -296.5v-16l-287 -10v51q0 63 -22.5 95t-63.5 32t-63.5 -32t-22.5 -95v-320q0 -63 22.5 -95
t63.5 -32zM707 1485l-185 -330h-192l-185 330h172l109 -154l109 154h172z" />
    <glyph glyph-name="Dcaron" unicode="&#x10e;" horiz-adv-x="991" 
d="M610 485v463q0 125 -30 168t-97 43h-82v-885h82q67 0 97 43t30 168zM926 981v-528q0 -222 -112 -337.5t-339 -115.5h-389v1434h389q227 0 339 -115.5t112 -337.5zM746 1892l-185 -330h-192l-184 330h172l108 -154l109 154h172z" />
    <glyph glyph-name="dcaron" unicode="&#x10f;" horiz-adv-x="1175" 
d="M516 295v434q-21 70 -86 70q-44 0 -65 -33t-21 -109v-290q0 -76 21 -109t65 -33q65 0 86 70zM516 0v76q-21 -49 -69 -75t-109 -26q-128 0 -204.5 89t-76.5 286v324q0 197 76.5 286t204.5 89q61 0 109 -26t69 -75v510h287v-1458h-287zM891 1180v278h285v-260
q0 -120 -70.5 -197t-214.5 -77v129q66 7 95 38.5t32 88.5h-127z" />
    <glyph glyph-name="Dcroat" unicode="&#x110;" horiz-adv-x="1017" 
d="M0 623v192h113v619h389q227 0 338.5 -115.5t111.5 -337.5v-528q0 -222 -111.5 -337.5t-338.5 -115.5h-389v623h-113zM637 485v463q0 125 -30 168t-97 43h-82v-344h117v-192h-117v-349h82q67 0 97 43t30 168z" />
    <glyph glyph-name="dcroat" unicode="&#x111;" horiz-adv-x="897" 
d="M897 1348v-193h-94v-1155h-287v76q-21 -49 -69 -75t-109 -26q-128 0 -204.5 89t-76.5 286v324q0 197 76.5 286t204.5 89q61 0 109 -26t69 -75v207h-227v193h227v110h287v-110h94zM516 295v434q-21 70 -86 70q-44 0 -65 -33t-21 -109v-290q0 -76 21 -109t65 -33
q65 0 86 70z" />
    <glyph glyph-name="Emacron" unicode="&#x112;" horiz-adv-x="882" 
d="M86 0v1434h748v-275h-433v-287h371v-274h-371v-324h433v-274h-748zM203 1634v181h524v-181h-524z" />
    <glyph glyph-name="emacron" unicode="&#x113;" horiz-adv-x="860" 
d="M797 309l-285 10q-1 -45 -24.5 -69.5t-57.5 -24.5q-41 0 -63.5 32t-22.5 95v66h459v229q0 191 -102.5 296.5t-270.5 105.5t-270.5 -105.5t-102.5 -296.5v-270q0 -191 102.5 -296.5t270.5 -105.5q157 0 255.5 89t111.5 245zM516 672v-37h-172v37q0 63 22.5 95t63.5 32
t63.5 -32t22.5 -95zM168 1227v180h524v-180h-524z" />
    <glyph glyph-name="Ebreve" unicode="&#x114;" horiz-adv-x="882" 
d="M86 0v1434h748v-275h-433v-287h371v-274h-371v-324h433v-274h-748zM463 1729q45 0 64 33t24 106l184 -21q-24 -288 -272 -288q-115 0 -187.5 68t-85.5 220l185 21q5 -73 24 -106t64 -33z" />
    <glyph glyph-name="ebreve" unicode="&#x115;" horiz-adv-x="860" 
d="M512 319l285 -10q-13 -156 -111.5 -245t-255.5 -89q-168 0 -270.5 105.5t-102.5 296.5v270q0 191 102.5 296.5t270.5 105.5t270.5 -105.5t102.5 -296.5v-229h-459v-66q0 -63 22.5 -95t63.5 -32q34 0 57.5 24.5t24.5 69.5zM516 635v37q0 63 -22.5 95t-63.5 32t-63.5 -32
t-22.5 -95v-37h172zM444 1325q45 0 64 33t24 106l185 -20q-13 -152 -85.5 -220.5t-187.5 -68.5q-114 0 -186.5 68.5t-85.5 220.5l184 20q5 -73 24 -106t64 -33z" />
    <glyph glyph-name="Edotaccent" unicode="&#x116;" horiz-adv-x="882" 
d="M86 0v1434h748v-275h-433v-287h371v-274h-371v-324h433v-274h-748zM582 1839v-231h-217v231h217z" />
    <glyph glyph-name="edotaccent" unicode="&#x117;" horiz-adv-x="860" 
d="M797 309l-285 10q-1 -45 -24.5 -69.5t-57.5 -24.5q-41 0 -63.5 32t-22.5 95v66h459v229q0 191 -102.5 296.5t-270.5 105.5t-270.5 -105.5t-102.5 -296.5v-270q0 -191 102.5 -296.5t270.5 -105.5q157 0 255.5 89t111.5 245zM516 672v-37h-172v37q0 63 22.5 95t63.5 32
t63.5 -32t22.5 -95zM539 1432v-232h-217v232h217z" />
    <glyph glyph-name="Eogonek" unicode="&#x118;" horiz-adv-x="882" 
d="M86 0v1434h748v-275h-433v-287h371v-274h-371v-324h433v-274h-66q-49 -41 -73.5 -86t-24.5 -84v-10q0 -25 11.5 -41.5t33.5 -16.5q30 0 55 25l121 -143q-39 -44 -96.5 -68.5t-118.5 -24.5q-101 0 -162 56.5t-61 148.5v17q0 62 32 124t90 103h-489z" />
    <glyph glyph-name="eogonek" unicode="&#x119;" horiz-adv-x="860" 
d="M371 -20q-144 18 -229 121t-85 276v270q0 191 102.5 296.5t270.5 105.5t270.5 -105.5t102.5 -296.5v-229h-459v-66q0 -63 22.5 -95t63.5 -32q34 0 57.5 24.5t24.5 69.5l285 -10q-10 -113 -65 -191t-146 -114q-94 -82 -94 -174v-10q0 -25 11.5 -41.5t33.5 -16.5
q30 0 55 25l121 -143q-39 -44 -96.5 -68.5t-118.5 -24.5q-101 0 -162.5 56.5t-61.5 148.5v17q0 55 26.5 111t70.5 96zM516 635v37q0 63 -22.5 95t-63.5 32t-63.5 -32t-22.5 -95v-37h172z" />
    <glyph glyph-name="Ecaron" unicode="&#x11a;" horiz-adv-x="882" 
d="M86 0v1434h748v-275h-433v-287h371v-274h-371v-324h433v-274h-748zM748 1892l-185 -330h-192l-184 330h172l108 -154l109 154h172z" />
    <glyph glyph-name="ecaron" unicode="&#x11b;" horiz-adv-x="860" 
d="M512 319l285 -10q-13 -156 -111.5 -245t-255.5 -89q-168 0 -270.5 105.5t-102.5 296.5v270q0 191 102.5 296.5t270.5 105.5t270.5 -105.5t102.5 -296.5v-229h-459v-66q0 -63 22.5 -95t63.5 -32q34 0 57.5 24.5t24.5 69.5zM516 635v37q0 63 -22.5 95t-63.5 32t-63.5 -32
t-22.5 -95v-37h172zM711 1485l-185 -330h-192l-184 330h172l108 -154l109 154h172z" />
    <glyph glyph-name="Gcircumflex" unicode="&#x11c;" horiz-adv-x="995" 
d="M500 518v254h442v-323q0 -229 -118 -351.5t-320 -122.5t-320 122.5t-118 351.5v536q0 229 118 351t320 122t320 -122t118 -351v-57l-315 -10v51q0 115 -30.5 165t-92.5 50t-92.5 -50t-30.5 -165v-504q0 -115 30.5 -165t92.5 -50t92.5 50t30.5 165v53h-127zM600 1892
l184 -329h-172l-108 153l-109 -153h-172l185 329h192z" />
    <glyph glyph-name="gcircumflex" unicode="&#x11d;" horiz-adv-x="880" 
d="M516 -94v170q-21 -49 -69 -75t-109 -26q-128 0 -204.5 89t-76.5 286v324q0 197 76.5 286t204.5 89q61 0 109 -26t69 -75v76h287v-1139q0 -175 -102 -267.5t-271 -92.5q-166 0 -265 88t-108 254l287 12q8 -104 86 -104q86 0 86 131zM516 295v434q-21 70 -86 70
q-44 0 -65 -33t-21 -109v-290q0 -76 21 -109t65 -33q65 0 86 70zM547 1485l184 -330h-172l-108 154l-109 -154h-172l184 330h193z" />
    <glyph glyph-name="Gbreve" unicode="&#x11e;" horiz-adv-x="995" 
d="M500 518v254h442v-323q0 -229 -118 -351.5t-320 -122.5t-320 122.5t-118 351.5v536q0 229 118 351t320 122t320 -122t118 -351v-57l-315 -10v51q0 115 -30.5 165t-92.5 50t-92.5 -50t-30.5 -165v-504q0 -115 30.5 -165t92.5 -50t92.5 50t30.5 165v53h-127zM504 1728
q45 0 64 33.5t24 106.5l185 -21q-13 -152 -85.5 -220.5t-187.5 -68.5q-114 0 -186.5 68.5t-85.5 220.5l184 21q5 -73 24 -106.5t64 -33.5z" />
    <glyph glyph-name="gbreve" unicode="&#x11f;" horiz-adv-x="880" 
d="M516 -94v170q-21 -49 -69 -75t-109 -26q-128 0 -204.5 89t-76.5 286v324q0 197 76.5 286t204.5 89q61 0 109 -26t69 -75v76h287v-1139q0 -175 -102 -267.5t-271 -92.5q-166 0 -265 88t-108 254l287 12q8 -104 86 -104q86 0 86 131zM516 295v434q-21 70 -86 70
q-44 0 -65 -33t-21 -109v-290q0 -76 21 -109t65 -33q65 0 86 70zM450 1325q45 0 64 33.5t24 106.5l185 -21q-13 -152 -85.5 -220.5t-187.5 -68.5q-114 0 -186.5 68.5t-85.5 220.5l184 21q5 -73 24 -106.5t64 -33.5z" />
    <glyph glyph-name="Gdotaccent" unicode="&#x120;" horiz-adv-x="995" 
d="M500 518v254h442v-323q0 -229 -118 -351.5t-320 -122.5t-320 122.5t-118 351.5v536q0 229 118 351t320 122t320 -122t118 -351v-57l-315 -10v51q0 115 -30.5 165t-92.5 50t-92.5 -50t-30.5 -165v-504q0 -115 30.5 -165t92.5 -50t92.5 50t30.5 165v53h-127zM612 1839v-231
h-217v231h217z" />
    <glyph glyph-name="gdotaccent" unicode="&#x121;" horiz-adv-x="880" 
d="M516 -94v170q-21 -49 -69 -75t-109 -26q-128 0 -204.5 89t-76.5 286v324q0 197 76.5 286t204.5 89q61 0 109 -26t69 -75v76h287v-1139q0 -175 -102 -267.5t-271 -92.5q-166 0 -265 88t-108 254l287 12q8 -104 86 -104q86 0 86 131zM516 295v434q-21 70 -86 70
q-44 0 -65 -33t-21 -109v-290q0 -76 21 -109t65 -33q65 0 86 70zM559 1432v-232h-217v232h217z" />
    <glyph glyph-name="Gcommaaccent" unicode="&#x122;" horiz-adv-x="995" 
d="M500 518v254h442v-323q0 -229 -118 -351.5t-320 -122.5t-320 122.5t-118 351.5v536q0 229 118 351t320 122t320 -122t118 -351v-57l-315 -10v51q0 115 -30.5 165t-92.5 50t-92.5 -50t-30.5 -165v-504q0 -115 30.5 -165t92.5 -50t92.5 50t30.5 165v53h-127zM520 -430
l127 330h-233l-72 -330h178z" />
    <glyph glyph-name="gcommaaccent" unicode="&#x123;" horiz-adv-x="880" 
d="M516 -94v170q-21 -49 -69 -75t-109 -26q-128 0 -204.5 89t-76.5 286v324q0 197 76.5 286t204.5 89q61 0 109 -26t69 -75v76h287v-1139q0 -175 -102 -267.5t-271 -92.5q-166 0 -265 88t-108 254l287 12q8 -104 86 -104q86 0 86 131zM516 295v434q-21 70 -86 70
q-44 0 -65 -33t-21 -109v-290q0 -76 21 -109t65 -33q65 0 86 70zM340 1128l127 330h178l-72 -330h-233z" />
    <glyph glyph-name="Hcircumflex" unicode="&#x124;" horiz-adv-x="1011" 
d="M610 0v598h-209v-598h-315v1434h315v-562h209v562h316v-1434h-316zM602 1892l185 -330h-172l-109 154l-108 -154h-172l184 330h192z" />
    <glyph glyph-name="hcircumflex" unicode="&#x125;" horiz-adv-x="894" 
d="M823 0h-286v686q0 113 -82 113q-34 0 -58.5 -24.5t-31.5 -67.5v-707h-287v1458h287v-526q25 55 75.5 86t118.5 31q130 0 197 -91t67 -256v-702zM319 1892l185 -330h-172l-109 154l-108 -154h-172l184 330h192z" />
    <glyph glyph-name="Hbar" unicode="&#x126;" horiz-adv-x="1048" 
d="M10 1049v192h94v193h316v-193h209v193h315v-193h94v-192h-94v-1049h-315v598h-209v-598h-316v1049h-94zM420 872h209v177h-209v-177z" />
    <glyph glyph-name="hbar" unicode="&#x127;" horiz-adv-x="894" 
d="M-16 1155v193h94v110h287v-110h227v-193h-227v-223q25 55 75.5 86t118.5 31q130 0 197 -91t67 -256v-702h-286v686q0 113 -82 113q-34 0 -58.5 -24.5t-31.5 -67.5v-707h-287v1155h-94z" />
    <glyph glyph-name="Itilde" unicode="&#x128;" horiz-adv-x="503" 
d="M410 1434v-1434h-316v1434h316zM233 1628q-41 43 -71 43q-38 0 -41 -90l-158 16q6 133 56 200t122 67q75 0 129 -54q41 -43 72 -43q38 0 41 91l158 -17q-6 -133 -56.5 -199.5t-122.5 -66.5q-76 0 -129 53z" />
    <glyph glyph-name="itilde" unicode="&#x129;" horiz-adv-x="450" 
d="M82 0v1024h287v-1024h-287zM207 1221q-41 43 -72 43q-38 0 -41 -90l-158 16q6 133 56.5 199.5t122.5 66.5q76 0 129 -53q41 -43 71 -43q38 0 41 90l158 -16q-6 -133 -56 -199.5t-122 -66.5q-76 0 -129 53z" />
    <glyph glyph-name="Imacron" unicode="&#x12a;" horiz-adv-x="503" 
d="M410 1434v-1434h-316v1434h316zM-10 1634v180h524v-180h-524z" />
    <glyph glyph-name="imacron" unicode="&#x12b;" horiz-adv-x="450" 
d="M82 0v1024h287v-1024h-287zM-37 1227v180h524v-180h-524z" />
    <glyph glyph-name="Ibreve" unicode="&#x12c;" horiz-adv-x="503" 
d="M410 1434v-1434h-316v1434h316zM252 1729q45 0 64 33t24 106l184 -21q-24 -288 -272 -288t-272 288l184 21q5 -73 24 -106t64 -33z" />
    <glyph glyph-name="ibreve" unicode="&#x12d;" horiz-adv-x="450" 
d="M82 0v1024h287v-1024h-287zM225 1325q45 0 64 33t24 106l185 -20q-13 -152 -85.5 -220.5t-187.5 -68.5q-114 0 -186.5 68.5t-85.5 220.5l184 20q5 -73 24 -106t64 -33z" />
    <glyph glyph-name="Iogonek" unicode="&#x12e;" horiz-adv-x="503" 
d="M217 0h-123v1434h316v-1434q-49 -41 -74 -86t-25 -84v-10q0 -25 11.5 -41.5t33.5 -16.5q31 0 56 25l120 -143q-39 -44 -96.5 -68.5t-118.5 -24.5q-101 0 -162 56.5t-61 148.5v17q0 62 32.5 123.5t90.5 103.5z" />
    <glyph glyph-name="iogonek" unicode="&#x12f;" horiz-adv-x="450" 
d="M82 0v1024h287v-1024q-49 -41 -74 -86t-25 -84v-10q0 -25 11.5 -41.5t33.5 -16.5q31 0 56 25l121 -143q-39 -44 -97 -68.5t-119 -24.5q-101 0 -162 56.5t-61 148.5v17q0 62 32.5 123.5t90.5 103.5h-94zM82 1163v295h287v-295h-287z" />
    <glyph glyph-name="Idotaccent" unicode="&#x130;" horiz-adv-x="503" 
d="M410 1434v-1434h-316v1434h316zM361 1839v-232h-217v232h217z" />
    <glyph glyph-name="dotlessi" unicode="&#x131;" horiz-adv-x="450" 
d="M82 0v1024h287v-1024h-287z" />
    <glyph glyph-name="IJ" unicode="&#x132;" horiz-adv-x="1425" 
d="M410 1434v-1434h-316v1434h316zM836 467v-55q0 -162 98 -162t98 162v1022h316v-1031q0 -199 -109 -313.5t-305 -114.5t-305 114.5t-109 313.5v54z" />
    <glyph glyph-name="ij" unicode="&#x133;" horiz-adv-x="901" 
d="M82 0v1024h287v-1024h-287zM82 1163v295h287v-295h-287zM532 1163v295h287v-295h-287zM532 -59v1083h287v-1087q0 -199 -84.5 -285t-259.5 -86h-106v250h69q56 0 75 27.5t19 97.5z" />
    <glyph glyph-name="Jcircumflex" unicode="&#x134;" horiz-adv-x="921" 
d="M332 467v-55q0 -162 98 -162t98 162v1022h316v-1031q0 -199 -109 -313.5t-305 -114.5t-305 114.5t-109 313.5v54zM778 1892l185 -330h-172l-109 154l-108 -154h-172l184 330h192z" />
    <glyph glyph-name="jcircumflex" unicode="&#x135;" horiz-adv-x="450" 
d="M82 -59v1083h287v-1087q0 -199 -84.5 -285t-259.5 -86h-107v250h70q56 0 75 27.5t19 97.5zM326 1485l184 -330h-172l-109 154l-108 -154h-172l184 330h193z" />
    <glyph glyph-name="Kcommaaccent" unicode="&#x136;" horiz-adv-x="1005" 
d="M911 1262q0 -147 -41 -266.5t-139 -223.5l275 -772h-330l-184 555l-91 -82v-473h-315v1434h315v-578l70 68q71 69 98 143t27 197v170h315v-172zM530 -430l127 330h-233l-72 -330h178z" />
    <glyph glyph-name="kcommaaccent" unicode="&#x137;" horiz-adv-x="839" 
d="M772 971q0 -144 -28 -231.5t-115 -170.5l211 -569h-293l-127 377l-55 -49v-328h-287v1458h287v-784l41 41q46 46 62.5 93.5t16.5 135.5v80h287v-53zM457 -430l127 330h-234l-71 -330h178z" />
    <glyph glyph-name="kgreenlandic" unicode="&#x138;" horiz-adv-x="839" 
d="M772 971q0 -144 -28 -231.5t-115 -170.5l211 -569h-293l-127 377l-55 -49v-328h-287v1024h287v-350l41 41q46 46 62.5 93.5t16.5 135.5v80h287v-53z" />
    <glyph glyph-name="Lacute" unicode="&#x139;" horiz-adv-x="856" 
d="M86 0v1434h315v-1160h447v-274h-762zM475 1892l-147 -330h-193l94 330h246z" />
    <glyph glyph-name="lacute" unicode="&#x13a;" horiz-adv-x="520" 
d="M451 250h63v-250h-143q-155 0 -223 80t-68 258v1120h287v-1102q0 -63 18 -84.5t66 -21.5zM473 1892l-147 -330h-193l94 330h246z" />
    <glyph glyph-name="Lcommaaccent" unicode="&#x13b;" horiz-adv-x="856" 
d="M86 0v1434h315v-1160h447v-274h-762zM504 -430l127 330h-234l-71 -330h178z" />
    <glyph glyph-name="lcommaaccent" unicode="&#x13c;" horiz-adv-x="520" 
d="M451 250h63v-250h-143q-155 0 -223 80t-68 258v1120h287v-1102q0 -63 18 -84.5t66 -21.5zM455 -100l-127 -330h-178l71 330h234z" />
    <glyph glyph-name="Lcaron" unicode="&#x13d;" horiz-adv-x="856" 
d="M86 0v1434h315v-1160h447v-274h-762zM477 1180v278h285v-260q0 -120 -70.5 -197t-214.5 -77v129q66 7 95 38.5t32 88.5h-127z" />
    <glyph glyph-name="lcaron" unicode="&#x13e;" horiz-adv-x="739" 
d="M451 250h63v-250h-143q-155 0 -223 80t-68 258v1120h287v-1102q0 -63 18 -84.5t66 -21.5zM455 1180v278h284v-260q0 -57 -16 -105t-49 -86.5t-89 -60.5t-130 -22v129q66 7 95 38.5t32 88.5h-127z" />
    <glyph glyph-name="Ldot" unicode="&#x13f;" horiz-adv-x="856" 
d="M86 0v1434h315v-1160h447v-274h-762zM770 889v-232h-217v232h217z" />
    <glyph glyph-name="ldot" unicode="&#x140;" horiz-adv-x="712" 
d="M451 250h63v-250h-143q-155 0 -223 80t-68 258v1120h287v-1102q0 -63 18 -84.5t66 -21.5zM692 889v-232h-217v232h217z" />
    <glyph glyph-name="Lslash" unicode="&#x141;" horiz-adv-x="856" 
d="M649 967v-228l-248 -129v-336h447v-274h-762v446l-143 -73v227l143 74v760h315v-596z" />
    <glyph glyph-name="lslash" unicode="&#x142;" 
d="M545 961v-228l-125 -67v-310q0 -63 18 -84.5t66 -21.5h63v-250h-143q-155 0 -223 80t-68 258v172l-106 -57v227l106 57v721h287v-565z" />
    <glyph glyph-name="Nacute" unicode="&#x143;" horiz-adv-x="1034" 
d="M680 0l-287 760v-760h-307v1434h268l287 -760v760h307v-1434h-268zM737 1892l-147 -330h-193l94 330h246z" />
    <glyph glyph-name="nacute" unicode="&#x144;" horiz-adv-x="894" 
d="M823 0h-286v686q0 113 -82 113q-34 0 -58.5 -24.5t-31.5 -67.5v-707h-287v1024h287v-92q25 55 75.5 86t118.5 31q130 0 197 -91t67 -256v-702zM680 1485l-147 -330h-193l94 330h246z" />
    <glyph glyph-name="Ncommaaccent" unicode="&#x145;" horiz-adv-x="1034" 
d="M680 0l-287 760v-760h-307v1434h268l287 -760v760h307v-1434h-268zM561 -430l127 330h-233l-72 -330h178z" />
    <glyph glyph-name="ncommaaccent" unicode="&#x146;" horiz-adv-x="894" 
d="M823 0h-286v686q0 113 -82 113q-34 0 -58.5 -24.5t-31.5 -67.5v-707h-287v1024h287v-92q25 55 75.5 86t118.5 31q130 0 197 -91t67 -256v-702zM588 -100l-127 -330h-178l71 330h234z" />
    <glyph glyph-name="Ncaron" unicode="&#x147;" horiz-adv-x="1034" 
d="M680 0l-287 760v-760h-307v1434h268l287 -760v760h307v-1434h-268zM797 1892l-185 -329h-192l-184 329h172l108 -153l109 153h172z" />
    <glyph glyph-name="ncaron" unicode="&#x148;" horiz-adv-x="894" 
d="M823 0h-286v686q0 113 -82 113q-34 0 -58.5 -24.5t-31.5 -67.5v-707h-287v1024h287v-92q25 55 75.5 86t118.5 31q130 0 197 -91t67 -256v-702zM727 1485l-184 -330h-193l-184 330h172l108 -154l109 154h172z" />
    <glyph glyph-name="napostrophe" unicode="&#x149;" horiz-adv-x="1087" 
d="M1016 0h-287v686q0 113 -82 113q-34 0 -58.5 -24.5t-31.5 -67.5v-707h-287v1024h287v-92q25 55 76 86t119 31q130 0 197 -91t67 -256v-702zM0 1180v278h285v-260q0 -120 -70.5 -197t-214.5 -77v129q66 7 95 38.5t32 88.5h-127z" />
    <glyph glyph-name="Eng" unicode="&#x14a;" horiz-adv-x="1034" 
d="M948 1434v-1524q0 -183 -79.5 -264.5t-245.5 -81.5h-144v274h80q41 0 57.5 19t16.5 59v209l-240 635v-760h-307v1434h268l287 -760v760h307z" />
    <glyph glyph-name="eng" unicode="&#x14b;" horiz-adv-x="894" 
d="M537 -59v745q0 113 -82 113q-34 0 -58.5 -24.5t-31.5 -67.5v-707h-287v1024h287v-92q25 55 75.5 86t118.5 31q130 0 197 -91t67 -256v-765q0 -199 -84.5 -285t-259.5 -86h-106v250h69q57 0 76 27.5t19 97.5z" />
    <glyph glyph-name="Omacron" unicode="&#x14c;" horiz-adv-x="1007" 
d="M627 465v504q0 115 -30.5 165t-92.5 50t-92.5 -50t-30.5 -165v-504q0 -115 30.5 -165t92.5 -50t92.5 50t30.5 165zM942 985v-536q0 -229 -118 -351.5t-320 -122.5t-320 122.5t-118 351.5v536q0 229 118 351t320 122t320 -122t118 -351zM242 1634v180h524v-180h-524z" />
    <glyph glyph-name="omacron" unicode="&#x14d;" horiz-adv-x="860" 
d="M803 647v-270q0 -191 -102.5 -296.5t-270.5 -105.5t-270.5 105.5t-102.5 296.5v270q0 191 102.5 296.5t270.5 105.5t270.5 -105.5t102.5 -296.5zM516 352v320q0 63 -22.5 95t-63.5 32t-63.5 -32t-22.5 -95v-320q0 -63 22.5 -95t63.5 -32t63.5 32t22.5 95zM168 1227v180
h524v-180h-524z" />
    <glyph glyph-name="Obreve" unicode="&#x14e;" horiz-adv-x="1007" 
d="M627 465v504q0 115 -30.5 165t-92.5 50t-92.5 -50t-30.5 -165v-504q0 -115 30.5 -165t92.5 -50t92.5 50t30.5 165zM942 985v-536q0 -229 -118 -351.5t-320 -122.5t-320 122.5t-118 351.5v536q0 229 118 351t320 122t320 -122t118 -351zM504 1729q45 0 64 33t24 106
l184 -21q-24 -288 -272 -288q-115 0 -187.5 68t-85.5 220l185 21q5 -73 24 -106t64 -33z" />
    <glyph glyph-name="obreve" unicode="&#x14f;" horiz-adv-x="860" 
d="M803 647v-270q0 -191 -102.5 -296.5t-270.5 -105.5t-270.5 105.5t-102.5 296.5v270q0 191 102.5 296.5t270.5 105.5t270.5 -105.5t102.5 -296.5zM516 352v320q0 63 -22.5 95t-63.5 32t-63.5 -32t-22.5 -95v-320q0 -63 22.5 -95t63.5 -32t63.5 32t22.5 95zM430 1325
q45 0 64 33t24 106l184 -20q-13 -152 -85.5 -220.5t-186.5 -68.5t-186.5 68.5t-85.5 220.5l184 20q5 -73 24 -106t64 -33z" />
    <glyph glyph-name="Ohungarumlaut" unicode="&#x150;" horiz-adv-x="1007" 
d="M627 465v504q0 115 -30.5 165t-92.5 50t-92.5 -50t-30.5 -165v-504q0 -115 30.5 -165t92.5 -50t92.5 50t30.5 165zM942 985v-536q0 -229 -118 -351.5t-320 -122.5t-320 122.5t-118 351.5v536q0 229 118 351t320 122t320 -122t118 -351zM582 1892l-148 -329h-174l94 329
h228zM883 1892l-162 -329h-182l116 329h228z" />
    <glyph glyph-name="ohungarumlaut" unicode="&#x151;" horiz-adv-x="860" 
d="M803 647v-270q0 -191 -102.5 -296.5t-270.5 -105.5t-270.5 105.5t-102.5 296.5v270q0 191 102.5 296.5t270.5 105.5t270.5 -105.5t102.5 -296.5zM516 352v320q0 63 -22.5 95t-63.5 32t-63.5 -32t-22.5 -95v-320q0 -63 22.5 -95t63.5 -32t63.5 32t22.5 95zM496 1485
l-148 -330h-174l94 330h228zM797 1485l-162 -330h-182l116 330h228z" />
    <glyph glyph-name="OE" unicode="&#x152;" horiz-adv-x="1427" 
d="M66 453v528q0 222 111.5 337.5t338.5 115.5h862v-275h-432v-287h371v-274h-371v-324h432v-274h-862q-227 0 -338.5 115.5t-111.5 337.5zM381 948v-463q0 -125 30 -168t97 -43h123v885h-123q-67 0 -97 -43t-30 -168z" />
    <glyph glyph-name="oe" unicode="&#x153;" horiz-adv-x="1318" 
d="M516 352v320q0 63 -22.5 95t-63.5 32t-63.5 -32t-22.5 -95v-320q0 -63 22.5 -95t63.5 -32t63.5 32t22.5 95zM975 635v37q0 63 -22.5 95t-63.5 32t-63.5 -32t-22.5 -95v-37h172zM659 70q-98 -95 -239 -95q-167 0 -265 105t-98 297v270q0 192 98 297t265 105q141 0 239 -95
q98 95 240 95q167 0 265 -105t98 -297v-229h-459v-66q0 -63 22.5 -95t63.5 -32q34 0 57.5 24.5t24.5 69.5l284 -10q-13 -156 -111 -245t-255 -89q-142 0 -230 95z" />
    <glyph glyph-name="Racute" unicode="&#x154;" horiz-adv-x="974" 
d="M631 0l-154 504h-76v-504h-315v1434h416q81 0 151.5 -24.5t131 -76.5t95.5 -145.5t35 -218.5q0 -272 -163 -391l209 -578h-330zM401 778h52q77 0 112 47.5t35 143.5t-35 143t-112 47h-52v-381zM651 1892l-147 -330h-193l94 330h246z" />
    <glyph glyph-name="racute" unicode="&#x155;" horiz-adv-x="647" 
d="M78 0v1024h287v-129q26 72 79 110.5t125 38.5q45 0 72 -12v-272q-35 14 -86 14q-69 0 -118 -34t-72 -97v-643h-287zM551 1485l-147 -330h-193l94 330h246z" />
    <glyph glyph-name="Rcommaaccent" unicode="&#x156;" horiz-adv-x="974" 
d="M631 0l-154 504h-76v-504h-315v1434h416q81 0 151.5 -24.5t131 -76.5t95.5 -145.5t35 -218.5q0 -272 -163 -391l209 -578h-330zM401 778h52q77 0 112 47.5t35 143.5t-35 143t-112 47h-52v-381zM514 -430l127 330h-233l-72 -330h178z" />
    <glyph glyph-name="rcommaaccent" unicode="&#x157;" horiz-adv-x="647" 
d="M92 0v1024h287v-129q26 72 79.5 110.5t125.5 38.5q44 0 71 -12v-272q-35 14 -86 14q-69 0 -118 -34t-72 -97v-643h-287zM252 -430l127 330h-234l-71 -330h178z" />
    <glyph glyph-name="Rcaron" unicode="&#x158;" horiz-adv-x="974" 
d="M631 0l-154 504h-76v-504h-315v1434h416q81 0 151.5 -24.5t131 -76.5t95.5 -145.5t35 -218.5q0 -272 -163 -391l209 -578h-330zM401 778h52q77 0 112 47.5t35 143.5t-35 143t-112 47h-52v-381zM727 1892l-184 -329h-193l-184 329h172l108 -153l109 153h172z" />
    <glyph glyph-name="rcaron" unicode="&#x159;" horiz-adv-x="647" 
d="M78 0v1024h287v-129q26 72 79 110.5t125 38.5q45 0 72 -12v-272q-35 14 -86 14q-69 0 -118 -34t-72 -97v-643h-287zM635 1485l-184 -330h-193l-184 330h172l108 -154l109 154h172z" />
    <glyph glyph-name="Sacute" unicode="&#x15a;" horiz-adv-x="948" 
d="M582 389v33q0 55 -26.5 88.5t-90.5 56.5l-86 31q-170 60 -244 153t-74 250v46q0 199 99 305t305 106q403 0 403 -411v-39l-315 -11v50q0 76 -21.5 106.5t-66.5 30.5t-66.5 -30.5t-21.5 -106.5v-25q0 -55 26.5 -88.5t90.5 -56.5l86 -31q170 -60 243.5 -153.5t73.5 -250.5
v-41q0 -209 -108.5 -317.5t-309.5 -108.5t-309.5 108.5t-108.5 317.5v25l316 10v-47q0 -139 102 -139q103 0 103 139zM661 1892l-147 -330h-193l94 330h246z" />
    <glyph glyph-name="sacute" unicode="&#x15b;" horiz-adv-x="798" 
d="M403 225q28 0 43 18t15 50q0 36 -20 57t-76 39l-70 23q-128 41 -183 115t-55 204v31q0 126 86 206.5t246 80.5t246 -80.5t86 -206.5v-39l-287 -8v33q0 51 -45 51t-45 -51q0 -43 19 -62.5t77 -38.5l70 -22q127 -41 182.5 -113t55.5 -188v-43q0 -139 -94.5 -222.5
t-245.5 -83.5q-161 0 -255 78.5t-94 218.5v47l287 9v-35q0 -68 57 -68zM569 1485l-147 -330h-193l95 330h245z" />
    <glyph glyph-name="Scircumflex" unicode="&#x15c;" horiz-adv-x="948" 
d="M582 389v33q0 55 -26.5 88.5t-90.5 56.5l-86 31q-170 60 -244 153t-74 250v46q0 199 99 305t305 106q403 0 403 -411v-39l-315 -11v50q0 76 -21.5 106.5t-66.5 30.5t-66.5 -30.5t-21.5 -106.5v-25q0 -55 26.5 -88.5t90.5 -56.5l86 -31q170 -60 243.5 -153.5t73.5 -250.5
v-41q0 -209 -108.5 -317.5t-309.5 -108.5t-309.5 108.5t-108.5 317.5v25l316 10v-47q0 -139 102 -139q103 0 103 139zM548 1892l185 -330h-172l-109 154l-108 -154h-172l184 330h192z" />
    <glyph glyph-name="scircumflex" unicode="&#x15d;" horiz-adv-x="798" 
d="M403 225q28 0 43 18t15 50q0 36 -20 57t-76 39l-70 23q-128 41 -183 115t-55 204v31q0 126 86 206.5t246 80.5t246 -80.5t86 -206.5v-39l-287 -8v33q0 51 -45 51t-45 -51q0 -43 19 -62.5t77 -38.5l70 -22q127 -41 182.5 -113t55.5 -188v-43q0 -139 -94.5 -222.5
t-245.5 -83.5q-161 0 -255 78.5t-94 218.5v47l287 9v-35q0 -68 57 -68zM479 1485l185 -330h-172l-109 154l-108 -154h-172l184 330h192z" />
    <glyph glyph-name="Scedilla" unicode="&#x15e;" horiz-adv-x="948" 
d="M279 -416l90 140q30 -27 65 -27q39 0 39 37q0 27 -19.5 44t-62.5 29l-12 21l43 149q-175 15 -268 123t-93 301v25l316 10v-47q0 -139 102 -139q103 0 103 139v33q0 55 -26.5 88.5t-90.5 56.5l-86 31q-170 60 -244 153t-74 250v46q0 199 99 305t305 106q403 0 403 -411
v-39l-315 -11v50q0 76 -21.5 106.5t-66.5 30.5t-66.5 -30.5t-21.5 -106.5v-25q0 -55 26.5 -88.5t90.5 -56.5l86 -31q170 -60 243.5 -153.5t73.5 -250.5v-41q0 -172 -75 -277t-216 -134l-28 -96q112 -66 112 -179v-12q0 -89 -58 -139.5t-153 -50.5q-126 0 -200 71z" />
    <glyph glyph-name="scedilla" unicode="&#x15f;" horiz-adv-x="798" 
d="M193 -416l90 140q30 -27 65 -27q39 0 39 37q0 27 -19.5 44t-62.5 29l-12 21l45 152q-131 15 -205 91t-74 201v47l287 9v-35q0 -68 57 -68q28 0 43 18t15 50q0 36 -20 57t-76 39l-70 23q-128 41 -183 115t-55 204v31q0 126 86 206.5t246 80.5t246 -80.5t86 -206.5v-39
l-287 -8v33q0 51 -45 51t-45 -51q0 -43 19 -62.5t77 -38.5l70 -22q127 -41 182.5 -113t55.5 -188v-43q0 -110 -61.5 -186.5t-166.5 -104.5l-28 -96q112 -66 112 -179v-12q0 -89 -58 -139.5t-153 -50.5q-126 0 -200 71z" />
    <glyph glyph-name="Scaron" unicode="&#x160;" horiz-adv-x="948" 
d="M582 389v33q0 55 -26.5 88.5t-90.5 56.5l-86 31q-170 60 -244 153t-74 250v46q0 199 99 305t305 106q403 0 403 -411v-39l-315 -11v50q0 76 -21.5 106.5t-66.5 30.5t-66.5 -30.5t-21.5 -106.5v-25q0 -55 26.5 -88.5t90.5 -56.5l86 -31q170 -60 243.5 -153.5t73.5 -250.5
v-41q0 -209 -108.5 -317.5t-309.5 -108.5t-309.5 108.5t-108.5 317.5v25l316 10v-47q0 -139 102 -139q103 0 103 139zM733 1892l-184 -329h-193l-184 329h172l109 -153l108 153h172z" />
    <glyph glyph-name="scaron" unicode="&#x161;" horiz-adv-x="798" 
d="M403 225q28 0 43 18t15 50q0 36 -20 57t-76 39l-70 23q-128 41 -183 115t-55 204v31q0 126 86 206.5t246 80.5t246 -80.5t86 -206.5v-39l-287 -8v33q0 51 -45 51t-45 -51q0 -43 19 -62.5t77 -38.5l70 -22q127 -41 182.5 -113t55.5 -188v-43q0 -139 -94.5 -222.5
t-245.5 -83.5q-161 0 -255 78.5t-94 218.5v47l287 9v-35q0 -68 57 -68zM664 1485l-185 -330h-192l-185 330h172l109 -154l109 154h172z" />
    <glyph glyph-name="Tcommaaccent" unicode="&#x162;" horiz-adv-x="864" 
d="M195 -416l90 140q30 -27 65 -27q39 0 39 37q0 27 -19.5 44t-62.5 29l-12 21l51 172h-72v1159h-266v275h848v-275h-266v-1159h-64l-32 -106q112 -66 112 -179v-12q0 -89 -58 -139.5t-153 -50.5q-126 0 -200 71z" />
    <glyph glyph-name="tcommaaccent" unicode="&#x163;" horiz-adv-x="610" 
d="M121 -416l90 140q30 -27 65 -27q39 0 39 37q0 27 -19.5 44t-62.5 29l-12 21l55 188q-85 29 -124 107t-39 215v436h-99v250h99v291h286v-291h176v-250h-176v-418q0 -63 18 -84.5t66 -21.5h99v-250h-129l-33 -106q112 -66 112 -179v-12q0 -89 -57.5 -139.5t-152.5 -50.5
q-127 0 -201 71z" />
    <glyph glyph-name="Tcaron" unicode="&#x164;" horiz-adv-x="864" 
d="M8 1159v275h848v-275h-266v-1159h-316v1159h-266zM713 1892l-185 -330h-192l-184 330h172l108 -154l109 154h172z" />
    <glyph glyph-name="tcaron" unicode="&#x165;" horiz-adv-x="927" 
d="M399 774v-418q0 -63 18 -84.5t66 -21.5h99v-250h-179q-154 0 -222 80t-68 258v436h-99v250h99v291h286v-291h176v-250h-176zM633 1180v278h285v-260q0 -120 -70.5 -197t-214.5 -77v129q66 7 95 38.5t32 88.5h-127z" />
    <glyph glyph-name="Tbar" unicode="&#x166;" horiz-adv-x="864" 
d="M117 596v192h157v371h-266v275h848v-275h-266v-371h158v-192h-158v-596h-316v596h-157z" />
    <glyph glyph-name="tbar" unicode="&#x167;" horiz-adv-x="610" 
d="M35 455v192h78v127h-99v250h99v291h286v-291h176v-250h-176v-127h119v-192h-119v-99q0 -63 18 -84.5t66 -21.5h99v-250h-179q-154 0 -222 80t-68 258v117h-78z" />
    <glyph glyph-name="Utilde" unicode="&#x168;" horiz-adv-x="1040" 
d="M653 1434h316v-975q0 -233 -120 -358.5t-329 -125.5t-328.5 125.5t-119.5 358.5v975h315v-959q0 -117 32.5 -171t100.5 -54t100.5 54t32.5 171v959zM502 1628q-41 43 -72 43q-38 0 -41 -90l-158 16q6 133 56.5 199.5t122.5 66.5q76 0 129 -53q41 -43 71 -43q38 0 41 90
l158 -16q-6 -133 -56 -199.5t-122 -66.5q-76 0 -129 53z" />
    <glyph glyph-name="utilde" unicode="&#x169;" horiz-adv-x="894" 
d="M358 1024h-286v-702q0 -165 67 -256t197 -91q68 0 118.5 31t75.5 86v-92h287v1024h-287v-707q-7 -43 -31.5 -67.5t-58.5 -24.5q-82 0 -82 113v686zM426 1221q-41 43 -72 43q-38 0 -41 -90l-157 16q6 133 56 199.5t122 66.5q76 0 129 -53q41 -43 72 -43q37 0 40 90
l158 -16q-6 -133 -56 -200t-122 -67q-75 0 -129 54z" />
    <glyph glyph-name="Umacron" unicode="&#x16a;" horiz-adv-x="1040" 
d="M653 1434h316v-975q0 -233 -120 -358.5t-329 -125.5t-328.5 125.5t-119.5 358.5v975h315v-959q0 -117 32.5 -171t100.5 -54t100.5 54t32.5 171v959zM258 1634v180h524v-180h-524z" />
    <glyph glyph-name="umacron" unicode="&#x16b;" horiz-adv-x="894" 
d="M72 1024h286v-686q0 -113 82 -113q34 0 58.5 24.5t31.5 67.5v707h287v-1024h-287v92q-25 -55 -75.5 -86t-118.5 -31q-130 0 -197 91t-67 256v702zM182 1227v180h524v-180h-524z" />
    <glyph glyph-name="Ubreve" unicode="&#x16c;" horiz-adv-x="1040" 
d="M653 1434h316v-975q0 -233 -120 -358.5t-329 -125.5t-328.5 125.5t-119.5 358.5v975h315v-959q0 -117 32.5 -171t100.5 -54t100.5 54t32.5 171v959zM520 1729q45 0 64 33t24 106l185 -21q-13 -152 -85.5 -220t-187.5 -68q-248 0 -272 288l184 21q5 -73 24 -106t64 -33z
" />
    <glyph glyph-name="ubreve" unicode="&#x16d;" horiz-adv-x="894" 
d="M72 1024h286v-686q0 -113 82 -113q34 0 58.5 24.5t31.5 67.5v707h287v-1024h-287v92q-25 -55 -75.5 -86t-118.5 -31q-130 0 -197 91t-67 256v702zM444 1325q45 0 64 33t24 106l185 -20q-13 -152 -85.5 -220.5t-187.5 -68.5q-114 0 -186.5 68.5t-85.5 220.5l184 20
q5 -73 24 -106t64 -33z" />
    <glyph glyph-name="Uring" unicode="&#x16e;" horiz-adv-x="1040" 
d="M969 1434h-316v-959q0 -117 -32.5 -171t-100.5 -54t-100.5 54t-32.5 171v959h-315v-975q0 -233 119.5 -358.5t328.5 -125.5t329 125.5t120 358.5v975zM467 1716q0 -27 14 -45t39 -18t39 18t14 45q0 28 -14 46t-39 18t-39 -18t-14 -46zM326 1716q0 89 57.5 138t136.5 49
q80 0 137.5 -49t57.5 -138q0 -88 -57.5 -137t-137.5 -49t-137 48.5t-57 137.5z" />
    <glyph glyph-name="uring" unicode="&#x16f;" horiz-adv-x="894" 
d="M72 1024h286v-686q0 -113 82 -113q34 0 58.5 24.5t31.5 67.5v707h287v-1024h-287v92q-25 -55 -75.5 -86t-118.5 -31q-130 0 -197 91t-67 256v702zM391 1309q0 -28 14 -46t39 -18t39 18t14 46q0 27 -14 45t-39 18t-39 -18t-14 -45zM250 1309q0 89 57 137.5t137 48.5
t137.5 -49t57.5 -137t-57.5 -137t-137.5 -49t-137 48.5t-57 137.5z" />
    <glyph glyph-name="Uhungarumlaut" unicode="&#x170;" horiz-adv-x="1040" 
d="M653 1434h316v-975q0 -233 -120 -358.5t-329 -125.5t-328.5 125.5t-119.5 358.5v975h315v-959q0 -117 32.5 -171t100.5 -54t100.5 54t32.5 171v959zM596 1892l-147 -329h-175l95 329h227zM897 1892l-162 -329h-182l117 329h227z" />
    <glyph glyph-name="uhungarumlaut" unicode="&#x171;" horiz-adv-x="894" 
d="M72 1024h286v-686q0 -113 82 -113q34 0 58.5 24.5t31.5 67.5v707h287v-1024h-287v92q-25 -55 -75.5 -86t-118.5 -31q-130 0 -197 91t-67 256v702zM524 1485l-147 -330h-174l94 330h227zM825 1485l-161 -330h-183l117 330h227z" />
    <glyph glyph-name="Uogonek" unicode="&#x172;" horiz-adv-x="1040" 
d="M653 1434h316v-975q0 -187 -78.5 -305.5t-220.5 -157.5q-92 -80 -92 -166v-10q0 -25 11.5 -41.5t33.5 -16.5q30 0 55 25l121 -143q-39 -44 -96.5 -68.5t-118.5 -24.5q-101 0 -162.5 56.5t-61.5 148.5v17q0 55 25.5 110t71.5 97q-181 18 -283 141t-102 338v975h315v-959
q0 -117 32.5 -171t100.5 -54t100.5 54t32.5 171v959z" />
    <glyph glyph-name="uogonek" unicode="&#x173;" horiz-adv-x="894" 
d="M817 0h-94q-49 -41 -73.5 -86t-24.5 -84v-10q0 -25 11.5 -41.5t33.5 -16.5q30 0 55 25l121 -143q-39 -44 -96.5 -68.5t-118.5 -24.5q-101 0 -162 56.5t-61 148.5v17q0 62 32 124t90 103v92q-25 -55 -75.5 -86t-118.5 -31q-130 0 -197 91t-67 256v702h286v-686
q0 -113 82 -113q34 0 58.5 24.5t31.5 67.5v707h287v-1024z" />
    <glyph glyph-name="Wcircumflex" unicode="&#x174;" horiz-adv-x="1490" 
d="M594 1434h303l139 -813l127 813h320l-289 -1434h-301l-148 870l-147 -870h-301l-289 1434h320l127 -813zM841 1892l185 -330h-172l-109 154l-108 -154h-172l184 330h192z" />
    <glyph glyph-name="wcircumflex" unicode="&#x175;" horiz-adv-x="1273" 
d="M514 1024h246l108 -551l103 551h299l-246 -1024h-266l-121 592l-121 -592h-266l-246 1024h299l103 -551zM733 1485l185 -330h-172l-109 154l-108 -154h-172l184 330h192z" />
    <glyph glyph-name="Ycircumflex" unicode="&#x176;" horiz-adv-x="970" 
d="M637 1434l-152 -461l-151 461h-326l320 -781v-653h315v653l320 781h-326zM582 1892l184 -329h-172l-109 153l-108 -153h-172l184 329h193z" />
    <glyph glyph-name="ycircumflex" unicode="&#x177;" horiz-adv-x="829" 
d="M297 1024l125 -532l110 532h293l-280 -1137q-44 -180 -122 -249.5t-230 -69.5h-121v250h100q37 0 60 25.5t36 80.5l25 99l-289 1001h293zM518 1485l184 -330h-172l-108 154l-109 -154h-172l185 330h192z" />
    <glyph glyph-name="Ydieresis" unicode="&#x178;" horiz-adv-x="970" 
d="M485 973l152 461h326l-320 -781v-653h-315v653l-320 781h326zM430 1839v-232h-217v232h217zM758 1839v-232h-218v232h218z" />
    <glyph glyph-name="Zacute" unicode="&#x179;" horiz-adv-x="860" 
d="M43 199l385 960h-371v275h760v-199l-385 -961h385v-274h-774v199zM653 1892l-147 -330h-193l94 330h246z" />
    <glyph glyph-name="zacute" unicode="&#x17a;" horiz-adv-x="755" 
d="M707 1024v-188l-308 -586h322v-250h-686v188l307 586h-291v250h656zM600 1485l-147 -330h-193l94 330h246z" />
    <glyph glyph-name="Zdotaccent" unicode="&#x17b;" horiz-adv-x="860" 
d="M43 199l385 960h-371v275h760v-199l-385 -961h385v-274h-774v199zM555 1839v-232h-217v232h217z" />
    <glyph glyph-name="zdotaccent" unicode="&#x17c;" horiz-adv-x="755" 
d="M707 1024v-188l-308 -586h322v-250h-686v188l307 586h-291v250h656zM496 1432v-232h-217v232h217z" />
    <glyph glyph-name="Zcaron" unicode="&#x17d;" horiz-adv-x="860" 
d="M43 199l385 960h-371v275h760v-199l-385 -961h385v-274h-774v199zM719 1892l-184 -329h-193l-184 329h172l108 -153l109 153h172z" />
    <glyph glyph-name="zcaron" unicode="&#x17e;" horiz-adv-x="755" 
d="M707 1024v-188l-308 -586h322v-250h-686v188l307 586h-291v250h656zM659 1485l-184 -330h-192l-185 330h172l109 -154l108 154h172z" />
    <glyph glyph-name="longs" unicode="&#x17f;" 
d="M588 1208h-90q-48 0 -66 -21.5t-18 -84.5v-1102h-287v774h-102v250h102v96q0 178 68 258t223 80h170v-250z" />
    <glyph glyph-name="uni0191" unicode="&#x191;" horiz-adv-x="856" 
d="M401 580v-670q0 -183 -79.5 -264.5t-245.5 -81.5h-144v274h80q41 0 57.5 19t16.5 59v1518h748v-275h-433v-305h385v-274h-385z" />
    <glyph glyph-name="florin" unicode="&#x192;" 
d="M127 -78v852h-102v250h102v96q0 178 68 258t223 80h170v-250h-90q-48 0 -66 -21.5t-18 -84.5v-78h174v-250h-174v-870q0 -178 -68 -258t-223 -80h-170v250h90q48 0 66 21.5t18 84.5z" />
    <glyph glyph-name="Aringacute" unicode="&#x1fa;" horiz-adv-x="1015" 
d="M313 1530q0 88 57.5 137t137.5 49t137 -48.5t57 -137.5q0 -83 -55 -135h43l322 -1395h-324l-43 219h-274l-43 -219h-324l322 1395h43q-56 50 -56 135zM713 1962l-111 -207h-188l61 207h238zM590 494l-82 424l-84 -424h166zM455 1530q0 -28 14 -46t39 -18t39 18t14 46
q0 27 -14 45t-39 18t-39 -18t-14 -45z" />
    <glyph glyph-name="aringacute" unicode="&#x1fb;" horiz-adv-x="849" 
d="M377 1319q0 -28 14 -46t39 -18t39 18t14 46q0 27 -14 45t-39 18t-39 -18t-14 -45zM236 1319q0 89 57 137.5t137 48.5t137.5 -49t57.5 -137t-57.5 -137t-137.5 -49t-137 48.5t-57 137.5zM635 1751l-111 -207h-188l61 207h238zM406 205q30 0 52.5 25t30.5 63v110h-79
q-82 0 -82 -94v-24q0 -80 78 -80zM92 709v16q0 149 89 236.5t253 87.5q165 0 253.5 -87t88.5 -237v-725h-287v74q-54 -99 -184 -99q-111 0 -182.5 79.5t-71.5 219.5v33q0 150 90.5 232t251.5 82h96v88q0 47 -12.5 68.5t-42.5 21.5t-42.5 -20.5t-12.5 -69.5v-11z" />
    <glyph glyph-name="AEacute" unicode="&#x1fc;" horiz-adv-x="1417" 
d="M621 0v219h-236l-57 -219h-348l432 1434h956v-275h-432v-287h371v-274h-371v-324h432v-274h-747zM459 494h162v598zM1077 1892l-147 -330h-193l94 330h246z" />
    <glyph glyph-name="aeacute" unicode="&#x1fd;" horiz-adv-x="1292" 
d="M346 -25q-140 0 -217.5 77.5t-77.5 221.5v33q0 150 90.5 232t251.5 82h96v88q0 47 -12.5 68.5t-42.5 21.5t-42.5 -20.5t-12.5 -69.5v-11l-287 11v16q0 148 88 236t240 88q69 0 129 -22t94 -62q84 84 229 84q162 0 262.5 -106t100.5 -296v-229h-459v-66q0 -63 22.5 -95
t63.5 -32q34 0 57.5 24.5t24.5 69.5l285 -10q-13 -156 -111.5 -245t-255.5 -89q-182 0 -266 115q-35 -54 -101.5 -84.5t-148.5 -30.5zM406 205q30 0 52.5 25t30.5 63v110h-79q-82 0 -82 -94v-24q0 -80 78 -80zM948 635v37q0 63 -22.5 95t-63.5 32q-83 0 -86 -115v-49h172z
M860 1485l-147 -330h-193l94 330h246z" />
    <glyph glyph-name="Oslashacute" unicode="&#x1fe;" horiz-adv-x="1007" 
d="M705 1419l30 80h113l-51 -139q145 -123 145 -375v-536q0 -229 -118 -351.5t-320 -122.5q-111 0 -203 39l-29 -80h-112l49 138q-143 127 -143 377v536q0 229 118 351t320 122q112 0 201 -39zM504 250q62 0 92.5 50t30.5 165v432l-219 -592q28 -55 96 -55zM504 1184
q-62 0 -92.5 -50t-30.5 -165v-432l217 591q-29 56 -94 56zM708 1892l-147 -330h-193l94 330h246z" />
    <glyph glyph-name="oslashacute" unicode="&#x1ff;" horiz-adv-x="860" 
d="M160 -66l41 109q-144 106 -144 334v270q0 191 102.5 296.5t270.5 105.5q72 0 133 -21l27 74h112l-45 -121q146 -107 146 -334v-270q0 -191 -102.5 -296.5t-270.5 -105.5q-63 0 -135 21l-23 -62h-112zM516 352v244l-133 -358q19 -13 47 -13q41 0 63.5 32t22.5 95zM344 672
v-238l129 352q-20 13 -43 13q-41 0 -63.5 -32t-22.5 -95zM655 1485l-147 -330h-193l94 330h246z" />
    <glyph glyph-name="Scommaaccent" unicode="&#x218;" horiz-adv-x="948" 
d="M582 389v33q0 55 -26.5 88.5t-90.5 56.5l-86 31q-170 60 -244 153t-74 250v46q0 199 99 305t305 106q403 0 403 -411v-39l-315 -11v50q0 76 -21.5 106.5t-66.5 30.5t-66.5 -30.5t-21.5 -106.5v-25q0 -55 26.5 -88.5t90.5 -56.5l86 -31q170 -60 243.5 -153.5t73.5 -250.5
v-41q0 -209 -108.5 -317.5t-309.5 -108.5t-309.5 108.5t-108.5 317.5v25l316 10v-47q0 -139 102 -139q103 0 103 139zM512 -430l127 330h-233l-72 -330h178z" />
    <glyph glyph-name="scommaaccent" unicode="&#x219;" horiz-adv-x="798" 
d="M403 225q28 0 43 18t15 50q0 36 -20 57t-76 39l-70 23q-128 41 -183 115t-55 204v31q0 126 86 206.5t246 80.5t246 -80.5t86 -206.5v-39l-287 -8v33q0 51 -45 51t-45 -51q0 -43 19 -62.5t77 -38.5l70 -22q127 -41 182.5 -113t55.5 -188v-43q0 -139 -94.5 -222.5
t-245.5 -83.5q-161 0 -255 78.5t-94 218.5v47l287 9v-35q0 -68 57 -68zM424 -430l127 330h-234l-71 -330h178z" />
    <glyph glyph-name="uni021A" unicode="&#x21a;" horiz-adv-x="864" 
d="M8 1159v275h848v-275h-266v-1159h-316v1159h-266zM444 -430l127 330h-233l-72 -330h178z" />
    <glyph glyph-name="uni021B" unicode="&#x21b;" horiz-adv-x="610" 
d="M399 774v-418q0 -63 18 -84.5t66 -21.5h99v-250h-179q-154 0 -222 80t-68 258v436h-99v250h99v291h286v-291h176v-250h-176zM492 -100l-127 -330h-179l72 330h234z" />
    <glyph glyph-name="dotlessj" unicode="&#x237;" horiz-adv-x="450" 
d="M82 -59v1083h287v-1087q0 -199 -84.5 -285t-259.5 -86h-107v250h70q56 0 75 27.5t19 97.5z" />
    <glyph glyph-name="apostrophe" unicode="&#x2bc;" horiz-adv-x="614" 
d="M166 1217v278h285v-260q0 -120 -70.5 -197t-214.5 -77v129q66 7 95 38.5t32 88.5h-127z" />
    <glyph glyph-name="circumflex" unicode="&#x2c6;" horiz-adv-x="614" 
d="M403 1495l185 -330h-172l-109 154l-108 -154h-172l184 330h192z" />
    <glyph glyph-name="caron" unicode="&#x2c7;" horiz-adv-x="614" 
d="M588 1495l-185 -330h-192l-184 330h172l108 -154l109 154h172z" />
    <glyph glyph-name="uni02C9" unicode="&#x2c9;" horiz-adv-x="614" 
d="M45 1235v180h524v-180h-524z" />
    <glyph glyph-name="breve" unicode="&#x2d8;" horiz-adv-x="614" 
d="M307 1335q45 0 64 33.5t24 106.5l185 -21q-13 -152 -85.5 -220.5t-187.5 -68.5q-114 0 -186.5 68.5t-85.5 220.5l184 21q5 -73 24 -106.5t64 -33.5z" />
    <glyph glyph-name="dotaccent" unicode="&#x2d9;" horiz-adv-x="614" 
d="M416 1442v-232h-217v232h217z" />
    <glyph glyph-name="ring" unicode="&#x2da;" horiz-adv-x="614" 
d="M254 1319q0 -28 14 -46t39 -18t39 18t14 46q0 27 -14 45t-39 18t-39 -18t-14 -45zM113 1319q0 89 57 137.5t137 48.5t137.5 -49t57.5 -137t-57.5 -137t-137.5 -49t-137 48.5t-57 137.5z" />
    <glyph glyph-name="ogonek" unicode="&#x2db;" horiz-adv-x="614" 
d="M211 0h192q-49 -41 -73.5 -86t-24.5 -84v-10q0 -25 11.5 -41.5t33.5 -16.5q31 0 56 25l120 -143q-39 -44 -96.5 -68.5t-118.5 -24.5q-101 0 -162 56.5t-61 148.5v17q0 62 32.5 123.5t90.5 103.5z" />
    <glyph glyph-name="tilde" unicode="&#x2dc;" horiz-adv-x="614" 
d="M289 1233q-41 43 -72 43q-38 0 -41 -90l-158 16q6 133 56.5 199.5t122.5 66.5q76 0 129 -53q41 -43 71 -43q38 0 41 90l158 -16q-6 -133 -56 -199.5t-122 -66.5q-76 0 -129 53z" />
    <glyph glyph-name="hungarumlaut" unicode="&#x2dd;" horiz-adv-x="614" 
d="M317 1495l-147 -330h-174l94 330h227zM618 1495l-161 -330h-183l117 330h227z" />
    <glyph glyph-name="gravecomb" unicode="&#x300;" horiz-adv-x="0" 
d="M-639 1165l-147 330h245l95 -330h-193z" />
    <glyph glyph-name="acutecomb" unicode="&#x301;" horiz-adv-x="0" 
d="M-403 1495l-148 -330h-192l94 330h246z" />
    <glyph glyph-name="uni0302" unicode="&#x302;" horiz-adv-x="0" 
d="M-487 1495l184 -330h-172l-109 154l-108 -154h-172l184 330h193z" />
    <glyph glyph-name="tildecomb" unicode="&#x303;" horiz-adv-x="0" 
d="M-612 1233q-41 43 -72 43q-38 0 -41 -90l-158 16q6 133 56 199.5t122 66.5q77 0 130 -53q41 -43 71 -43q38 0 41 90l158 -16q-6 -133 -56 -199.5t-122 -66.5q-76 0 -129 53z" />
    <glyph glyph-name="uni0304" unicode="&#x304;" horiz-adv-x="0" 
d="M-856 1237v180h524v-180h-524z" />
    <glyph glyph-name="uni0306" unicode="&#x306;" horiz-adv-x="0" 
d="M-594 1335q45 0 64 33.5t24 106.5l184 -21q-13 -152 -85.5 -220.5t-186.5 -68.5t-186.5 68.5t-85.5 220.5l184 21q5 -73 24 -106.5t64 -33.5z" />
    <glyph glyph-name="uni0307" unicode="&#x307;" horiz-adv-x="0" 
d="M-485 1442v-232h-217v232h217z" />
    <glyph glyph-name="uni0308" unicode="&#x308;" horiz-adv-x="0" 
d="M-547 1442v-232h-217v232h217zM-219 1442v-232h-217v232h217z" />
    <glyph glyph-name="uni030A" unicode="&#x30a;" horiz-adv-x="0" 
d="M-647 1319q0 -28 14 -46t39 -18t39 18t14 46q0 27 -14 45t-39 18t-39 -18t-14 -45zM-788 1319q0 89 57 137.5t137 48.5t137.5 -49t57.5 -137t-57.5 -137t-137.5 -49t-137 48.5t-57 137.5z" />
    <glyph glyph-name="uni030C" unicode="&#x30c;" horiz-adv-x="0" 
d="M-313 1495l-185 -330h-192l-184 330h172l108 -154l109 154h172z" />
    <glyph glyph-name="uni0327" unicode="&#x327;" horiz-adv-x="0" 
d="M-774 -416l90 140q30 -27 66 -27q38 0 38 37q0 27 -19.5 44t-62.5 29l-12 21l51 172h181l-33 -106q113 -67 113 -179v-12q0 -89 -58 -139.5t-153 -50.5q-127 0 -201 71z" />
    <glyph glyph-name="uni03A9" unicode="&#x3a9;" horiz-adv-x="1024" 
d="M512 1458q202 0 320 -122t118 -351v-399q0 -232 -135 -312h135v-274h-393v254q29 19 45 44.5t24.5 77.5t8.5 140v453q0 115 -30.5 165t-92.5 50t-92.5 -50t-30.5 -165v-453q0 -88 8.5 -140t24.5 -77.5t45 -44.5v-254h-393v274h135q-135 80 -135 312v399q0 229 118 351
t320 122z" />
    <glyph glyph-name="uni0400" unicode="&#x400;" horiz-adv-x="882" 
d="M86 0v1434h748v-275h-433v-287h371v-274h-371v-324h433v-274h-748zM416 1562l-148 330h246l94 -330h-192z" />
    <glyph glyph-name="afii10023" unicode="&#x401;" horiz-adv-x="882" 
d="M86 0v1434h748v-275h-433v-287h371v-274h-371v-324h433v-274h-748zM420 1839v-232h-217v232h217zM748 1839v-232h-218v232h218z" />
    <glyph glyph-name="afii10051" unicode="&#x402;" horiz-adv-x="1144" 
d="M8 1159v275h848v-275h-266v-274q92 61 194 61q153 0 231.5 -100.5t78.5 -282.5v-489q0 -183 -80 -264.5t-246 -81.5h-115v274h52q41 0 57 19t16 59v459q0 71 -20.5 102t-67.5 31q-49 0 -100 -35v-637h-316v1159h-266z" />
    <glyph glyph-name="afii10052" unicode="&#x403;" horiz-adv-x="886" 
d="M682 1892l-147 -329h-193l94 329h246zM877 1159h-476v-1159h-315v1434h791v-275z" />
    <glyph glyph-name="afii10053" unicode="&#x404;" horiz-adv-x="987" 
d="M381 854h211v-274h-211v-115q0 -115 30.5 -165t92.5 -50t92.5 50t30.5 165v51l315 -10v-57q0 -229 -118 -351.5t-320 -122.5t-320 122.5t-118 351.5v536q0 229 118 351t320 122t320 -122t118 -351v-57l-315 -10v51q0 115 -30.5 165t-92.5 50t-92.5 -50t-30.5 -165v-115z
" />
    <glyph glyph-name="afii10054" unicode="&#x405;" horiz-adv-x="948" 
d="M582 389v33q0 55 -26.5 88.5t-90.5 56.5l-86 31q-170 60 -244 153t-74 250v46q0 199 99 305t305 106q403 0 403 -411v-39l-315 -11v50q0 76 -21.5 106.5t-66.5 30.5t-66.5 -30.5t-21.5 -106.5v-25q0 -55 26.5 -88.5t90.5 -56.5l86 -31q170 -60 243.5 -153.5t73.5 -250.5
v-41q0 -209 -108.5 -317.5t-309.5 -108.5t-309.5 108.5t-108.5 317.5v25l316 10v-47q0 -139 102 -139q103 0 103 139z" />
    <glyph glyph-name="afii10055" unicode="&#x406;" horiz-adv-x="503" 
d="M410 1434v-1434h-316v1434h316z" />
    <glyph glyph-name="afii10056" unicode="&#x407;" horiz-adv-x="503" 
d="M410 1434v-1434h-316v1434h316zM197 1839v-232h-217v232h217zM525 1839v-232h-218v232h218z" />
    <glyph glyph-name="afii10057" unicode="&#x408;" horiz-adv-x="921" 
d="M332 467v-55q0 -162 98 -162t98 162v1022h316v-1031q0 -199 -109 -313.5t-305 -114.5t-305 114.5t-109 313.5v54z" />
    <glyph glyph-name="afii10058" unicode="&#x409;" horiz-adv-x="1568" 
d="M1118 0h-422v1159h-225v-805q0 -206 -91.5 -292.5t-279.5 -86.5h-94v275h68q44 0 63 26t19 89v1069h856v-541h106q191 0 295.5 -109.5t104.5 -302.5v-69q0 -193 -104.5 -302.5t-295.5 -109.5zM1081 618h-69v-344h69q58 0 89.5 38.5t31.5 113.5v41q0 75 -31.5 113
t-89.5 38z" />
    <glyph glyph-name="afii10059" unicode="&#x40a;" horiz-adv-x="1482" 
d="M1032 0h-422v598h-209v-598h-315v1434h315v-562h209v562h316v-541h106q191 0 295.5 -109.5t104.5 -302.5v-69q0 -193 -104.5 -302.5t-295.5 -109.5zM995 618h-69v-344h69q58 0 89.5 38.5t31.5 113.5v41q0 75 -31.5 113t-89.5 38z" />
    <glyph glyph-name="afii10060" unicode="&#x40b;" horiz-adv-x="1144" 
d="M1094 0h-316v539q0 71 -20.5 102t-67.5 31q-49 0 -100 -35v-637h-316v1159h-266v275h848v-275h-266v-274q92 61 194 61q153 0 231.5 -100.5t78.5 -282.5v-563z" />
    <glyph glyph-name="afii10061" unicode="&#x40c;" horiz-adv-x="1005" 
d="M911 1262q0 -147 -41 -266.5t-139 -223.5l275 -772h-330l-184 555l-91 -82v-473h-315v1434h315v-578l70 68q71 69 98 143t27 197v170h315v-172zM731 1892l-147 -330h-193l94 330h246z" />
    <glyph glyph-name="uni040D" unicode="&#x40d;" horiz-adv-x="1034" 
d="M354 0l287 760v-760h307v1434h-268l-287 -760v760h-307v-1434h268zM489 1563l-147 329h246l94 -329h-193z" />
    <glyph glyph-name="afii10062" unicode="&#x40e;" horiz-adv-x="905" 
d="M332 1434l114 -500l129 500h324l-328 -1158q-41 -146 -126 -211t-212 -65h-137v274h76q41 0 65.5 17.5t36.5 60.5l37 125l-301 957h322zM453 1729q45 0 64 33t24 106l184 -21q-24 -288 -272 -288q-115 0 -187.5 68t-85.5 220l185 21q5 -73 24 -106t64 -33z" />
    <glyph glyph-name="afii10145" unicode="&#x40f;" horiz-adv-x="1003" 
d="M401 1434v-1160h201v1160h316v-1434h-259v-246h-315v246h-258v1434h315z" />
    <glyph glyph-name="afii10017" unicode="&#x410;" horiz-adv-x="1015" 
d="M328 0h-324l340 1434h328l340 -1434h-324l-43 219h-274zM590 494l-82 424l-84 -424h166z" />
    <glyph glyph-name="afii10018" unicode="&#x411;" horiz-adv-x="958" 
d="M508 0h-422v1434h721v-275h-406v-266h107q191 0 295 -109.5t104 -302.5v-69q0 -193 -104 -302.5t-295 -109.5zM471 618h-70v-344h70q58 0 89.5 38.5t31.5 113.5v41q0 75 -31.5 113t-89.5 38z" />
    <glyph glyph-name="afii10019" unicode="&#x412;" horiz-adv-x="960" 
d="M500 0h-414v1434h416q184 0 284.5 -100t100.5 -300q0 -108 -38 -181t-101 -105q167 -82 167 -320q0 -209 -105 -318.5t-310 -109.5zM401 1167v-303h56q59 0 86.5 37.5t27.5 114.5t-27.5 114t-86.5 37h-56zM600 436q0 85 -30.5 126.5t-94.5 41.5h-74v-338h74q65 0 95 41
t30 129z" />
    <glyph glyph-name="afii10020" unicode="&#x413;" horiz-adv-x="876" 
d="M877 1159h-476v-1159h-315v1434h791v-275z" />
    <glyph glyph-name="afii10021" unicode="&#x414;" horiz-adv-x="1048" 
d="M1032 274v-520h-315v246h-400v-246h-315v520h117q53 241 53 594v566h743v-1160h117zM438 274h162v885h-113v-307q0 -133 -13 -294.5t-36 -283.5z" />
    <glyph glyph-name="afii10022" unicode="&#x415;" horiz-adv-x="882" 
d="M86 0v1434h748v-275h-433v-287h371v-274h-371v-324h433v-274h-748z" />
    <glyph glyph-name="afii10024" unicode="&#x416;" horiz-adv-x="1392" 
d="M539 1434h315v-533l39 41q59 62 82.5 150.5t23.5 255.5v86h316v-86q0 -220 -35.5 -339.5t-149.5 -250.5l263 -758h-318l-172 555l-49 -51v-504h-315v504l-50 51l-172 -555h-317l262 758q-113 131 -148.5 250.5t-35.5 339.5v86h315v-86q0 -167 24 -255.5t83 -150.5l39 -41
v533z" />
    <glyph glyph-name="afii10025" unicode="&#x417;" horiz-adv-x="921" 
d="M881 461v-76q0 -196 -116.5 -303t-305.5 -107q-188 0 -305 112.5t-117 313.5v27l303 10v-16q0 -191 119 -191q56 0 87.5 38.5t31.5 142.5v28q0 94 -40.5 137.5t-123.5 43.5h-76v256h74q64 0 107.5 36t43.5 113v35q0 79 -25.5 110t-72.5 31q-96 0 -96 -151v-27l-303 10v27
q0 188 107 292.5t292 104.5q186 0 293.5 -100.5t107.5 -284.5v-65q0 -85 -44 -155t-126 -103q83 -28 134 -108.5t51 -180.5z" />
    <glyph glyph-name="afii10026" unicode="&#x418;" horiz-adv-x="1034" 
d="M641 760l-287 -760h-268v1434h307v-760l287 760h268v-1434h-307v760z" />
    <glyph glyph-name="afii10027" unicode="&#x419;" horiz-adv-x="1034" 
d="M641 760l-287 -760h-268v1434h307v-760l287 760h268v-1434h-307v760zM516 1729q45 0 64 33t24 106l184 -21q-24 -288 -272 -288t-272 288l184 21q5 -73 24 -106t64 -33z" />
    <glyph glyph-name="afii10028" unicode="&#x41a;" horiz-adv-x="1005" 
d="M911 1262q0 -147 -41 -266.5t-139 -223.5l275 -772h-330l-184 555l-91 -82v-473h-315v1434h315v-578l70 68q71 69 98 143t27 197v170h315v-172z" />
    <glyph glyph-name="afii10029" unicode="&#x41b;" horiz-adv-x="1062" 
d="M471 1159v-805q0 -206 -91.5 -292.5t-279.5 -86.5h-94v275h68q44 0 63 26t19 89v1069h821v-1434h-315v1159h-191z" />
    <glyph glyph-name="afii10030" unicode="&#x41c;" horiz-adv-x="1228" 
d="M711 340h-193l-125 354v-694h-307v1434h260l268 -740l269 740h260v-1434h-307v694z" />
    <glyph glyph-name="afii10031" unicode="&#x41d;" horiz-adv-x="1011" 
d="M610 0v598h-209v-598h-315v1434h315v-562h209v562h316v-1434h-316z" />
    <glyph glyph-name="afii10032" unicode="&#x41e;" horiz-adv-x="1007" 
d="M627 465v504q0 115 -30.5 165t-92.5 50t-92.5 -50t-30.5 -165v-504q0 -115 30.5 -165t92.5 -50t92.5 50t30.5 165zM942 985v-536q0 -229 -118 -351.5t-320 -122.5t-320 122.5t-118 351.5v536q0 229 118 351t320 122t320 -122t118 -351z" />
    <glyph glyph-name="afii10033" unicode="&#x41f;" horiz-adv-x="1003" 
d="M602 0v1159h-201v-1159h-315v1434h832v-1434h-316z" />
    <glyph glyph-name="afii10034" unicode="&#x420;" horiz-adv-x="966" 
d="M502 463h-101v-463h-315v1434h416q81 0 152 -27t131 -82t95 -152t35 -225q0 -103 -23.5 -186.5t-62.5 -138.5t-93 -91.5t-112 -52.5t-122 -16zM401 737h52q147 0 147 211t-147 211h-52v-422z" />
    <glyph glyph-name="afii10035" unicode="&#x421;" horiz-adv-x="987" 
d="M504 250q62 0 92.5 50t30.5 165v51l315 -10v-57q0 -229 -118 -351.5t-320 -122.5t-320 122.5t-118 351.5v536q0 229 118 351t320 122t320 -122t118 -351v-57l-315 -10v51q0 115 -30.5 165t-92.5 50t-92.5 -50t-30.5 -165v-504q0 -115 30.5 -165t92.5 -50z" />
    <glyph glyph-name="afii10036" unicode="&#x422;" horiz-adv-x="864" 
d="M8 1159v275h848v-275h-266v-1159h-316v1159h-266z" />
    <glyph glyph-name="afii10037" unicode="&#x423;" horiz-adv-x="905" 
d="M332 1434l114 -500l129 500h324l-328 -1158q-41 -146 -126 -211t-212 -65h-137v274h76q41 0 65.5 17.5t36.5 60.5l37 125l-301 957h322z" />
    <glyph glyph-name="afii10038" unicode="&#x424;" horiz-adv-x="1253" 
d="M49 616v201q0 219 105.5 336t304.5 117h28v164h279v-164h29q199 0 304 -117t105 -336v-201q0 -219 -105 -335.5t-304 -116.5h-29v-164h-279v164h-28q-199 0 -304.5 116.5t-105.5 335.5zM911 649v135q0 125 -30 168t-97 43h-18v-557h18q67 0 97 43t30 168zM342 784v-135
q0 -125 30 -168t97 -43h18v557h-18q-67 0 -97 -43t-30 -168z" />
    <glyph glyph-name="afii10039" unicode="&#x425;" horiz-adv-x="993" 
d="M354 1434l142 -453l143 453h326l-236 -695l256 -739h-326l-163 498l-162 -498h-326l256 739l-235 695h325z" />
    <glyph glyph-name="afii10040" unicode="&#x426;" horiz-adv-x="1054" 
d="M918 274h116v-520h-315v246h-633v1434h315v-1160h201v1160h316v-1160z" />
    <glyph glyph-name="afii10041" unicode="&#x427;" horiz-adv-x="966" 
d="M881 0h-316v549q-94 -62 -194 -62q-153 0 -231.5 100.5t-78.5 282.5v564h316v-539q0 -71 20.5 -102t67.5 -31q49 0 100 35v637h316v-1434z" />
    <glyph glyph-name="afii10042" unicode="&#x428;" horiz-adv-x="1511" 
d="M1110 274v1160h315v-1434h-1339v1434h315v-1160h197v1160h315v-1160h197z" />
    <glyph glyph-name="afii10043" unicode="&#x429;" horiz-adv-x="1562" 
d="M1425 274h117v-520h-315v246h-1141v1434h315v-1160h197v1160h315v-1160h197v1160h315v-1160z" />
    <glyph glyph-name="afii10044" unicode="&#x42a;" horiz-adv-x="1157" 
d="M8 1159v275h592v-541h107q191 0 295 -109.5t104 -302.5v-69q0 -193 -104 -302.5t-295 -109.5h-422v1159h-277zM670 618h-70v-344h70q58 0 89.5 38.5t31.5 113.5v41q0 75 -31.5 113t-89.5 38z" />
    <glyph glyph-name="afii10045" unicode="&#x42b;" horiz-adv-x="1413" 
d="M508 0h-422v1434h315v-541h107q191 0 295 -109.5t104 -302.5v-69q0 -193 -104 -302.5t-295 -109.5zM471 618h-70v-344h70q58 0 89.5 38.5t31.5 113.5v41q0 75 -31.5 113t-89.5 38zM1327 0h-315v1434h315v-1434z" />
    <glyph glyph-name="afii10046" unicode="&#x42c;" horiz-adv-x="958" 
d="M508 0h-422v1434h315v-541h107q191 0 295 -109.5t104 -302.5v-69q0 -193 -104 -302.5t-295 -109.5zM471 618h-70v-344h70q58 0 89.5 38.5t31.5 113.5v41q0 75 -31.5 113t-89.5 38z" />
    <glyph glyph-name="afii10047" unicode="&#x42d;" horiz-adv-x="987" 
d="M395 854h211v115q0 115 -30.5 165t-92.5 50t-92.5 -50t-30.5 -165v-51l-315 10v57q0 229 118 351t320 122q203 0 321 -122t118 -351v-536q0 -229 -118.5 -351.5t-320.5 -122.5t-320 122.5t-118 351.5v57l315 10v-51q0 -115 30.5 -165t92.5 -50t92.5 50t30.5 165v115h-211
v274z" />
    <glyph glyph-name="afii10048" unicode="&#x42e;" horiz-adv-x="1443" 
d="M1378 985v-536q0 -229 -118 -351.5t-320 -122.5t-320 122.5t-118 351.5v133h-101v-582h-315v1434h315v-578h101v129q0 229 118 351t320 122t320 -122t118 -351zM1063 465v504q0 115 -30.5 165t-92.5 50t-92.5 -50t-30.5 -165v-504q0 -115 30.5 -165t92.5 -50t92.5 50
t30.5 165z" />
    <glyph glyph-name="afii10049" unicode="&#x42f;" horiz-adv-x="974" 
d="M498 504l-154 -504h-330l207 578q-162 121 -162 391q0 101 23.5 181.5t63 133t93.5 87t112 49t122 14.5h416v-1434h-316v504h-75zM522 778h51v381h-51q-77 0 -112 -47t-35 -143t35 -143.5t112 -47.5z" />
    <glyph glyph-name="afii10065" unicode="&#x430;" horiz-adv-x="849" 
d="M406 205q30 0 52.5 25t30.5 63v110h-79q-82 0 -82 -94v-24q0 -80 78 -80zM92 709v16q0 149 89 236.5t253 87.5q165 0 253.5 -87t88.5 -237v-725h-287v74q-54 -99 -184 -99q-111 0 -182.5 79.5t-71.5 219.5v33q0 150 90.5 232t251.5 82h96v88q0 47 -12.5 68.5t-42.5 21.5
t-42.5 -20.5t-12.5 -69.5v-11z" />
    <glyph glyph-name="afii10066" unicode="&#x431;" horiz-adv-x="884" 
d="M66 332v635q0 101 22 174t68.5 122.5t107.5 79.5t150 52l286 69l52 -239l-273 -68q-58 -14 -84 -40t-26 -79v-65q18 31 62 53.5t93 22.5q145 0 224 -97.5t79 -285.5v-334q0 -163 -107.5 -260t-273.5 -97t-273 97t-107 260zM369 727v-348q0 -81 16.5 -114.5t60.5 -33.5
q45 0 61.5 34t16.5 114v254q0 89 -16 118t-59 29q-54 0 -80 -53z" />
    <glyph glyph-name="afii10067" unicode="&#x432;" horiz-adv-x="831" 
d="M485 0h-407v1024h389q135 0 213 -82t78 -207v-37q-3 -108 -94 -163q114 -49 114 -193v-49q0 -134 -75 -213.5t-218 -79.5zM481 696v25q0 29 -15.5 46t-43.5 17h-68v-151h68q28 0 43.5 17t15.5 46zM502 317v27q0 35 -19.5 55.5t-50.5 20.5h-78v-178h78q31 0 50.5 20
t19.5 55z" />
    <glyph glyph-name="afii10068" unicode="&#x433;" horiz-adv-x="696" 
d="M365 774v-774h-287v1024h604v-250h-317z" />
    <glyph glyph-name="afii10069" unicode="&#x434;" horiz-adv-x="849" 
d="M840 250v-475h-287v225h-266v-225h-287v475h90q35 212 35 426v348h620v-774h95zM358 250h121v524h-88v-117q0 -204 -33 -407z" />
    <glyph glyph-name="afii10070" unicode="&#x435;" horiz-adv-x="860" 
d="M512 319l285 -10q-13 -156 -111.5 -245t-255.5 -89q-168 0 -270.5 105.5t-102.5 296.5v270q0 191 102.5 296.5t270.5 105.5t270.5 -105.5t102.5 -296.5v-229h-459v-66q0 -63 22.5 -95t63.5 -32q34 0 57.5 24.5t24.5 69.5zM516 635v37q0 63 -22.5 95t-63.5 32t-63.5 -32
t-22.5 -95v-37h172z" />
    <glyph glyph-name="afii10072" unicode="&#x436;" horiz-adv-x="1136" 
d="M866 0l-102 354l-57 -51v-303h-277v303l-57 51l-103 -354h-270l176 539q-100 121 -100 338v147h276v-139q0 -103 13 -154t45 -86l20 -22v401h277v-401l20 22q31 34 44 86t13 154v139h277v-147q0 -214 -100 -338l176 -539h-271z" />
    <glyph glyph-name="afii10073" unicode="&#x437;" horiz-adv-x="782" 
d="M45 264v68l277 10v-53q0 -84 67 -84q68 0 68 84v45q0 38 -25 58t-63 20h-84v227h80q27 0 47 19.5t20 58.5v45q0 57 -45 57t-45 -57v-62l-276 11v69q0 120 90.5 194.5t230.5 74.5q141 0 231.5 -74t90.5 -199v-61q0 -135 -103 -183q127 -46 127 -204v-60q0 -132 -92 -212.5
t-252 -80.5q-159 0 -251.5 81t-92.5 208z" />
    <glyph glyph-name="afii10074" unicode="&#x438;" horiz-adv-x="876" 
d="M522 485l-207 -485h-237v1024h276v-485l207 485h238v-1024h-277v485z" />
    <glyph glyph-name="afii10075" unicode="&#x439;" horiz-adv-x="876" 
d="M522 485l-207 -485h-237v1024h276v-485l207 485h238v-1024h-277v485zM438 1325q45 0 64 33t24 106l185 -20q-13 -152 -85.5 -220.5t-187.5 -68.5q-114 0 -186.5 68.5t-85.5 220.5l184 20q5 -73 24 -106t64 -33z" />
    <glyph glyph-name="afii10076" unicode="&#x43a;" horiz-adv-x="839" 
d="M772 971q0 -144 -28 -231.5t-115 -170.5l211 -569h-293l-127 377l-55 -49v-328h-287v1024h287v-350l41 41q46 46 62.5 93.5t16.5 135.5v80h287v-53z" />
    <glyph glyph-name="afii10077" unicode="&#x43b;" horiz-adv-x="915" 
d="M551 0v774h-121v-428q0 -199 -84.5 -285t-259.5 -86h-86v250h49q56 0 75 27.5t19 97.5v674h695v-1024h-287z" />
    <glyph glyph-name="afii10078" unicode="&#x43c;" horiz-adv-x="1003" 
d="M440 195l-86 237v-432h-276v1024h233l191 -520l190 520h234v-1024h-277v432l-86 -237h-123z" />
    <glyph glyph-name="afii10079" unicode="&#x43d;" horiz-adv-x="851" 
d="M774 1024v-1024h-287v399h-122v-399h-287v1024h287v-375h122v375h287z" />
    <glyph glyph-name="afii10080" unicode="&#x43e;" horiz-adv-x="860" 
d="M803 647v-270q0 -191 -102.5 -296.5t-270.5 -105.5t-270.5 105.5t-102.5 296.5v270q0 191 102.5 296.5t270.5 105.5t270.5 -105.5t102.5 -296.5zM516 352v320q0 63 -22.5 95t-63.5 32t-63.5 -32t-22.5 -95v-320q0 -63 22.5 -95t63.5 -32t63.5 32t22.5 95z" />
    <glyph glyph-name="afii10081" unicode="&#x43f;" horiz-adv-x="858" 
d="M494 0v774h-129v-774h-287v1024h702v-1024h-286z" />
    <glyph glyph-name="afii10082" unicode="&#x440;" horiz-adv-x="880" 
d="M365 729v-434q21 -70 86 -70q44 0 65 33t21 109v290q0 76 -21 109t-65 33q-65 0 -86 -70zM365 1024v-76q21 49 69 75t109 26q127 0 203.5 -89t76.5 -286v-324q0 -197 -76.5 -286t-203.5 -89q-61 0 -109 26t-69 75v-522h-287v1470h287z" />
    <glyph glyph-name="afii10083" unicode="&#x441;" horiz-adv-x="845" 
d="M430 225q41 0 63.5 32t22.5 95v51l287 -10v-16q0 -191 -102.5 -296.5t-270.5 -105.5t-270.5 105.5t-102.5 296.5v270q0 191 102.5 296.5t270.5 105.5t270.5 -105.5t102.5 -296.5v-16l-287 -10v51q0 63 -22.5 95t-63.5 32t-63.5 -32t-22.5 -95v-320q0 -63 22.5 -95
t63.5 -32z" />
    <glyph glyph-name="afii10084" unicode="&#x442;" horiz-adv-x="733" 
d="M8 774v250h717v-250h-215v-774h-287v774h-215z" />
    <glyph glyph-name="afii10085" unicode="&#x443;" horiz-adv-x="829" 
d="M297 1024l125 -532l110 532h293l-280 -1137q-44 -180 -122 -249.5t-230 -69.5h-121v250h100q37 0 60 25.5t36 80.5l25 99l-289 1001h293z" />
    <glyph glyph-name="afii10086" unicode="&#x444;" horiz-adv-x="1318" 
d="M516 948v510h287v-510q21 49 69 75t109 26q128 0 204.5 -89t76.5 -286v-324q0 -197 -76.5 -286t-204.5 -89q-61 0 -109 26t-69 75v-522h-287v522q-21 -49 -69 -75t-109 -26q-128 0 -204.5 89t-76.5 286v324q0 197 76.5 286t204.5 89q61 0 109 -26t69 -75zM516 295v434
q-21 70 -86 70q-44 0 -65 -33t-21 -109v-290q0 -76 21 -109t65 -33q65 0 86 70zM803 729v-434q21 -70 86 -70q44 0 65 33t21 109v290q0 76 -21 109t-65 33q-65 0 -86 -70z" />
    <glyph glyph-name="afii10087" unicode="&#x445;" horiz-adv-x="790" 
d="M479 0l-84 313l-84 -313h-307l193 522l-181 502h301l78 -297l78 297h301l-180 -502l192 -522h-307z" />
    <glyph glyph-name="afii10088" unicode="&#x446;" horiz-adv-x="884" 
d="M588 -225v225h-510v1024h287v-774h129v774h286v-774h94v-475h-286z" />
    <glyph glyph-name="afii10089" unicode="&#x447;" horiz-adv-x="835" 
d="M61 655v369h287v-348q0 -83 13 -114.5t51 -31.5q37 0 59 25v469h287v-1024h-287v309q-54 -28 -115 -28q-153 0 -224 91.5t-71 282.5z" />
    <glyph glyph-name="afii10090" unicode="&#x448;" horiz-adv-x="1234" 
d="M1157 1024v-1024h-1079v1024h287v-774h108v774h287v-774h110v774h287z" />
    <glyph glyph-name="afii10091" unicode="&#x449;" horiz-adv-x="1261" 
d="M965 -225v225h-887v1024h287v-774h108v774h287v-774h110v774h287v-774h94v-475h-286z" />
    <glyph glyph-name="afii10092" unicode="&#x44a;" horiz-adv-x="935" 
d="M606 0h-389v774h-203v250h490v-332h102q133 0 217 -85t84 -236v-49q0 -152 -83.5 -237t-217.5 -85zM629 334v24q0 36 -17 54t-45 18h-63v-168h63q28 0 45 18t17 54z" />
    <glyph glyph-name="afii10093" unicode="&#x44b;" horiz-adv-x="1157" 
d="M1112 0h-287v1024h287v-1024zM78 0h389q134 0 217.5 85t83.5 237v49q0 151 -84 236t-217 85h-102v332h-287v-1024zM489 373v-54q0 -79 -69 -79h-55v213h55q69 0 69 -80z" />
    <glyph glyph-name="afii10094" unicode="&#x44c;" horiz-adv-x="796" 
d="M467 0h-389v1024h287v-332h102q133 0 217 -85t84 -236v-49q0 -152 -83.5 -237t-217.5 -85zM489 319v54q0 80 -69 80h-55v-213h55q69 0 69 79z" />
    <glyph glyph-name="afii10095" unicode="&#x44d;" horiz-adv-x="845" 
d="M788 647v-270q0 -191 -102 -296.5t-270 -105.5q-167 0 -270 102.5t-103 278.5v17l287 10v-41q0 -63 22.5 -95t63.5 -32t63.5 32t22.5 95v49h-135v238h135v53q0 63 -22.5 95t-63.5 32t-63.5 -32t-22.5 -95v-41l-287 10v17q0 176 103 278.5t270 102.5q168 0 270 -105.5
t102 -296.5z" />
    <glyph glyph-name="afii10096" unicode="&#x44e;" horiz-adv-x="1228" 
d="M1171 647v-270q0 -191 -102 -296.5t-270 -105.5t-270.5 105.5t-102.5 296.5v8h-61v-385h-287v1024h287v-389h61v12q0 191 102.5 296.5t270.5 105.5t270 -105.5t102 -296.5zM885 352v320q0 63 -22.5 95t-63.5 32t-63.5 -32t-22.5 -95v-320q0 -63 22.5 -95t63.5 -32
t63.5 32t22.5 95z" />
    <glyph glyph-name="afii10097" unicode="&#x44f;" horiz-adv-x="813" 
d="M449 0v344h-37l-131 -344h-267l162 393q-133 83 -133 291q0 162 85 251t243 89h364v-1024h-286zM319 684q0 -50 20 -75t54 -25h56v200h-56q-34 0 -54 -25t-20 -75z" />
    <glyph glyph-name="uni0450" unicode="&#x450;" horiz-adv-x="860" 
d="M512 319l285 -10q-13 -156 -111.5 -245t-255.5 -89q-168 0 -270.5 105.5t-102.5 296.5v270q0 191 102.5 296.5t270.5 105.5t270.5 -105.5t102.5 -296.5v-229h-459v-66q0 -63 22.5 -95t63.5 -32q34 0 57.5 24.5t24.5 69.5zM516 635v37q0 63 -22.5 95t-63.5 32t-63.5 -32
t-22.5 -95v-37h172zM353 1155l-148 330h246l94 -330h-192z" />
    <glyph glyph-name="afii10071" unicode="&#x451;" horiz-adv-x="860" 
d="M797 309l-285 10q-1 -45 -24.5 -69.5t-57.5 -24.5q-41 0 -63.5 32t-22.5 95v66h459v229q0 191 -102.5 296.5t-270.5 105.5t-270.5 -105.5t-102.5 -296.5v-270q0 -191 102.5 -296.5t270.5 -105.5q157 0 255.5 89t111.5 245zM516 672v-37h-172v37q0 63 22.5 95t63.5 32
t63.5 -32t22.5 -95zM375 1432v-232h-217v232h217zM702 1432v-232h-217v232h217z" />
    <glyph glyph-name="afii10099" unicode="&#x452;" horiz-adv-x="894" 
d="M-16 1155v193h94v110h287v-110h227v-193h-227v-223q25 55 75.5 86t118.5 31q130 0 197 -91t67 -256v-765q0 -199 -84.5 -285t-259.5 -86h-106v250h69q57 0 76 27.5t19 97.5v745q0 113 -82 113q-34 0 -58.5 -24.5t-31.5 -67.5v-707h-287v1155h-94z" />
    <glyph glyph-name="afii10100" unicode="&#x453;" horiz-adv-x="696" 
d="M365 774v-774h-287v1024h604v-250h-317zM575 1485l-147 -330h-192l94 330h245z" />
    <glyph glyph-name="afii10101" unicode="&#x454;" horiz-adv-x="845" 
d="M57 377v270q0 191 102.5 296.5t270.5 105.5q167 0 270 -102.5t103 -278.5v-17l-287 -10v41q0 63 -22.5 95t-63.5 32t-63.5 -32t-22.5 -95v-53h135v-238h-135v-49q0 -63 22.5 -95t63.5 -32t63.5 32t22.5 95v41l287 -10v-17q0 -176 -103 -278.5t-270 -102.5
q-168 0 -270.5 105.5t-102.5 296.5z" />
    <glyph glyph-name="afii10102" unicode="&#x455;" horiz-adv-x="798" 
d="M403 225q28 0 43 18t15 50q0 36 -20 57t-76 39l-70 23q-128 41 -183 115t-55 204v31q0 126 86 206.5t246 80.5t246 -80.5t86 -206.5v-39l-287 -8v33q0 51 -45 51t-45 -51q0 -43 19 -62.5t77 -38.5l70 -22q127 -41 182.5 -113t55.5 -188v-43q0 -139 -94.5 -222.5
t-245.5 -83.5q-161 0 -255 78.5t-94 218.5v47l287 9v-35q0 -68 57 -68z" />
    <glyph glyph-name="afii10103" unicode="&#x456;" horiz-adv-x="450" 
d="M82 0v1024h287v-1024h-287zM82 1163v295h287v-295h-287z" />
    <glyph glyph-name="afii10104" unicode="&#x457;" horiz-adv-x="450" 
d="M82 0v1024h287v-1024h-287zM170 1432v-232h-217v232h217zM498 1432v-232h-218v232h218z" />
    <glyph glyph-name="afii10105" unicode="&#x458;" horiz-adv-x="450" 
d="M82 1163v295h287v-295h-287zM82 -59v1083h287v-1087q0 -199 -84.5 -285t-259.5 -86h-107v250h70q56 0 75 27.5t19 97.5z" />
    <glyph glyph-name="afii10106" unicode="&#x459;" horiz-adv-x="1269" 
d="M940 0h-389v774h-121v-428q0 -199 -84.5 -285t-259.5 -86h-86v250h49q56 0 75 27.5t19 97.5v674h695v-332h102q133 0 217 -85t84 -236v-49q0 -152 -83.5 -237t-217.5 -85zM963 319v54q0 80 -70 80h-55v-213h55q70 0 70 79z" />
    <glyph glyph-name="afii10107" unicode="&#x45a;" horiz-adv-x="1206" 
d="M487 399h-122v-399h-287v1024h287v-375h122v375h287v-332h103q133 0 217 -85t84 -236v-49q0 -152 -83.5 -237t-217.5 -85h-390v399zM899 319v54q0 80 -70 80h-55v-213h55q70 0 70 79z" />
    <glyph glyph-name="afii10108" unicode="&#x45b;" horiz-adv-x="894" 
d="M-16 1155v193h94v110h287v-110h227v-193h-227v-223q25 55 75.5 86t118.5 31q130 0 197 -91t67 -256v-702h-286v686q0 113 -82 113q-34 0 -58.5 -24.5t-31.5 -67.5v-707h-287v1155h-94z" />
    <glyph glyph-name="afii10109" unicode="&#x45c;" horiz-adv-x="839" 
d="M772 971q0 -144 -28 -231.5t-115 -170.5l211 -569h-293l-127 377l-55 -49v-328h-287v1024h287v-350l41 41q46 46 62.5 93.5t16.5 135.5v80h287v-53zM612 1485l-147 -330h-193l95 330h245z" />
    <glyph glyph-name="uni045D" unicode="&#x45d;" horiz-adv-x="876" 
d="M315 0l207 485v-485h277v1024h-238l-207 -485v485h-276v-1024h237zM379 1155l-148 330h246l94 -330h-192z" />
    <glyph glyph-name="afii10110" unicode="&#x45e;" horiz-adv-x="829" 
d="M297 1024l125 -532l110 532h293l-280 -1137q-44 -180 -122 -249.5t-230 -69.5h-121v250h100q37 0 60 25.5t36 80.5l25 99l-289 1001h293zM416 1325q45 0 64 33.5t24 106.5l185 -21q-13 -152 -85.5 -220.5t-187.5 -68.5q-114 0 -186.5 68.5t-85.5 220.5l184 21
q5 -73 24 -106.5t64 -33.5z" />
    <glyph glyph-name="afii10193" unicode="&#x45f;" horiz-adv-x="841" 
d="M285 -225v225h-207v1024h287v-774h129v774h286v-1024h-209v-225h-286z" />
    <glyph glyph-name="afii10050" unicode="&#x490;" horiz-adv-x="876" 
d="M877 1159h-476v-1159h-315v1434h475v286h316v-561z" />
    <glyph glyph-name="afii10098" unicode="&#x491;" horiz-adv-x="696" 
d="M395 1024v221h287v-471h-317v-774h-287v1024h317z" />
    <glyph glyph-name="Wgrave" unicode="&#x1e80;" horiz-adv-x="1490" 
d="M594 1434h303l139 -813l127 813h320l-289 -1434h-301l-148 870l-147 -870h-301l-289 1434h320l127 -813zM697 1562l-148 330h246l94 -330h-192z" />
    <glyph glyph-name="wgrave" unicode="&#x1e81;" horiz-adv-x="1273" 
d="M514 1024h246l108 -551l103 551h299l-246 -1024h-266l-121 592l-121 -592h-266l-246 1024h299l103 -551zM563 1155l-147 330h246l94 -330h-193z" />
    <glyph glyph-name="Wacute" unicode="&#x1e82;" horiz-adv-x="1490" 
d="M594 1434h303l139 -813l127 813h320l-289 -1434h-301l-148 870l-147 -870h-301l-289 1434h320l127 -813zM942 1892l-147 -330h-193l94 330h246z" />
    <glyph glyph-name="wacute" unicode="&#x1e83;" horiz-adv-x="1273" 
d="M514 1024h246l108 -551l103 551h299l-246 -1024h-266l-121 592l-121 -592h-266l-246 1024h299l103 -551zM858 1485l-147 -330h-193l94 330h246z" />
    <glyph glyph-name="Wdieresis" unicode="&#x1e84;" horiz-adv-x="1490" 
d="M594 1434h303l139 -813l127 813h320l-289 -1434h-301l-148 870l-147 -870h-301l-289 1434h320l127 -813zM690 1839v-232h-217v232h217zM1018 1839v-232h-218v232h218z" />
    <glyph glyph-name="wdieresis" unicode="&#x1e85;" horiz-adv-x="1273" 
d="M514 1024h246l108 -551l103 551h299l-246 -1024h-266l-121 592l-121 -592h-266l-246 1024h299l103 -551zM582 1432v-232h-217v232h217zM909 1432v-232h-217v232h217z" />
    <glyph glyph-name="Ygrave" unicode="&#x1ef2;" horiz-adv-x="970" 
d="M485 973l152 461h326l-320 -781v-653h-315v653l-320 781h326zM408 1562l-148 330h246l94 -330h-192z" />
    <glyph glyph-name="ygrave" unicode="&#x1ef3;" horiz-adv-x="829" 
d="M297 1024l125 -532l110 532h293l-280 -1137q-44 -180 -122 -249.5t-230 -69.5h-121v250h100q37 0 60 25.5t36 80.5l25 99l-289 1001h293zM336 1155l-148 330h246l94 -330h-192z" />
    <glyph glyph-name="thinspace" unicode="&#x2009;" horiz-adv-x="286" 
 />
    <glyph glyph-name="uni2010" unicode="&#x2010;" horiz-adv-x="671" 
d="M57 543v237h557v-237h-557z" />
    <glyph glyph-name="figuredash" unicode="&#x2012;" horiz-adv-x="921" 
d="M844 543h-766v250h766v-250z" />
    <glyph glyph-name="endash" unicode="&#x2013;" horiz-adv-x="768" 
d="M768 543h-768v250h768v-250z" />
    <glyph glyph-name="emdash" unicode="&#x2014;" horiz-adv-x="1536" 
d="M1536 545h-1536v250h1536v-250z" />
    <glyph glyph-name="afii00208" unicode="&#x2015;" horiz-adv-x="1536" 
d="M1382 545h-1228v250h1228v-250z" />
    <glyph glyph-name="uni2016" unicode="&#x2016;" horiz-adv-x="1048" 
d="M195 -266v1800h256v-1800h-256zM600 -266v1800h254v-1800h-254z" />
    <glyph glyph-name="underscoredbl" unicode="&#x2017;" horiz-adv-x="1228" 
d="M92 -539v215h1045v-215h-1045zM92 -256v213h1045v-213h-1045z" />
    <glyph glyph-name="quoteleft" unicode="&#x2018;" horiz-adv-x="430" 
d="M369 1339v-317h-308v336q0 267 308 278v-145q-142 -13 -142 -127v-25h142z" />
    <glyph glyph-name="quoteright" unicode="&#x2019;" horiz-adv-x="430" 
d="M61 1319v317h308v-336q0 -267 -308 -278v145q142 13 142 127v25h-142z" />
    <glyph glyph-name="quotesinglbase" unicode="&#x201a;" horiz-adv-x="430" 
d="M61 0v317h308v-335q0 -268 -308 -279v145q142 13 142 127v25h-142z" />
    <glyph glyph-name="quotereversed" unicode="&#x201b;" horiz-adv-x="430" 
d="M369 1636v-317h-142v-25q0 -114 142 -127v-145q-308 11 -308 278v336h308z" />
    <glyph glyph-name="quotedblleft" unicode="&#x201c;" horiz-adv-x="829" 
d="M369 1339v-317h-308v336q0 267 308 278v-145q-142 -13 -142 -127v-25h142zM768 1339v-317h-307v336q0 267 307 278v-145q-141 -13 -141 -127v-25h141z" />
    <glyph glyph-name="quotedblright" unicode="&#x201d;" horiz-adv-x="829" 
d="M61 1319v317h308v-336q0 -267 -308 -278v145q142 13 142 127v25h-142zM461 1319v317h307v-336q0 -267 -307 -278v145q141 13 141 127v25h-141z" />
    <glyph glyph-name="quotedblbase" unicode="&#x201e;" horiz-adv-x="829" 
d="M61 0v317h308v-335q0 -268 -308 -279v145q142 13 142 127v25h-142zM461 0v317h307v-335q0 -268 -307 -279v145q141 13 141 127v25h-141z" />
    <glyph glyph-name="uni201F" unicode="&#x201f;" horiz-adv-x="829" 
d="M369 1636v-317h-142v-25q0 -114 142 -127v-145q-308 11 -308 278v336h308zM768 1636v-317h-141v-25q0 -114 141 -127v-145q-307 11 -307 278v336h307z" />
    <glyph glyph-name="dagger" unicode="&#x2020;" horiz-adv-x="890" 
d="M592 918v-1186h-293v1186h-217v270h217v344h293v-344h217v-270h-217z" />
    <glyph glyph-name="daggerdbl" unicode="&#x2021;" horiz-adv-x="890" 
d="M809 346v-270h-217v-344h-293v344h-217v270h217v572h-217v270h217v344h293v-344h217v-270h-217v-572h217z" />
    <glyph glyph-name="bullet" unicode="&#x2022;" horiz-adv-x="638" 
d="M57 670q0 109 76.5 185.5t185.5 76.5t186 -76.5t77 -185.5t-77 -185.5t-186 -76.5t-185.5 76.5t-76.5 185.5z" />
    <glyph glyph-name="onedotenleader" unicode="&#x2024;" horiz-adv-x="430" 
d="M61 0v317h308v-317h-308z" />
    <glyph glyph-name="twodotenleader" unicode="&#x2025;" horiz-adv-x="860" 
d="M61 0v317h308v-317h-308zM492 0v317h307v-317h-307z" />
    <glyph glyph-name="ellipsis" unicode="&#x2026;" horiz-adv-x="1290" 
d="M61 0v317h308v-317h-308zM492 0v317h307v-317h-307zM922 0v317h307v-317h-307z" />
    <glyph glyph-name="perthousand" unicode="&#x2030;" horiz-adv-x="1974" 
d="M1024 1434l-453 -1434h-200l452 1434h201zM279 1176v-207q0 -82 45 -82t45 82v207q0 81 -45 81t-45 -81zM582 1159v-174q0 -143 -64 -221t-194 -78t-194 78t-64 221v174q0 143 64 221t194 78t194 -78t64 -221zM1116 258v207q0 82 -45 82t-45 -82v-207q0 -82 45 -82t45 82
zM813 274v175q0 143 64 221t194 78t194 -78t64 -221v-175q0 -143 -64 -221t-194 -78t-194 78t-64 221zM1696 258v207q0 82 -45 82t-45 -82v-207q0 -82 45 -82t45 82zM1393 274v175q0 143 64 221t194 78t194 -78t64 -221v-175q0 -143 -64 -221t-194 -78t-194 78t-64 221z" />
    <glyph glyph-name="minute" unicode="&#x2032;" horiz-adv-x="421" 
d="M41 938l82 496h258l-139 -496h-201z" />
    <glyph glyph-name="second" unicode="&#x2033;" horiz-adv-x="765" 
d="M41 938l82 496h258l-139 -496h-201zM385 938l82 496h258l-139 -496h-201z" />
    <glyph glyph-name="guilsinglleft" unicode="&#x2039;" horiz-adv-x="428" 
d="M43 711l342 280v-239l-143 -113l143 -113v-239l-342 280v144z" />
    <glyph glyph-name="guilsinglright" unicode="&#x203a;" horiz-adv-x="428" 
d="M43 991l342 -280v-144l-342 -280v239l143 113l-143 113v239z" />
    <glyph glyph-name="exclamdbl" unicode="&#x203c;" horiz-adv-x="995" 
d="M162 475l-39 733v226h311v-226l-39 -733h-233zM135 0v295h287v-295h-287zM600 475l-39 733v226h311v-226l-38 -733h-234zM573 0v295h287v-295h-287z" />
    <glyph glyph-name="uni203E" unicode="&#x203e;" horiz-adv-x="614" 
d="M45 1235v180h524v-180h-524z" />
    <glyph glyph-name="fraction" unicode="&#x2044;" horiz-adv-x="266" 
d="M451 1434l-435 -1434h-200l434 1434h201z" />
    <glyph glyph-name="zerosuperior" unicode="&#x2070;" 
d="M295 664q21 0 30 15.5t9 53.5v453q0 38 -9 53.5t-30 15.5t-30 -15.5t-9 -53.5v-453q0 -38 9 -53.5t30 -15.5zM295 469q-125 0 -193.5 74.5t-68.5 210.5v411q0 136 68.5 210.5t193.5 74.5t193.5 -74.5t68.5 -210.5v-411q0 -136 -68.5 -210.5t-193.5 -74.5z" />
    <glyph glyph-name="uni2071" unicode="&#x2071;" 
d="M182 485v666h224v-666h-224zM182 1223v211h224v-211h-224z" />
    <glyph glyph-name="foursuperior" unicode="&#x2074;" 
d="M190 846h97v217zM571 846v-195h-73v-166h-211v166h-271v164l271 619h211v-588h73z" />
    <glyph glyph-name="fivesuperior" unicode="&#x2075;" 
d="M33 756v39l223 4v-64q0 -38 9 -53.5t30 -15.5t30 15.5t9 53.5v135q0 51 -7 69.5t-26 18.5q-26 0 -29 -38h-209v514h461v-195h-237v-104q35 18 67 18q96 0 149.5 -71t53.5 -240v-86q0 -136 -68.5 -210.5t-193.5 -74.5t-193.5 74.5t-68.5 210.5z" />
    <glyph glyph-name="sixsuperior" unicode="&#x2076;" 
d="M72 1030l137 404h235l-120 -332h8q98 0 160.5 -73.5t62.5 -209.5v-69q0 -139 -72 -210t-188 -71q-118 0 -189 71.5t-71 213.5v61q0 44 10.5 107t26.5 108zM258 848v-125q0 -32 8 -45.5t29 -13.5t29 13.5t8 45.5v125q0 32 -8 45.5t-29 13.5t-29 -13.5t-8 -45.5z" />
    <glyph glyph-name="sevensuperior" unicode="&#x2077;" 
d="M41 1239v195h508v-160l-215 -787h-228l203 752h-268z" />
    <glyph glyph-name="eightsuperior" unicode="&#x2078;" 
d="M295 1087q43 0 43 66v51q0 66 -43 66t-43 -66v-51q0 -66 43 -66zM295 659q53 0 53 91v73q0 48 -13 69t-40 21t-40 -21t-13 -69v-73q0 -91 53 -91zM295 473q-130 0 -200 74t-70 217v45q0 67 26.5 122t73.5 79q-34 20 -54 62.5t-20 94.5v37q0 114 65 181t179 67t179 -67
t65 -181v-37q0 -52 -20 -94.5t-54 -62.5q47 -24 73.5 -79t26.5 -122v-45q0 -143 -70 -217t-200 -74z" />
    <glyph glyph-name="ninesuperior" unicode="&#x2079;" 
d="M518 889l-137 -404h-236l121 332h-8q-98 0 -160.5 73.5t-62.5 209.5v69q0 139 72 210t188 71q118 0 189 -71.5t71 -213.5v-61q0 -44 -10.5 -107t-26.5 -108zM332 1071v125q0 32 -8 45.5t-29 13.5t-29 -13.5t-8 -45.5v-125q0 -32 8 -45.5t29 -13.5t29 13.5t8 45.5z" />
    <glyph glyph-name="uni207A" unicode="&#x207a;" 
d="M31 864v172h159v178h209v-178h160v-172h-160v-178h-209v178h-159z" />
    <glyph glyph-name="uni207B" unicode="&#x207b;" 
d="M31 864v172h528v-172h-528z" />
    <glyph glyph-name="uni207C" unicode="&#x207c;" 
d="M31 999v172h528v-172h-528zM31 748v172h528v-172h-528z" />
    <glyph glyph-name="uni207D" unicode="&#x207d;" 
d="M156 745v429q0 286 262 393l65 -191q-108 -47 -108 -209v-415q0 -162 108 -209l-65 -191q-262 107 -262 393z" />
    <glyph glyph-name="uni207E" unicode="&#x207e;" 
d="M434 1174v-429q0 -286 -262 -393l-66 191q109 48 109 209v415q0 161 -109 209l66 191q262 -107 262 -393z" />
    <glyph glyph-name="uni207F" unicode="&#x207f;" 
d="M553 485h-213v490q0 65 -39 65q-36 0 -45 -45v-510h-213v719h213v-49q45 68 123 68q94 0 134 -61t40 -177v-500z" />
    <glyph glyph-name="zeroinferior" unicode="&#x2080;" 
d="M295 -80q21 0 30 16t9 54v452q0 38 -9 54t-30 16t-30 -16t-9 -54v-452q0 -38 9 -54t30 -16zM295 -274q-125 0 -193.5 74t-68.5 210v412q0 136 68.5 210.5t193.5 74.5t193.5 -74.5t68.5 -210.5v-412q0 -136 -68.5 -210t-193.5 -74z" />
    <glyph glyph-name="oneinferior" unicode="&#x2081;" 
d="M543 -258h-475v195h127v532l-127 -53v188l180 86h170v-753h125v-195z" />
    <glyph glyph-name="twoinferior" unicode="&#x2082;" 
d="M547 428v-27q0 -125 -60 -217l-157 -247h221v-195h-508v143l248 406q33 51 33 110v35q0 32 -7 44t-24 12t-24 -12t-7 -44v-69l-223 4v57q0 136 64 207.5t192 71.5q252 0 252 -279z" />
    <glyph glyph-name="threeinferior" unicode="&#x2083;" 
d="M551 102v-92q0 -136 -68.5 -210t-193.5 -74t-193.5 74t-68.5 210v60h223v-80q0 -38 9 -54t30 -16t30 16t9 54v133q0 63 -49 63q-28 0 -56 -28l-108 104l157 232h-217v196h471v-168l-127 -178q72 -13 112 -80t40 -162z" />
    <glyph glyph-name="fourinferior" unicode="&#x2084;" 
d="M190 102h97v217zM571 102v-194h-73v-166h-211v166h-271v164l271 618h211v-588h73z" />
    <glyph glyph-name="fiveinferior" unicode="&#x2085;" 
d="M33 12v39l223 4v-63q0 -38 9 -54t30 -16t30 16t9 54v135q0 51 -7 69.5t-26 18.5q-26 0 -29 -39h-209v514h461v-194h-237v-105q36 19 67 19q96 0 149.5 -71.5t53.5 -240.5v-86q0 -136 -68.5 -210t-193.5 -74t-193.5 74t-68.5 210z" />
    <glyph glyph-name="sixinferior" unicode="&#x2086;" 
d="M72 287l137 403h235l-120 -332h8q98 0 160.5 -73t62.5 -209v-70q0 -139 -72 -209.5t-188 -70.5q-118 0 -189 71t-71 213v62q0 44 10.5 107t26.5 108zM258 104v-124q0 -32 8 -46t29 -14t29 14t8 46v124q0 32 -8 46t-29 14t-29 -14t-8 -46z" />
    <glyph glyph-name="seveninferior" unicode="&#x2087;" 
d="M41 496v194h508v-160l-215 -786h-228l203 752h-268z" />
    <glyph glyph-name="eightinferior" unicode="&#x2088;" 
d="M295 344q43 0 43 66v51q0 65 -43 65t-43 -65v-51q0 -66 43 -66zM295 -84q27 0 40 21t13 69v74q0 48 -13 69t-40 21t-40 -21t-13 -69v-74q0 -48 13 -69t40 -21zM295 -270q-130 0 -200 73.5t-70 216.5v46q0 67 26.5 121.5t73.5 78.5q-34 20 -54 63t-20 95v37q0 114 65 181
t179 67t179 -67t65 -181v-37q0 -52 -20 -95t-54 -63q47 -24 73.5 -78.5t26.5 -121.5v-46q0 -143 -70 -216.5t-200 -73.5z" />
    <glyph glyph-name="nineinferior" unicode="&#x2089;" 
d="M518 145l-137 -403h-236l121 332h-8q-98 0 -160.5 73t-62.5 209v70q0 139 72 210t188 71q118 0 189 -71.5t71 -213.5v-62q0 -44 -10.5 -107t-26.5 -108zM332 328v125q0 32 -8 45.5t-29 13.5t-29 -13.5t-8 -45.5v-125q0 -32 8 -46t29 -14t29 14t8 46z" />
    <glyph glyph-name="uni208A" unicode="&#x208a;" 
d="M31 121v172h159v178h209v-178h160v-172h-160v-178h-209v178h-159z" />
    <glyph glyph-name="uni208B" unicode="&#x208b;" 
d="M31 121v172h528v-172h-528z" />
    <glyph glyph-name="uni208C" unicode="&#x208c;" 
d="M31 256v172h528v-172h-528zM31 4v172h528v-172h-528z" />
    <glyph glyph-name="uni208D" unicode="&#x208d;" 
d="M156 2v428q0 286 262 393l65 -190q-108 -47 -108 -209v-416q0 -162 108 -209l-65 -190q-262 107 -262 393z" />
    <glyph glyph-name="uni208E" unicode="&#x208e;" 
d="M434 430v-428q0 -286 -262 -393l-66 190q109 48 109 209v416q0 161 -109 209l66 190q262 -107 262 -393z" />
    <glyph glyph-name="uni2090" unicode="&#x2090;" 
d="M281 -123q40 0 63 41v121h-37q-65 0 -65 -74v-26q0 -62 39 -62zM78 250v14q0 103 60 160t165 57q106 0 165.5 -56.5t59.5 -160.5v-522h-184v35q-14 -24 -41.5 -37.5t-56.5 -13.5q-81 0 -135 52.5t-54 158.5v28q0 103 61 158t167 55h59v78q0 74 -41 74q-21 0 -30 -18
t-11 -56v-14z" />
    <glyph glyph-name="uni2091" unicode="&#x2091;" 
d="M352 -12l185 -11v-8q0 -112 -64 -177.5t-178 -65.5q-115 0 -178.5 66.5t-63.5 184.5v252q0 118 63.5 185t178.5 67t178.5 -67t63.5 -185v-178h-299v-45q0 -61 13.5 -84.5t43.5 -23.5t43.5 20.5t13.5 69.5zM238 201v-15h114v15q0 61 -13.5 84.5t-43.5 23.5t-43.5 -23.5
t-13.5 -84.5z" />
    <glyph glyph-name="uni2092" unicode="&#x2092;" 
d="M295 -102q30 0 43.5 23.5t13.5 84.5v195q0 61 -13.5 84.5t-43.5 23.5t-43.5 -23.5t-13.5 -84.5v-195q0 -61 13.5 -84.5t43.5 -23.5zM295 -274q-115 0 -178.5 66.5t-63.5 184.5v252q0 118 63.5 185t178.5 67t178.5 -67t63.5 -185v-252q0 -118 -63.5 -184.5t-178.5 -66.5z
" />
    <glyph glyph-name="uni2093" unicode="&#x2093;" 
d="M369 -256l-76 240l-76 -240h-209l152 377l-133 342h202l64 -205l63 205h203l-133 -342l152 -377h-209z" />
    <glyph glyph-name="uni2094" unicode="&#x2094;" 
d="M238 219l-185 10v9q0 112 64 177.5t178 65.5q115 0 178.5 -67t63.5 -185v-252q0 -118 -63.5 -184.5t-178.5 -66.5t-178.5 66.5t-63.5 184.5v175h299v49q0 61 -13.5 84.5t-43.5 23.5t-43.5 -20.5t-13.5 -69.5zM352 6v10h-114v-10q0 -61 13.5 -84.5t43.5 -23.5t43.5 23.5
t13.5 84.5z" />
    <glyph glyph-name="uni20A0" unicode="&#x20a0;" horiz-adv-x="1132" 
d="M47 737v402q0 157 102.5 238t268.5 81q163 0 256.5 -80.5t93.5 -238.5v-47l-258 -7v52q0 108 -92 108q-43 0 -66.5 -24t-23.5 -84v-398q0 -60 24.5 -84t69.5 -24q57 0 88 24v349h594v-213h-316v-179h261v-213h-261v-186h316v-213h-594v438q-41 -20 -115 -20
q-95 0 -172 33t-126.5 107t-49.5 179z" />
    <glyph glyph-name="colonmonetary" unicode="&#x20a1;" horiz-adv-x="987" 
d="M684 4v-197h-133v170q-16 -2 -47 -2q-25 0 -35 2v-170h-133v193q-129 44 -199.5 158t-70.5 291v536q0 177 70.5 290t199.5 157v194h133v-170q10 2 35 2q31 0 47 -2v170h133v-199q123 -45 190.5 -157.5t67.5 -284.5v-57l-315 -10v51q0 115 -30.5 165t-92.5 50t-92.5 -50
t-30.5 -165v-504q0 -115 30.5 -165t92.5 -50t92.5 50t30.5 165v51l315 -10v-57q0 -171 -67.5 -284.5t-190.5 -160.5z" />
    <glyph glyph-name="uni20A2" unicode="&#x20a2;" horiz-adv-x="987" 
d="M418 254v561h176v-55q14 35 40 53t56 18q38 0 70 -14v-176q-40 21 -84 21q-22 0 -46.5 -14.5t-35.5 -39.5v-344q53 53 53 180v52l295 -11v-36q0 -229 -118 -351.5t-320 -122.5t-320 122.5t-118 351.5v536q0 229 118 351t320 122t320 -122t118 -351v-37l-295 -10v51
q0 112 -39 163.5t-104 51.5q-68 0 -116 -52.5t-48 -162.5v-545q0 -136 78 -190z" />
    <glyph glyph-name="franc" unicode="&#x20a3;" horiz-adv-x="856" 
d="M676 504h-275v-504h-315v504h-106v147h106v111h-106v147h106v525h748v-275h-433v-250h275v-147h-275v-111h275v-147z" />
    <glyph glyph-name="lira" unicode="&#x20a4;" horiz-adv-x="948" 
d="M145 473h-104v148h104v90h-104v147h104v170q0 207 94.5 318.5t282.5 111.5t282.5 -111.5t94.5 -318.5v-39l-315 -10v61q0 111 -62 111q-61 0 -61 -109v-184h270v-147h-270v-90h270v-148h-270v-12q0 -123 -53 -187h491v-274h-840v211q86 111 86 242v20z" />
    <glyph glyph-name="uni20A6" unicode="&#x20a6;" horiz-adv-x="1075" 
d="M375 1434l287 -760v760h307v-541h106v-148h-106v-69h106v-148h-106v-528h-269l-286 760v-760h-308v541h-106v147h106v70h-106v147h106v529h269z" />
    <glyph glyph-name="peseta" unicode="&#x20a7;" horiz-adv-x="1835" 
d="M1491 0h-391q-262 0 -262 338v436h-64q-32 -158 -118.5 -234.5t-194.5 -76.5h-82v-463h-293v1434h375q59 0 111.5 -22.5t99 -69.5t77.5 -128.5t39 -189.5h50v291h270v-291h141v-55q93 80 228 80q129 0 206.5 -82t77.5 -205v-39l-250 -8v33q0 51 -34 51q-37 0 -37 -51
q0 -45 15.5 -67.5t62.5 -35.5l55 -16q211 -64 211 -287v-43q0 -136 -85 -217.5t-208 -81.5zM1108 774v-424q0 -61 18 -80.5t58 -19.5h264q65 0 65 72q0 35 -15 55.5t-50 32.5l-47 18q-56 27 -93 50.5t-71.5 59t-51 83.5t-16.5 110v43h-61zM379 713h41q119 0 119 235
q0 236 -119 236h-41v-471z" />
    <glyph glyph-name="uni20A8" unicode="&#x20a8;" horiz-adv-x="1554" 
d="M575 0l-137 504h-69v-504h-283v1434h373q58 0 110 -14.5t100.5 -49t84 -87t56.5 -133t21 -181.5q0 -271 -147 -391l188 -578h-297zM1194 205q24 0 37.5 22t13.5 56q0 38 -18.5 63t-67.5 43l-63 23q-115 41 -164 115t-49 204v31q0 126 77.5 206.5t221.5 80.5t221.5 -80.5
t77.5 -206.5v-39l-258 -8v43q0 26 -10.5 43.5t-30.5 17.5q-41 0 -41 -61q0 -45 17.5 -69t68.5 -42l63 -22q115 -40 164 -112t49 -189v-43q0 -139 -85 -222.5t-220 -83.5q-146 0 -229.5 78.5t-83.5 218.5v47l258 9v-45q0 -34 13.5 -56t37.5 -22zM369 758h47q68 0 100.5 56.5
t32.5 154.5t-32.5 154.5t-100.5 56.5h-47v-422z" />
    <glyph glyph-name="uni20A9" unicode="&#x20a9;" horiz-adv-x="1531" 
d="M1532 541h-209l-109 -541h-301l-147 870l-148 -870h-301l-108 541h-209v147h178l-14 70h-164v147h135l-106 529h319l127 -813l139 813h304l139 -813l127 813h319l-106 -529h135v-147h-166l-14 -70h180v-147z" />
    <glyph glyph-name="afii57636" unicode="&#x20aa;" horiz-adv-x="1474" 
d="M86 0v1434h543q197 0 305 -120.5t108 -375.5v-414h-262v367q0 152 -42 222.5t-126 70.5h-264v-1184h-262zM1389 1434v-1434h-543q-197 0 -305.5 120.5t-108.5 375.5v413h262v-366q0 -152 42 -222.5t126 -70.5h264v1184h263z" />
    <glyph glyph-name="dong" unicode="&#x20ab;" horiz-adv-x="880" 
d="M354 1137v192h162v105h287v-105h121v-192h-121v-1137h-287v76q-21 -49 -69 -75t-109 -26q-128 0 -204.5 89t-76.5 286v309q0 197 76.5 286t204.5 89q62 0 109.5 -26t68.5 -74v203h-162zM127 -334v193h639v-193h-639zM516 295v420q-21 69 -86 69q-44 0 -65 -32.5
t-21 -108.5v-276q0 -76 21 -109t65 -33q65 0 86 70z" />
    <glyph glyph-name="Euro" unicode="&#x20ac;" horiz-adv-x="1026" 
d="M104 518h-90v148h90v92h-90v147h90v80q0 229 118 351t321 122q202 0 320 -122t118 -351v-57l-315 -10v51q0 115 -30.5 165t-92.5 50t-92.5 -50t-30.5 -165v-64h190l-18 -147h-172v-92h158l-19 -148h-139v-53q0 -115 30.5 -165t92.5 -50t92.5 50t30.5 165v51l315 -10v-57
q0 -229 -118 -351.5t-320 -122.5t-320.5 122.5t-118.5 351.5v69z" />
    <glyph glyph-name="afii61248" unicode="&#x2105;" horiz-adv-x="1531" 
d="M1083 1434l-434 -1434h-200l434 1434h200zM41 840v293q0 152 74.5 234.5t212.5 82.5t212 -82.5t74 -234.5v-39l-235 -7v52q0 50 -12 73t-39 23q-28 0 -40 -23t-12 -73v-305q0 -97 52 -97q27 0 39 23.5t12 73.5v51l235 -6v-39q0 -153 -74 -235.5t-212 -82.5t-212.5 83
t-74.5 235zM1204 -16q138 0 212.5 82.5t74.5 234.5v293q0 152 -74.5 234.5t-212.5 82.5t-212 -82.5t-74 -234.5v-293q0 -152 74 -234.5t212 -82.5zM1204 696q27 0 39 -23t12 -73v-305q0 -50 -12 -73t-39 -23t-39 23t-12 73v305q0 50 12 73t39 23z" />
    <glyph glyph-name="uni2109" unicode="&#x2109;" horiz-adv-x="1368" 
d="M219 1231q0 -34 19.5 -54t48.5 -20t48 20t19 54t-19 54t-48 20t-48.5 -20t-19.5 -54zM43 1231q0 104 70 170.5t174 66.5t173.5 -66.5t69.5 -170.5q0 -105 -69.5 -171.5t-173.5 -66.5t-174 67t-70 171zM598 0v1434h748v-275h-433v-305h385v-274h-385v-580h-315z" />
    <glyph glyph-name="afii61289" unicode="&#x2113;" horiz-adv-x="886" 
d="M557 375l287 -29q0 -175 -99 -273t-256 -98q-138 0 -227 75.5t-110 223.5q-56 -15 -111 -24l-37 297q82 17 143 33v495q0 188 87 285.5t243 97.5t244 -97.5t88 -285.5v-61q0 -421 -381 -629v-8q0 -127 61 -127q68 0 68 125zM526 1014v45q0 73 -11.5 99t-37.5 26
q-25 0 -37 -26.5t-12 -98.5v-326q98 109 98 281z" />
    <glyph glyph-name="afii61352" unicode="&#x2116;" horiz-adv-x="1443" 
d="M547 0l-215 727v-727h-246v1434h238l215 -727v727h245v-1434h-237zM1186 770v-199q0 -110 -72 -110q-70 0 -70 110v199q0 111 70 111q72 0 72 -111zM1382 586v170q0 163 -73 248.5t-195 85.5q-121 0 -194.5 -85.5t-73.5 -248.5v-170q0 -163 73.5 -248.5t194.5 -85.5
q122 0 195 85.5t73 248.5zM838 0v195h555v-195h-555z" />
    <glyph glyph-name="uni2117" unicode="&#x2117;" horiz-adv-x="1159" 
d="M676 856q0 57 -21.5 92t-66.5 35h-43v-254h43q45 0 66.5 35t21.5 92zM580 -25q-243 0 -387 157.5t-144 461.5v246q0 304 144 461t387 157t386.5 -157t143.5 -461v-246q0 -304 -143.5 -461.5t-386.5 -157.5zM580 1321q-383 0 -383 -498v-213q0 -497 383 -497t383 497v213
q0 498 -383 498zM545 569v-286h-187v860h252q99 0 175.5 -76.5t76.5 -210.5t-76.5 -210.5t-175.5 -76.5h-65z" />
    <glyph glyph-name="uni2120" unicode="&#x2120;" horiz-adv-x="1044" 
d="M39 930v20l168 4v-32q0 -41 31 -41q30 0 30 41v24q0 35 -9 51t-36 23l-26 8q-84 25 -122 74t-38 133v27q0 82 50.5 133t139.5 51t140 -51.5t51 -132.5v-25l-168 -4v35q0 37 -23 37q-22 0 -22 -37v-31q0 -28 13 -43t48 -27l25 -8q73 -23 109 -69t36 -127v-33
q0 -86 -54.5 -138.5t-143.5 -52.5t-144 52.5t-55 138.5zM700 907l-57 152v-309h-168v684h152l102 -291l102 291h152v-684h-168v309l-57 -152h-58z" />
    <glyph glyph-name="uni2121" unicode="&#x2121;" horiz-adv-x="1714" 
d="M8 1180v254h684v-254h-205v-1180h-274v1180h-205zM993 319l244 -10q-29 -334 -326 -334q-163 0 -247 103t-84 299v270q0 196 84 299t247 103t247.5 -103t84.5 -299v-229h-418v-86q0 -63 22.5 -95t63.5 -32q38 0 59 32t23 82zM997 635v57q0 63 -22.5 95t-63.5 32
t-63.5 -32t-22.5 -95v-57h172zM1645 229h63v-229h-143q-77 0 -126 18.5t-76.5 62.5t-37.5 103.5t-10 153.5v1120h246v-1122q0 -63 18 -85t66 -22z" />
    <glyph glyph-name="trademark" unicode="&#x2122;" horiz-adv-x="1034" 
d="M6 1229v205h422v-205h-113v-479h-196v479h-113zM690 907l-57 152v-309h-168v684h151l103 -291l102 291h152v-684h-168v309l-57 -152h-58z" />
    <glyph glyph-name="Omega" unicode="&#x2126;" horiz-adv-x="1024" 
d="M512 1458q202 0 320 -122t118 -351v-399q0 -232 -135 -312h135v-274h-393v254q29 19 45 44.5t24.5 77.5t8.5 140v453q0 115 -30.5 165t-92.5 50t-92.5 -50t-30.5 -165v-453q0 -88 8.5 -140t24.5 -77.5t45 -44.5v-254h-393v274h135q-135 80 -135 312v399q0 229 118 351
t320 122z" />
    <glyph glyph-name="estimated" unicode="&#x212e;" horiz-adv-x="1060" 
d="M784 776v418q-77 135 -254 135t-254 -135v-418h508zM276 647v-391q35 -75 106 -113.5t159 -38.5q99 0 156 33t112 109l141 -27q-134 -244 -409 -244q-214 0 -344.5 153t-130.5 427v324q0 182 61 314.5t165 198.5t238 66q206 0 335.5 -153.5t129.5 -425.5v-232h-719z" />
    <glyph glyph-name="onethird" unicode="&#x2153;" horiz-adv-x="1495" 
d="M526 485h-475v195h127v532l-127 -53v189l180 86h170v-754h125v-195zM1065 1434l-434 -1434h-201l434 1434h201zM1454 360v-92q0 -136 -68.5 -210t-193.5 -74t-193.5 74t-68.5 210v60h223v-80q0 -38 9 -54t30 -16t30 16t9 54v133q0 63 -49 63q-28 0 -56 -28l-108 104
l158 232h-218v196h472v-168l-127 -178q72 -13 111.5 -80t39.5 -162z" />
    <glyph glyph-name="twothirds" unicode="&#x2154;" horiz-adv-x="1495" 
d="M1065 1434l-434 -1434h-201l434 1434h201zM547 1171v-26q0 -125 -60 -217l-157 -248h221v-195h-508v144l248 405q33 51 33 111v35q0 32 -6.5 43.5t-24.5 11.5t-24.5 -11.5t-6.5 -43.5v-70l-223 4v57q0 136 64 207.5t192 71.5q252 0 252 -279zM1454 360v-92
q0 -136 -68.5 -210t-193.5 -74t-193.5 74t-68.5 210v60h223v-80q0 -38 9 -54t30 -16t30 16t9 54v133q0 63 -49 63q-28 0 -56 -28l-108 104l158 232h-218v196h472v-168l-127 -178q72 -13 111.5 -80t39.5 -162z" />
    <glyph glyph-name="onefifth" unicode="&#x2155;" horiz-adv-x="1495" 
d="M543 485h-475v195h127v532l-127 -53v189l180 86h170v-754h125v-195zM1065 1434l-434 -1434h-201l434 1434h201zM930 270v39l223 4v-63q0 -38 9 -54t30 -16t30 16t9 54v135q0 51 -7 69.5t-26 18.5q-26 0 -29 -39h-208v514h460v-194h-237v-105q36 19 67 19
q96 0 149.5 -71.5t53.5 -240.5v-86q0 -136 -68.5 -210t-193.5 -74t-193.5 74t-68.5 210z" />
    <glyph glyph-name="twofifths" unicode="&#x2156;" horiz-adv-x="1495" 
d="M547 1171v-26q0 -125 -60 -217l-157 -248h221v-195h-508v144l248 405q33 51 33 111v35q0 32 -6.5 43.5t-24.5 11.5t-24.5 -11.5t-6.5 -43.5v-70l-223 4v57q0 136 64 207.5t192 71.5q252 0 252 -279zM1065 1434l-434 -1434h-201l434 1434h201zM930 270v39l223 4v-63
q0 -38 9 -54t30 -16t30 16t9 54v135q0 51 -7 69.5t-26 18.5q-26 0 -29 -39h-208v514h460v-194h-237v-105q36 19 67 19q96 0 149.5 -71.5t53.5 -240.5v-86q0 -136 -68.5 -210t-193.5 -74t-193.5 74t-68.5 210z" />
    <glyph glyph-name="threefifths" unicode="&#x2157;" horiz-adv-x="1495" 
d="M551 846v-92q0 -136 -68.5 -210.5t-193.5 -74.5t-193.5 74.5t-68.5 210.5v59h223v-80q0 -38 9 -53.5t30 -15.5t30 15.5t9 53.5v133q0 64 -49 64q-27 0 -56 -29l-108 105l157 231h-217v197h471v-168l-127 -179q72 -13 112 -79.5t40 -161.5zM1065 1434l-434 -1434h-201
l434 1434h201zM930 270v39l223 4v-63q0 -38 9 -54t30 -16t30 16t9 54v135q0 51 -7 69.5t-26 18.5q-26 0 -29 -39h-208v514h460v-194h-237v-105q36 19 67 19q96 0 149.5 -71.5t53.5 -240.5v-86q0 -136 -68.5 -210t-193.5 -74t-193.5 74t-68.5 210z" />
    <glyph glyph-name="fourfifths" unicode="&#x2158;" horiz-adv-x="1495" 
d="M930 270v39l223 4v-63q0 -38 9 -54t30 -16t30 16t9 54v135q0 51 -7 69.5t-26 18.5q-26 0 -29 -39h-208v514h460v-194h-237v-105q36 19 67 19q96 0 149.5 -71.5t53.5 -240.5v-86q0 -136 -68.5 -210t-193.5 -74t-193.5 74t-68.5 210zM190 846h97v217zM571 846v-195h-73
v-166h-211v166h-271v164l271 619h211v-588h73zM1065 1434l-434 -1434h-201l434 1434h201z" />
    <glyph glyph-name="onesixth" unicode="&#x2159;" horiz-adv-x="1495" 
d="M1108 948l-137 -403q-16 -45 -26.5 -108t-10.5 -107v-62q0 -142 71 -213t189 -71q116 0 188 70.5t72 209.5v70q0 136 -62.5 209t-160.5 73h-8l120 332h-235zM1157 238v124q0 32 8 46t29 14t29 -14t8 -46v-124q0 -32 -8 -46t-29 -14t-29 14t-8 46zM543 485h-475v195h127
v532l-127 -53v189l180 86h170v-754h125v-195zM1065 1434l-434 -1434h-201l434 1434h201z" />
    <glyph glyph-name="fivesixths" unicode="&#x215a;" horiz-adv-x="1495" 
d="M1108 948l-137 -403q-16 -45 -26.5 -108t-10.5 -107v-62q0 -142 71 -213t189 -71q116 0 188 70.5t72 209.5v70q0 136 -62.5 209t-160.5 73h-8l120 332h-235zM1157 238v124q0 32 8 46t29 14t29 -14t8 -46v-124q0 -32 -8 -46t-29 -14t-29 14t-8 46zM33 756v39l223 4v-64
q0 -38 9 -53.5t30 -15.5t30 15.5t9 53.5v135q0 51 -7 69.5t-26 18.5q-26 0 -29 -38h-209v514h461v-195h-237v-104q35 18 67 18q96 0 149.5 -71t53.5 -240v-86q0 -136 -68.5 -210.5t-193.5 -74.5t-193.5 74.5t-68.5 210.5zM1065 1434l-434 -1434h-201l434 1434h201z" />
    <glyph glyph-name="oneeighth" unicode="&#x215b;" horiz-adv-x="1495" 
d="M543 485h-475v195h127v532l-127 -53v189l180 86h170v-754h125v-195zM1065 1434l-434 -1434h-201l434 1434h201zM1184 602q43 0 43 66v51q0 65 -43 65t-43 -65v-51q0 -66 43 -66zM1184 174q27 0 40 21t13 69v74q0 48 -13 69t-40 21q-54 0 -54 -90v-74q0 -90 54 -90z
M1184 -12q-130 0 -200.5 74t-70.5 217v45q0 67 27 121t74 79q-34 20 -54 63t-20 95v37q0 114 65 181t179 67q113 0 178 -66.5t65 -181.5v-37q0 -53 -19.5 -95.5t-53.5 -62.5q47 -24 73.5 -78.5t26.5 -121.5v-45q0 -143 -70 -217t-200 -74z" />
    <glyph glyph-name="threeeighths" unicode="&#x215c;" horiz-adv-x="1495" 
d="M551 846v-92q0 -136 -68.5 -210.5t-193.5 -74.5t-193.5 74.5t-68.5 210.5v59h223v-80q0 -38 9 -53.5t30 -15.5t30 15.5t9 53.5v133q0 64 -49 64q-27 0 -56 -29l-108 105l157 231h-217v197h471v-168l-127 -179q72 -13 112 -79.5t40 -161.5zM1065 1434l-434 -1434h-201
l434 1434h201zM1184 602q43 0 43 66v51q0 65 -43 65t-43 -65v-51q0 -66 43 -66zM1184 174q27 0 40 21t13 69v74q0 48 -13 69t-40 21q-54 0 -54 -90v-74q0 -90 54 -90zM1184 -12q-130 0 -200.5 74t-70.5 217v45q0 67 27 121t74 79q-34 20 -54 63t-20 95v37q0 114 65 181
t179 67q113 0 178 -66.5t65 -181.5v-37q0 -53 -19.5 -95.5t-53.5 -62.5q47 -24 73.5 -78.5t26.5 -121.5v-45q0 -143 -70 -217t-200 -74z" />
    <glyph glyph-name="fiveeighths" unicode="&#x215d;" horiz-adv-x="1495" 
d="M33 756v39l223 4v-64q0 -38 9 -53.5t30 -15.5t30 15.5t9 53.5v135q0 51 -7 69.5t-26 18.5q-26 0 -29 -38h-209v514h461v-195h-237v-104q35 18 67 18q96 0 149.5 -71t53.5 -240v-86q0 -136 -68.5 -210.5t-193.5 -74.5t-193.5 74.5t-68.5 210.5zM1065 1434l-434 -1434h-201
l434 1434h201zM1184 602q43 0 43 66v51q0 65 -43 65t-43 -65v-51q0 -66 43 -66zM1184 174q27 0 40 21t13 69v74q0 48 -13 69t-40 21q-54 0 -54 -90v-74q0 -90 54 -90zM1184 -12q-130 0 -200.5 74t-70.5 217v45q0 67 27 121t74 79q-34 20 -54 63t-20 95v37q0 114 65 181
t179 67q113 0 178 -66.5t65 -181.5v-37q0 -53 -19.5 -95.5t-53.5 -62.5q47 -24 73.5 -78.5t26.5 -121.5v-45q0 -143 -70 -217t-200 -74z" />
    <glyph glyph-name="seveneighths" unicode="&#x215e;" horiz-adv-x="1495" 
d="M1184 602q43 0 43 66v51q0 65 -43 65t-43 -65v-51q0 -66 43 -66zM1184 174q27 0 40 21t13 69v74q0 48 -13 69t-40 21q-54 0 -54 -90v-74q0 -90 54 -90zM1184 -12q-130 0 -200.5 74t-70.5 217v45q0 67 27 121t74 79q-34 20 -54 63t-20 95v37q0 114 65 181t179 67
q113 0 178 -66.5t65 -181.5v-37q0 -53 -19.5 -95.5t-53.5 -62.5q47 -24 73.5 -78.5t26.5 -121.5v-45q0 -143 -70 -217t-200 -74zM41 1239v195h508v-160l-215 -787h-228l203 752h-268zM1065 1434l-434 -1434h-201l434 1434h201z" />
    <glyph glyph-name="uni215F" unicode="&#x215f;" horiz-adv-x="1495" 
d="M543 485h-475v195h127v532l-127 -53v189l180 86h170v-754h125v-195zM1065 1434l-434 -1434h-201l434 1434h201z" />
    <glyph glyph-name="arrowleft" unicode="&#x2190;" horiz-adv-x="1318" 
d="M1284 815v-274h-842v-234l-407 371l407 371v-234h842z" />
    <glyph glyph-name="arrowup" unicode="&#x2191;" horiz-adv-x="1318" 
d="M797 -78h-275v1206h-233l370 408l371 -408h-233v-1206z" />
    <glyph glyph-name="arrowright" unicode="&#x2192;" horiz-adv-x="1318" 
d="M35 541v274h842v234l407 -371l-407 -371v234h-842z" />
    <glyph glyph-name="arrowdown" unicode="&#x2193;" horiz-adv-x="1318" 
d="M522 1536h275v-1206h233l-371 -408l-370 408h233v1206z" />
    <glyph glyph-name="arrowboth" unicode="&#x2194;" horiz-adv-x="1318" 
d="M442 1049v-234h435v234l407 -371l-407 -371v234h-435v-234l-407 371z" />
    <glyph glyph-name="arrowupdn" unicode="&#x2195;" horiz-adv-x="1318" 
d="M797 330h233l-371 -408l-370 408h233v798h-233l370 408l371 -408h-233v-798z" />
    <glyph glyph-name="arrowupdnbse" unicode="&#x21a8;" horiz-adv-x="1318" 
d="M797 330h233l-289 -318h289v-192h-741v192h289l-289 318h233v798h-233l370 408l371 -408h-233v-798z" />
    <glyph glyph-name="partialdiff" unicode="&#x2202;" horiz-adv-x="964" 
d="M485 690q-57 0 -80.5 -33.5t-23.5 -119.5v-140q0 -83 23 -115t71 -32t71 32t23 115v267q-33 26 -84 26zM494 1458q184 0 287.5 -101t103.5 -278v-684q0 -206 -112.5 -313t-297.5 -107t-297 107t-112 313v144q0 196 100.5 297.5t277.5 101.5q72 0 123 -23v150q0 65 -17 92
t-56 27t-56.5 -27t-17.5 -92v-51l-318 10v55q0 177 104 278t288 101z" />
    <glyph glyph-name="Delta" unicode="&#x2206;" horiz-adv-x="989" 
d="M1004 0h-1016l430 1434h155zM373 289h245l-122 504z" />
    <glyph glyph-name="product" unicode="&#x220f;" horiz-adv-x="1003" 
d="M598 -229v1468h-197v-1468h-315v1742h832v-1742h-320z" />
    <glyph glyph-name="summation" unicode="&#x2211;" horiz-adv-x="798" 
d="M43 16l215 650l-215 600v250h727v-275h-412l177 -530v-88l-175 -576h410v-274h-727v243z" />
    <glyph glyph-name="minus" unicode="&#x2212;" horiz-adv-x="888" 
d="M57 543v237h774v-237h-774z" />
    <glyph glyph-name="uni2215" unicode="&#x2215;" horiz-adv-x="266" 
d="M451 1434l-435 -1434h-200l434 1434h201z" />
    <glyph glyph-name="uni2219" unicode="&#x2219;" horiz-adv-x="430" 
d="M61 506v317h308v-317h-308z" />
    <glyph glyph-name="radical" unicode="&#x221a;" horiz-adv-x="870" 
d="M567 0h-213l-241 573h-113v201h272l138 -340l215 1143h245z" />
    <glyph glyph-name="infinity" unicode="&#x221e;" horiz-adv-x="1163" 
d="M1112 668q0 -119 -72.5 -188.5t-193.5 -69.5q-152 0 -264 131q-112 -131 -265 -131q-121 0 -193.5 69.5t-72.5 188.5t72.5 188.5t193.5 69.5q153 0 265 -131q112 131 264 131q121 0 193.5 -69.5t72.5 -188.5zM684 668q42 -44 74.5 -65t66.5 -21q35 0 59.5 24.5t24.5 61.5
t-24.5 61.5t-59.5 24.5q-34 0 -66.5 -21t-74.5 -65zM479 668q-42 44 -74.5 65t-66.5 21q-35 0 -59.5 -24.5t-24.5 -61.5t24.5 -61.5t59.5 -24.5q34 0 66.5 21t74.5 65z" />
    <glyph glyph-name="orthogonal" unicode="&#x221f;" horiz-adv-x="843" 
d="M829 274v-274h-743v1178h315v-904h428z" />
    <glyph glyph-name="intersection" unicode="&#x2229;" horiz-adv-x="1081" 
d="M541 1014q-86 0 -127 -70.5t-41 -232.5v-711h-287v731q0 251 117.5 392t337.5 141t337 -141t117 -392v-731h-286v711q0 162 -41 232.5t-127 70.5z" />
    <glyph glyph-name="integral" unicode="&#x222b;" horiz-adv-x="663" 
d="M188 -94v1292q0 178 68 258t223 80h170v-250h-90q-48 0 -66 -21.5t-18 -84.5v-1293q0 -178 -68 -258t-223 -80h-170v250h90q48 0 66 22t18 85z" />
    <glyph glyph-name="approxequal" unicode="&#x2248;" horiz-adv-x="888" 
d="M596 682q-42 0 -83 15.5t-67.5 33.5t-57.5 33.5t-56 15.5q-27 0 -40 -20.5t-13 -69.5l-230 8q0 148 61 228t183 80q42 0 83 -15.5t67.5 -34t57.5 -34t56 -15.5q27 0 40 20.5t13 69.5l230 -8q0 -148 -61 -227.5t-183 -79.5zM596 307q-42 0 -83 15.5t-67.5 34t-57.5 34
t-56 15.5q-27 0 -40 -20.5t-13 -70.5l-230 9q0 148 61 227.5t183 79.5q42 0 83 -15.5t67.5 -34t57.5 -34t56 -15.5q27 0 40 20.5t13 70.5l230 -9q0 -148 -61 -227.5t-183 -79.5z" />
    <glyph glyph-name="notequal" unicode="&#x2260;" horiz-adv-x="888" 
d="M57 741v238h441l84 199h151l-84 -199h182v-238h-282l-62 -147h344v-238h-444l-82 -198h-149l82 198h-181v238h281l61 147h-342z" />
    <glyph glyph-name="equivalence" unicode="&#x2261;" horiz-adv-x="888" 
d="M57 932v237h774v-237h-774zM57 547v237h774v-237h-774zM57 162v237h774v-237h-774z" />
    <glyph glyph-name="lessequal" unicode="&#x2264;" horiz-adv-x="888" 
d="M57 0v238h774v-238h-774zM78 821l733 293v-260l-424 -149l424 -150v-260l-733 293v233z" />
    <glyph glyph-name="greaterequal" unicode="&#x2265;" horiz-adv-x="888" 
d="M831 238v-238h-774v238h774zM78 1114l733 -293v-233l-733 -293v260l424 150l-424 149v260z" />
    <glyph glyph-name="house" unicode="&#x2302;" horiz-adv-x="960" 
d="M883 0h-805v668l401 600l404 -600v-668zM332 242h297v348l-150 227l-147 -227v-348z" />
    <glyph glyph-name="revlogicalnot" unicode="&#x2310;" horiz-adv-x="888" 
d="M821 780v-237h-454v-273h-279v510h733z" />
    <glyph glyph-name="uni2318" unicode="&#x2318;" horiz-adv-x="1398" 
d="M377 963h59v153q0 80 -59 80q-60 0 -60 -80v-74q0 -79 60 -79zM772 565v226h-145v-226h145zM963 963h59q59 0 59 79v74q0 80 -59 80t-59 -80v-153zM436 393h-59q-60 0 -60 -80v-73q0 -80 60 -80q59 0 59 80v153zM1022 393h-59v-153q0 -80 59 -80t59 80v73q0 80 -59 80z
M963 791v-226h59q250 0 250 -258v-59q0 -260 -250 -260q-128 0 -189 72.5t-61 228.5v104h-145v-104q0 -156 -61 -228.5t-189 -72.5q-250 0 -250 260v59q0 258 250 258h59v226h-59q-250 0 -250 258v59q0 260 250 260q128 0 189 -72.5t61 -228.5v-104h145v104q0 156 61 228.5
t189 72.5q250 0 250 -260v-59q0 -258 -250 -258h-59z" />
    <glyph glyph-name="lozenge" unicode="&#x25ca;" horiz-adv-x="921" 
d="M293 614l168 -385l168 385l-168 385zM879 614l-418 -952l-418 952l418 953z" />
    <glyph glyph-name="H18533" unicode="&#x25cf;" horiz-adv-x="2048" 
d="M332 668q0 187 93 346.5t252.5 252.5t346.5 93t346.5 -93t252.5 -252.5t93 -346.5t-93 -347t-252.5 -253t-346.5 -93t-346.5 93t-252.5 253t-93 347z" />
    <glyph glyph-name="fi" horiz-adv-x="1007" 
d="M639 0v774h-225v-774h-287v774h-102v250h102v96q0 178 68 258t223 80h170v-250h-90q-48 0 -66 -21.5t-18 -84.5v-78h512v-1024h-287zM639 1163v295h287v-295h-287z" />
    <glyph glyph-name="fl" horiz-adv-x="1079" 
d="M1010 250h63v-250h-143q-155 0 -223 80t-68 258v842q-65 28 -121 28q-57 0 -80.5 -27.5t-23.5 -93.5v-63h174v-250h-174v-774h-287v774h-102v250h100v66q0 189 77.5 278.5t241.5 89.5q94 0 195 -43v43h287v-1102q0 -63 18 -84.5t66 -21.5z" />
    <glyph glyph-name="commaaccent" horiz-adv-x="614" 
d="M459 -100l-127 -330h-178l71 330h234z" />
    <glyph glyph-name="zero.tnum" horiz-adv-x="860" 
d="M811 1038v-643q0 -201 -99 -310.5t-282 -109.5t-282 110.5t-99 315.5v631q0 205 99 315.5t282 110.5t282 -109.5t99 -310.5zM508 422v590q0 113 -17 151.5t-61 38.5t-61 -38.5t-17 -151.5v-590q0 -113 17 -152t61 -39t61 39t17 152z" />
    <glyph glyph-name="one.tnum" horiz-adv-x="765" 
d="M766 0h-688v256h194v825l-194 -96v291l262 158h233v-1178h193v-256z" />
    <glyph glyph-name="two.tnum" horiz-adv-x="841" 
d="M422 1202q-37 0 -52.5 -33t-15.5 -114v-105l-303 11v81q0 208 94 312t277 104t277 -104t94 -312v-41q0 -89 -24.5 -164.5t-74.5 -158.5l-258 -422h357v-256h-744v188l387 635q53 83 53 181v51q0 81 -15 114t-52 33z" />
    <glyph glyph-name="three.tnum" horiz-adv-x="835" 
d="M340 479v-57q0 -113 17 -152t61 -39t61 39t17 152v94q0 95 -21 132.5t-63 37.5q-48 0 -88 -35l-152 140l252 387h-348v256h686v-224l-209 -307q118 -9 182 -109.5t64 -252.5v-146q0 -201 -99 -310.5t-282 -109.5t-282 110.5t-99 315.5v68z" />
    <glyph glyph-name="four.tnum" horiz-adv-x="860" 
d="M266 518h164v404zM838 518v-256h-115v-262h-293v262h-410v221l404 951h299v-916h115z" />
    <glyph glyph-name="five.tnum" horiz-adv-x="856" 
d="M508 422v123q0 85 -6.5 126.5t-20.5 56.5t-43 15q-24 0 -38 -20t-17 -53h-291v764h666v-256h-363v-232q53 53 133 53q66 0 115.5 -22t88.5 -73.5t59 -144t20 -224.5v-140q0 -201 -99 -310.5t-282 -109.5t-282 110.5t-99 315.5v80l303 11v-70q0 -113 17 -152t61 -39t61 39
t17 152z" />
    <glyph glyph-name="six.tnum" horiz-adv-x="851" 
d="M109 819l206 615h316l-185 -521q20 5 39 5q143 0 234.5 -108.5t91.5 -309.5v-107q0 -109 -28.5 -191t-81 -130.5t-120 -72.5t-151.5 -24t-151.5 24t-120 73.5t-81 132.5t-28.5 194v95q0 154 60 325zM352 494v-95q0 -96 16.5 -132t61.5 -36t61.5 36t16.5 132v95
q0 96 -16.5 132t-61.5 36t-61.5 -36t-16.5 -132z" />
    <glyph glyph-name="seven.tnum" horiz-adv-x="792" 
d="M25 1178v256h739v-217l-330 -1217h-305l317 1178h-421z" />
    <glyph glyph-name="eight.tnum" horiz-adv-x="847" 
d="M424 1458q163 0 258.5 -91.5t95.5 -268.5v-66q0 -83 -33 -152t-83 -94q69 -32 110 -115t41 -192v-69q0 -435 -389 -435t-389 435v69q0 109 41 192t110 115q-50 25 -83 94t-33 152v66q0 177 95.5 268.5t258.5 91.5zM424 895q42 0 61 29.5t19 95.5v67q0 66 -19 95.5
t-61 29.5t-61 -29.5t-19 -95.5v-67q0 -66 19 -95.5t61 -29.5zM424 231q52 0 77 41.5t25 145.5v51q0 104 -25 145t-77 41t-77 -41t-25 -145v-51q0 -104 25 -145.5t77 -41.5z" />
    <glyph glyph-name="nine.tnum" horiz-adv-x="851" 
d="M743 614l-206 -614h-316l185 520q-16 -4 -39 -4q-143 0 -234.5 108.5t-91.5 309.5v106q0 109 28.5 191t81 130.5t120 72.5t151.5 24t151.5 -24t120 -73.5t81 -132.5t28.5 -194v-94q0 -155 -60 -326zM500 940v94q0 96 -16.5 132t-61.5 36t-61.5 -36t-16.5 -132v-94
q0 -96 16.5 -132t61.5 -36t61.5 36t16.5 132z" />
    <glyph glyph-name="parenleft.case" horiz-adv-x="555" 
d="M348 1024v-612q0 -250 166 -330l-92 -293q-369 148 -369 582v694q0 434 369 582l92 -293q-166 -80 -166 -330z" />
    <glyph glyph-name="parenright.case" horiz-adv-x="555" 
d="M207 412v612q0 250 -166 330l92 293q369 -148 369 -582v-694q0 -434 -369 -582l-92 293q166 80 166 330z" />
    <glyph glyph-name="hyphen.case" horiz-adv-x="671" 
d="M57 598v238h557v-238h-557z" />
    <glyph glyph-name="at.case" horiz-adv-x="1175" 
d="M866 598v254q-31 63 -100 63q-54 0 -82.5 -39t-28.5 -131v-147q0 -170 107 -170q104 0 104 170zM309 1075v-719q0 -331 279 -331q100 0 198 53l86 -193q-128 -92 -284 -92q-234 0 -371 139t-137 402v764q0 263 137 401.5t371 138.5t371 -138.5t137 -401.5v-502
q0 -191 -86 -295t-260 -104q-160 0 -251 103.5t-91 307.5v137q0 402 299 402q94 0 159 -78q0 338 -278 338q-279 0 -279 -332z" />
    <glyph glyph-name="bracketleft.case" horiz-adv-x="559" 
d="M88 -180v1794h447v-271h-152v-1253h152v-270h-447z" />
    <glyph glyph-name="bracketright.case" horiz-adv-x="559" 
d="M471 1614v-1794h-446v270h151v1253h-151v271h446z" />
    <glyph glyph-name="braceleft.case" horiz-adv-x="555" 
d="M33 588v258h14q100 0 100 86v373q0 163 66.5 236t218.5 73h123v-260h-45q-37 0 -52.5 -19.5t-15.5 -66.5v-355q0 -161 -163 -196q163 -35 163 -197v-354q0 -47 15.5 -66.5t52.5 -19.5h45v-260h-123q-152 0 -218.5 73t-66.5 236v373q0 86 -100 86h-14z" />
    <glyph glyph-name="braceright.case" horiz-adv-x="555" 
d="M522 846v-258h-14q-100 0 -100 -86v-373q0 -163 -66.5 -236t-218.5 -73h-123v260h45q37 0 52.5 19.5t15.5 66.5v354q0 162 163 197q-163 35 -163 196v355q0 47 -15.5 66.5t-52.5 19.5h-45v260h123q152 0 218.5 -73t66.5 -236v-373q0 -86 100 -86h14z" />
    <glyph glyph-name="exclamdown.case" horiz-adv-x="557" 
d="M123 225l39 733h233l39 -733v-225h-311v225zM135 1139v295h287v-295h-287z" />
    <glyph glyph-name="guillemotleft.case" horiz-adv-x="937" 
d="M43 788l342 281v-240l-143 -112l143 -113v-239l-342 280v143zM410 788l342 281v-240l-146 -112l146 -113v-239l-342 280v143z" />
    <glyph glyph-name="periodcentered.case" horiz-adv-x="430" 
d="M61 557v317h308v-317h-308z" />
    <glyph glyph-name="guillemotright.case" horiz-adv-x="937" 
d="M410 1069l342 -281v-143l-342 -280v239l143 113l-143 112v240zM43 1069l342 -281v-143l-342 -280v239l145 113l-145 112v240z" />
    <glyph glyph-name="questiondown.case" horiz-adv-x="835" 
d="M557 1436v-295h-287v295h287zM786 424v-51q0 -184 -94.5 -290t-269.5 -106t-270 106.5t-95 289.5v51q0 206 146 352q41 41 54 78t13 102v66h287v-86q0 -127 -27.5 -197.5t-115.5 -156.5q-70 -67 -70 -154v-45q0 -109 78 -109t78 109v51z" />
    <glyph glyph-name="endash.case" horiz-adv-x="768" 
d="M768 592h-768v250h768v-250z" />
    <glyph glyph-name="emdash.case" horiz-adv-x="1536" 
d="M1536 594h-1536v250h1536v-250z" />
    <glyph glyph-name="bullet.case" horiz-adv-x="638" 
d="M57 719q0 109 76.5 185.5t185.5 76.5t186 -76.5t77 -185.5t-77 -185.5t-186 -76.5t-185.5 76.5t-76.5 185.5z" />
    <glyph glyph-name="guilsinglleft.case" horiz-adv-x="507" 
d="M43 788l342 281v-240l-143 -112l143 -113v-239l-342 280v143z" />
    <glyph glyph-name="guilsinglright.case" horiz-adv-x="507" 
d="M43 1069l342 -281v-143l-342 -280v239l143 113l-143 112v240z" />
    <glyph glyph-name="zero.numerator" 
d="M295 664q21 0 30 15.5t9 53.5v453q0 38 -9 53.5t-30 15.5t-30 -15.5t-9 -53.5v-453q0 -38 9 -53.5t30 -15.5zM295 469q-125 0 -193.5 74.5t-68.5 210.5v411q0 136 68.5 210.5t193.5 74.5t193.5 -74.5t68.5 -210.5v-411q0 -136 -68.5 -210.5t-193.5 -74.5z" />
    <glyph glyph-name="one.numerator" 
d="M543 485h-475v195h127v532l-127 -53v189l180 86h170v-754h125v-195z" />
    <glyph glyph-name="two.numerator" 
d="M547 1171v-26q0 -125 -60 -217l-157 -248h221v-195h-508v144l248 405q33 51 33 111v35q0 32 -6.5 43.5t-24.5 11.5t-24.5 -11.5t-6.5 -43.5v-70l-223 4v57q0 136 64 207.5t192 71.5q252 0 252 -279z" />
    <glyph glyph-name="three.numerator" 
d="M551 846v-92q0 -136 -68.5 -210.5t-193.5 -74.5t-193.5 74.5t-68.5 210.5v59h223v-80q0 -38 9 -53.5t30 -15.5t30 15.5t9 53.5v133q0 64 -49 64q-27 0 -56 -29l-108 105l157 231h-217v197h471v-168l-127 -179q72 -13 112 -79.5t40 -161.5z" />
    <glyph glyph-name="four.numerator" 
d="M190 846h97v217zM571 846v-195h-73v-166h-211v166h-271v164l271 619h211v-588h73z" />
    <glyph glyph-name="five.numerator" 
d="M33 756v39l223 4v-64q0 -38 9 -53.5t30 -15.5t30 15.5t9 53.5v135q0 51 -7 69.5t-26 18.5q-26 0 -29 -38h-209v514h461v-195h-237v-104q35 18 67 18q96 0 149.5 -71t53.5 -240v-86q0 -136 -68.5 -210.5t-193.5 -74.5t-193.5 74.5t-68.5 210.5z" />
    <glyph glyph-name="six.numerator" 
d="M72 1030l137 404h235l-120 -332h8q98 0 160.5 -73.5t62.5 -209.5v-69q0 -139 -72 -210t-188 -71q-118 0 -189 71.5t-71 213.5v61q0 44 10.5 107t26.5 108zM258 848v-125q0 -32 8 -45.5t29 -13.5t29 13.5t8 45.5v125q0 32 -8 45.5t-29 13.5t-29 -13.5t-8 -45.5z" />
    <glyph glyph-name="seven.numerator" 
d="M41 1239v195h508v-160l-215 -787h-228l203 752h-268z" />
    <glyph glyph-name="eight.numerator" 
d="M295 1087q43 0 43 66v51q0 66 -43 66t-43 -66v-51q0 -66 43 -66zM295 659q53 0 53 91v73q0 48 -13 69t-40 21t-40 -21t-13 -69v-73q0 -91 53 -91zM295 473q-130 0 -200 74t-70 217v45q0 67 26.5 122t73.5 79q-34 20 -54 62.5t-20 94.5v37q0 114 65 181t179 67t179 -67
t65 -181v-37q0 -52 -20 -94.5t-54 -62.5q47 -24 73.5 -79t26.5 -122v-45q0 -143 -70 -217t-200 -74z" />
    <glyph glyph-name="nine.numerator" 
d="M518 889l-137 -404h-236l121 332h-8q-98 0 -160.5 73.5t-62.5 209.5v69q0 139 72 210t188 71q118 0 189 -71.5t71 -213.5v-61q0 -44 -10.5 -107t-26.5 -108zM332 1071v125q0 32 -8 45.5t-29 13.5t-29 -13.5t-8 -45.5v-125q0 -32 8 -45.5t29 -13.5t29 13.5t8 45.5z" />
    <glyph glyph-name="zero.denominator" 
d="M295 178q21 0 30 16t9 54v452q0 38 -9 54t-30 16t-30 -16t-9 -54v-452q0 -38 9 -54t30 -16zM295 -16q-125 0 -193.5 74t-68.5 210v412q0 136 68.5 210.5t193.5 74.5t193.5 -74.5t68.5 -210.5v-412q0 -136 -68.5 -210t-193.5 -74z" />
    <glyph glyph-name="one.denominator" 
d="M543 0h-475v195h127v532l-127 -53v188l180 86h170v-753h125v-195z" />
    <glyph glyph-name="two.denominator" 
d="M547 686v-27q0 -125 -60 -217l-157 -247h221v-195h-508v143l248 406q33 51 33 110v35q0 32 -7 44t-24 12t-24 -12t-7 -44v-69l-223 4v57q0 136 64 207.5t192 71.5q252 0 252 -279z" />
    <glyph glyph-name="three.denominator" 
d="M551 360v-92q0 -136 -68.5 -210t-193.5 -74t-193.5 74t-68.5 210v60h223v-80q0 -38 9 -54t30 -16t30 16t9 54v133q0 63 -49 63q-28 0 -56 -28l-108 104l157 232h-217v196h471v-168l-127 -178q72 -13 112 -80t40 -162z" />
    <glyph glyph-name="four.denominator" 
d="M190 360h97v218zM571 360v-194h-73v-166h-211v166h-271v164l271 618h211v-588h73z" />
    <glyph glyph-name="five.denominator" 
d="M33 270v39l223 4v-63q0 -38 9 -54t30 -16t30 16t9 54v135q0 51 -7 69.5t-26 18.5q-26 0 -29 -39h-209v514h461v-194h-237v-105q36 19 67 19q96 0 149.5 -71.5t53.5 -240.5v-86q0 -136 -68.5 -210t-193.5 -74t-193.5 74t-68.5 210z" />
    <glyph glyph-name="six.denominator" 
d="M72 545l137 403h235l-120 -332h8q98 0 160.5 -73t62.5 -209v-70q0 -139 -72 -209.5t-188 -70.5q-118 0 -189 71t-71 213v62q0 44 10.5 107t26.5 108zM258 362v-124q0 -32 8 -46t29 -14t29 14t8 46v124q0 32 -8 46t-29 14t-29 -14t-8 -46z" />
    <glyph glyph-name="seven.denominator" 
d="M41 754v194h508v-160l-215 -786h-228l203 752h-268z" />
    <glyph glyph-name="eight.denominator" 
d="M295 602q43 0 43 66v51q0 65 -43 65t-43 -65v-51q0 -66 43 -66zM295 174q27 0 40 21t13 69v74q0 48 -13 69t-40 21t-40 -21t-13 -69v-74q0 -48 13 -69t40 -21zM295 -12q-130 0 -200 74t-70 217v45q0 67 26.5 121.5t73.5 78.5q-34 20 -54 63t-20 95v37q0 114 65 181
t179 67t179 -67t65 -181v-37q0 -52 -20 -95t-54 -63q47 -24 73.5 -78.5t26.5 -121.5v-45q0 -143 -70 -217t-200 -74z" />
    <glyph glyph-name="nine.denominator" 
d="M518 403l-137 -403h-236l121 332h-8q-98 0 -160.5 73t-62.5 209v70q0 139 72 210t188 71q118 0 189 -71.5t71 -213.5v-62q0 -44 -10.5 -107t-26.5 -108zM332 586v125q0 32 -8 45.5t-29 13.5t-29 -13.5t-8 -45.5v-125q0 -32 8 -46t29 -14t29 14t8 46z" />
    </font>
</defs>
</svg>
